  0
SECTION
  2
HEADER
  9
$ACADVER
  1
AC1024
  9
$ACADMAINTVER
 70
6
  9
$DWGCODEPAGE
  3
ANSI_1252
  9
$LASTSAVEDBY
  1
ezdxf
  9
$INSBASE
 10
0.0
 20
0.0
 30
0.0
  9
$EXTMIN
 10
1e+20
 20
1e+20
 30
1e+20
  9
$EXTMAX
 10
-1e+20
 20
-1e+20
 30
-1e+20
  9
$LIMMIN
 10
0.0
 20
0.0
  9
$LIMMAX
 10
420.0
 20
297.0
  9
$ORTHOMODE
 70
0
  9
$REGENMODE
 70
1
  9
$FILLMODE
 70
1
  9
$QTEXTMODE
 70
0
  9
$MIRRTEXT
 70
1
  9
$LTSCALE
 40
1.0
  9
$ATTMODE
 70
1
  9
$TEXTSIZE
 40
2.5
  9
$TRACEWID
 40
1.0
  9
$TEXTSTYLE
  7
Standard
  9
$CLAYER
  8
0
  9
$CELTYPE
  6
ByLayer
  9
$CECOLOR
 62
256
  9
$CELTSCALE
 40
1.0
  9
$DISPSILH
 70
0
  9
$DIMSCALE
 40
1.0
  9
$DIMASZ
 40
2.5
  9
$DIMEXO
 40
0.625
  9
$DIMDLI
 40
3.75
  9
$DIMRND
 40
0.0
  9
$DIMDLE
 40
0.0
  9
$DIMEXE
 40
1.25
  9
$DIMTP
 40
0.0
  9
$DIMTM
 40
0.0
  9
$DIMTXT
 40
2.5
  9
$DIMCEN
 40
2.5
  9
$DIMTSZ
 40
0.0
  9
$DIMTOL
 70
0
  9
$DIMLIM
 70
0
  9
$DIMTIH
 70
0
  9
$DIMTOH
 70
0
  9
$DIMSE1
 70
0
  9
$DIMSE2
 70
0
  9
$DIMTAD
 70
1
  9
$DIMZIN
 70
8
  9
$DIMBLK
  1

  9
$DIMASO
 70
1
  9
$DIMSHO
 70
1
  9
$DIMPOST
  1

  9
$DIMAPOST
  1

  9
$DIMALT
 70
0
  9
$DIMALTD
 70
3
  9
$DIMALTF
 40
0.03937007874
  9
$DIMLFAC
 40
1.0
  9
$DIMTOFL
 70
1
  9
$DIMTVP
 40
0.0
  9
$DIMTIX
 70
0
  9
$DIMSOXD
 70
0
  9
$DIMSAH
 70
0
  9
$DIMBLK1
  1

  9
$DIMBLK2
  1

  9
$DIMSTYLE
  2
ISO-25
  9
$DIMCLRD
 70
0
  9
$DIMCLRE
 70
0
  9
$DIMCLRT
 70
0
  9
$DIMTFAC
 40
1.0
  9
$DIMGAP
 40
0.625
  9
$DIMJUST
 70
0
  9
$DIMSD1
 70
0
  9
$DIMSD2
 70
0
  9
$DIMTOLJ
 70
0
  9
$DIMTZIN
 70
8
  9
$DIMALTZ
 70
0
  9
$DIMALTTZ
 70
0
  9
$DIMUPT
 70
0
  9
$DIMDEC
 70
2
  9
$DIMTDEC
 70
2
  9
$DIMALTU
 70
2
  9
$DIMALTTD
 70
3
  9
$DIMTXSTY
  7
Standard
  9
$DIMAUNIT
 70
0
  9
$DIMADEC
 70
0
  9
$DIMALTRND
 40
0.0
  9
$DIMAZIN
 70
0
  9
$DIMDSEP
 70
44
  9
$DIMATFIT
 70
3
  9
$DIMFRAC
 70
0
  9
$DIMLDRBLK
  1

  9
$DIMLUNIT
 70
2
  9
$DIMLWD
 70
-2
  9
$DIMLWE
 70
-2
  9
$DIMTMOVE
 70
0
  9
$DIMFXL
 40
1.0
  9
$DIMFXLON
 70
0
  9
$DIMJOGANG
 40
0.785398163397
  9
$DIMTFILL
 70
0
  9
$DIMTFILLCLR
 70
0
  9
$DIMARCSYM
 70
0
  9
$DIMLTYPE
  6

  9
$DIMLTEX1
  6

  9
$DIMLTEX2
  6

  9
$DIMTXTDIRECTION
 70
0
  9
$LUNITS
 70
2
  9
$LUPREC
 70
4
  9
$SKETCHINC
 40
1.0
  9
$FILLETRAD
 40
10.0
  9
$AUNITS
 70
0
  9
$AUPREC
 70
2
  9
$MENU
  1
.
  9
$ELEVATION
 40
0.0
  9
$PELEVATION
 40
0.0
  9
$THICKNESS
 40
0.0
  9
$LIMCHECK
 70
0
  9
$CHAMFERA
 40
0.0
  9
$CHAMFERB
 40
0.0
  9
$CHAMFERC
 40
0.0
  9
$CHAMFERD
 40
0.0
  9
$SKPOLY
 70
0
  9
$TDCREATE
 40
2459675.0416203705
  9
$TDUCREATE
 40
2458532.153996898
  9
$TDUPDATE
 40
2459675.0416203705
  9
$TDUUPDATE
 40
2458532.1544311
  9
$TDINDWG
 40
0.0
  9
$TDUSRTIMER
 40
0.0
  9
$USRTIMER
 70
1
  9
$ANGBASE
 50
0.0
  9
$ANGDIR
 70
0
  9
$PDMODE
 70
0
  9
$PDSIZE
 40
0.0
  9
$PLINEWID
 40
0.0
  9
$SPLFRAME
 70
0
  9
$SPLINETYPE
 70
6
  9
$SPLINESEGS
 70
8
  9
$HANDSEED
  5
42
  9
$SURFTAB1
 70
6
  9
$SURFTAB2
 70
6
  9
$SURFTYPE
 70
6
  9
$SURFU
 70
6
  9
$SURFV
 70
6
  9
$UCSBASE
  2

  9
$UCSNAME
  2

  9
$UCSORG
 10
0.0
 20
0.0
 30
0.0
  9
$UCSXDIR
 10
1.0
 20
0.0
 30
0.0
  9
$UCSYDIR
 10
0.0
 20
1.0
 30
0.0
  9
$UCSORTHOREF
  2

  9
$UCSORTHOVIEW
 70
0
  9
$UCSORGTOP
 10
0.0
 20
0.0
 30
0.0
  9
$UCSORGBOTTOM
 10
0.0
 20
0.0
 30
0.0
  9
$UCSORGLEFT
 10
0.0
 20
0.0
 30
0.0
  9
$UCSORGRIGHT
 10
0.0
 20
0.0
 30
0.0
  9
$UCSORGFRONT
 10
0.0
 20
0.0
 30
0.0
  9
$UCSORGBACK
 10
0.0
 20
0.0
 30
0.0
  9
$PUCSBASE
  2

  9
$PUCSNAME
  2

  9
$PUCSORG
 10
0.0
 20
0.0
 30
0.0
  9
$PUCSXDIR
 10
1.0
 20
0.0
 30
0.0
  9
$PUCSYDIR
 10
0.0
 20
1.0
 30
0.0
  9
$PUCSORTHOREF
  2

  9
$PUCSORTHOVIEW
 70
0
  9
$PUCSORGTOP
 10
0.0
 20
0.0
 30
0.0
  9
$PUCSORGBOTTOM
 10
0.0
 20
0.0
 30
0.0
  9
$PUCSORGLEFT
 10
0.0
 20
0.0
 30
0.0
  9
$PUCSORGRIGHT
 10
0.0
 20
0.0
 30
0.0
  9
$PUCSORGFRONT
 10
0.0
 20
0.0
 30
0.0
  9
$PUCSORGBACK
 10
0.0
 20
0.0
 30
0.0
  9
$USERI1
 70
0
  9
$USERI2
 70
0
  9
$USERI3
 70
0
  9
$USERI4
 70
0
  9
$USERI5
 70
0
  9
$USERR1
 40
0.0
  9
$USERR2
 40
0.0
  9
$USERR3
 40
0.0
  9
$USERR4
 40
0.0
  9
$USERR5
 40
0.0
  9
$WORLDVIEW
 70
1
  9
$SHADEDGE
 70
3
  9
$SHADEDIF
 70
70
  9
$TILEMODE
 70
1
  9
$MAXACTVP
 70
64
  9
$PINSBASE
 10
0.0
 20
0.0
 30
0.0
  9
$PLIMCHECK
 70
0
  9
$PEXTMIN
 10
1e+20
 20
1e+20
 30
1e+20
  9
$PEXTMAX
 10
-1e+20
 20
-1e+20
 30
-1e+20
  9
$PLIMMIN
 10
0.0
 20
0.0
  9
$PLIMMAX
 10
420.0
 20
297.0
  9
$UNITMODE
 70
0
  9
$VISRETAIN
 70
1
  9
$PLINEGEN
 70
0
  9
$PSLTSCALE
 70
1
  9
$TREEDEPTH
 70
3020
  9
$CMLSTYLE
  2
Standard
  9
$CMLJUST
 70
0
  9
$CMLSCALE
 40
20.0
  9
$PROXYGRAPHICS
 70
1
  9
$MEASUREMENT
 70
1
  9
$CELWEIGHT
370
-1
  9
$ENDCAPS
280
0
  9
$JOINSTYLE
280
0
  9
$LWDISPLAY
290
0
  9
$INSUNITS
 70
6
  9
$HYPERLINKBASE
  1

  9
$STYLESHEET
  1

  9
$XEDIT
290
1
  9
$CEPSNTYPE
380
0
  9
$PSTYLEMODE
290
1
  9
$FINGERPRINTGUID
  2
{01F3B5D8-8D96-4B30-845A-5CEBF0F7CF22}
  9
$VERSIONGUID
  2
{CB5BA9EA-03A3-4959-B14C-DA36CB07753A}
  9
$EXTNAMES
290
1
  9
$PSVPSCALE
 40
0.0
  9
$OLESTARTUP
290
0
  9
$SORTENTS
280
127
  9
$INDEXCTL
280
0
  9
$HIDETEXT
280
1
  9
$XCLIPFRAME
280
0
  9
$HALOGAP
280
0
  9
$OBSCOLOR
 70
257
  9
$OBSLTYPE
280
0
  9
$INTERSECTIONDISPLAY
280
0
  9
$INTERSECTIONCOLOR
 70
257
  9
$DIMASSOC
280
2
  9
$PROJECTNAME
  1

  9
$CAMERADISPLAY
290
0
  9
$LENSLENGTH
 40
50.0
  9
$CAMERAHEIGHT
 40
0.0
  9
$STEPSPERSEC
 40
24.0
  9
$STEPSIZE
 40
100.0
  9
$3DDWFPREC
 40
2.0
  9
$PSOLWIDTH
 40
0.005
  9
$PSOLHEIGHT
 40
0.08
  9
$LOFTANG1
 40
1.570796326795
  9
$LOFTANG2
 40
1.570796326795
  9
$LOFTMAG1
 40
0.0
  9
$LOFTMAG2
 40
0.0
  9
$LOFTPARAM
 70
7
  9
$LOFTNORMALS
280
1
  9
$LATITUDE
 40
37.795
  9
$LONGITUDE
 40
-122.394
  9
$NORTHDIRECTION
 40
0.0
  9
$TIMEZONE
 70
-8000
  9
$LIGHTGLYPHDISPLAY
280
1
  9
$TILEMODELIGHTSYNCH
280
1
  9
$CMATERIAL
347
20
  9
$SOLIDHIST
280
0
  9
$SHOWHIST
280
1
  9
$DWFFRAME
280
2
  9
$DGNFRAME
280
2
  9
$REALWORLDSCALE
290
1
  9
$INTERFERECOLOR
 62
256
  9
$CSHADOW
280
0
  9
$SHADOWPLANELOCATION
 40
0.0
  0
ENDSEC
  0
SECTION
  2
CLASSES
  0
CLASS
  1
ACDBDICTIONARYWDFLT
  2
AcDbDictionaryWithDefault
  3
ObjectDBX Classes
 90
0
 91
0
280
0
281
0
  0
CLASS
  1
SUN
  2
AcDbSun
  3
SCENEOE
 90
1153
 91
0
280
0
281
0
  0
CLASS
  1
VISUALSTYLE
  2
AcDbVisualStyle
  3
ObjectDBX Classes
 90
4095
 91
0
280
0
281
0
  0
CLASS
  1
MATERIAL
  2
AcDbMaterial
  3
ObjectDBX Classes
 90
1153
 91
0
280
0
281
0
  0
CLASS
  1
SCALE
  2
AcDbScale
  3
ObjectDBX Classes
 90
1153
 91
0
280
0
281
0
  0
CLASS
  1
TABLESTYLE
  2
AcDbTableStyle
  3
ObjectDBX Classes
 90
4095
 91
0
280
0
281
0
  0
CLASS
  1
MLEADERSTYLE
  2
AcDbMLeaderStyle
  3
ACDB_MLEADERSTYLE_CLASS
 90
4095
 91
0
280
0
281
0
  0
CLASS
  1
DICTIONARYVAR
  2
AcDbDictionaryVar
  3
ObjectDBX Classes
 90
0
 91
0
280
0
281
0
  0
CLASS
  1
CELLSTYLEMAP
  2
AcDbCellStyleMap
  3
ObjectDBX Classes
 90
1152
 91
0
280
0
281
0
  0
CLASS
  1
MENTALRAYRENDERSETTINGS
  2
AcDbMentalRayRenderSettings
  3
SCENEOE
 90
1024
 91
0
280
0
281
0
  0
CLASS
  1
ACDBDETAILVIEWSTYLE
  2
AcDbDetailViewStyle
  3
ObjectDBX Classes
 90
1025
 91
0
280
0
281
0
  0
CLASS
  1
ACDBSECTIONVIEWSTYLE
  2
AcDbSectionViewStyle
  3
ObjectDBX Classes
 90
1025
 91
0
280
0
281
0
  0
CLASS
  1
RASTERVARIABLES
  2
AcDbRasterVariables
  3
ISM
 90
0
 91
0
280
0
281
0
  0
CLASS
  1
LAYOUT
  2
AcDbLayout
  3
ObjectDBX Classes
 90
0
 91
0
280
0
281
0
  0
CLASS
  1
ACDBPLACEHOLDER
  2
AcDbPlaceHolder
  3
ObjectDBX Classes
 90
0
 91
0
280
0
281
0
  0
ENDSEC
  0
SECTION
  2
TABLES
  0
TABLE
  2
VPORT
  5
8
330
0
100
AcDbSymbolTable
 70
1
  0
VPORT
  5
23
330
8
100
AcDbSymbolTableRecord
100
AcDbViewportTableRecord
  2
*Active
 70
0
 10
0.0
 20
0.0
 11
1.0
 21
1.0
 12
0.0
 22
0.0
 13
0.0
 23
0.0
 14
0.5
 24
0.5
 15
0.5
 25
0.5
 16
0.0
 26
0.0
 36
1.0
 17
0.0
 27
0.0
 37
0.0
 40
1000.0
 41
1.34
 42
50.0
 43
0.0
 44
0.0
 50
0.0
 51
0.0
 71
0
 72
1000
 73
1
 74
3
 75
0
 76
0
 77
0
 78
0
281
0
 65
0
146
0.0
  0
ENDTAB
  0
TABLE
  2
LTYPE
  5
2
330
0
100
AcDbSymbolTable
 70
3
  0
LTYPE
  5
24
330
2
100
AcDbSymbolTableRecord
100
AcDbLinetypeTableRecord
  2
ByBlock
 70
0
  3

 72
65
 73
0
 40
0.0
  0
LTYPE
  5
25
330
2
100
AcDbSymbolTableRecord
100
AcDbLinetypeTableRecord
  2
ByLayer
 70
0
  3

 72
65
 73
0
 40
0.0
  0
LTYPE
  5
26
330
2
100
AcDbSymbolTableRecord
100
AcDbLinetypeTableRecord
  2
Continuous
 70
0
  3

 72
65
 73
0
 40
0.0
  0
ENDTAB
  0
TABLE
  2
LAYER
  5
1
330
0
100
AcDbSymbolTable
 70
2
  0
LAYER
  5
27
330
1
100
AcDbSymbolTableRecord
100
AcDbLayerTableRecord
  2
0
 70
0
 62
7
  6
Continuous
370
-3
390
13
347
21
  0
LAYER
  5
28
330
1
100
AcDbSymbolTableRecord
100
AcDbLayerTableRecord
  2
Defpoints
 70
0
 62
7
  6
Continuous
290
0
370
-3
390
13
347
21
  0
ENDTAB
  0
TABLE
  2
STYLE
  5
5
330
0
100
AcDbSymbolTable
 70
1
  0
STYLE
  5
29
330
5
100
AcDbSymbolTableRecord
100
AcDbTextStyleTableRecord
  2
Standard
 70
0
 40
0.0
 41
1.0
 50
0.0
 71
0
 42
2.5
  3
txt
  4

  0
ENDTAB
  0
TABLE
  2
VIEW
  5
7
330
0
100
AcDbSymbolTable
 70
0
  0
ENDTAB
  0
TABLE
  2
UCS
  5
6
330
0
100
AcDbSymbolTable
 70
0
  0
ENDTAB
  0
TABLE
  2
APPID
  5
3
330
0
100
AcDbSymbolTable
 70
3
  0
APPID
  5
2A
330
3
100
AcDbSymbolTableRecord
100
AcDbRegAppTableRecord
  2
ACAD
 70
0
  0
APPID
  5
3F
330
3
100
AcDbSymbolTableRecord
100
AcDbRegAppTableRecord
  2
HATCHBACKGROUNDCOLOR
 70
0
  0
APPID
  5
40
330
3
100
AcDbSymbolTableRecord
100
AcDbRegAppTableRecord
  2
EZDXF
 70
0
  0
ENDTAB
  0
TABLE
  2
DIMSTYLE
  5
4
330
0
100
AcDbSymbolTable
 70
1
100
AcDbDimStyleTable
  0
DIMSTYLE
105
2B
330
4
100
AcDbSymbolTableRecord
100
AcDbDimStyleTableRecord
  2
Standard
 70
0
 40
1.0
 41
2.5
 42
0.625
 43
3.75
 44
1.25
 45
0.0
 46
0.0
 47
0.0
 48
0.0
 49
2.5
140
2.5
141
2.5
142
0.0
143
0.03937007874
144
1.0
145
0.0
146
1.0
147
0.625
148
0.0
 69
0
 70
0
 71
0
 72
0
 73
0
 74
0
 75
0
 76
0
 77
1
 78
8
 79
3
170
0
171
3
172
1
173
0
174
0
175
0
176
0
177
0
178
0
179
2
271
2
272
2
273
2
274
3
275
0
276
0
277
2
278
44
279
0
280
0
281
0
282
0
283
0
284
8
285
0
286
0
288
0
289
3
290
0
371
-2
372
-2
  0
ENDTAB
  0
TABLE
  2
BLOCK_RECORD
  5
9
330
0
100
AcDbSymbolTable
 70
2
  0
BLOCK_RECORD
  5
17
330
9
100
AcDbSymbolTableRecord
100
AcDbBlockTableRecord
  2
*Model_Space
340
1A
 70
0
280
1
281
0
  0
BLOCK_RECORD
  5
1B
330
9
100
AcDbSymbolTableRecord
100
AcDbBlockTableRecord
  2
*Paper_Space
340
1E
 70
0
280
1
281
0
  0
ENDTAB
  0
ENDSEC
  0
SECTION
  2
BLOCKS
  0
BLOCK
  5
18
330
17
100
AcDbEntity
  8
0
100
AcDbBlockBegin
  2
*Model_Space
 70
0
 10
0.0
 20
0.0
 30
0.0
  3
*Model_Space
  1

  0
ENDBLK
  5
19
330
17
100
AcDbEntity
  8
0
100
AcDbBlockEnd
  0
BLOCK
  5
1C
330
1B
100
AcDbEntity
  8
0
100
AcDbBlockBegin
  2
*Paper_Space
 70
0
 10
0.0
 20
0.0
 30
0.0
  3
*Paper_Space
  1

  0
ENDBLK
  5
1D
330
1B
100
AcDbEntity
  8
0
100
AcDbBlockEnd
  0
ENDSEC
  0
SECTION
  2
ENTITIES
  0
LWPOLYLINE
  5
2F
330
17
100
AcDbEntity
  8
0
100
AcDbPolyline
 90
33
 70
0
 10
3.490964500365954
 20
-12.994166215186498
 10
3.603600495259051
 20
-12.42790682982558
 10
3.6080654808512724
 20
-12.417127401053039
 10
3.9288256563559294
 20
-11.937075873959165
 10
3.9370758739591554
 20
-11.92882565635594
 10
4.417127401053006
 20
-11.608065480851304
 10
4.4279068298255515
 20
-11.603600495259078
 10
4.994166215186499
 20
-11.490964500365955
 10
5.005833784813501
 20
-11.490964500365955
 10
5.572093170174458
 20
-11.603600495259078
 10
5.582872598947004
 20
-11.608065480851304
 10
6.062924126040852
 20
-11.928825656355944
 10
6.07117434364407
 20
-11.937075873959163
 10
6.3919345191487364
 20
-12.417127401053037
 10
6.396399504740957
 20
-12.427906829825577
 10
6.509035499634056
 20
-12.9941662151865
 10
6.509035499634056
 20
-13.0058337848135
 10
6.396399504740958
 20
-13.57209317017442
 10
6.391934519148737
 20
-13.58287259894696
 10
6.071174343644082
 20
-14.062924126040832
 10
6.062924126040855
 20
-14.071174343644058
 10
5.582872598946997
 20
-14.3919345191487
 10
5.572093170174467
 20
-14.396399504740918
 10
5.005833784813523
 20
-14.509035499634045
 10
4.994166215186519
 20
-14.509035499634045
 10
4.4279068298255515
 20
-14.39639950474092
 10
4.417127401053006
 20
-14.391934519148695
 10
3.937075873959152
 20
-14.071174343644056
 10
3.9288256563559276
 20
-14.062924126040834
 10
3.6080654808512818
 20
-13.582872598946958
 10
3.6036004952590606
 20
-13.572093170174417
 10
3.490964500365954
 20
-13.005833784813504
 10
3.490964500365954
 20
-12.994166215186498
  0
LWPOLYLINE
  5
30
330
17
100
AcDbEntity
  8
0
100
AcDbPolyline
 90
33
 70
0
 10
183.49096450036595
 20
-12.99416621518623
 10
183.60360049525897
 20
-12.42790682982546
 10
183.60806548085125
 20
-12.41712740105278
 10
183.92882565635574
 20
-11.937075873959047
 10
183.93707587395895
 20
-11.928825656355839
 10
184.41712740105365
 20
-11.608065480851206
 10
184.42790682982618
 20
-11.603600495258986
 10
184.99416621518654
 20
-11.490964500365957
 10
185.00583378481355
 20
-11.490964500365955
 10
185.5720931701748
 20
-11.603600495259077
 10
185.58287259894738
 20
-11.608065480851323
 10
186.06292412604108
 20
-11.928825656356091
 10
186.07117434364434
 20
-11.937075873959348
 10
186.3919345191488
 20
-12.417127401053188
 10
186.39639950474103
 20
-12.427906829825769
 10
186.50903549963405
 20
-12.994166215186631
 10
186.50903549963405
 20
-13.005833784813774
 10
186.39639950474103
 20
-13.572093170174641
 10
186.39193451914875
 20
-13.582872598947322
 10
186.07117434364426
 20
-14.062924126041052
 10
186.06292412604105
 20
-14.071174343644268
 10
185.58287259894638
 20
-14.391934519148897
 10
185.57209317017384
 20
-14.396399504741114
 10
185.00583378481355
 20
-14.509035499634045
 10
184.99416621518654
 20
-14.509035499634043
 10
184.4279068298252
 20
-14.396399504740813
 10
184.41712740105268
 20
-14.39193451914861
 10
183.93707587395892
 20
-14.071174343643918
 10
183.92882565635568
 20
-14.062924126040672
 10
183.6080654808512
 20
-13.582872598946897
 10
183.603600495259
 20
-13.572093170174323
 10
183.49096450036595
 20
-13.005833784813372
 10
183.49096450036595
 20
-12.99416621518623
  0
LWPOLYLINE
  5
31
330
17
100
AcDbEntity
  8
0
100
AcDbPolyline
 90
33
 70
0
 10
183.49096450036595
 20
-4.9941662151866275
 10
183.60360049525897
 20
-4.427906829825652
 10
183.6080654808512
 20
-4.417127401053073
 10
183.92882565635566
 20
-3.9370758739592655
 10
183.9370758739589
 20
-3.928825656356031
 10
184.41712740105268
 20
-3.608065480851352
 10
184.4279068298252
 20
-3.603600495259148
 10
184.9941662151865
 20
-3.4909645003660064
 10
185.00583378481352
 20
-3.490964500366005
 10
185.57209317017487
 20
-3.603600495259062
 10
185.58287259894735
 20
-3.608065480851263
 10
186.0629241260411
 20
-3.928825656355938
 10
186.07117434364434
 20
-3.937075873959179
 10
186.3919345191488
 20
-4.4171274010529356
 10
186.396399504741
 20
-4.427906829825508
 10
186.50903549963405
 20
-4.994166215186369
 10
186.50903549963405
 20
-5.005833784813513
 10
186.39639950474103
 20
-5.572093170174406
 10
186.3919345191488
 20
-5.582872598946978
 10
186.07117434364432
 20
-6.062924126040734
 10
186.06292412604105
 20
-6.07117434364399
 10
185.58287259894735
 20
-6.391934519148717
 10
185.57209317017487
 20
-6.396399504740919
 10
185.0058337848135
 20
-6.5090354996340025
 10
184.9941662151865
 20
-6.509035499634002
 10
184.42790682982522
 20
-6.3963995047408835
 10
184.4171274010527
 20
-6.391934519148678
 10
183.9370758739589
 20
-6.071174343644015
 10
183.92882565635566
 20
-6.062924126040779
 10
183.6080654808512
 20
-5.582872598947041
 10
183.60360049525897
 20
-5.57209317017447
 10
183.49096450036595
 20
-5.005833784813771
 10
183.49096450036595
 20
-4.9941662151866275
  0
LWPOLYLINE
  5
32
330
17
100
AcDbEntity
  8
0
100
AcDbPolyline
 90
33
 70
0
 10
3.4909645003659544
 20
-4.9941662151865
 10
3.603600495259052
 20
-4.427906829825548
 10
3.6080654808512724
 20
-4.417127401053008
 10
3.928825656355926
 20
-3.9370758739591496
 10
3.937075873959147
 20
-3.9288256563559285
 10
4.417127401053003
 20
-3.608065480851281
 10
4.427906829825542
 20
-3.6036004952590606
 10
4.994166215186494
 20
-3.490964500365954
 10
5.005833784813499
 20
-3.490964500365954
 10
5.572093170174452
 20
-3.603600495259052
 10
5.582872598946992
 20
-3.6080654808512724
 10
6.062924126040851
 20
-3.9288256563559263
 10
6.071174343644073
 20
-3.937075873959149
 10
6.3919345191487285
 20
-4.417127401053013
 10
6.396399504740951
 20
-4.427906829825553
 10
6.509035499634047
 20
-4.994166215186499
 10
6.509035499634047
 20
-5.005833784813501
 10
6.396399504740958
 20
-5.572093170174449
 10
6.3919345191487364
 20
-5.58287259894699
 10
6.071174343644081
 20
-6.062924126040854
 10
6.062924126040864
 20
-6.0711743436440715
 10
5.582872598946997
 20
-6.3919345191487285
 10
5.5720931701744565
 20
-6.396399504740951
 10
5.005833784813511
 20
-6.509035499634047
 10
4.9941662151865085
 20
-6.509035499634047
 10
4.427906829825553
 20
-6.396399504740951
 10
4.417127401053013
 20
-6.3919345191487285
 10
3.937075873959149
 20
-6.071174343644073
 10
3.9288256563559267
 20
-6.062924126040851
 10
3.608065480851273
 20
-5.582872598947002
 10
3.603600495259052
 20
-5.572093170174462
 10
3.4909645003659544
 20
-5.005833784813502
 10
3.4909645003659544
 20
-4.9941662151865
  0
LWPOLYLINE
  5
33
330
17
100
AcDbEntity
  8
0
100
AcDbPolyline
 90
33
 70
0
 10
3.4909645003659744
 20
-34.9941662151865
 10
3.6036004952590734
 20
-34.427906829825574
 10
3.6080654808512933
 20
-34.41712740105304
 10
3.928825656355918
 20
-33.937075873959195
 10
3.9370758739591456
 20
-33.92882565635596
 10
4.417127401053013
 20
-33.60806548085131
 10
4.427906829825537
 20
-33.603600495259094
 10
4.994166215186508
 20
-33.49096450036596
 10
5.005833784813512
 20
-33.49096450036596
 10
5.572093170174482
 20
-33.603600495259094
 10
5.582872598947007
 20
-33.60806548085131
 10
6.062924126040866
 20
-33.928825656355954
 10
6.071174343644095
 20
-33.93707587395919
 10
6.391934519148725
 20
-34.41712740105304
 10
6.396399504740948
 20
-34.42790682982558
 10
6.509035499634066
 20
-34.994166215186496
 10
6.509035499634066
 20
-35.0058337848135
 10
6.396399504740955
 20
-35.57209317017443
 10
6.3919345191487364
 20
-35.58287259894697
 10
6.071174343644102
 20
-36.062924126040805
 10
6.062924126040871
 20
-36.07117434364404
 10
5.582872598946991
 20
-36.3919345191487
 10
5.572093170174433
 20
-36.39639950474093
 10
5.005833784813605
 20
-36.50903549963404
 10
4.994166215186567
 20
-36.50903549963404
 10
4.427906829825528
 20
-36.396399504740906
 10
4.417127401053003
 20
-36.39193451914869
 10
3.9370758739591456
 20
-36.07117434364404
 10
3.9288256563559183
 20
-36.062924126040805
 10
3.6080654808513026
 20
-35.58287259894696
 10
3.603600495259083
 20
-35.572093170174426
 10
3.4909645003659744
 20
-35.0058337848135
 10
3.4909645003659744
 20
-34.9941662151865
  0
LWPOLYLINE
  5
34
330
17
100
AcDbEntity
  8
0
100
AcDbPolyline
 90
33
 70
0
 10
183.49096450036595
 20
-34.994166215186524
 10
183.60360049525897
 20
-34.42790682982573
 10
183.60806548085125
 20
-34.41712740105304
 10
183.9288256563557
 20
-33.93707587395931
 10
183.937075873959
 20
-33.92882565635601
 10
184.41712740105265
 20
-33.60806548085132
 10
184.4279068298252
 20
-33.60360049525911
 10
184.9941662151865
 20
-33.49096450036596
 10
185.00583378481355
 20
-33.49096450036596
 10
185.57209317017384
 20
-33.60360049525899
 10
185.5828725989464
 20
-33.60806548085121
 10
186.062924126041
 20
-33.92882565635582
 10
186.07117434364434
 20
-33.93707587395915
 10
186.3919345191488
 20
-34.417127401052895
 10
186.396399504741
 20
-34.42790682982545
 10
186.50903549963405
 20
-34.994166215186326
 10
186.50903549963405
 20
-35.005833784813476
 10
186.39639950474103
 20
-35.5720931701743
 10
186.39193451914878
 20
-35.5828725989469
 10
186.07117434364432
 20
-36.06292412604087
 10
186.06292412604108
 20
-36.071174343644095
 10
185.58287259894735
 20
-36.39193451914879
 10
185.57209317017484
 20
-36.39639950474099
 10
185.00583378481352
 20
-36.50903549963404
 10
184.9941662151865
 20
-36.50903549963404
 10
184.42790682982516
 20
-36.39639950474089
 10
184.41712740105268
 20
-36.39193451914869
 10
183.93707587395897
 20
-36.07117434364416
 10
183.92882565635574
 20
-36.06292412604088
 10
183.60806548085125
 20
-35.582872598947155
 10
183.60360049525897
 20
-35.57209317017446
 10
183.49096450036595
 20
-35.005833784813674
 10
183.49096450036595
 20
-34.994166215186524
  0
LWPOLYLINE
  5
35
330
17
100
AcDbEntity
  8
0
100
AcDbPolyline
 90
33
 70
0
 10
3.490964500365964
 20
-26.994166215186496
 10
3.6036004952590517
 20
-26.427906829825577
 10
3.6080654808512755
 20
-26.417127401053033
 10
3.928825656355922
 20
-25.937075873959174
 10
3.9370758739591456
 20
-25.92882565635595
 10
4.417127401053015
 20
-25.608065480851295
 10
4.427906829825537
 20
-25.60360049525908
 10
4.994166215186498
 20
-25.49096450036595
 10
5.005833784813502
 20
-25.49096450036595
 10
5.572093170174463
 20
-25.60360049525908
 10
5.582872598946985
 20
-25.608065480851295
 10
6.062924126040855
 20
-25.92882565635595
 10
6.07117434364408
 20
-25.937075873959177
 10
6.3919345191487285
 20
-26.417127401053037
 10
6.396399504740948
 20
-26.427906829825574
 10
6.509035499634047
 20
-26.994166215186496
 10
6.509035499634048
 20
-27.005833784813504
 10
6.396399504740961
 20
-27.57209317017442
 10
6.391934519148735
 20
-27.58287259894697
 10
6.07117434364409
 20
-28.062924126040823
 10
6.062924126040865
 20
-28.07117434364405
 10
5.582872598946985
 20
-28.391934519148705
 10
5.572093170174463
 20
-28.39639950474092
 10
5.005833784813502
 20
-28.50903549963405
 10
4.994166215186498
 20
-28.50903549963405
 10
4.42790682982557
 20
-28.39639950474092
 10
4.417127401053044
 20
-28.391934519148705
 10
3.9370758739591523
 20
-28.07117434364405
 10
3.9288256563559405
 20
-28.062924126040837
 10
3.6080654808512818
 20
-27.58287259894706
 10
3.603600495259061
 20
-27.57209317017452
 10
3.490964500365964
 20
-27.0058337848135
 10
3.490964500365964
 20
-26.994166215186496
  0
LWPOLYLINE
  5
36
330
17
100
AcDbEntity
  8
0
100
AcDbPolyline
 90
33
 70
0
 10
183.49096450036595
 20
-26.994166215186425
 10
183.60360049525897
 20
-26.427906829825822
 10
183.60806548085122
 20
-26.41712740105323
 10
183.92882565635568
 20
-25.937075873959223
 10
183.93707587395892
 20
-25.928825656355993
 10
184.41712740105268
 20
-25.608065480851288
 10
184.4279068298252
 20
-25.603600495259084
 10
184.9941662151865
 20
-25.49096450036595
 10
185.00583378481352
 20
-25.490964500365948
 10
185.57209317017484
 20
-25.603600495258988
 10
185.58287259894735
 20
-25.608065480851195
 10
186.06292412604105
 20
-25.92882565635587
 10
186.0711743436443
 20
-25.937075873959106
 10
186.3919345191488
 20
-26.41712740105293
 10
186.39639950474103
 20
-26.427906829825496
 10
186.50903549963405
 20
-26.99416621518623
 10
186.50903549963405
 20
-27.00583378481337
 10
186.396399504741
 20
-27.572093170174405
 10
186.3919345191488
 20
-27.582872598946977
 10
186.0711743436443
 20
-28.062924126040794
 10
186.06292412604105
 20
-28.07117434364403
 10
185.58287259894735
 20
-28.391934519148712
 10
185.57209317017484
 20
-28.396399504740916
 10
185.0058337848135
 20
-28.50903549963405
 10
184.99416621518648
 20
-28.509035499634052
 10
184.4279068298252
 20
-28.396399504741012
 10
184.41712740105268
 20
-28.391934519148805
 10
183.93707587395895
 20
-28.07117434364413
 10
183.9288256563557
 20
-28.062924126040894
 10
183.6080654808512
 20
-27.58287259894707
 10
183.603600495259
 20
-27.572093170174504
 10
183.49096450036595
 20
-27.00583378481357
 10
183.49096450036595
 20
-26.994166215186425
  0
LWPOLYLINE
  5
37
330
17
100
AcDbEntity
  8
0
100
AcDbPolyline
 90
13
 70
0
 10
59.971715728752535
 20
-16.0
 10
60.028284271247465
 20
-16.0
 10
60.93262794416289
 20
-16.0
 10
60.95262794416289
 20
-16.02
 10
60.95262794416289
 20
-23.980000000000004
 10
60.93262794416289
 20
-24.000000000000004
 10
60.028284271247465
 20
-24.000000000000004
 10
59.971715728752535
 20
-24.000000000000004
 10
59.06737205583711
 20
-24.000000000000004
 10
59.04737205583711
 20
-23.980000000000004
 10
59.04737205583711
 20
-16.02
 10
59.06737205583711
 20
-16.0
 10
59.971715728752535
 20
-16.0
  0
LWPOLYLINE
  5
38
330
17
100
AcDbEntity
  8
0
100
AcDbPolyline
 90
13
 70
0
 10
30.952627944162884
 20
-23.980000000000004
 10
30.932627944162885
 20
-24.000000000000004
 10
30.028284271247465
 20
-24.000000000000004
 10
29.971715728752535
 20
-24.000000000000004
 10
29.067372055837115
 20
-24.000000000000004
 10
29.047372055837116
 20
-23.980000000000004
 10
29.047372055837116
 20
-16.02
 10
29.067372055837115
 20
-16.0
 10
29.971715728752535
 20
-16.0
 10
30.028284271247465
 20
-16.0
 10
30.932627944162885
 20
-16.0
 10
30.952627944162884
 20
-16.02
 10
30.952627944162884
 20
-23.980000000000004
  0
LWPOLYLINE
  5
39
330
17
100
AcDbEntity
  8
0
100
AcDbPolyline
 90
13
 70
0
 10
180.02828427124746
 20
-24.0
 10
179.97171572875254
 20
-24.0
 10
179.0673720558371
 20
-24.0
 10
179.0473720558371
 20
-23.98
 10
179.0473720558371
 20
-16.019999999999996
 10
179.0673720558371
 20
-15.999999999999996
 10
179.97171572875254
 20
-15.999999999999996
 10
180.02828427124746
 20
-15.999999999999996
 10
180.9326279441629
 20
-15.999999999999996
 10
180.9526279441629
 20
-16.019999999999996
 10
180.9526279441629
 20
-23.98
 10
180.9326279441629
 20
-24.0
 10
180.02828427124746
 20
-24.0
  0
LWPOLYLINE
  5
3A
330
17
100
AcDbEntity
  8
0
100
AcDbPolyline
 90
13
 70
0
 10
149.97171572875254
 20
-16.0
 10
150.02828427124746
 20
-16.0
 10
150.9326279441629
 20
-16.0
 10
150.9526279441629
 20
-16.02
 10
150.9526279441629
 20
-23.980000000000004
 10
150.9326279441629
 20
-24.000000000000004
 10
150.02828427124746
 20
-24.000000000000004
 10
149.97171572875254
 20
-24.000000000000004
 10
149.0673720558371
 20
-24.000000000000004
 10
149.0473720558371
 20
-23.980000000000004
 10
149.0473720558371
 20
-16.02
 10
149.0673720558371
 20
-16.0
 10
149.97171572875254
 20
-16.0
  0
LWPOLYLINE
  5
3B
330
17
100
AcDbEntity
  8
0
100
AcDbPolyline
 90
13
 70
0
 10
120.95262794416287
 20
-23.980000000000004
 10
120.93262794416287
 20
-24.000000000000004
 10
120.02828427124746
 20
-24.000000000000004
 10
119.97171572875254
 20
-24.000000000000004
 10
119.06737205583713
 20
-24.000000000000004
 10
119.04737205583713
 20
-23.980000000000004
 10
119.04737205583713
 20
-16.02
 10
119.06737205583713
 20
-16.0
 10
119.97171572875254
 20
-16.0
 10
120.02828427124746
 20
-16.0
 10
120.93262794416287
 20
-16.0
 10
120.95262794416287
 20
-16.02
 10
120.95262794416287
 20
-23.980000000000004
  0
LWPOLYLINE
  5
3C
330
17
100
AcDbEntity
  8
0
100
AcDbPolyline
 90
13
 70
0
 10
90.02828427124746
 20
-24.0
 10
89.97171572875254
 20
-24.0
 10
89.06737205583713
 20
-24.0
 10
89.04737205583713
 20
-23.98
 10
89.04737205583713
 20
-16.019999999999996
 10
89.06737205583713
 20
-15.999999999999996
 10
89.97171572875254
 20
-15.999999999999996
 10
90.02828427124746
 20
-15.999999999999996
 10
90.93262794416287
 20
-15.999999999999996
 10
90.95262794416287
 20
-16.019999999999996
 10
90.95262794416287
 20
-23.98
 10
90.93262794416287
 20
-24.0
 10
90.02828427124746
 20
-24.0
  0
LWPOLYLINE
  5
3D
330
17
100
AcDbEntity
  8
0
100
AcDbPolyline
 90
5
 70
0
 10
262.461847266722
 20
-62.44356299547452
 10
-22.44184726672197
 20
-62.44356299547452
 10
-22.44184726672197
 20
22.460131537969417
 10
262.461847266722
 20
22.460131537969417
 10
262.461847266722
 20
-62.44356299547452
  0
LWPOLYLINE
  5
3E
330
17
100
AcDbEntity
  8
0
100
AcDbPolyline
 90
99
 70
0
 10
0.03
 20
-39.99000000000001
 10
29.057372055837117
 20
-39.99000000000001
 10
29.988284271247462
 20
-39.99000000000001
 10
29.99
 20
-39.991715728752546
 10
30.01
 20
-39.991715728752546
 10
30.011715728752538
 20
-39.99000000000001
 10
30.942627944162883
 20
-39.99000000000001
 10
59.057372055837114
 20
-39.99000000000001
 10
59.988284271247466
 20
-39.99000000000001
 10
59.98914213562373
 20
-39.990857864376274
 10
59.99
 20
-39.991715728752546
 10
60.01
 20
-39.991715728752546
 10
60.01085786437627
 20
-39.990857864376274
 10
60.011715728752534
 20
-39.99000000000001
 10
60.942627944162886
 20
-39.99000000000001
 10
89.05737205583713
 20
-39.99000000000001
 10
89.98828427124747
 20
-39.99000000000001
 10
89.98914213562372
 20
-39.990857864376274
 10
89.99
 20
-39.991715728752546
 10
90.01
 20
-39.991715728752546
 10
90.01085786437628
 20
-39.990857864376274
 10
90.01171572875253
 20
-39.99000000000001
 10
90.94262794416287
 20
-39.99000000000001
 10
119.05737205583713
 20
-39.99000000000001
 10
119.98828427124747
 20
-39.99000000000001
 10
119.98914213562372
 20
-39.990857864376274
 10
119.99
 20
-39.991715728752546
 10
120.01
 20
-39.991715728752546
 10
120.01085786437628
 20
-39.990857864376274
 10
120.01171572875253
 20
-39.99000000000001
 10
120.94262794416287
 20
-39.99000000000001
 10
149.0573720558371
 20
-39.99000000000001
 10
149.98828427124747
 20
-39.99000000000001
 10
149.99
 20
-39.99171572875255
 10
150.01
 20
-39.99171572875255
 10
150.01171572875253
 20
-39.99000000000001
 10
150.9426279441629
 20
-39.99000000000001
 10
179.0573720558371
 20
-39.99000000000001
 10
179.98828427124747
 20
-39.99000000000001
 10
179.99
 20
-39.99171572875255
 10
180.01
 20
-39.99171572875255
 10
180.01171572875253
 20
-39.99000000000001
 10
180.9426279441629
 20
-39.99000000000001
 10
239.97000000000003
 20
-39.99000000000001
 10
239.99000000000004
 20
-39.970000000000006
 10
239.99000000000004
 20
-0.03
 10
239.97000000000003
 20
-0.009999999999999998
 10
180.9426279441629
 20
-0.009999999999999998
 10
180.01171572875253
 20
-0.009999999999999998
 10
180.01
 20
-0.008284271247454924
 10
179.99
 20
-0.008284271247454924
 10
179.98828427124747
 20
-0.009999999999999998
 10
179.0573720558371
 20
-0.009999999999999998
 10
150.9426279441629
 20
-0.009999999999999998
 10
150.01171572875253
 20
-0.009999999999999998
 10
150.01
 20
-0.008284271247454924
 10
149.99
 20
-0.008284271247454924
 10
149.98828427124747
 20
-0.009999999999999998
 10
149.0573720558371
 20
-0.009999999999999998
 10
120.94262794416287
 20
-0.009999999999999998
 10
120.01171572875253
 20
-0.009999999999999998
 10
120.01085786437628
 20
-0.009142135623738942
 10
120.01085786437628
 20
-0.00914213562373768
 10
120.01
 20
-0.008284271247466196
 10
119.99
 20
-0.008284271247466196
 10
119.98914213562372
 20
-0.00914213562373768
 10
119.98914213562372
 20
-0.009142135623738942
 10
119.98828427124747
 20
-0.009999999999999998
 10
119.05737205583713
 20
-0.009999999999999998
 10
90.94262794416287
 20
-0.009999999999999998
 10
90.01171572875253
 20
-0.009999999999999998
 10
90.01085786437628
 20
-0.009142135623738942
 10
90.01085786437628
 20
-0.00914213562373768
 10
90.01
 20
-0.008284271247466196
 10
89.99
 20
-0.008284271247466196
 10
89.98914213562372
 20
-0.00914213562373768
 10
89.98914213562372
 20
-0.009142135623738942
 10
89.98828427124747
 20
-0.009999999999999998
 10
89.05737205583713
 20
-0.009999999999999998
 10
60.942627944162886
 20
-0.009999999999999998
 10
60.011715728752534
 20
-0.009999999999999998
 10
60.01
 20
-0.008284271247460558
 10
59.99
 20
-0.008284271247460558
 10
59.988284271247466
 20
-0.009999999999999998
 10
59.057372055837114
 20
-0.009999999999999998
 10
30.942627944162883
 20
-0.009999999999999998
 10
30.011715728752538
 20
-0.009999999999999998
 10
30.01085786437627
 20
-0.00914213562373126
 10
30.01085786437627
 20
-0.009142135623730833
 10
30.01
 20
-0.008284271247463375
 10
29.99
 20
-0.008284271247463375
 10
29.98914213562373
 20
-0.009142135623730833
 10
29.98914213562373
 20
-0.00914213562373126
 10
29.988284271247462
 20
-0.009999999999999998
 10
29.057372055837117
 20
-0.009999999999999998
 10
0.03
 20
-0.009999999999999998
 10
0.009999999999999998
 20
-0.03
 10
0.009999999999999998
 20
-39.970000000000006
 10
0.03
 20
-39.99000000000001
  0
ENDSEC
  0
SECTION
  2
OBJECTS
  0
DICTIONARY
  5
A
330
0
100
AcDbDictionary
281
1
  3
ACAD_COLOR
350
B
  3
ACAD_GROUP
350
C
  3
ACAD_LAYOUT
350
D
  3
ACAD_MATERIAL
350
E
  3
ACAD_MLEADERSTYLE
350
F
  3
ACAD_MLINESTYLE
350
10
  3
ACAD_PLOTSETTINGS
350
11
  3
ACAD_PLOTSTYLENAME
350
12
  3
ACAD_SCALELIST
350
14
  3
ACAD_TABLESTYLE
350
15
  3
ACAD_VISUALSTYLE
350
16
  3
EZDXF_META
350
2D
  0
DICTIONARY
  5
B
330
A
100
AcDbDictionary
281
1
  0
DICTIONARY
  5
C
330
A
100
AcDbDictionary
281
1
  0
DICTIONARY
  5
D
330
A
100
AcDbDictionary
281
1
  3
Model
350
1A
  3
Layout1
350
1E
  0
DICTIONARY
  5
E
330
A
100
AcDbDictionary
281
1
  3
ByBlock
350
1F
  3
ByLayer
350
20
  3
Global
350
21
  0
DICTIONARY
  5
F
330
A
100
AcDbDictionary
281
1
  3
Standard
350
2C
  0
DICTIONARY
  5
10
330
A
100
AcDbDictionary
281
1
  3
Standard
350
22
  0
DICTIONARY
  5
11
330
A
100
AcDbDictionary
281
1
  0
ACDBDICTIONARYWDFLT
  5
12
330
A
100
AcDbDictionary
281
1
  3
Normal
350
13
100
AcDbDictionaryWithDefault
340
13
  0
ACDBPLACEHOLDER
  5
13
330
12
  0
DICTIONARY
  5
14
330
A
100
AcDbDictionary
281
1
  0
DICTIONARY
  5
15
330
A
100
AcDbDictionary
281
1
  0
DICTIONARY
  5
16
330
A
100
AcDbDictionary
281
1
  0
LAYOUT
  5
1A
330
D
100
AcDbPlotSettings
  1

  2
Adobe PDF
  4
A3
  6

 40
7.5
 41
20.0
 42
7.5
 43
20.0
 44
420.0
 45
297.0
 46
0.0
 47
0.0
 48
0.0
 49
0.0
140
0.0
141
0.0
142
1.0
143
1.0
 70
1024
 72
1
 73
1
 74
5
  7

 75
16
 76
0
 77
2
 78
300
147
1.0
148
0.0
149
0.0
100
AcDbLayout
  1
Model
 70
1
 71
0
 10
0.0
 20
0.0
 11
420.0
 21
297.0
 12
0.0
 22
0.0
 32
0.0
 14
1e+20
 24
1e+20
 34
1e+20
 15
-1e+20
 25
-1e+20
 35
-1e+20
146
0.0
 13
0.0
 23
0.0
 33
0.0
 16
1.0
 26
0.0
 36
0.0
 17
0.0
 27
1.0
 37
0.0
 76
1
330
17
  0
LAYOUT
  5
1E
330
D
100
AcDbPlotSettings
  1

  2
Adobe PDF
  4
A3
  6

 40
7.5
 41
20.0
 42
7.5
 43
20.0
 44
420.0
 45
297.0
 46
0.0
 47
0.0
 48
0.0
 49
0.0
140
0.0
141
0.0
142
1.0
143
1.0
 70
0
 72
1
 73
1
 74
5
  7

 75
16
 76
0
 77
2
 78
300
147
1.0
148
0.0
149
0.0
100
AcDbLayout
  1
Layout1
 70
1
 71
1
 10
0.0
 20
0.0
 11
420.0
 21
297.0
 12
0.0
 22
0.0
 32
0.0
 14
1e+20
 24
1e+20
 34
1e+20
 15
-1e+20
 25
-1e+20
 35
-1e+20
146
0.0
 13
0.0
 23
0.0
 33
0.0
 16
1.0
 26
0.0
 36
0.0
 17
0.0
 27
1.0
 37
0.0
 76
1
330
1B
  0
MATERIAL
  5
1F
102
{ACAD_REACTORS
330
E
102
}
330
E
100
AcDbMaterial
  1
ByBlock
  2

 70
0
 40
1.0
 71
1
 41
1.0
 91
-1023410177
 42
1.0
 72
1
  3

 73
1
 74
1
 75
1
 44
0.5
 73
0
 45
1.0
 46
1.0
 77
1
  4

 78
1
 79
1
170
1
 48
1.0
171
1
  6

172
1
173
1
174
1
140
1.0
141
1.0
175
1
  7

176
1
177
1
178
1
143
1.0
179
1
  8

270
1
271
1
272
1
145
1.0
146
1.0
273
1
  9

274
1
275
1
276
1
 42
1.0
 72
1
  3

 73
1
 74
1
 75
1
 94
63
  0
MATERIAL
  5
20
102
{ACAD_REACTORS
330
E
102
}
330
E
100
AcDbMaterial
  1
ByLayer
  2

 70
0
 40
1.0
 71
1
 41
1.0
 91
-1023410177
 42
1.0
 72
1
  3

 73
1
 74
1
 75
1
 44
0.5
 73
0
 45
1.0
 46
1.0
 77
1
  4

 78
1
 79
1
170
1
 48
1.0
171
1
  6

172
1
173
1
174
1
140
1.0
141
1.0
175
1
  7

176
1
177
1
178
1
143
1.0
179
1
  8

270
1
271
1
272
1
145
1.0
146
1.0
273
1
  9

274
1
275
1
276
1
 42
1.0
 72
1
  3

 73
1
 74
1
 75
1
 94
63
  0
MATERIAL
  5
21
102
{ACAD_REACTORS
330
E
102
}
330
E
100
AcDbMaterial
  1
Global
  2

 70
0
 40
1.0
 71
1
 41
1.0
 91
-1023410177
 42
1.0
 72
1
  3

 73
1
 74
1
 75
1
 44
0.5
 73
0
 45
1.0
 46
1.0
 77
1
  4

 78
1
 79
1
170
1
 48
1.0
171
1
  6

172
1
173
1
174
1
140
1.0
141
1.0
175
1
  7

176
1
177
1
178
1
143
1.0
179
1
  8

270
1
271
1
272
1
145
1.0
146
1.0
273
1
  9

274
1
275
1
276
1
 42
1.0
 72
1
  3

 73
1
 74
1
 75
1
 94
63
  0
MLINESTYLE
  5
22
102
{ACAD_REACTORS
330
10
102
}
330
10
100
AcDbMlineStyle
  2
Standard
 70
0
  3

 62
256
 51
90.0
 52
90.0
 71
2
 49
0.5
 62
256
  6
BYLAYER
 49
-0.5
 62
256
  6
BYLAYER
  0
MLEADERSTYLE
  5
2C
102
{ACAD_REACTORS
330
F
102
}
330
F
100
AcDbMLeaderStyle
179
2
170
2
171
1
172
0
 90
2
 40
0.0
 41
0.0
173
1
 91
-1056964608
 92
-2
290
1
 42
2.0
291
1
 43
8.0
  3
Standard
 44
4.0
300

342
29
174
1
175
1
176
0
178
1
 93
-1056964608
 45
4.0
292
0
297
0
 46
4.0
 94
-1056964608
 47
1.0
 49
1.0
140
1.0
294
1
141
0.0
177
0
142
1.0
295
0
296
0
143
3.75
271
0
272
9
273
9
  0
DICTIONARY
  5
2D
330
A
100
AcDbDictionary
280
1
281
1
  3
CREATED_BY_EZDXF
350
2E
  3
WRITTEN_BY_EZDXF
350
41
  0
DICTIONARYVAR
  5
2E
330
2D
100
DictionaryVariables
280
0
  1
0.17.2 @ 2022-04-05T07:59:56.173622+00:00
  0
DICTIONARYVAR
  5
41
330
2D
100
DictionaryVariables
280
0
  1
0.17.2 @ 2022-04-05T07:59:56.178086+00:00
  0
ENDSEC
  0
EOF
