  0
SECTION
  2
HEADER
  9
$ACADVER
  1
AC1024
  9
$ACADMAINTVER
 70
6
  9
$DWGCODEPAGE
  3
ANSI_1252
  9
$LASTSAVEDBY
  1
ezdxf
  9
$INSBASE
 10
0.0
 20
0.0
 30
0.0
  9
$EXTMIN
 10
1e+20
 20
1e+20
 30
1e+20
  9
$EXTMAX
 10
-1e+20
 20
-1e+20
 30
-1e+20
  9
$LIMMIN
 10
0.0
 20
0.0
  9
$LIMMAX
 10
420.0
 20
297.0
  9
$ORTHOMODE
 70
0
  9
$REGENMODE
 70
1
  9
$FILLMODE
 70
1
  9
$QTEXTMODE
 70
0
  9
$MIRRTEXT
 70
1
  9
$LTSCALE
 40
1.0
  9
$ATTMODE
 70
1
  9
$TEXTSIZE
 40
2.5
  9
$TRACEWID
 40
1.0
  9
$TEXTSTYLE
  7
Standard
  9
$CLAYER
  8
0
  9
$CELTYPE
  6
ByLayer
  9
$CECOLOR
 62
256
  9
$CELTSCALE
 40
1.0
  9
$DISPSILH
 70
0
  9
$DIMSCALE
 40
1.0
  9
$DIMASZ
 40
2.5
  9
$DIMEXO
 40
0.625
  9
$DIMDLI
 40
3.75
  9
$DIMRND
 40
0.0
  9
$DIMDLE
 40
0.0
  9
$DIMEXE
 40
1.25
  9
$DIMTP
 40
0.0
  9
$DIMTM
 40
0.0
  9
$DIMTXT
 40
2.5
  9
$DIMCEN
 40
2.5
  9
$DIMTSZ
 40
0.0
  9
$DIMTOL
 70
0
  9
$DIMLIM
 70
0
  9
$DIMTIH
 70
0
  9
$DIMTOH
 70
0
  9
$DIMSE1
 70
0
  9
$DIMSE2
 70
0
  9
$DIMTAD
 70
1
  9
$DIMZIN
 70
8
  9
$DIMBLK
  1

  9
$DIMASO
 70
1
  9
$DIMSHO
 70
1
  9
$DIMPOST
  1

  9
$DIMAPOST
  1

  9
$DIMALT
 70
0
  9
$DIMALTD
 70
3
  9
$DIMALTF
 40
0.03937007874
  9
$DIMLFAC
 40
1.0
  9
$DIMTOFL
 70
1
  9
$DIMTVP
 40
0.0
  9
$DIMTIX
 70
0
  9
$DIMSOXD
 70
0
  9
$DIMSAH
 70
0
  9
$DIMBLK1
  1

  9
$DIMBLK2
  1

  9
$DIMSTYLE
  2
ISO-25
  9
$DIMCLRD
 70
0
  9
$DIMCLRE
 70
0
  9
$DIMCLRT
 70
0
  9
$DIMTFAC
 40
1.0
  9
$DIMGAP
 40
0.625
  9
$DIMJUST
 70
0
  9
$DIMSD1
 70
0
  9
$DIMSD2
 70
0
  9
$DIMTOLJ
 70
0
  9
$DIMTZIN
 70
8
  9
$DIMALTZ
 70
0
  9
$DIMALTTZ
 70
0
  9
$DIMUPT
 70
0
  9
$DIMDEC
 70
2
  9
$DIMTDEC
 70
2
  9
$DIMALTU
 70
2
  9
$DIMALTTD
 70
3
  9
$DIMTXSTY
  7
Standard
  9
$DIMAUNIT
 70
0
  9
$DIMADEC
 70
0
  9
$DIMALTRND
 40
0.0
  9
$DIMAZIN
 70
0
  9
$DIMDSEP
 70
44
  9
$DIMATFIT
 70
3
  9
$DIMFRAC
 70
0
  9
$DIMLDRBLK
  1

  9
$DIMLUNIT
 70
2
  9
$DIMLWD
 70
-2
  9
$DIMLWE
 70
-2
  9
$DIMTMOVE
 70
0
  9
$DIMFXL
 40
1.0
  9
$DIMFXLON
 70
0
  9
$DIMJOGANG
 40
0.785398163397
  9
$DIMTFILL
 70
0
  9
$DIMTFILLCLR
 70
0
  9
$DIMARCSYM
 70
0
  9
$DIMLTYPE
  6

  9
$DIMLTEX1
  6

  9
$DIMLTEX2
  6

  9
$DIMTXTDIRECTION
 70
0
  9
$LUNITS
 70
2
  9
$LUPREC
 70
4
  9
$SKETCHINC
 40
1.0
  9
$FILLETRAD
 40
10.0
  9
$AUNITS
 70
0
  9
$AUPREC
 70
2
  9
$MENU
  1
.
  9
$ELEVATION
 40
0.0
  9
$PELEVATION
 40
0.0
  9
$THICKNESS
 40
0.0
  9
$LIMCHECK
 70
0
  9
$CHAMFERA
 40
0.0
  9
$CHAMFERB
 40
0.0
  9
$CHAMFERC
 40
0.0
  9
$CHAMFERD
 40
0.0
  9
$SKPOLY
 70
0
  9
$TDCREATE
 40
2459675.0416087965
  9
$TDUCREATE
 40
2458532.153996898
  9
$TDUPDATE
 40
2459675.0416203705
  9
$TDUUPDATE
 40
2458532.1544311
  9
$TDINDWG
 40
0.0
  9
$TDUSRTIMER
 40
0.0
  9
$USRTIMER
 70
1
  9
$ANGBASE
 50
0.0
  9
$ANGDIR
 70
0
  9
$PDMODE
 70
0
  9
$PDSIZE
 40
0.0
  9
$PLINEWID
 40
0.0
  9
$SPLFRAME
 70
0
  9
$SPLINETYPE
 70
6
  9
$SPLINESEGS
 70
8
  9
$HANDSEED
  5
70
  9
$SURFTAB1
 70
6
  9
$SURFTAB2
 70
6
  9
$SURFTYPE
 70
6
  9
$SURFU
 70
6
  9
$SURFV
 70
6
  9
$UCSBASE
  2

  9
$UCSNAME
  2

  9
$UCSORG
 10
0.0
 20
0.0
 30
0.0
  9
$UCSXDIR
 10
1.0
 20
0.0
 30
0.0
  9
$UCSYDIR
 10
0.0
 20
1.0
 30
0.0
  9
$UCSORTHOREF
  2

  9
$UCSORTHOVIEW
 70
0
  9
$UCSORGTOP
 10
0.0
 20
0.0
 30
0.0
  9
$UCSORGBOTTOM
 10
0.0
 20
0.0
 30
0.0
  9
$UCSORGLEFT
 10
0.0
 20
0.0
 30
0.0
  9
$UCSORGRIGHT
 10
0.0
 20
0.0
 30
0.0
  9
$UCSORGFRONT
 10
0.0
 20
0.0
 30
0.0
  9
$UCSORGBACK
 10
0.0
 20
0.0
 30
0.0
  9
$PUCSBASE
  2

  9
$PUCSNAME
  2

  9
$PUCSORG
 10
0.0
 20
0.0
 30
0.0
  9
$PUCSXDIR
 10
1.0
 20
0.0
 30
0.0
  9
$PUCSYDIR
 10
0.0
 20
1.0
 30
0.0
  9
$PUCSORTHOREF
  2

  9
$PUCSORTHOVIEW
 70
0
  9
$PUCSORGTOP
 10
0.0
 20
0.0
 30
0.0
  9
$PUCSORGBOTTOM
 10
0.0
 20
0.0
 30
0.0
  9
$PUCSORGLEFT
 10
0.0
 20
0.0
 30
0.0
  9
$PUCSORGRIGHT
 10
0.0
 20
0.0
 30
0.0
  9
$PUCSORGFRONT
 10
0.0
 20
0.0
 30
0.0
  9
$PUCSORGBACK
 10
0.0
 20
0.0
 30
0.0
  9
$USERI1
 70
0
  9
$USERI2
 70
0
  9
$USERI3
 70
0
  9
$USERI4
 70
0
  9
$USERI5
 70
0
  9
$USERR1
 40
0.0
  9
$USERR2
 40
0.0
  9
$USERR3
 40
0.0
  9
$USERR4
 40
0.0
  9
$USERR5
 40
0.0
  9
$WORLDVIEW
 70
1
  9
$SHADEDGE
 70
3
  9
$SHADEDIF
 70
70
  9
$TILEMODE
 70
1
  9
$MAXACTVP
 70
64
  9
$PINSBASE
 10
0.0
 20
0.0
 30
0.0
  9
$PLIMCHECK
 70
0
  9
$PEXTMIN
 10
1e+20
 20
1e+20
 30
1e+20
  9
$PEXTMAX
 10
-1e+20
 20
-1e+20
 30
-1e+20
  9
$PLIMMIN
 10
0.0
 20
0.0
  9
$PLIMMAX
 10
420.0
 20
297.0
  9
$UNITMODE
 70
0
  9
$VISRETAIN
 70
1
  9
$PLINEGEN
 70
0
  9
$PSLTSCALE
 70
1
  9
$TREEDEPTH
 70
3020
  9
$CMLSTYLE
  2
Standard
  9
$CMLJUST
 70
0
  9
$CMLSCALE
 40
20.0
  9
$PROXYGRAPHICS
 70
1
  9
$MEASUREMENT
 70
1
  9
$CELWEIGHT
370
-1
  9
$ENDCAPS
280
0
  9
$JOINSTYLE
280
0
  9
$LWDISPLAY
290
0
  9
$INSUNITS
 70
6
  9
$HYPERLINKBASE
  1

  9
$STYLESHEET
  1

  9
$XEDIT
290
1
  9
$CEPSNTYPE
380
0
  9
$PSTYLEMODE
290
1
  9
$FINGERPRINTGUID
  2
{704B8B97-5804-46FA-A380-6535FD907AFC}
  9
$VERSIONGUID
  2
{E886324B-B2EC-4480-BF5B-827843B0B9A3}
  9
$EXTNAMES
290
1
  9
$PSVPSCALE
 40
0.0
  9
$OLESTARTUP
290
0
  9
$SORTENTS
280
127
  9
$INDEXCTL
280
0
  9
$HIDETEXT
280
1
  9
$XCLIPFRAME
280
0
  9
$HALOGAP
280
0
  9
$OBSCOLOR
 70
257
  9
$OBSLTYPE
280
0
  9
$INTERSECTIONDISPLAY
280
0
  9
$INTERSECTIONCOLOR
 70
257
  9
$DIMASSOC
280
2
  9
$PROJECTNAME
  1

  9
$CAMERADISPLAY
290
0
  9
$LENSLENGTH
 40
50.0
  9
$CAMERAHEIGHT
 40
0.0
  9
$STEPSPERSEC
 40
24.0
  9
$STEPSIZE
 40
100.0
  9
$3DDWFPREC
 40
2.0
  9
$PSOLWIDTH
 40
0.005
  9
$PSOLHEIGHT
 40
0.08
  9
$LOFTANG1
 40
1.570796326795
  9
$LOFTANG2
 40
1.570796326795
  9
$LOFTMAG1
 40
0.0
  9
$LOFTMAG2
 40
0.0
  9
$LOFTPARAM
 70
7
  9
$LOFTNORMALS
280
1
  9
$LATITUDE
 40
37.795
  9
$LONGITUDE
 40
-122.394
  9
$NORTHDIRECTION
 40
0.0
  9
$TIMEZONE
 70
-8000
  9
$LIGHTGLYPHDISPLAY
280
1
  9
$TILEMODELIGHTSYNCH
280
1
  9
$CMATERIAL
347
20
  9
$SOLIDHIST
280
0
  9
$SHOWHIST
280
1
  9
$DWFFRAME
280
2
  9
$DGNFRAME
280
2
  9
$REALWORLDSCALE
290
1
  9
$INTERFERECOLOR
 62
256
  9
$CSHADOW
280
0
  9
$SHADOWPLANELOCATION
 40
0.0
  0
ENDSEC
  0
SECTION
  2
CLASSES
  0
CLASS
  1
ACDBDICTIONARYWDFLT
  2
AcDbDictionaryWithDefault
  3
ObjectDBX Classes
 90
0
 91
0
280
0
281
0
  0
CLASS
  1
SUN
  2
AcDbSun
  3
SCENEOE
 90
1153
 91
0
280
0
281
0
  0
CLASS
  1
VISUALSTYLE
  2
AcDbVisualStyle
  3
ObjectDBX Classes
 90
4095
 91
0
280
0
281
0
  0
CLASS
  1
MATERIAL
  2
AcDbMaterial
  3
ObjectDBX Classes
 90
1153
 91
0
280
0
281
0
  0
CLASS
  1
SCALE
  2
AcDbScale
  3
ObjectDBX Classes
 90
1153
 91
0
280
0
281
0
  0
CLASS
  1
TABLESTYLE
  2
AcDbTableStyle
  3
ObjectDBX Classes
 90
4095
 91
0
280
0
281
0
  0
CLASS
  1
MLEADERSTYLE
  2
AcDbMLeaderStyle
  3
ACDB_MLEADERSTYLE_CLASS
 90
4095
 91
0
280
0
281
0
  0
CLASS
  1
DICTIONARYVAR
  2
AcDbDictionaryVar
  3
ObjectDBX Classes
 90
0
 91
0
280
0
281
0
  0
CLASS
  1
CELLSTYLEMAP
  2
AcDbCellStyleMap
  3
ObjectDBX Classes
 90
1152
 91
0
280
0
281
0
  0
CLASS
  1
MENTALRAYRENDERSETTINGS
  2
AcDbMentalRayRenderSettings
  3
SCENEOE
 90
1024
 91
0
280
0
281
0
  0
CLASS
  1
ACDBDETAILVIEWSTYLE
  2
AcDbDetailViewStyle
  3
ObjectDBX Classes
 90
1025
 91
0
280
0
281
0
  0
CLASS
  1
ACDBSECTIONVIEWSTYLE
  2
AcDbSectionViewStyle
  3
ObjectDBX Classes
 90
1025
 91
0
280
0
281
0
  0
CLASS
  1
RASTERVARIABLES
  2
AcDbRasterVariables
  3
ISM
 90
0
 91
0
280
0
281
0
  0
CLASS
  1
LAYOUT
  2
AcDbLayout
  3
ObjectDBX Classes
 90
0
 91
0
280
0
281
0
  0
CLASS
  1
ACDBPLACEHOLDER
  2
AcDbPlaceHolder
  3
ObjectDBX Classes
 90
0
 91
0
280
0
281
0
  0
ENDSEC
  0
SECTION
  2
TABLES
  0
TABLE
  2
VPORT
  5
8
330
0
100
AcDbSymbolTable
 70
1
  0
VPORT
  5
23
330
8
100
AcDbSymbolTableRecord
100
AcDbViewportTableRecord
  2
*Active
 70
0
 10
0.0
 20
0.0
 11
1.0
 21
1.0
 12
0.0
 22
0.0
 13
0.0
 23
0.0
 14
0.5
 24
0.5
 15
0.5
 25
0.5
 16
0.0
 26
0.0
 36
1.0
 17
0.0
 27
0.0
 37
0.0
 40
1000.0
 41
1.34
 42
50.0
 43
0.0
 44
0.0
 50
0.0
 51
0.0
 71
0
 72
1000
 73
1
 74
3
 75
0
 76
0
 77
0
 78
0
281
0
 65
0
146
0.0
  0
ENDTAB
  0
TABLE
  2
LTYPE
  5
2
330
0
100
AcDbSymbolTable
 70
3
  0
LTYPE
  5
24
330
2
100
AcDbSymbolTableRecord
100
AcDbLinetypeTableRecord
  2
ByBlock
 70
0
  3

 72
65
 73
0
 40
0.0
  0
LTYPE
  5
25
330
2
100
AcDbSymbolTableRecord
100
AcDbLinetypeTableRecord
  2
ByLayer
 70
0
  3

 72
65
 73
0
 40
0.0
  0
LTYPE
  5
26
330
2
100
AcDbSymbolTableRecord
100
AcDbLinetypeTableRecord
  2
Continuous
 70
0
  3

 72
65
 73
0
 40
0.0
  0
ENDTAB
  0
TABLE
  2
LAYER
  5
1
330
0
100
AcDbSymbolTable
 70
2
  0
LAYER
  5
27
330
1
100
AcDbSymbolTableRecord
100
AcDbLayerTableRecord
  2
0
 70
0
 62
7
  6
Continuous
370
-3
390
13
347
21
  0
LAYER
  5
28
330
1
100
AcDbSymbolTableRecord
100
AcDbLayerTableRecord
  2
Defpoints
 70
0
 62
7
  6
Continuous
290
0
370
-3
390
13
347
21
  0
ENDTAB
  0
TABLE
  2
STYLE
  5
5
330
0
100
AcDbSymbolTable
 70
1
  0
STYLE
  5
29
330
5
100
AcDbSymbolTableRecord
100
AcDbTextStyleTableRecord
  2
Standard
 70
0
 40
0.0
 41
1.0
 50
0.0
 71
0
 42
2.5
  3
txt
  4

  0
ENDTAB
  0
TABLE
  2
VIEW
  5
7
330
0
100
AcDbSymbolTable
 70
0
  0
ENDTAB
  0
TABLE
  2
UCS
  5
6
330
0
100
AcDbSymbolTable
 70
0
  0
ENDTAB
  0
TABLE
  2
APPID
  5
3
330
0
100
AcDbSymbolTable
 70
3
  0
APPID
  5
2A
330
3
100
AcDbSymbolTableRecord
100
AcDbRegAppTableRecord
  2
ACAD
 70
0
  0
APPID
  5
6D
330
3
100
AcDbSymbolTableRecord
100
AcDbRegAppTableRecord
  2
HATCHBACKGROUNDCOLOR
 70
0
  0
APPID
  5
6E
330
3
100
AcDbSymbolTableRecord
100
AcDbRegAppTableRecord
  2
EZDXF
 70
0
  0
ENDTAB
  0
TABLE
  2
DIMSTYLE
  5
4
330
0
100
AcDbSymbolTable
 70
1
100
AcDbDimStyleTable
  0
DIMSTYLE
105
2B
330
4
100
AcDbSymbolTableRecord
100
AcDbDimStyleTableRecord
  2
Standard
 70
0
 40
1.0
 41
2.5
 42
0.625
 43
3.75
 44
1.25
 45
0.0
 46
0.0
 47
0.0
 48
0.0
 49
2.5
140
2.5
141
2.5
142
0.0
143
0.03937007874
144
1.0
145
0.0
146
1.0
147
0.625
148
0.0
 69
0
 70
0
 71
0
 72
0
 73
0
 74
0
 75
0
 76
0
 77
1
 78
8
 79
3
170
0
171
3
172
1
173
0
174
0
175
0
176
0
177
0
178
0
179
2
271
2
272
2
273
2
274
3
275
0
276
0
277
2
278
44
279
0
280
0
281
0
282
0
283
0
284
8
285
0
286
0
288
0
289
3
290
0
371
-2
372
-2
  0
ENDTAB
  0
TABLE
  2
BLOCK_RECORD
  5
9
330
0
100
AcDbSymbolTable
 70
2
  0
BLOCK_RECORD
  5
17
330
9
100
AcDbSymbolTableRecord
100
AcDbBlockTableRecord
  2
*Model_Space
340
1A
 70
0
280
1
281
0
  0
BLOCK_RECORD
  5
1B
330
9
100
AcDbSymbolTableRecord
100
AcDbBlockTableRecord
  2
*Paper_Space
340
1E
 70
0
280
1
281
0
  0
ENDTAB
  0
ENDSEC
  0
SECTION
  2
BLOCKS
  0
BLOCK
  5
18
330
17
100
AcDbEntity
  8
0
100
AcDbBlockBegin
  2
*Model_Space
 70
0
 10
0.0
 20
0.0
 30
0.0
  3
*Model_Space
  1

  0
ENDBLK
  5
19
330
17
100
AcDbEntity
  8
0
100
AcDbBlockEnd
  0
BLOCK
  5
1C
330
1B
100
AcDbEntity
  8
0
100
AcDbBlockBegin
  2
*Paper_Space
 70
0
 10
0.0
 20
0.0
 30
0.0
  3
*Paper_Space
  1

  0
ENDBLK
  5
1D
330
1B
100
AcDbEntity
  8
0
100
AcDbBlockEnd
  0
ENDSEC
  0
SECTION
  2
ENTITIES
  0
LWPOLYLINE
  5
2F
330
17
100
AcDbEntity
  8
0
100
AcDbPolyline
 90
4
 70
0
 10
305.42658515844397
 20
-51.23155947875255
 10
304.30549140844397
 20
-51.23155947875255
 10
305.42658515844397
 20
-49.61827822875255
 10
305.42658515844397
 20
-51.23155947875255
  0
LWPOLYLINE
  5
30
330
17
100
AcDbEntity
  8
0
100
AcDbPolyline
 90
92
 70
0
 10
-0.22408203125000004
 20
-51.19015322875255
 10
-0.22408203125000004
 20
-51.351871978752555
 10
-0.2247929687500001
 20
-51.408434478752554
 10
-0.2269257812499994
 20
-51.462184478752555
 10
-0.2304804687500006
 20
-51.51312197875255
 10
-0.23545703125000017
 20
-51.56124697875255
 10
-0.24185546874999986
 20
-51.60655947875255
 10
-0.24967578125000056
 20
-51.649059478752555
 10
-0.2589179687500005
 20
-51.688746978752555
 10
-0.2695820312499988
 20
-51.72562197875255
 10
-0.2816679687499999
 20
-51.759684478752554
 10
-0.2951757812500002
 20
-51.790934478752554
 10
-0.3148164062500003
 20
-51.828707916252554
 10
-0.3365507812499997
 20
-51.864840728752554
 10
-0.36037890625000024
 20
-51.899332916252554
 10
-0.3863007812500001
 20
-51.93218447875255
 10
-0.4143164062500002
 20
-51.96339541625255
 10
-0.44442578125000054
 20
-51.99296572875255
 10
-0.4766289062500002
 20
-52.02089541625255
 10
-0.5109257812499992
 20
-52.047184478752555
 10
-0.5473164062499993
 20
-52.07183291625255
 10
-0.5858007812499997
 20
-52.09484072875255
 10
-0.6258945312499993
 20
-52.115918853752554
 10
-0.6671132812499998
 20
-52.13477822875255
 10
-0.7094570312500004
 20
-52.15141885375255
 10
-0.7529257812500001
 20
-52.16584072875255
 10
-0.7975195312499999
 20
-52.178043853752555
 10
-0.8432382812500006
 20
-52.18802822875255
 10
-0.8900820312500004
 20
-52.195793853752555
 10
-0.9380507812499994
 20
-52.201340728752555
 10
-0.9871445312500002
 20
-52.20466885375255
 10
-1.0373632812500002
 20
-52.20577822875255
 10
-1.08738671875
 20
-52.20460635375255
 10
-1.13495703125
 20
-52.201090728752554
 10
-1.1800742187499997
 20
-52.195231353752554
 10
-1.2227382812500003
 20
-52.18702822875255
 10
-1.2629492187500002
 20
-52.17648135375255
 10
-1.30070703125
 20
-52.16359072875255
 10
-1.33601171875
 20
-52.148356353752554
 10
-1.368863281249999
 20
-52.130778228752554
 10
-1.3992617187499996
 20
-52.11085635375255
 10
-1.42720703125
 20
-52.08859072875255
 10
-1.4524414062499997
 20
-52.06456729125255
 10
-1.4750195312499996
 20
-52.039371978752555
 10
-1.4949414062500002
 20
-52.013004791252555
 10
-1.51220703125
 20
-51.98546572875255
 10
-1.52681640625
 20
-51.95675479125255
 10
-1.5387695312499998
 20
-51.92687197875255
 10
-1.5480664062499998
 20
-51.895817291252555
 10
-1.554707031249999
 20
-51.863590728752555
 10
-1.55869140625
 20
-51.83019229125255
 10
-1.56001953125
 20
-51.79562197875255
 10
-1.5594101562500002
 20
-51.77286416625255
 10
-1.5575820312499995
 20
-51.75052822875255
 10
-1.55453515625
 20
-51.728614166252555
 10
-1.5502695312499997
 20
-51.707121978752554
 10
-1.5447851562499997
 20
-51.68605166625255
 10
-1.5380820312499996
 20
-51.66540322875255
 10
-1.53016015625
 20
-51.64517666625255
 10
-1.5210195312499994
 20
-51.625371978752554
 10
-1.5106601562499997
 20
-51.605989166252556
 10
-1.49908203125
 20
-51.58702822875255
 10
-1.48623828125
 20
-51.568731353752554
 10
-1.47239453125
 20
-51.55134072875255
 10
-1.4575507812500001
 20
-51.53485635375255
 10
-1.44170703125
 20
-51.519278228752555
 10
-1.42486328125
 20
-51.50460635375255
 10
-1.40701953125
 20
-51.49084072875255
 10
-1.3881757812500002
 20
-51.477981353752554
 10
-1.3683320312499996
 20
-51.46602822875255
 10
-1.34748828125
 20
-51.45498135375255
 10
-1.32564453125
 20
-51.44484072875255
 10
-1.3015585937500003
 20
-51.43509854125255
 10
-1.27430078125
 20
-51.425559478752554
 10
-1.2438710937500002
 20
-51.41622354125255
 10
-1.2102695312499998
 20
-51.40709072875255
 10
-1.1734960937499999
 20
-51.39816104125255
 10
-1.1335507812500003
 20
-51.389434478752555
 10
-1.0904335937500003
 20
-51.38091104125255
 10
-1.0441445312499993
 20
-51.372590728752556
 10
-0.9946835937499996
 20
-51.36447354125255
 10
-0.9420507812499999
 20
-51.35655947875255
 10
-0.8488085937500003
 20
-51.342520416252555
 10
-0.7603320312499999
 20
-51.327903228752554
 10
-0.6766210937500006
 20
-51.31270791625255
 10
-0.5976757812500004
 20
-51.296934478752554
 10
-0.5234960937499995
 20
-51.280582916252555
 10
-0.45408203125000046
 20
-51.26365322875255
 10
-0.38943359374999975
 20
-51.24614541625255
 10
-0.32955078124999915
 20
-51.228059478752556
 10
-0.27443359374999954
 20
-51.209395416252555
 10
-0.22408203125000004
 20
-51.19015322875255
  0
LWPOLYLINE
  5
31
330
17
100
AcDbEntity
  8
0
100
AcDbPolyline
 90
42
 70
0
 10
298.636936720944
 20
-50.94640322875255
 10
298.64315547094395
 20
-50.879809478752556
 10
298.653061720944
 20
-50.81596572875255
 10
298.66665547094397
 20
-50.754871978752554
 10
298.68393672094396
 20
-50.696528228752555
 10
298.70490547094397
 20
-50.640934478752555
 10
298.729561720944
 20
-50.588090728752555
 10
298.75790547094397
 20
-50.53799697875255
 10
298.78993672094396
 20
-50.49065322875255
 10
298.82565547094396
 20
-50.44605947875255
 10
298.86506172094397
 20
-50.404215728752554
 10
298.907280470944
 20
-50.36577041625255
 10
298.95143672094395
 20
-50.33137197875255
 10
298.99753047094396
 20
-50.301020416252555
 10
299.04556172094397
 20
-50.274715728752554
 10
299.09553047094397
 20
-50.25245791625255
 10
299.147436720944
 20
-50.23424697875255
 10
299.20128047094397
 20
-50.22008291625255
 10
299.25706172094397
 20
-50.20996572875255
 10
299.31478047094396
 20
-50.20389541625255
 10
299.37443672094395
 20
-50.20187197875255
 10
299.440069533444
 20
-50.204411041252555
 10
299.503217970944
 20
-50.21202822875255
 10
299.563882033444
 20
-50.22472354125255
 10
299.622061720944
 20
-50.242496978752555
 10
299.677757033444
 20
-50.26534854125255
 10
299.730967970944
 20
-50.293278228752555
 10
299.78169453344395
 20
-50.32628604125255
 10
299.829936720944
 20
-50.36437197875255
 10
299.87569453344395
 20
-50.407536041252555
 10
299.918967970944
 20
-50.45577822875255
 10
299.945233595944
 20
-50.49007510375255
 10
299.96934297094396
 20
-50.527653228752555
 10
299.991296095944
 20
-50.56851260375255
 10
300.011092970944
 20
-50.61265322875255
 10
300.02873359594395
 20
-50.660075103752554
 10
300.044217970944
 20
-50.71077822875255
 10
300.05754609594396
 20
-50.76476260375255
 10
300.06871797094396
 20
-50.82202822875255
 10
300.077733595944
 20
-50.88257510375255
 10
300.08459297094396
 20
-50.94640322875255
 10
298.636936720944
 20
-50.94640322875255
  0
LWPOLYLINE
  5
32
330
17
100
AcDbEntity
  8
0
100
AcDbPolyline
 90
92
 70
0
 10
294.67961250219395
 20
-51.19015322875255
 10
294.67961250219395
 20
-51.351871978752555
 10
294.67890156469394
 20
-51.408434478752554
 10
294.676768752194
 20
-51.462184478752555
 10
294.673214064694
 20
-51.51312197875255
 10
294.66823750219396
 20
-51.56124697875255
 10
294.661839064694
 20
-51.60655947875255
 10
294.65401875219396
 20
-51.649059478752555
 10
294.644776564694
 20
-51.688746978752555
 10
294.63411250219394
 20
-51.72562197875255
 10
294.62202656469395
 20
-51.759684478752554
 10
294.60851875219396
 20
-51.790934478752554
 10
294.588878127194
 20
-51.828707916252554
 10
294.56714375219394
 20
-51.864840728752554
 10
294.543315627194
 20
-51.899332916252554
 10
294.517393752194
 20
-51.93218447875255
 10
294.48937812719396
 20
-51.96339541625255
 10
294.45926875219396
 20
-51.99296572875255
 10
294.42706562719394
 20
-52.02089541625255
 10
294.39276875219394
 20
-52.047184478752555
 10
294.356378127194
 20
-52.07183291625255
 10
294.317893752194
 20
-52.09484072875255
 10
294.27780000219394
 20
-52.115918853752554
 10
294.23658125219396
 20
-52.13477822875255
 10
294.19423750219397
 20
-52.15141885375255
 10
294.150768752194
 20
-52.16584072875255
 10
294.106175002194
 20
-52.178043853752555
 10
294.06045625219394
 20
-52.18802822875255
 10
294.01361250219395
 20
-52.195793853752555
 10
293.96564375219396
 20
-52.201340728752555
 10
293.91655000219396
 20
-52.20466885375255
 10
293.86633125219396
 20
-52.20577822875255
 10
293.81630781469397
 20
-52.20460635375255
 10
293.76873750219397
 20
-52.201090728752554
 10
293.72362031469396
 20
-52.195231353752554
 10
293.680956252194
 20
-52.18702822875255
 10
293.64074531469396
 20
-52.17648135375255
 10
293.60298750219397
 20
-52.16359072875255
 10
293.56768281469397
 20
-52.148356353752554
 10
293.53483125219395
 20
-52.130778228752554
 10
293.504432814694
 20
-52.11085635375255
 10
293.47648750219395
 20
-52.08859072875255
 10
293.451253127194
 20
-52.06456729125255
 10
293.428675002194
 20
-52.039371978752555
 10
293.40875312719396
 20
-52.013004791252555
 10
293.39148750219397
 20
-51.98546572875255
 10
293.37687812719395
 20
-51.95675479125255
 10
293.36492500219396
 20
-51.92687197875255
 10
293.355628127194
 20
-51.895817291252555
 10
293.34898750219395
 20
-51.863590728752555
 10
293.345003127194
 20
-51.83019229125255
 10
293.34367500219395
 20
-51.79562197875255
 10
293.34428437719396
 20
-51.77286416625255
 10
293.346112502194
 20
-51.75052822875255
 10
293.349159377194
 20
-51.728614166252555
 10
293.35342500219394
 20
-51.707121978752554
 10
293.358909377194
 20
-51.68605166625255
 10
293.365612502194
 20
-51.66540322875255
 10
293.37353437719395
 20
-51.64517666625255
 10
293.382675002194
 20
-51.625371978752554
 10
293.39303437719394
 20
-51.605989166252556
 10
293.40461250219397
 20
-51.58702822875255
 10
293.417456252194
 20
-51.568731353752554
 10
293.43130000219395
 20
-51.55134072875255
 10
293.44614375219396
 20
-51.53485635375255
 10
293.46198750219395
 20
-51.519278228752555
 10
293.47883125219397
 20
-51.50460635375255
 10
293.49667500219397
 20
-51.49084072875255
 10
293.51551875219394
 20
-51.477981353752554
 10
293.53536250219395
 20
-51.46602822875255
 10
293.556206252194
 20
-51.45498135375255
 10
293.57805000219395
 20
-51.44484072875255
 10
293.602135939694
 20
-51.43509854125255
 10
293.62939375219395
 20
-51.425559478752554
 10
293.659823439694
 20
-51.41622354125255
 10
293.693425002194
 20
-51.40709072875255
 10
293.730198439694
 20
-51.39816104125255
 10
293.770143752194
 20
-51.389434478752555
 10
293.813260939694
 20
-51.38091104125255
 10
293.85955000219394
 20
-51.372590728752556
 10
293.909010939694
 20
-51.36447354125255
 10
293.961643752194
 20
-51.35655947875255
 10
294.054885939694
 20
-51.342520416252555
 10
294.14336250219395
 20
-51.327903228752554
 10
294.227073439694
 20
-51.31270791625255
 10
294.30601875219395
 20
-51.296934478752554
 10
294.38019843969397
 20
-51.280582916252555
 10
294.449612502194
 20
-51.26365322875255
 10
294.51426093969394
 20
-51.24614541625255
 10
294.57414375219395
 20
-51.228059478752556
 10
294.62926093969395
 20
-51.209395416252555
 10
294.67961250219395
 20
-51.19015322875255
  0
LWPOLYLINE
  5
33
330
17
100
AcDbEntity
  8
0
100
AcDbPolyline
 90
81
 70
0
 10
9.565859375
 20
-50.726871978752555
 10
9.568125
 20
-50.55602041625255
 10
9.574921875000003
 20
-50.39627822875255
 10
9.58625
 20
-50.24764541625255
 10
9.602109375000003
 20
-50.11012197875255
 10
9.6225
 20
-49.983707916252555
 10
9.647421875000001
 20
-49.868403228752555
 10
9.676875
 20
-49.76420791625255
 10
9.710859375000004
 20
-49.67112197875255
 10
9.749375000000002
 20
-49.58914541625255
 10
9.792421875
 20
-49.51827822875255
 10
9.829882812500001
 20
-49.46959072875255
 10
9.869765625000001
 20
-49.42602822875255
 10
9.912070312500001
 20
-49.38759072875255
 10
9.956796875
 20
-49.354278228752555
 10
10.003945312499999
 20
-49.326090728752554
 10
10.053515625000001
 20
-49.30302822875255
 10
10.1055078125
 20
-49.28509072875255
 10
10.159921875000002
 20
-49.272278228752555
 10
10.216757812500001
 20
-49.26459072875255
 10
10.276015625000001
 20
-49.262028228752555
 10
10.336562500000001
 20
-49.26493447875255
 10
10.395078125000003
 20
-49.27365322875255
 10
10.4515625
 20
-49.288184478752555
 10
10.506015625000002
 20
-49.30852822875255
 10
10.5584375
 20
-49.33468447875255
 10
10.608828125000002
 20
-49.366653228752554
 10
10.657187500000001
 20
-49.40443447875255
 10
10.703515625000005
 20
-49.44802822875255
 10
10.747812500000004
 20
-49.49743447875255
 10
10.790078125
 20
-49.552653228752554
 10
10.829265625000001
 20
-49.61656729125255
 10
10.864328125000002
 20
-49.692371978752554
 10
10.895265625000002
 20
-49.78006729125255
 10
10.922078125
 20
-49.87965322875255
 10
10.944765625
 20
-49.991129791252554
 10
10.963328125
 20
-50.114496978752555
 10
10.977765625000002
 20
-50.249754791252556
 10
10.988078125000005
 20
-50.39690322875255
 10
10.994265625
 20
-50.55594229125255
 10
10.996328125
 20
-50.726871978752555
 10
10.994265624999999
 20
-50.896793853752555
 10
10.988078125000001
 20
-51.054996978752555
 10
10.977765625000002
 20
-51.201481353752555
 10
10.963328125000002
 20
-51.336246978752555
 10
10.944765625
 20
-51.459293853752555
 10
10.922078125
 20
-51.570621978752555
 10
10.895265625
 20
-51.670231353752555
 10
10.864328125000002
 20
-51.758121978752555
 10
10.829265625000003
 20
-51.834293853752555
 10
10.790078125
 20
-51.898746978752555
 10
10.747859375
 20
-51.954411041252555
 10
10.703703125000002
 20
-52.004215728752555
 10
10.657609375000002
 20
-52.048161041252555
 10
10.609578125
 20
-52.086246978752555
 10
10.559609375
 20
-52.118473541252555
 10
10.507703125000003
 20
-52.144840728752555
 10
10.453859375
 20
-52.165348541252555
 10
10.398078125000005
 20
-52.179996978752555
 10
10.340359375000002
 20
-52.188786041252555
 10
10.280703125
 20
-52.191715728752555
 10
10.2211953125
 20
-52.18880166625255
 10
10.163609375000002
 20
-52.180059478752554
 10
10.107945312500002
 20
-52.165489166252556
 10
10.054203124999999
 20
-52.14509072875255
 10
10.0023828125
 20
-52.11886416625255
 10
9.952484375000003
 20
-52.08680947875255
 10
9.9045078125
 20
-52.048926666252555
 10
9.858453125000004
 20
-52.00521572875255
 10
9.814320312500001
 20
-51.95567666625255
 10
9.772109375000001
 20
-51.900309478752554
 10
9.732921875
 20
-51.83598135375255
 10
9.697859375000002
 20
-51.75987197875255
 10
9.666921875
 20
-51.67198135375255
 10
9.640109375000002
 20
-51.57230947875255
 10
9.617421875000002
 20
-51.460856353752554
 10
9.598859375000002
 20
-51.33762197875255
 10
9.584421875
 20
-51.20260635375255
 10
9.574109375000004
 20
-51.05580947875255
 10
9.567921875000001
 20
-50.89723135375255
 10
9.565859375
 20
-50.726871978752555
  0
LWPOLYLINE
  5
34
330
17
100
AcDbEntity
  8
0
100
AcDbPolyline
 90
42
 70
0
 10
3.7332421875
 20
-50.94640322875255
 10
3.7394609375000005
 20
-50.879809478752556
 10
3.7493671875000008
 20
-50.81596572875255
 10
3.762960937499999
 20
-50.754871978752554
 10
3.7802421875000007
 20
-50.696528228752555
 10
3.8012109375000005
 20
-50.640934478752555
 10
3.8258671875
 20
-50.588090728752555
 10
3.8542109375000013
 20
-50.53799697875255
 10
3.8862421875000006
 20
-50.49065322875255
 10
3.9219609375000015
 20
-50.44605947875255
 10
3.9613671875000005
 20
-50.404215728752554
 10
4.0035859375000005
 20
-50.36577041625255
 10
4.047742187500001
 20
-50.33137197875255
 10
4.0938359375
 20
-50.301020416252555
 10
4.141867187500001
 20
-50.274715728752554
 10
4.1918359375000005
 20
-50.25245791625255
 10
4.2437421875000005
 20
-50.23424697875255
 10
4.297585937500001
 20
-50.22008291625255
 10
4.353367187500002
 20
-50.20996572875255
 10
4.411085937500001
 20
-50.20389541625255
 10
4.470742187500001
 20
-50.20187197875255
 10
4.536375000000001
 20
-50.204411041252555
 10
4.599523437500002
 20
-50.21202822875255
 10
4.660187500000001
 20
-50.22472354125255
 10
4.7183671875
 20
-50.242496978752555
 10
4.774062500000001
 20
-50.26534854125255
 10
4.827273437500001
 20
-50.293278228752555
 10
4.878
 20
-50.32628604125255
 10
4.926242187500003
 20
-50.36437197875255
 10
4.972000000000001
 20
-50.407536041252555
 10
5.015273437500001
 20
-50.45577822875255
 10
5.041539062500002
 20
-50.49007510375255
 10
5.065648437500002
 20
-50.527653228752555
 10
5.0876015625000015
 20
-50.56851260375255
 10
5.107398437500002
 20
-50.61265322875255
 10
5.125039062500001
 20
-50.660075103752554
 10
5.140523437500001
 20
-50.71077822875255
 10
5.153851562500002
 20
-50.76476260375255
 10
5.165023437500002
 20
-50.82202822875255
 10
5.1740390625
 20
-50.88257510375255
 10
5.1808984375
 20
-50.94640322875255
 10
3.7332421875
 20
-50.94640322875255
  0
LWPOLYLINE
  5
35
330
17
100
AcDbEntity
  8
0
100
AcDbPolyline
 90
5
 70
0
 10
262.461847266722
 20
-62.44356299547452
 10
-22.44184726672197
 20
-62.44356299547452
 10
-22.44184726672197
 20
22.460131537969417
 10
262.461847266722
 20
22.460131537969417
 10
262.461847266722
 20
-62.44356299547452
  0
LWPOLYLINE
  5
36
330
17
100
AcDbEntity
  8
0
100
AcDbPolyline
 90
33
 70
0
 10
28.550463162945267
 20
-0.009999999999999998
 10
29.057372055837117
 20
-0.009999999999999998
 10
29.047372055837116
 20
-0.02
 10
29.047372055837116
 20
-7.9799999999999995
 10
29.067372055837115
 20
-7.999999999999999
 10
29.98
 20
-7.999999999999999
 10
30.0
 20
-7.9799999999999995
 10
30.0
 20
-0.02
 10
29.98914213562373
 20
-0.009142135623730833
 10
29.99
 20
-0.008284271247463375
 10
30.01
 20
-0.008284271247463375
 10
30.011715728752538
 20
-0.009999999999999998
 10
30.496908893054734
 20
-0.009999999999999998
 10
30.460978195694214
 20
0.1706358138186315
 10
30.460760684531987
 20
0.17116093221644282
 10
30.352483746654023
 20
0.3332088214077801
 10
30.342741541903038
 20
0.3429510261587616
 10
30.08699506202598
 20
0.47965040400845577
 10
30.08619624360382
 20
0.4798092990556467
 10
29.987769162672674
 20
0.4701151107088948
 10
29.986671145862623
 20
0.4711102954680965
 10
29.986671145862623
 20
0.489
 10
29.282035354437475
 20
0.489
 10
29.282035354437465
 20
0.44761481755150434
 10
29.264893050586014
 20
0.489
 10
29.057884760528104
 20
0.489
 10
28.866736242182533
 20
0.45097819569469483
 10
28.866211123784723
 20
0.45076068453246876
 10
28.70416323459228
 20
0.3424837466540798
 10
28.694888309345938
 20
0.3332088214077373
 10
28.58661137146802
 20
0.1711609322164621
 10
28.586393860305794
 20
0.1706358138186507
 10
28.550463162945267
 20
-0.009999999999999998
  0
LWPOLYLINE
  5
37
330
17
100
AcDbEntity
  8
0
100
AcDbPolyline
 90
48
 70
0
 10
58.55046316294525
 20
-0.009999999999999998
 10
59.057372055837114
 20
-0.009999999999999998
 10
59.04737205583711
 20
-0.02
 10
59.04737205583711
 20
-7.9799999999999995
 10
59.06737205583711
 20
-7.999999999999999
 10
59.971715728752535
 20
-7.999999999999999
 10
59.99999999999999
 20
-8.028284271247456
 10
59.99999999999999
 20
-15.971715728752544
 10
59.971715728752535
 20
-16.0
 10
59.55002441697177
 20
-16.0
 10
59.55018452346135
 20
-16.000195090322016
 10
59.512523034370375
 20
-16.18953218176091
 10
59.512998016884026
 20
-16.190678890987268
 10
59.97420756094481
 20
-16.49900008609184
 10
60.93183588475949
 20
-16.49943304239026
 10
60.93186339715947
 20
-16.438580125883334
 10
60.933058487379284
 20
-16.43759979271597
 10
60.95262794416289
 20
-16.441492399693132
 10
60.95262794416289
 20
-8.02
 10
60.93262794416289
 20
-8.0
 10
60.028284271247465
 20
-8.0
 10
60.00000000000001
 20
-7.971715728752544
 10
60.00000000000001
 20
-0.02
 10
59.98914213562374
 20
-0.009142135623729317
 10
59.99
 20
-0.008284271247460558
 10
60.01
 20
-0.008284271247460558
 10
60.011715728752534
 20
-0.009999999999999998
 10
60.49690889291319
 20
-0.009999999999999998
 10
60.46097819098718
 20
0.17063582514720343
 10
60.46076067979938
 20
0.1711609435701857
 10
60.35248372923114
 20
0.33320883879494473
 10
60.34278736786581
 20
0.34290519920504153
 10
60.12217748825851
 20
0.47128509620531134
 10
60.12137382322399
 20
0.4715063563880952
 10
59.98773312539534
 20
0.4632072476778025
 10
59.98667114463262
 20
0.4642053250220266
 10
59.98667114463262
 20
0.489
 10
59.28203535443577
 20
0.489
 10
59.28203535443582
 20
0.44771211689091067
 10
59.26493478185008
 20
0.489
 10
59.057884760528104
 20
0.489
 10
58.86673624218265
 20
0.45097819569474196
 10
58.86621112378485
 20
0.45076068453252116
 10
58.70416323459238
 20
0.3424837466541845
 10
58.69488830934604
 20
0.33320882140785135
 10
58.58661137146719
 20
0.17116093221446063
 10
58.58639386030496
 20
0.1706358138166268
 10
58.55046316294525
 20
-0.009999999999999998
  0
LWPOLYLINE
  5
38
330
17
100
AcDbEntity
  8
0
100
AcDbPolyline
 90
46
 70
0
 10
59.54890649927619
 20
-24.000000000000004
 10
59.971715728752535
 20
-24.000000000000004
 10
59.99999999999999
 20
-24.02828427124746
 10
59.99999999999999
 20
-31.971715728752546
 10
59.97171572875254
 20
-32.0
 10
59.06737205583711
 20
-32.0
 10
59.04737205583711
 20
-32.02
 10
59.04737205583711
 20
-39.980000000000004
 10
59.057372055837114
 20
-39.99000000000001
 10
58.550463162945256
 20
-39.99000000000001
 10
58.58639386030513
 20
-40.17063581381703
 10
58.58661137146736
 20
-40.17116093221486
 10
58.69488830934607
 20
-40.33320882140787
 10
58.7041632345924
 20
-40.342483746654196
 10
58.86621112378515
 20
-40.45076068453264
 10
58.866736349003645
 20
-40.45097823994144
 10
59.057656078339576
 20
-40.48899999271358
 10
59.26485374194683
 20
-40.4890948994499
 10
59.28203535443723
 20
-40.44761481755214
 10
59.28203535443722
 20
-40.489102769474776
 10
59.988422770697824
 20
-40.48942632970751
 10
60.086099053437486
 20
-40.479828631404075
 10
60.086995062023895
 20
-40.47965040400888
 10
60.342741541903216
 20
-40.342951026158595
 10
60.35248374665419
 20
-40.33320882140762
 10
60.46076068453264
 20
-40.17116093221486
 10
60.460978200961634
 20
-40.17063580110193
 10
60.4969140149805
 20
-39.99000000000001
 10
60.011715728752534
 20
-39.99000000000001
 10
60.01
 20
-39.991715728752546
 10
59.99
 20
-39.991715728752546
 10
59.98914213562373
 20
-39.990857864376274
 10
60.00000000000001
 20
-39.980000000000004
 10
60.00000000000001
 20
-32.02828427124746
 10
60.02828427124746
 20
-32.00000000000001
 10
60.93262794416289
 20
-32.00000000000001
 10
60.95262794416289
 20
-31.980000000000004
 10
60.95262794416289
 20
-23.556884087634753
 10
60.9322018193255
 20
-23.560772398958623
 10
60.93101481763263
 20
-23.559790039367197
 10
60.93101481763263
 20
-23.500999999999998
 10
59.97443328880834
 20
-23.500999999999998
 10
59.5129979696514
 20
-23.809321223042375
 10
59.512521844095936
 20
-23.810470691815777
 10
59.54906292022251
 20
-23.999810504666012
 10
59.54890649927619
 20
-24.000000000000004
  0
LWPOLYLINE
  5
39
330
17
100
AcDbEntity
  8
0
100
AcDbPolyline
 90
46
 70
0
 10
30.49691401483929
 20
-39.99000000000001
 10
30.011715728752538
 20
-39.99000000000001
 10
30.01
 20
-39.991715728752546
 10
29.99
 20
-39.991715728752546
 10
29.98914213562373
 20
-39.990857864376274
 10
30.0
 20
-39.980000000000004
 10
30.0
 20
-32.028284271247465
 10
30.02828427124746
 20
-32.00000000000001
 10
30.932627944162885
 20
-32.00000000000001
 10
30.952627944162884
 20
-31.980000000000004
 10
30.952627944162884
 20
-23.55688408763461
 10
30.932201819325503
 20
-23.560772398958488
 10
30.931014817632626
 20
-23.559790039367066
 10
30.931014817632626
 20
-23.500999999999998
 10
29.974433288808346
 20
-23.500999999999998
 10
29.512997969651398
 20
-23.809321223042375
 10
29.512521844095932
 20
-23.810470691815777
 10
29.54906292022249
 20
-23.999810504666012
 10
29.54890649927617
 20
-24.000000000000004
 10
29.971715728752535
 20
-24.000000000000004
 10
30.0
 20
-24.02828427124747
 10
30.0
 20
-31.97171572875254
 10
29.971715728752542
 20
-32.0
 10
29.067372055837115
 20
-32.0
 10
29.047372055837116
 20
-32.02
 10
29.047372055837116
 20
-39.980000000000004
 10
29.057372055837117
 20
-39.99000000000001
 10
28.55046316294527
 20
-39.99000000000001
 10
28.586393860305943
 20
-40.170635813819004
 10
28.586611371468177
 20
-40.17116093221683
 10
28.694888309345995
 20
-40.333208821407794
 10
28.704163234592336
 20
-40.34248374665413
 10
28.866211123785146
 20
-40.45076068453264
 10
28.866736355105733
 20
-40.450978242469006
 10
29.057643014784027
 20
-40.48899998913295
 10
29.26485149556689
 20
-40.489100322690945
 10
29.282035354435976
 20
-40.447614817555305
 10
29.282035354435934
 20
-40.48910864338175
 10
29.988450441144533
 20
-40.489450700515704
 10
30.12127791632234
 20
-40.47153276089455
 10
30.122177488257186
 20
-40.471285096205676
 10
30.34278736786572
 20
-40.34290519920513
 10
30.352483729231082
 20
-40.333208838795
 10
30.46076067979929
 20
-40.17116094357041
 10
30.46097819625388
 20
-40.17063581243229
 10
30.49691401483929
 20
-39.99000000000001
  0
LWPOLYLINE
  5
3A
330
17
100
AcDbEntity
  8
0
100
AcDbPolyline
 90
16
 70
0
 10
30.952627944162884
 20
-16.441492399693264
 10
30.952627944162884
 20
-8.02
 10
30.932627944162885
 20
-8.0
 10
30.02
 20
-8.0
 10
30.0
 20
-8.02
 10
30.0
 20
-15.971715728752537
 10
29.971715728752535
 20
-16.0
 10
29.550024416971763
 20
-16.0
 10
29.550184523461336
 20
-16.000195090322016
 10
29.512523034370375
 20
-16.189532181760914
 10
29.51299801688403
 20
-16.190678890987268
 10
29.974207560944816
 20
-16.49900008609184
 10
30.93183588475949
 20
-16.49943304239026
 10
30.93186339715947
 20
-16.43858012588346
 10
30.933058487379284
 20
-16.437599792716096
 10
30.952627944162884
 20
-16.441492399693264
  0
LWPOLYLINE
  5
3B
330
17
100
AcDbEntity
  8
0
100
AcDbPolyline
 90
46
 70
0
 10
180.9426279441629
 20
-0.009999999999999998
 10
181.44953683705475
 20
-0.009999999999999998
 10
181.41360613969508
 20
0.1706358138166004
 10
181.41338862853286
 20
0.17116093221434478
 10
181.30511169065383
 20
0.33320882140795405
 10
181.29583676540747
 20
0.3424837466543065
 10
181.13378887621334
 20
0.45076068453326457
 10
181.13326364489285
 20
0.45097824246960155
 10
180.94235698521595
 20
0.4889999891329545
 10
180.73514850443345
 20
0.489100322690944
 10
180.7179646455657
 20
0.4476148175584725
 10
180.71796464556581
 20
0.48910864338174614
 10
180.01154955885545
 20
0.4894507005156986
 10
179.87872208367904
 20
0.47153276089491103
 10
179.87782251174417
 20
0.47128509620604386
 10
179.65721263213416
 20
0.3429051992049984
 10
179.64751627076888
 20
0.333208838794951
 10
179.53923932020388
 20
0.1711609435780284
 10
179.53902180374934
 20
0.17063581244003156
 10
179.5030859851608
 20
-0.009999999999999998
 10
179.98828427124747
 20
-0.009999999999999998
 10
179.99
 20
-0.008284271247454924
 10
180.01
 20
-0.008284271247454924
 10
180.01085786437625
 20
-0.009142135623720956
 10
179.99999999999997
 20
-0.02
 10
179.99999999999997
 20
-7.971715728752553
 10
179.97171572875254
 20
-8.0
 10
179.0673720558371
 20
-8.0
 10
179.0473720558371
 20
-8.02
 10
179.0473720558371
 20
-16.443115912365798
 10
179.06779818067452
 20
-16.439227601041893
 10
179.06898518236738
 20
-16.440209960633315
 10
179.06898518236738
 20
-16.499
 10
180.02556671119163
 20
-16.499
 10
180.4870020303479
 20
-16.190678776959253
 10
180.48747815590335
 20
-16.18952930818588
 10
180.45093707977682
 20
-16.000189495333988
 10
180.45109350072315
 20
-15.999999999999996
 10
180.02828427124746
 20
-15.999999999999996
 10
180.00000000000003
 20
-15.97171572875255
 10
180.00000000000003
 20
-8.028284271247445
 10
180.02828427124746
 20
-7.999999999999999
 10
180.9326279441629
 20
-7.999999999999999
 10
180.9526279441629
 20
-7.9799999999999995
 10
180.9526279441629
 20
-0.02
 10
180.9426279441629
 20
-0.009999999999999998
  0
LWPOLYLINE
  5
3C
330
17
100
AcDbEntity
  8
0
100
AcDbPolyline
 90
48
 70
0
 10
181.44953683705475
 20
-39.99000000000001
 10
180.9426279441629
 20
-39.99000000000001
 10
180.9526279441629
 20
-39.980000000000004
 10
180.9526279441629
 20
-32.02
 10
180.9326279441629
 20
-32.0
 10
180.02828427124746
 20
-32.0
 10
180.00000000000003
 20
-31.971715728752553
 10
180.00000000000003
 20
-24.028284271247447
 10
180.02828427124746
 20
-24.0
 10
180.44997558302757
 20
-24.0
 10
180.449815476538
 20
-23.999804909677984
 10
180.48747696562893
 20
-23.810467818237438
 10
180.48700198311528
 20
-23.809321109011105
 10
180.02579243905515
 20
-23.50099991390816
 10
179.06816411524053
 20
-23.500566957609752
 10
179.06813660284055
 20
-23.561419874116154
 10
179.06694151262073
 20
-23.562400207283517
 10
179.0473720558371
 20
-23.55850760030632
 10
179.0473720558371
 20
-31.980000000000004
 10
179.0673720558371
 20
-32.00000000000001
 10
179.97171572875254
 20
-32.00000000000001
 10
179.99999999999997
 20
-32.02828427124745
 10
179.99999999999997
 20
-39.980000000000004
 10
180.01085786437625
 20
-39.99085786437629
 10
180.01
 20
-39.99171572875255
 10
179.99
 20
-39.99171572875255
 10
179.98828427124747
 20
-39.99000000000001
 10
179.50309110708687
 20
-39.99000000000001
 10
179.53902180901613
 20
-40.17063582515529
 10
179.53923932020393
 20
-40.17116094357822
 10
179.64751627076888
 20
-40.33320883879495
 10
179.65721263213416
 20
-40.342905199205
 10
179.87782251174534
 20
-40.471285096206365
 10
179.87862617677987
 20
-40.47150635638914
 10
180.01226687460465
 20
-40.46320724767809
 10
180.01332885536738
 20
-40.46420532502231
 10
180.01332885536738
 20
-40.489
 10
180.71796464556533
 20
-40.489
 10
180.71796464556525
 20
-40.44761481755756
 10
180.73510694941416
 20
-40.489
 10
180.94211523947186
 20
-40.489
 10
181.1332637578154
 20
-40.45097819569554
 10
181.13378887621317
 20
-40.450760684533336
 10
181.29583676540756
 20
-40.34248374665421
 10
181.30511169065392
 20
-40.33320882140786
 10
181.4133886285327
 20
-40.17116093221479
 10
181.41360613969488
 20
-40.17063581381705
 10
181.44953683705475
 20
-39.99000000000001
  0
LWPOLYLINE
  5
3D
330
17
100
AcDbEntity
  8
0
100
AcDbPolyline
 90
31
 70
0
 10
89.50309110694523
 20
-0.009999999999999998
 10
89.98828427124747
 20
-0.009999999999999998
 10
89.99
 20
-0.008284271247466196
 10
90.01
 20
-0.008284271247466196
 10
90.01085786437628
 20
-0.00914213562373768
 10
90.00000000000001
 20
-0.02
 10
90.00000000000001
 20
-7.9799999999999995
 10
90.02000000000001
 20
-7.999999999999999
 10
90.93262794416287
 20
-7.999999999999999
 10
90.95262794416287
 20
-7.9799999999999995
 10
90.95262794416287
 20
-0.02
 10
90.94262794416287
 20
-0.009999999999999998
 10
91.44953683705477
 20
-0.009999999999999998
 10
91.413606139695
 20
0.1706358138167514
 10
91.41338862853281
 20
0.17116093221449716
 10
91.3051116906542
 20
0.33320882140761426
 10
91.29583676540786
 20
0.342483746653969
 10
91.13378887621379
 20
0.45076068453309287
 10
91.13326365099533
 20
0.45097823994187825
 10
90.94234392166042
 20
0.48899999271358097
 10
90.73514625805323
 20
0.489094899449905
 10
90.71796464556273
 20
0.44761481755189236
 10
90.71796464556273
 20
0.4891027694747782
 10
90.01157722930218
 20
0.48942632970750716
 10
89.9139009465603
 20
0.47982863140362964
 10
89.91300493797388
 20
0.4796504040084269
 10
89.65725845809702
 20
0.3429510261588136
 10
89.64751625334601
 20
0.33320882140781893
 10
89.53923931546714
 20
0.17116093221439949
 10
89.53902180430495
 20
0.17063581381665463
 10
89.50309110694523
 20
-0.009999999999999998
  0
LWPOLYLINE
  5
3E
330
17
100
AcDbEntity
  8
0
100
AcDbPolyline
 90
33
 70
0
 10
118.55046316294523
 20
-0.009999999999999998
 10
119.05737205583713
 20
-0.009999999999999998
 10
119.04737205583713
 20
-0.02
 10
119.04737205583713
 20
-7.9799999999999995
 10
119.06737205583713
 20
-7.999999999999999
 10
119.97999999999999
 20
-7.999999999999999
 10
119.99999999999999
 20
-7.9799999999999995
 10
119.99999999999999
 20
-0.02
 10
119.98914213562372
 20
-0.00914213562373768
 10
119.99
 20
-0.008284271247466196
 10
120.01
 20
-0.008284271247466196
 10
120.01171572875253
 20
-0.009999999999999998
 10
120.49690889305477
 20
-0.009999999999999998
 10
120.46097819569505
 20
0.17063581381665463
 10
120.46076068453286
 20
0.17116093221439949
 10
120.35248374665399
 20
0.33320882140781893
 10
120.34274154190298
 20
0.3429510261588136
 10
120.08699506202612
 20
0.4796504040084269
 10
120.08619624360394
 20
0.4798092990556228
 10
119.98776916267266
 20
0.47011511070912726
 10
119.98667114586262
 20
0.4711102954683293
 10
119.98667114586262
 20
0.489
 10
119.28203535443727
 20
0.489
 10
119.28203535443727
 20
0.44761481755189236
 10
119.26489305058598
 20
0.489
 10
119.05788476052808
 20
0.489
 10
118.86673624218403
 20
0.45097819569531983
 10
118.86621112378621
 20
0.45076068453309287
 10
118.70416323459214
 20
0.342483746653969
 10
118.6948883093458
 20
0.33320882140761426
 10
118.58661137146719
 20
0.17116093221449716
 10
118.586393860305
 20
0.1706358138167514
 10
118.55046316294523
 20
-0.009999999999999998
  0
LWPOLYLINE
  5
3F
330
17
100
AcDbEntity
  8
0
100
AcDbPolyline
 90
48
 70
0
 10
148.55046316294525
 20
-0.009999999999999998
 10
149.0573720558371
 20
-0.009999999999999998
 10
149.0473720558371
 20
-0.02
 10
149.0473720558371
 20
-7.9799999999999995
 10
149.0673720558371
 20
-7.999999999999999
 10
149.97171572875254
 20
-7.999999999999999
 10
149.99999999999997
 20
-8.028284271247445
 10
149.99999999999997
 20
-15.971715728752553
 10
149.97171572875254
 20
-16.0
 10
149.55002441697243
 20
-16.0
 10
149.550184523462
 20
-16.000195090322016
 10
149.51252303437107
 20
-16.18953218176256
 10
149.51299801688472
 20
-16.19067889098889
 10
149.97420756094485
 20
-16.49900008609184
 10
150.93183588475947
 20
-16.499433042390248
 10
150.93186339715945
 20
-16.438580125883846
 10
150.93305848737927
 20
-16.437599792716483
 10
150.9526279441629
 20
-16.44149239969368
 10
150.9526279441629
 20
-8.02
 10
150.9326279441629
 20
-8.0
 10
150.02828427124746
 20
-8.0
 10
150.00000000000003
 20
-7.971715728752553
 10
150.00000000000003
 20
-0.02
 10
149.98914213562375
 20
-0.009142135623720956
 10
149.99
 20
-0.008284271247454924
 10
150.01
 20
-0.008284271247454924
 10
150.01171572875253
 20
-0.009999999999999998
 10
150.49690889291313
 20
-0.009999999999999998
 10
150.46097819098392
 20
0.17063582515509895
 10
150.46076067979612
 20
0.1711609435780284
 10
150.35248372923112
 20
0.333208838794951
 10
150.34278736786584
 20
0.3429051992049984
 10
150.12217748825583
 20
0.47128509620604386
 10
150.1213738232213
 20
0.4715063563888259
 10
149.98773312539535
 20
0.4632072476780055
 10
149.98667114463262
 20
0.4642053250222293
 10
149.98667114463262
 20
0.489
 10
149.28203535443419
 20
0.489
 10
149.2820353544343
 20
0.44771211689405843
 10
149.2649347818499
 20
0.489
 10
149.05788476052814
 20
0.489
 10
148.8667362421844
 20
0.4509781956954647
 10
148.86621112378666
 20
0.45076068453326457
 10
148.70416323459253
 20
0.3424837466543065
 10
148.69488830934617
 20
0.33320882140795405
 10
148.58661137146714
 20
0.17116093221434478
 10
148.58639386030492
 20
0.1706358138166004
 10
148.55046316294525
 20
-0.009999999999999998
  0
LWPOLYLINE
  5
40
330
17
100
AcDbEntity
  8
0
100
AcDbPolyline
 90
46
 70
0
 10
149.54890649927685
 20
-24.000000000000004
 10
149.97171572875254
 20
-24.000000000000004
 10
149.99999999999997
 20
-24.02828427124745
 10
149.99999999999997
 20
-31.971715728752553
 10
149.97171572875254
 20
-32.0
 10
149.0673720558371
 20
-32.0
 10
149.0473720558371
 20
-32.02
 10
149.0473720558371
 20
-39.980000000000004
 10
149.0573720558371
 20
-39.99000000000001
 10
148.55046316294525
 20
-39.99000000000001
 10
148.58639386030512
 20
-40.17063581381705
 10
148.5866113714673
 20
-40.17116093221479
 10
148.69488830934608
 20
-40.33320882140786
 10
148.70416323459244
 20
-40.34248374665421
 10
148.86621112378683
 20
-40.450760684533336
 10
148.86673635510738
 20
-40.45097824246969
 10
149.05764301478405
 20
-40.48899998913295
 10
149.26485149556663
 20
-40.48910032269094
 10
149.28203535443475
 20
-40.44761481755756
 10
149.28203535443467
 20
-40.48910864338174
 10
149.98845044114452
 20
-40.4894507005157
 10
150.1212779163198
 20
-40.47153276089523
 10
150.12217748825466
 20
-40.471285096206365
 10
150.34278736786584
 20
-40.342905199205
 10
150.35248372923112
 20
-40.33320883879495
 10
150.46076067979607
 20
-40.17116094357822
 10
150.4609781962506
 20
-40.17063581244022
 10
150.4969140148392
 20
-39.99000000000001
 10
150.01171572875253
 20
-39.99000000000001
 10
150.01
 20
-39.99171572875255
 10
149.99
 20
-39.99171572875255
 10
149.98914213562375
 20
-39.99085786437629
 10
150.00000000000003
 20
-39.980000000000004
 10
150.00000000000003
 20
-32.02828427124745
 10
150.02828427124746
 20
-32.00000000000001
 10
150.9326279441629
 20
-32.00000000000001
 10
150.9526279441629
 20
-31.980000000000004
 10
150.9526279441629
 20
-23.556884087634263
 10
150.9322018193255
 20
-23.56077239895817
 10
150.93101481763264
 20
-23.55979003936675
 10
150.93101481763264
 20
-23.500999999999998
 10
149.97443328880837
 20
-23.500999999999998
 10
149.5129979696521
 20
-23.809321223040744
 10
149.51252184409665
 20
-23.810470691814118
 10
149.54906292022318
 20
-23.999810504666012
 10
149.54890649927685
 20
-24.000000000000004
  0
LWPOLYLINE
  5
41
330
17
100
AcDbEntity
  8
0
100
AcDbPolyline
 90
31
 70
0
 10
120.49690889305477
 20
-39.99000000000001
 10
120.01171572875253
 20
-39.99000000000001
 10
120.01
 20
-39.991715728752546
 10
119.99
 20
-39.991715728752546
 10
119.98914213562372
 20
-39.990857864376274
 10
119.99999999999999
 20
-39.980000000000004
 10
119.99999999999999
 20
-32.02
 10
119.97999999999999
 20
-32.0
 10
119.06737205583713
 20
-32.0
 10
119.04737205583713
 20
-32.02
 10
119.04737205583713
 20
-39.980000000000004
 10
119.05737205583713
 20
-39.99000000000001
 10
118.55046316294523
 20
-39.99000000000001
 10
118.58639386030512
 20
-40.17063581381706
 10
118.58661137146731
 20
-40.171160932214796
 10
118.69488830934591
 20
-40.33320882140774
 10
118.70416323459227
 20
-40.34248374665408
 10
118.86621112378675
 20
-40.45076068453332
 10
118.86673634900524
 20
-40.45097823994211
 10
119.05765607833959
 20
-40.48899999271358
 10
119.26485374194685
 20
-40.4890948994499
 10
119.28203535443713
 20
-40.44761481755243
 10
119.28203535443713
 20
-40.489102769474776
 10
119.98842277069781
 20
-40.48942632970751
 10
120.08609905344055
 20
-40.479828631403464
 10
120.08699506202699
 20
-40.479650404008254
 10
120.34274154190295
 20
-40.34295102615885
 10
120.35248374665396
 20
-40.33320882140786
 10
120.46076068453269
 20
-40.171160932214796
 10
120.46097819569488
 20
-40.17063581381706
 10
120.49690889305477
 20
-39.99000000000001
  0
LWPOLYLINE
  5
42
330
17
100
AcDbEntity
  8
0
100
AcDbPolyline
 90
33
 70
0
 10
91.44953683705477
 20
-39.99000000000001
 10
90.94262794416287
 20
-39.99000000000001
 10
90.95262794416287
 20
-39.980000000000004
 10
90.95262794416287
 20
-32.02
 10
90.93262794416287
 20
-32.0
 10
90.02000000000001
 20
-32.0
 10
90.00000000000001
 20
-32.02
 10
90.00000000000001
 20
-39.980000000000004
 10
90.01085786437628
 20
-39.990857864376274
 10
90.01
 20
-39.991715728752546
 10
89.99
 20
-39.991715728752546
 10
89.98828427124747
 20
-39.99000000000001
 10
89.50309110694523
 20
-39.99000000000001
 10
89.53902180430512
 20
-40.17063581381706
 10
89.53923931546731
 20
-40.171160932214796
 10
89.64751625334604
 20
-40.33320882140786
 10
89.65725845809705
 20
-40.34295102615885
 10
89.91300493797301
 20
-40.479650404008254
 10
89.91380375639518
 20
-40.479809299055454
 10
90.01223083732732
 20
-40.4701151107086
 10
90.01332885413738
 20
-40.4711102954678
 10
90.01332885413738
 20
-40.489
 10
90.71796464556287
 20
-40.489
 10
90.71796464556287
 20
-40.44761481755243
 10
90.73510694941395
 20
-40.489
 10
90.9421152394719
 20
-40.489
 10
91.1332637578154
 20
-40.450978195695555
 10
91.13378887621325
 20
-40.45076068453332
 10
91.29583676540773
 20
-40.34248374665408
 10
91.30511169065409
 20
-40.33320882140774
 10
91.41338862853269
 20
-40.171160932214796
 10
91.41360613969488
 20
-40.17063581381706
 10
91.44953683705477
 20
-39.99000000000001
  0
LWPOLYLINE
  5
43
330
17
100
AcDbEntity
  8
0
100
AcDbPolyline
 90
16
 70
0
 10
120.02000000000001
 20
-32.00000000000001
 10
120.93262794416287
 20
-32.00000000000001
 10
120.95262794416287
 20
-31.980000000000004
 10
120.95262794416287
 20
-23.556884087634216
 10
120.9322018193255
 20
-23.560772398958115
 10
120.93101481763262
 20
-23.559790039366693
 10
120.93101481763262
 20
-23.500999999999998
 10
119.97443328880834
 20
-23.500999999999998
 10
119.51299796965206
 20
-23.809321223040744
 10
119.5125218440966
 20
-23.81047069181414
 10
119.54906292022316
 20
-23.999810504666012
 10
119.54890649927685
 20
-24.000000000000004
 10
119.97171572875254
 20
-24.000000000000004
 10
120.00000000000001
 20
-24.02828427124747
 10
120.00000000000001
 20
-31.980000000000004
 10
120.02000000000001
 20
-32.00000000000001
  0
LWPOLYLINE
  5
44
330
17
100
AcDbEntity
  8
0
100
AcDbPolyline
 90
16
 70
0
 10
120.95262794416287
 20
-16.441492399693676
 10
120.95262794416287
 20
-8.02
 10
120.93262794416287
 20
-8.0
 10
120.02000000000001
 20
-8.0
 10
120.00000000000001
 20
-8.02
 10
120.00000000000001
 20
-15.971715728752534
 10
119.97171572875254
 20
-16.0
 10
119.5500244169724
 20
-16.0
 10
119.55018452346198
 20
-16.000195090322016
 10
119.51252303437103
 20
-16.18953218176256
 10
119.5129980168847
 20
-16.190678890988906
 10
119.97420756094482
 20
-16.49900008609184
 10
120.93183588475948
 20
-16.499433042390255
 10
120.93186339715946
 20
-16.438580125883853
 10
120.93305848737928
 20
-16.43759979271649
 10
120.95262794416287
 20
-16.441492399693676
  0
LWPOLYLINE
  5
45
330
17
100
AcDbEntity
  8
0
100
AcDbPolyline
 90
16
 70
0
 10
89.06737205583713
 20
-32.00000000000001
 10
89.97999999999999
 20
-32.00000000000001
 10
89.99999999999999
 20
-31.980000000000004
 10
89.99999999999999
 20
-24.028284271247465
 10
90.02828427124746
 20
-24.0
 10
90.44997558302758
 20
-24.0
 10
90.449815476538
 20
-23.999804909677984
 10
90.48747696562897
 20
-23.810467818237438
 10
90.4870019831153
 20
-23.80932110901109
 10
90.02579243905518
 20
-23.50099991390816
 10
89.06816411524052
 20
-23.500566957609745
 10
89.06813660284054
 20
-23.561419874116147
 10
89.06694151262072
 20
-23.56240020728351
 10
89.04737205583713
 20
-23.558507600306324
 10
89.04737205583713
 20
-31.980000000000004
 10
89.06737205583713
 20
-32.00000000000001
  0
LWPOLYLINE
  5
46
330
17
100
AcDbEntity
  8
0
100
AcDbPolyline
 90
16
 70
0
 10
90.45109350072315
 20
-15.999999999999996
 10
90.02828427124746
 20
-15.999999999999996
 10
89.99999999999999
 20
-15.97171572875253
 10
89.99999999999999
 20
-8.02
 10
89.97999999999999
 20
-8.0
 10
89.06737205583713
 20
-8.0
 10
89.04737205583713
 20
-8.02
 10
89.04737205583713
 20
-16.443115912365773
 10
89.0677981806745
 20
-16.439227601041875
 10
89.06898518236738
 20
-16.440209960633297
 10
89.06898518236738
 20
-16.499
 10
90.02556671119166
 20
-16.499
 10
90.48700203034794
 20
-16.190678776959253
 10
90.4874781559034
 20
-16.189529308185858
 10
90.45093707977684
 20
-16.000189495333988
 10
90.45109350072315
 20
-15.999999999999996
  0
LWPOLYLINE
  5
47
330
17
100
AcDbEntity
  8
0
100
AcDbPolyline
 90
33
 70
0
 10
252.51
 20
-49.99171572875255
 10
252.46196320100807
 20
-49.503989923712226
 10
252.3196988312782
 20
-49.03500714783982
 10
252.08867403075635
 20
-48.60279014620354
 10
251.77776695296635
 20
-48.22394877578618
 10
251.398925582549
 20
-47.913041697996185
 10
250.9667085809127
 20
-47.682016897474334
 10
250.4977258050403
 20
-47.539752527744476
 10
250.01
 20
-47.49171572875255
 10
249.52227419495966
 20
-47.539752527744476
 10
249.05329141908726
 20
-47.68201689747434
 10
248.62107441745098
 20
-47.91304169799619
 10
248.2422330470336
 20
-48.22394877578619
 10
247.93132596924363
 20
-48.60279014620355
 10
247.70030116872178
 20
-49.035007147839835
 10
247.5580367989919
 20
-49.50398992371224
 10
247.51
 20
-49.99171572875256
 10
247.5580367989919
 20
-50.47944153379288
 10
247.70030116872178
 20
-50.948424309665285
 10
247.93132596924363
 20
-51.38064131130157
 10
248.24223304703364
 20
-51.75948268171893
 10
248.62107441745098
 20
-52.07038975950892
 10
249.05329141908726
 20
-52.30141456003077
 10
249.52227419495966
 20
-52.44367892976063
 10
250.01
 20
-52.49171572875255
 10
250.49772580504032
 20
-52.44367892976063
 10
250.96670858091272
 20
-52.30141456003077
 10
251.398925582549
 20
-52.07038975950891
 10
251.77776695296637
 20
-51.75948268171892
 10
252.08867403075635
 20
-51.38064131130156
 10
252.3196988312782
 20
-50.94842430966528
 10
252.46196320100807
 20
-50.47944153379287
 10
252.51
 20
-49.99171572875255
  0
LWPOLYLINE
  5
48
330
17
100
AcDbEntity
  8
0
100
AcDbPolyline
 90
33
 70
0
 10
-7.49
 20
-49.99171572875255
 10
-7.538036798991925
 20
-49.503989923712226
 10
-7.680301168721785
 20
-49.03500714783982
 10
-7.911325969243641
 20
-48.60279014620354
 10
-8.222233047033637
 20
-48.22394877578618
 10
-8.601074417451
 20
-47.913041697996185
 10
-9.033291419087284
 20
-47.682016897474334
 10
-9.502274194959687
 20
-47.539752527744476
 10
-9.990000000000009
 20
-47.49171572875255
 10
-10.47772580504033
 20
-47.539752527744476
 10
-10.946708580912734
 20
-47.68201689747434
 10
-11.378925582549014
 20
-47.91304169799619
 10
-11.757766952966376
 20
-48.22394877578619
 10
-12.06867403075637
 20
-48.60279014620355
 10
-12.29969883127822
 20
-49.035007147839835
 10
-12.441963201008079
 20
-49.50398992371224
 10
-12.49
 20
-49.99171572875256
 10
-12.441963201008075
 20
-50.47944153379288
 10
-12.299698831278214
 20
-50.948424309665285
 10
-12.068674030756359
 20
-51.38064131130157
 10
-11.757766952966366
 20
-51.75948268171893
 10
-11.378925582549002
 20
-52.07038975950892
 10
-10.94670858091272
 20
-52.30141456003077
 10
-10.477725805040317
 20
-52.44367892976063
 10
-9.989999999999997
 20
-52.49171572875255
 10
-9.502274194959677
 20
-52.44367892976063
 10
-9.033291419087274
 20
-52.30141456003077
 10
-8.601074417450992
 20
-52.07038975950891
 10
-8.22223304703363
 20
-51.75948268171892
 10
-7.911325969243636
 20
-51.38064131130156
 10
-7.680301168721783
 20
-50.94842430966528
 10
-7.538036798991923
 20
-50.47944153379287
 10
-7.49
 20
-49.99171572875255
  0
LWPOLYLINE
  5
49
330
17
100
AcDbEntity
  8
0
100
AcDbPolyline
 90
33
 70
0
 10
252.51
 20
10.008284271247447
 10
252.46196320100807
 20
10.496010076287774
 10
252.3196988312782
 20
10.964992852160178
 10
252.08867403075635
 20
11.397209853796458
 10
251.77776695296635
 20
11.776051224213822
 10
251.398925582549
 20
12.086958302003815
 10
250.9667085809127
 20
12.317983102525668
 10
250.4977258050403
 20
12.460247472255524
 10
250.01
 20
12.508284271247447
 10
249.52227419495966
 20
12.46024747225552
 10
249.05329141908726
 20
12.31798310252566
 10
248.62107441745098
 20
12.086958302003804
 10
248.2422330470336
 20
11.77605122421381
 10
247.93132596924363
 20
11.397209853796445
 10
247.70030116872178
 20
10.964992852160163
 10
247.5580367989919
 20
10.49601007628776
 10
247.51
 20
10.008284271247438
 10
247.5580367989919
 20
9.520558466207119
 10
247.70030116872178
 20
9.051575690334717
 10
247.93132596924363
 20
8.619358688698437
 10
248.24223304703364
 20
8.240517318281075
 10
248.62107441745098
 20
7.9296102404910815
 10
249.05329141908726
 20
7.698585439969229
 10
249.52227419495966
 20
7.55632107023937
 10
250.01
 20
7.508284271247447
 10
250.49772580504032
 20
7.556321070239372
 10
250.96670858091272
 20
7.698585439969232
 10
251.398925582549
 20
7.929610240491085
 10
251.77776695296637
 20
8.24051731828108
 10
252.08867403075635
 20
8.619358688698442
 10
252.3196988312782
 20
9.051575690334724
 10
252.46196320100807
 20
9.520558466207127
 10
252.51
 20
10.008284271247447
  0
LWPOLYLINE
  5
4A
330
17
100
AcDbEntity
  8
0
100
AcDbPolyline
 90
33
 70
0
 10
-7.49
 20
10.008284271247447
 10
-7.538036798991925
 20
10.496010076287774
 10
-7.680301168721785
 20
10.964992852160178
 10
-7.911325969243641
 20
11.397209853796458
 10
-8.222233047033637
 20
11.776051224213822
 10
-8.601074417451
 20
12.086958302003815
 10
-9.033291419087284
 20
12.317983102525668
 10
-9.502274194959687
 20
12.460247472255524
 10
-9.990000000000009
 20
12.508284271247447
 10
-10.47772580504033
 20
12.46024747225552
 10
-10.946708580912734
 20
12.31798310252566
 10
-11.378925582549014
 20
12.086958302003804
 10
-11.757766952966376
 20
11.77605122421381
 10
-12.06867403075637
 20
11.397209853796445
 10
-12.29969883127822
 20
10.964992852160163
 10
-12.441963201008079
 20
10.49601007628776
 10
-12.49
 20
10.008284271247438
 10
-12.441963201008075
 20
9.520558466207119
 10
-12.299698831278214
 20
9.051575690334717
 10
-12.068674030756359
 20
8.619358688698437
 10
-11.757766952966366
 20
8.240517318281075
 10
-11.378925582549002
 20
7.9296102404910815
 10
-10.94670858091272
 20
7.698585439969229
 10
-10.477725805040317
 20
7.55632107023937
 10
-9.989999999999997
 20
7.508284271247447
 10
-9.502274194959677
 20
7.556321070239372
 10
-9.033291419087274
 20
7.698585439969232
 10
-8.601074417450992
 20
7.929610240491085
 10
-8.22223304703363
 20
8.24051731828108
 10
-7.911325969243636
 20
8.619358688698442
 10
-7.680301168721783
 20
9.051575690334724
 10
-7.538036798991923
 20
9.520558466207127
 10
-7.49
 20
10.008284271247447
  0
LWPOLYLINE
  5
4B
330
17
100
AcDbEntity
  8
0
100
AcDbPolyline
 90
121
 70
0
 10
9.114296875
 20
-50.726871978752555
 10
9.1178359375
 20
-50.92282510375255
 10
9.128453125000002
 20
-51.10755947875255
 10
9.1461484375
 20
-51.28107510375255
 10
9.170921875000003
 20
-51.44337197875255
 10
9.202773437500001
 20
-51.59445010375255
 10
9.241703125
 20
-51.73430947875255
 10
9.287710937500002
 20
-51.86295010375255
 10
9.340796875000004
 20
-51.98037197875255
 10
9.4009609375
 20
-52.08657510375255
 10
9.468203125
 20
-52.181559478752554
 10
9.529484375000001
 20
-52.25206729125255
 10
9.595203125000003
 20
-52.31515322875255
 10
9.665359375
 20
-52.37081729125255
 10
9.739953125000001
 20
-52.41905947875255
 10
9.818984375000001
 20
-52.459879791252554
 10
9.902453125000001
 20
-52.49327822875255
 10
9.990359375
 20
-52.51925479125255
 10
10.082703125000004
 20
-52.53780947875255
 10
10.179484375000001
 20
-52.54894229125255
 10
10.280703125
 20
-52.552653228752554
 10
10.358085937500002
 20
-52.55054385375255
 10
10.432734375
 20
-52.544215728752555
 10
10.5046484375
 20
-52.53366885375255
 10
10.573828125
 20
-52.51890322875255
 10
10.640273437500001
 20
-52.499918853752554
 10
10.703984375000003
 20
-52.47671572875255
 10
10.7649609375
 20
-52.44929385375255
 10
10.823203125000003
 20
-52.417653228752556
 10
10.878710937500001
 20
-52.381793853752555
 10
10.931484375
 20
-52.341715728752554
 10
10.981757812500001
 20
-52.29762197875255
 10
11.029453125000002
 20
-52.250028228752555
 10
11.074570312500002
 20
-52.198934478752555
 10
11.117109375
 20
-52.14434072875255
 10
11.157070312500002
 20
-52.086246978752555
 10
11.194453125
 20
-52.024653228752555
 10
11.229257812500004
 20
-51.95955947875255
 10
11.261484375000004
 20
-51.890965728752555
 10
11.291132812500004
 20
-51.818871978752554
 10
11.318203125000002
 20
-51.74327822875255
 10
11.342843750000002
 20
-51.66350479125255
 10
11.364890625000003
 20
-51.57887197875255
 10
11.384343750000001
 20
-51.48937979125255
 10
11.401203125
 20
-51.39502822875255
 10
11.41546875
 20
-51.295817291252554
 10
11.427140625000002
 20
-51.191746978752555
 10
11.43621875
 20
-51.08281729125255
 10
11.442703125000003
 20
-50.96902822875255
 10
11.44659375
 20
-50.85037979125255
 10
11.447890625000001
 20
-50.726871978752555
 10
11.4470859375
 20
-50.62250479125255
 10
11.444671875000003
 20
-50.522528228752556
 10
11.4406484375
 20
-50.42694229125255
 10
11.435015625
 20
-50.33574697875255
 10
11.427773437500003
 20
-50.248942291252554
 10
11.418921875
 20
-50.166528228752554
 10
11.408460937500001
 20
-50.088504791252554
 10
11.396390625
 20
-50.01487197875255
 10
11.382710937500002
 20
-49.94562979125255
 10
11.367421875
 20
-49.880778228752554
 10
11.350710937499999
 20
-49.81892666625255
 10
11.332765625000002
 20
-49.75899697875255
 10
11.313585937500003
 20
-49.700989166252555
 10
11.293171875
 20
-49.644903228752554
 10
11.271523437500003
 20
-49.590739166252554
 10
11.248640625000002
 20
-49.538496978752555
 10
11.224523437500002
 20
-49.48817666625255
 10
11.199171875000003
 20
-49.43977822875255
 10
11.172585937500001
 20
-49.393301666252555
 10
11.144765625
 20
-49.34874697875255
 10
11.115726562500003
 20
-49.30602822875255
 10
11.085171875000002
 20
-49.265371978752555
 10
11.053101562499998
 20
-49.22677822875255
 10
11.019515624999999
 20
-49.190246978752555
 10
10.9844140625
 20
-49.15577822875255
 10
10.947796875
 20
-49.12337197875255
 10
10.909664062500001
 20
-49.09302822875255
 10
10.870015625000002
 20
-49.06474697875255
 10
10.828851562500002
 20
-49.038528228752554
 10
10.786171875
 20
-49.01437197875255
 10
10.742023437500002
 20
-48.99225479125255
 10
10.696453125
 20
-48.97246572875255
 10
10.6494609375
 20
-48.955004791252556
 10
10.601046875
 20
-48.93987197875255
 10
10.5512109375
 20
-48.927067291252555
 10
10.499953125
 20
-48.91659072875255
 10
10.4472734375
 20
-48.908442291252555
 10
10.393171875000004
 20
-48.90262197875255
 10
10.337648437500002
 20
-48.899129791252555
 10
10.280703125
 20
-48.89796572875255
 10
10.203906250000001
 20
-48.900067291252554
 10
10.129765625000003
 20
-48.90637197875255
 10
10.058281249999999
 20
-48.916879791252555
 10
9.989453124999999
 20
-48.93159072875255
 10
9.92328125
 20
-48.950504791252555
 10
9.859765625000001
 20
-48.973621978752554
 10
9.79890625
 20
-49.00094229125255
 10
9.740703125000003
 20
-49.032465728752555
 10
9.68515625
 20
-49.06819229125255
 10
9.632265625
 20
-49.10812197875255
 10
9.582125
 20
-49.151778228752555
 10
9.534515625
 20
-49.198996978752554
 10
9.489437500000001
 20
-49.249778228752554
 10
9.446890625
 20
-49.304121978752555
 10
9.406875000000001
 20
-49.36202822875255
 10
9.369390625
 20
-49.42349697875255
 10
9.3344375
 20
-49.48852822875255
 10
9.302015625000001
 20
-49.557121978752555
 10
9.272125
 20
-49.629278228752554
 10
9.244765625000001
 20
-49.704996978752554
 10
9.219976562500001
 20
-49.78482510375255
 10
9.197796875000002
 20
-49.869621978752555
 10
9.178226562500003
 20
-49.95938760375255
 10
9.161265625
 20
-50.054121978752555
 10
9.1469140625
 20
-50.15382510375255
 10
9.135171875000001
 20
-50.258496978752554
 10
9.1260390625
 20
-50.36813760375255
 10
9.119515625000004
 20
-50.48274697875255
 10
9.115601562500002
 20
-50.602325103752555
 10
9.114296875
 20
-50.726871978752555
  0
LWPOLYLINE
  5
4C
330
17
100
AcDbEntity
  8
0
100
AcDbPolyline
 90
7
 70
0
 10
-4.62359375
 20
-52.49171572875255
 10
-2.38765625
 20
-52.49171572875255
 10
-2.38765625
 20
-52.06905947875255
 10
-4.15015625
 20
-52.06905947875255
 10
-4.15015625
 20
-48.91280947875255
 10
-4.62359375
 20
-48.91280947875255
 10
-4.62359375
 20
-52.49171572875255
  0
LWPOLYLINE
  5
4D
330
17
100
AcDbEntity
  8
0
100
AcDbPolyline
 90
77
 70
0
 10
6.177285156250001
 20
-52.49171572875255
 10
6.616347656250001
 20
-52.49171572875255
 10
6.616347656250001
 20
-51.13390322875255
 10
6.617082031250002
 20
-51.078715728752556
 10
6.619285156250003
 20
-51.024403228752554
 10
6.622957031250001
 20
-50.97096572875255
 10
6.6280976562500005
 20
-50.91840322875255
 10
6.6347070312500005
 20
-50.86671572875255
 10
6.642785156250003
 20
-50.81590322875255
 10
6.652332031249999
 20
-50.765965728752555
 10
6.663347656250004
 20
-50.71690322875255
 10
6.6758320312500015
 20
-50.66871572875255
 10
6.68978515625
 20
-50.621403228752555
 10
6.7001367187500005
 20
-50.59129385375255
 10
6.71181640625
 20
-50.562528228752555
 10
6.724824218749999
 20
-50.53510635375255
 10
6.739160156250001
 20
-50.509028228752555
 10
6.7548242187500005
 20
-50.484293853752554
 10
6.77181640625
 20
-50.46090322875255
 10
6.79013671875
 20
-50.438856353752556
 10
6.809785156250003
 20
-50.41815322875255
 10
6.830761718750001
 20
-50.39879385375255
 10
6.853066406250001
 20
-50.380778228752554
 10
6.876332031250001
 20
-50.36430166625255
 10
6.900191406250002
 20
-50.34955947875255
 10
6.924644531250001
 20
-50.336551666252554
 10
6.949691406250002
 20
-50.32527822875255
 10
6.975332031250002
 20
-50.315739166252555
 10
7.001566406250001
 20
-50.30793447875255
 10
7.028394531250001
 20
-50.30186416625255
 10
7.055816406250004
 20
-50.297528228752554
 10
7.083832031250001
 20
-50.29492666625255
 10
7.112441406250001
 20
-50.29405947875255
 10
7.14462890625
 20
-50.295012603752554
 10
7.176816406250003
 20
-50.29787197875255
 10
7.20900390625
 20
-50.30263760375255
 10
7.241191406250001
 20
-50.30930947875255
 10
7.2733789062500005
 20
-50.31788760375255
 10
7.305566406250001
 20
-50.32837197875255
 10
7.337753906250001
 20
-50.34076260375255
 10
7.3699414062500015
 20
-50.35505947875255
 10
7.402128906250001
 20
-50.371262603752555
 10
7.43431640625
 20
-50.38937197875255
 10
7.5858789062500005
 20
-49.98155947875255
 10
7.540019531250001
 20
-49.954692291252556
 10
7.494316406250002
 20
-49.930653228752554
 10
7.448769531249999
 20
-49.90944229125255
 10
7.4033789062499995
 20
-49.89105947875255
 10
7.35814453125
 20
-49.87550479125255
 10
7.31306640625
 20
-49.86277822875255
 10
7.26814453125
 20
-49.852879791252555
 10
7.223378906250003
 20
-49.84580947875255
 10
7.178769531250001
 20
-49.84156729125255
 10
7.134316406250001
 20
-49.840153228752555
 10
7.103792968750001
 20
-49.84103604125255
 10
7.073785156250002
 20
-49.84368447875255
 10
7.0442929687500015
 20
-49.848098541252554
 10
7.015316406249999
 20
-49.854278228752555
 10
6.986855468750001
 20
-49.862223541252554
 10
6.958910156250001
 20
-49.87193447875255
 10
6.931480468750001
 20
-49.88341104125255
 10
6.904566406250003
 20
-49.896653228752555
 10
6.878167968750001
 20
-49.91166104125255
 10
6.85228515625
 20
-49.92843447875255
 10
6.82642578125
 20
-49.947817291252555
 10
6.800097656250001
 20
-49.97096572875255
 10
6.773300781250001
 20
-49.99787979125255
 10
6.7460351562500005
 20
-50.028559478752555
 10
6.718300781250001
 20
-50.06300479125255
 10
6.69009765625
 20
-50.10121572875255
 10
6.661425781249999
 20
-50.143192291252554
 10
6.632285156250003
 20
-50.18893447875255
 10
6.602675781250001
 20
-50.238442291252554
 10
6.57259765625
 20
-50.29171572875255
 10
6.57259765625
 20
-49.898746978752555
 10
6.177285156250001
 20
-49.898746978752555
 10
6.177285156250001
 20
-52.49171572875255
  0
LWPOLYLINE
  5
4E
330
17
100
AcDbEntity
  8
0
100
AcDbPolyline
 90
133
 70
0
 10
5.1762109375000005
 20
-51.656559478752555
 10
5.1555
 20
-51.71067666625255
 10
5.133367187500001
 20
-51.761778228752554
 10
5.1098125
 20
-51.80986416625255
 10
5.084835937500001
 20
-51.854934478752554
 10
5.058437500000002
 20
-51.89698916625255
 10
5.030617187500001
 20
-51.936028228752555
 10
5.0013749999999995
 20
-51.972051666252554
 10
4.970710937500002
 20
-52.00505947875255
 10
4.938625000000002
 20
-52.03505166625255
 10
4.9051171875
 20
-52.06202822875255
 10
4.8701953125
 20
-52.086075103752556
 10
4.833867187500001
 20
-52.107590728752555
 10
4.7961328125
 20
-52.12657510375255
 10
4.756992187500002
 20
-52.143028228752556
 10
4.716445312500001
 20
-52.15695010375255
 10
4.6744921875
 20
-52.168340728752554
 10
4.631132812500001
 20
-52.177200103752554
 10
4.586367187500002
 20
-52.18352822875255
 10
4.540195312500002
 20
-52.18732510375255
 10
4.4926171875000005
 20
-52.18859072875255
 10
4.4286953125
 20
-52.18632510375255
 10
4.366929687500001
 20
-52.17952822875255
 10
4.3073203125
 20
-52.168200103752554
 10
4.2498671875
 20
-52.152340728752556
 10
4.1945703125
 20
-52.13195010375255
 10
4.141429687499999
 20
-52.107028228752554
 10
4.0904453125
 20
-52.07757510375255
 10
4.0416171875
 20
-52.043590728752555
 10
3.9949453125000005
 20
-52.00507510375255
 10
3.9504296875
 20
-51.96202822875255
 10
3.908921874999999
 20
-51.91455947875255
 10
3.8712734374999993
 20
-51.86309072875255
 10
3.8374843750000007
 20
-51.80762197875255
 10
3.8075546874999997
 20
-51.74815322875255
 10
3.781484375
 20
-51.68468447875255
 10
3.759273437500001
 20
-51.617215728752555
 10
3.7409218750000015
 20
-51.545746978752554
 10
3.726429687500003
 20
-51.470278228752555
 10
3.7157968750000006
 20
-51.39080947875255
 10
3.709023437500001
 20
-51.30734072875255
 10
5.642617187500001
 20
-51.30734072875255
 10
5.643062500000001
 20
-51.29210635375255
 10
5.6434609375
 20
-51.277653228752555
 10
5.643812500000001
 20
-51.263981353752555
 10
5.644117187500001
 20
-51.25109072875255
 10
5.644375
 20
-51.23898135375255
 10
5.644585937500002
 20
-51.22765322875255
 10
5.64475
 20
-51.217106353752555
 10
5.644867187500003
 20
-51.207340728752555
 10
5.644937500000003
 20
-51.19835635375255
 10
5.6449609375000005
 20
-51.19015322875255
 10
5.6416640625
 20
-51.06459854125255
 10
5.6317734375000015
 20
-50.94480947875255
 10
5.6152890625000005
 20
-50.83078604125255
 10
5.592210937500001
 20
-50.72252822875255
 10
5.562539062499999
 20
-50.620036041252554
 10
5.526273437500002
 20
-50.52330947875255
 10
5.4834140625
 20
-50.43234854125255
 10
5.433960937500002
 20
-50.34715322875255
 10
5.377914062500002
 20
-50.26772354125255
 10
5.3152734375
 20
-50.19405947875255
 10
5.2474296875
 20
-50.12681729125255
 10
5.1757734375
 20
-50.06665322875255
 10
5.1003046874999995
 20
-50.01356729125255
 10
5.0210234375
 20
-49.96755947875255
 10
4.9379296875000005
 20
-49.928629791252554
 10
4.8510234375
 20
-49.89677822875255
 10
4.7603046875
 20
-49.87200479125255
 10
4.665773437500002
 20
-49.854309478752555
 10
4.567429687500001
 20
-49.84369229125255
 10
4.4652734375000005
 20
-49.840153228752555
 10
4.359921875000001
 20
-49.84377041625255
 10
4.258554687500002
 20
-49.854621978752554
 10
4.161171874999999
 20
-49.87270791625255
 10
4.0677734375
 20
-49.89802822875255
 10
3.978359375
 20
-49.930582916252554
 10
3.8929296875000006
 20
-49.97037197875255
 10
3.811484375000001
 20
-50.017395416252555
 10
3.734023437500001
 20
-50.07165322875255
 10
3.6605468749999996
 20
-50.13314541625255
 10
3.5910546875
 20
-50.20187197875255
 10
3.527078124999999
 20
-50.27699697875255
 10
3.469835937500001
 20
-50.35799697875255
 10
3.419328125
 20
-50.44487197875255
 10
3.375554687500001
 20
-50.537621978752554
 10
3.338515625000001
 20
-50.63624697875255
 10
3.3082109375
 20
-50.740746978752554
 10
3.2846406250000015
 20
-50.85112197875255
 10
3.2678046875000017
 20
-50.96737197875255
 10
3.257703125000001
 20
-51.08949697875255
 10
3.2543359375000005
 20
-51.21749697875255
 10
3.2576718749999998
 20
-51.341090728752555
 10
3.267679687500001
 20
-51.45905947875255
 10
3.2843593749999993
 20
-51.57140322875255
 10
3.3077109374999996
 20
-51.67812197875255
 10
3.337734375000002
 20
-51.779215728752554
 10
3.374429687500001
 20
-51.874684478752556
 10
3.4177968750000005
 20
-51.964528228752556
 10
3.467835937500002
 20
-52.048746978752554
 10
3.524546875000002
 20
-52.12734072875255
 10
3.587929687500001
 20
-52.20030947875255
 10
3.657000000000002
 20
-52.266809478752556
 10
3.7307734375
 20
-52.326309478752556
 10
3.8092500000000005
 20
-52.37880947875255
 10
3.8924296875
 20
-52.424309478752555
 10
3.9803125
 20
-52.462809478752554
 10
4.072898437499999
 20
-52.494309478752555
 10
4.170187499999999
 20
-52.51880947875255
 10
4.272179687500003
 20
-52.53630947875255
 10
4.378875000000001
 20
-52.54680947875255
 10
4.490273437500001
 20
-52.55030947875255
 10
4.578976562500001
 20
-52.54811416625255
 10
4.664460937500001
 20
-52.541528228752554
 10
4.746726562500001
 20
-52.53055166625255
 10
4.8257734375000005
 20
-52.51518447875255
 10
4.901601562500002
 20
-52.495426666252555
 10
4.974210937499999
 20
-52.47127822875255
 10
5.043601562500003
 20
-52.44273916625255
 10
5.109773437500001
 20
-52.40980947875255
 10
5.172726562500001
 20
-52.37248916625255
 10
5.232460937500001
 20
-52.33077822875255
 10
5.288750000000002
 20
-52.284942291252555
 10
5.341367187500001
 20
-52.235559478752556
 10
5.3903125
 20
-52.18262979125255
 10
5.435585937500001
 20
-52.12615322875255
 10
5.477187500000001
 20
-52.06612979125255
 10
5.5151171875
 20
-52.00255947875255
 10
5.549375000000001
 20
-51.93544229125255
 10
5.579960937500001
 20
-51.864778228752556
 10
5.6068750000000005
 20
-51.79056729125255
 10
5.6301171875
 20
-51.712809478752554
 10
5.1762109375000005
 20
-51.656559478752555
  0
LWPOLYLINE
  5
4F
330
17
100
AcDbEntity
  8
0
100
AcDbPolyline
 90
244
 70
0
 10
-0.18736328124999968
 20
-52.172184478752555
 10
-0.1829726562499996
 20
-52.20828604125255
 10
-0.1776132812499993
 20
-52.243465728752554
 10
-0.17128515624999974
 20
-52.277723541252556
 10
-0.1639882812499991
 20
-52.311059478752554
 10
-0.15572265625000004
 20
-52.34347354125255
 10
-0.14648828124999902
 20
-52.37496572875255
 10
-0.1362851562499996
 20
-52.40553604125255
 10
-0.1251132812499991
 20
-52.435184478752554
 10
-0.1129726562499993
 20
-52.46391104125255
 10
-0.09986328125000021
 20
-52.49171572875255
 10
0.3595117187500003
 20
-52.49171572875255
 10
0.34334765625000063
 20
-52.46174697875255
 10
0.32829296875000047
 20
-52.431528228752555
 10
0.31434765624999983
 20
-52.40105947875255
 10
0.3015117187500005
 20
-52.37034072875255
 10
0.2897851562499998
 20
-52.33937197875255
 10
0.2791679687499995
 20
-52.30815322875255
 10
0.2696601562499996
 20
-52.27668447875255
 10
0.26126171875000104
 20
-52.244965728752554
 10
0.2539726562500011
 20
-52.21299697875255
 10
0.2477929687499998
 20
-52.18077822875255
 10
0.24244921875000003
 20
-52.14377041625255
 10
0.2376679687500003
 20
-52.097746978752554
 10
0.23344921875000058
 20
-52.04270791625255
 10
0.22979296875
 20
-51.978653228752556
 10
0.22669921875000032
 20
-51.905582916252555
 10
0.22416796875000067
 20
-51.82349697875255
 10
0.22219921875000104
 20
-51.73239541625255
 10
0.22079296875000143
 20
-51.632278228752554
 10
0.21994921875000095
 20
-51.523145416252554
 10
0.2196679687500005
 20
-51.40499697875255
 10
0.2196679687500005
 20
-50.81905947875255
 10
0.21944921875000034
 20
-50.76227822875255
 10
0.21879296875000076
 20
-50.70912197875255
 10
0.21769921875000087
 20
-50.659590728752555
 10
0.21616796875000066
 20
-50.61368447875255
 10
0.21419921875000014
 20
-50.57140322875255
 10
0.2117929687500011
 20
-50.532746978752556
 10
0.20894921875000083
 20
-50.49771572875255
 10
0.20566796875000115
 20
-50.46630947875255
 10
0.20194921875000027
 20
-50.43852822875255
 10
0.19779296874999996
 20
-50.414371978752555
 10
0.1893945312500005
 20
-50.378754791252554
 10
0.17982421875000032
 20
-50.344403228752554
 10
0.16908203124999943
 20
-50.31131729125255
 10
0.1571679687500005
 20
-50.279496978752555
 10
0.14408203124999996
 20
-50.248942291252554
 10
0.1298242187499996
 20
-50.219653228752556
 10
0.11439453124999943
 20
-50.19162979125255
 10
0.09779296875000121
 20
-50.16487197875255
 10
0.08001953124999961
 20
-50.13937979125255
 10
0.061074218749999964
 20
-50.115153228752554
 10
0.040441406250000256
 20
-50.09180947875255
 10
0.01760546875000024
 20
-50.06927822875255
 10
-0.007433593750000078
 20
-50.047559478752554
 10
-0.034675781249999815
 20
-50.02665322875255
 10
-0.06412109374999986
 20
-50.00655947875255
 10
-0.0957695312500002
 20
-49.98727822875255
 10
-0.12962109374999908
 20
-49.968809478752554
 10
-0.16567578125000004
 20
-49.95115322875255
 10
-0.20393359375000042
 20
-49.93430947875255
 10
-0.2443945312500002
 20
-49.918278228752555
 10
-0.2870507812500005
 20
-49.90343447875255
 10
-0.3322070312500003
 20
-49.89015322875255
 10
-0.3798632812499996
 20
-49.87843447875255
 10
-0.43001953125000014
 20
-49.86827822875255
 10
-0.4826757812500002
 20
-49.859684478752555
 10
-0.5378320312499998
 20
-49.85265322875255
 10
-0.5954882812499998
 20
-49.84718447875255
 10
-0.6556445312499992
 20
-49.84327822875255
 10
-0.71830078125
 20
-49.84093447875255
 10
-0.7834570312500002
 20
-49.840153228752555
 10
-0.8495273437500002
 20
-49.84107510375255
 10
-0.91398828125
 20
-49.843840728752554
 10
-0.9768398437499997
 20
-49.848450103752555
 10
-1.03808203125
 20
-49.854903228752555
 10
-1.09771484375
 20
-49.863200103752554
 10
-1.15573828125
 20
-49.87334072875255
 10
-1.2121523437499997
 20
-49.88532510375255
 10
-1.2669570312499991
 20
-49.89915322875255
 10
-1.3201523437500002
 20
-49.91482510375255
 10
-1.3717382812499999
 20
-49.93234072875255
 10
-1.4213242187500001
 20
-49.951403228752554
 10
-1.4685195312499997
 20
-49.97202822875255
 10
-1.5133242187500002
 20
-49.99421572875255
 10
-1.55573828125
 20
-50.01796572875255
 10
-1.59576171875
 20
-50.043278228752555
 10
-1.63339453125
 20
-50.07015322875255
 10
-1.6686367187499997
 20
-50.098590728752555
 10
-1.7014882812499992
 20
-50.12859072875255
 10
-1.73194921875
 20
-50.160153228752556
 10
-1.7600195312500002
 20
-50.193278228752554
 10
-1.78613671875
 20
-50.22824697875255
 10
-1.81073828125
 20
-50.265340728752555
 10
-1.8338242187500002
 20
-50.30455947875255
 10
-1.85539453125
 20
-50.345903228752555
 10
-1.87544921875
 20
-50.38937197875255
 10
-1.89398828125
 20
-50.43496572875255
 10
-1.9110117187500002
 20
-50.48268447875255
 10
-1.9265195312499994
 20
-50.532528228752554
 10
-1.9405117187500003
 20
-50.584496978752554
 10
-1.9529882812500001
 20
-50.638590728752554
 10
-1.5233007812500001
 20
-50.697184478752554
 10
-1.50831640625
 20
-50.64370010375255
 10
-1.4918007812499998
 20
-50.59355947875255
 10
-1.4737539062499998
 20
-50.546762603752555
 10
-1.45417578125
 20
-50.503309478752556
 10
-1.43306640625
 20
-50.463200103752555
 10
-1.4104257812499998
 20
-50.426434478752554
 10
-1.3862539062500003
 20
-50.39301260375255
 10
-1.3605507812499993
 20
-50.36293447875255
 10
-1.3333164062499998
 20
-50.33620010375255
 10
-1.3045507812500001
 20
-50.312809478752555
 10
-1.2733945312500001
 20
-50.29217666625255
 10
-1.2389882812499997
 20
-50.27371572875255
 10
-1.2013320312499998
 20
-50.257426666252556
 10
-1.1604257812499998
 20
-50.24330947875255
 10
-1.11626953125
 20
-50.231364166252554
 10
-1.06886328125
 20
-50.22159072875255
 10
-1.0182070312499998
 20
-50.21398916625255
 10
-0.9643007812499995
 20
-50.208559478752555
 10
-0.9071445312500002
 20
-50.20530166625255
 10
-0.8467382812500004
 20
-50.20421572875255
 10
-0.7819726562500007
 20
-50.205700103752555
 10
-0.7204882812500006
 20
-50.21015322875255
 10
-0.6622851562500003
 20
-50.21757510375255
 10
-0.6073632812500005
 20
-50.22796572875255
 10
-0.5557226562500004
 20
-50.24132510375255
 10
-0.50736328125
 20
-50.25765322875255
 10
-0.462285156250001
 20
-50.276950103752554
 10
-0.4204882812500008
 20
-50.29921572875255
 10
-0.3819726562500003
 20
-50.324450103752554
 10
-0.3467382812500004
 20
-50.35265322875255
 10
-0.3229882812499998
 20
-50.37627041625255
 10
-0.30173828125000046
 20
-50.40305947875255
 10
-0.28298828125000064
 20
-50.43302041625255
 10
-0.2667382812500003
 20
-50.46615322875255
 10
-0.2529882812500004
 20
-50.50245791625255
 10
-0.24173828124999996
 20
-50.54193447875255
 10
-0.23298828125000082
 20
-50.58458291625255
 10
-0.22673828125000028
 20
-50.630403228752556
 10
-0.22298828125000103
 20
-50.679395416252554
 10
-0.2217382812500004
 20
-50.73155947875255
 10
-0.22176171875000072
 20
-50.73706729125255
 10
-0.22183203125000084
 20
-50.74390322875255
 10
-0.22194921874999984
 20
-50.75206729125255
 10
-0.2221132812500004
 20
-50.76155947875255
 10
-0.22232421874999986
 20
-50.772379791252554
 10
-0.22258203125000087
 20
-50.78452822875255
 10
-0.22288671874999988
 20
-50.79800479125255
 10
-0.22323828124999956
 20
-50.812809478752555
 10
-0.2236367187499999
 20
-50.82894229125255
 10
-0.22408203125000004
 20
-50.84640322875255
 10
-0.27719921874999986
 20
-50.863661041252556
 10
-0.3359257812499994
 20
-50.880434478752555
 10
-0.4002617187500004
 20
-50.896723541252555
 10
-0.4702070312500002
 20
-50.91252822875255
 10
-0.5457617187500006
 20
-50.92784854125255
 10
-0.6269257812500006
 20
-50.942684478752554
 10
-0.7136992187500004
 20
-50.95703604125255
 10
-0.806082031249999
 20
-50.970903228752555
 10
-0.9040742187499999
 20
-50.98428604125255
 10
-1.0076757812500001
 20
-50.99718447875255
 10
-1.0586914062500004
 20
-51.003614166252554
 10
-1.10705078125
 20
-51.01009072875255
 10
-1.15275390625
 20
-51.01661416625255
 10
-1.19580078125
 20
-51.023184478752555
 10
-1.2361914062500001
 20
-51.02980166625255
 10
-1.27392578125
 20
-51.03646572875255
 10
-1.30900390625
 20
-51.04317666625255
 10
-1.3414257812499994
 20
-51.049934478752554
 10
-1.37119140625
 20
-51.056739166252555
 10
-1.3983007812500001
 20
-51.06359072875255
 10
-1.43310546875
 20
-51.07374697875255
 10
-1.46720703125
 20
-51.08484072875255
 10
-1.50060546875
 20
-51.09687197875255
 10
-1.5333007812500004
 20
-51.10984072875255
 10
-1.5652929687500001
 20
-51.12374697875255
 10
-1.5965820312500005
 20
-51.138590728752554
 10
-1.6271679687500002
 20
-51.15437197875255
 10
-1.6570507812499997
 20
-51.17109072875255
 10
-1.6862304687500003
 20
-51.188746978752555
 10
-1.7147070312500001
 20
-51.207340728752555
 10
-1.7422929687500002
 20
-51.22702822875255
 10
-1.7688007812499995
 20
-51.247965728752554
 10
-1.7942304687500004
 20
-51.270153228752555
 10
-1.81858203125
 20
-51.293590728752555
 10
-1.84185546875
 20
-51.318278228752554
 10
-1.86405078125
 20
-51.34421572875255
 10
-1.8851679687499998
 20
-51.371403228752555
 10
-1.9052070312499998
 20
-51.39984072875255
 10
-1.9241679687499995
 20
-51.42952822875255
 10
-1.9420507812499999
 20
-51.46046572875255
 10
-1.9585273437500001
 20
-51.49220791625255
 10
-1.9732695312499997
 20
-51.52462197875255
 10
-1.9862773437500003
 20
-51.557707916252554
 10
-1.9975507812500002
 20
-51.59146572875255
 10
-2.0070898437499998
 20
-51.625895416252554
 10
-2.01489453125
 20
-51.66099697875255
 10
-2.02096484375
 20
-51.696770416252555
 10
-2.0253007812499995
 20
-51.733215728752555
 10
-2.0279023437499997
 20
-51.770332916252556
 10
-2.02876953125
 20
-51.80812197875255
 10
-2.0264726562499997
 20
-51.871957916252555
 10
-2.0195820312499997
 20
-51.93346572875255
 10
-2.0080976562500004
 20
-51.99264541625255
 10
-1.9920195312500004
 20
-52.04949697875255
 10
-1.9713476562499999
 20
-52.10402041625255
 10
-1.94608203125
 20
-52.15621572875255
 10
-1.91622265625
 20
-52.206082916252555
 10
-1.8817695312499998
 20
-52.253621978752555
 10
-1.8427226562499999
 20
-52.29883291625255
 10
-1.7990820312500002
 20
-52.341715728752554
 10
-1.75116796875
 20
-52.38134854125255
 10
-1.6993007812500003
 20
-52.416809478752555
 10
-1.6434804687500004
 20
-52.448098541252556
 10
-1.5837070312500003
 20
-52.47521572875255
 10
-1.51998046875
 20
-52.49816104125255
 10
-1.45230078125
 20
-52.51693447875255
 10
-1.3806679687499996
 20
-52.53153604125255
 10
-1.3050820312499996
 20
-52.54196572875255
 10
-1.2255429687499992
 20
-52.548223541252554
 10
-1.14205078125
 20
-52.55030947875255
 10
-1.0906601562499998
 20
-52.54945791625255
 10
-1.0399257812499996
 20
-52.546903228752555
 10
-0.9898476562500003
 20
-52.542645416252554
 10
-0.9404257812500001
 20
-52.536684478752555
 10
-0.8916601562500004
 20
-52.52902041625255
 10
-0.8435507812500003
 20
-52.51965322875255
 10
-0.7960976562499997
 20
-52.50858291625255
 10
-0.7493007812499988
 20
-52.495809478752555
 10
-0.7031601562500001
 20
-52.481332916252555
 10
-0.65767578125
 20
-52.465153228752555
 10
-0.6123320312500002
 20
-52.44675479125255
 10
-0.5666132812499995
 20
-52.42593447875255
 10
-0.5205195312499997
 20
-52.40269229125255
 10
-0.4740507812499999
 20
-52.37702822875255
 10
-0.42720703125000004
 20
-52.348942291252555
 10
-0.37998828125000017
 20
-52.31843447875255
 10
-0.3323945312500003
 20
-52.28550479125255
 10
-0.2844257812499986
 20
-52.25015322875255
 10
-0.2360820312499996
 20
-52.21237979125255
 10
-0.18736328124999968
 20
-52.172184478752555
  0
LWPOLYLINE
  5
50
330
17
100
AcDbEntity
  8
0
100
AcDbPolyline
 90
118
 70
0
 10
0.8816796875000001
 20
-53.490153228752554
 10
0.9126328125000001
 20
-53.50039541625255
 10
0.9429921874999998
 20
-53.50955947875255
 10
0.9727578125000003
 20
-53.517645416252556
 10
1.0019296875000006
 20
-53.524653228752555
 10
1.0305078124999998
 20
-53.530582916252555
 10
1.0584921875000015
 20
-53.53543447875255
 10
1.0858828125000004
 20
-53.53920791625255
 10
1.112679687500001
 20
-53.54190322875255
 10
1.1388828125000012
 20
-53.543520416252555
 10
1.1644921875000005
 20
-53.54405947875255
 10
1.205937500000001
 20
-53.54304385375255
 10
1.2462109375000008
 20
-53.539996978752555
 10
1.2853124999999999
 20
-53.53491885375255
 10
1.3232421875000009
 20
-53.52780947875255
 10
1.3600000000000003
 20
-53.51866885375255
 10
1.3955859375
 20
-53.507496978752556
 10
1.4299999999999997
 20
-53.49429385375255
 10
1.4632421875000006
 20
-53.47905947875255
 10
1.4953125000000007
 20
-53.46179385375255
 10
1.5262109375000001
 20
-53.44249697875255
 10
1.5561796875000002
 20
-53.421168853752555
 10
1.5854609375000006
 20
-53.39749697875255
 10
1.6140546875000004
 20
-53.37148135375255
 10
1.6419609375000004
 20
-53.34312197875255
 10
1.6691796874999998
 20
-53.312418853752554
 10
1.6957109375000003
 20
-53.27937197875255
 10
1.7215546875000003
 20
-53.24398135375255
 10
1.7467109375000014
 20
-53.20624697875255
 10
1.7711796875
 20
-53.16616885375255
 10
1.7949609375
 20
-53.12374697875255
 10
1.813171875
 20
-53.088895416252555
 10
1.8328046874999995
 20
-53.048715728752555
 10
1.8538593750000008
 20
-53.003207916252556
 10
1.8763359375000004
 20
-52.95237197875255
 10
1.9002343750000001
 20
-52.89620791625255
 10
1.925554687500001
 20
-52.834715728752556
 10
1.952296875
 20
-52.76789541625255
 10
1.980460937500002
 20
-52.69574697875255
 10
2.0100468750000005
 20
-52.61827041625255
 10
2.0410546875
 20
-52.535465728752555
 10
3.0277734375000005
 20
-49.898746978752555
 10
2.5879296875
 20
-49.898746978752555
 10
2.0340234375
 20
-51.410465728752555
 10
2.013375
 20
-51.46812197875255
 10
1.9933046875000002
 20
-51.52609072875255
 10
1.9738125000000002
 20
-51.58437197875255
 10
1.9548984375000007
 20
-51.64296572875255
 10
1.9365625000000009
 20
-51.70187197875255
 10
1.9188046874999998
 20
-51.76109072875255
 10
1.9016250000000001
 20
-51.820621978752555
 10
1.885023437500001
 20
-51.880465728752554
 10
1.8690000000000007
 20
-51.94062197875255
 10
1.8535546875
 20
-52.00109072875255
 10
1.8366249999999997
 20
-51.93841104125255
 10
1.8192734375000006
 20
-51.87630947875255
 10
1.8015000000000008
 20
-51.81478604125255
 10
1.7833046875000012
 20
-51.75384072875255
 10
1.7646875
 20
-51.69347354125255
 10
1.7456484375000008
 20
-51.63368447875255
 10
1.726187499999999
 20
-51.57447354125255
 10
1.7063046875000012
 20
-51.51584072875255
 10
1.6860000000000008
 20
-51.457786041252554
 10
1.6652734374999998
 20
-51.400309478752554
 10
1.1254296875000005
 20
-49.898746978752555
 10
0.6519921875000003
 20
-49.898746978752555
 10
1.6363671875000003
 20
-52.496403228752555
 10
1.6310546875000007
 20
-52.510278228752554
 10
1.6260546875
 20
-52.523465728752555
 10
1.6213671875000006
 20
-52.53596572875255
 10
1.616992187500001
 20
-52.547778228752556
 10
1.6129296875000003
 20
-52.558903228752555
 10
1.609179687500001
 20
-52.56934072875255
 10
1.6057421875000006
 20
-52.579090728752554
 10
1.6026171875000017
 20
-52.58815322875255
 10
1.5998046875000016
 20
-52.596528228752554
 10
1.5973046875000003
 20
-52.60421572875255
 10
1.5792265625000006
 20
-52.654457916252554
 10
1.5621796875000005
 20
-52.700809478752554
 10
1.5461640625000008
 20
-52.74327041625255
 10
1.5311796875000008
 20
-52.781840728752556
 10
1.5172265625000003
 20
-52.81652041625255
 10
1.5043046875000003
 20
-52.84730947875255
 10
1.4924140625
 20
-52.87420791625255
 10
1.481554687500001
 20
-52.897215728752556
 10
1.4717265624999998
 20
-52.91633291625255
 10
1.4629296875
 20
-52.931559478752554
 10
1.451359375
 20
-52.94866885375255
 10
1.4391484375
 20
-52.96499697875255
 10
1.4262968750000002
 20
-52.98054385375255
 10
1.4128046875000004
 20
-52.99530947875255
 10
1.3986718749999998
 20
-53.00929385375255
 10
1.3838984375
 20
-53.02249697875255
 10
1.3684843750000004
 20
-53.03491885375255
 10
1.3524296875000008
 20
-53.046559478752556
 10
1.3357343750000004
 20
-53.05741885375255
 10
1.3183984375
 20
-53.06749697875255
 10
1.3003046874999997
 20
-53.07684854125255
 10
1.2810234375
 20
-53.08521572875255
 10
1.2605546875
 20
-53.09259854125255
 10
1.2388984374999996
 20
-53.09899697875255
 10
1.2160546874999998
 20
-53.104411041252554
 10
1.1920234375000005
 20
-53.108840728752554
 10
1.1668046875
 20
-53.11228604125255
 10
1.140398437500001
 20
-53.11474697875255
 10
1.1128046875000006
 20
-53.11622354125255
 10
1.0840234375
 20
-53.11671572875255
 10
1.0622421875000008
 20
-53.11632510375255
 10
1.0397109375000007
 20
-53.115153228752554
 10
1.0164296875000005
 20
-53.113200103752554
 10
0.9923984375000003
 20
-53.11046572875255
 10
0.9676171875000001
 20
-53.10695010375255
 10
0.9420859375000008
 20
-53.10265322875255
 10
0.9158046875000005
 20
-53.097575103752554
 10
0.888773437500002
 20
-53.091715728752554
 10
0.8609921875000008
 20
-53.08507510375255
 10
0.8324609375000005
 20
-53.07765322875255
 10
0.8816796875000001
 20
-53.490153228752554
  0
LWPOLYLINE
  5
51
330
17
100
AcDbEntity
  8
0
100
AcDbPolyline
 90
5
 70
0
 10
557.3655418001659
 20
-62.44356299547452
 10
272.461847266722
 20
-62.44356299547452
 10
272.461847266722
 20
22.460131537969417
 10
557.3655418001659
 20
22.460131537969417
 10
557.3655418001659
 20
-62.44356299547452
  0
LWPOLYLINE
  5
52
330
17
100
AcDbEntity
  8
0
100
AcDbPolyline
 90
31
 70
0
 10
324.4067856403892
 20
-0.009999999999999998
 10
324.8919788046914
 20
-0.009999999999999998
 10
324.893694533444
 20
-0.008284271247463375
 10
324.91369453344396
 20
-0.008284271247463375
 10
324.9145523978202
 20
-0.009142135623730833
 10
324.90369453344397
 20
-0.02
 10
324.90369453344397
 20
-7.9799999999999995
 10
324.92369453344395
 20
-7.999999999999999
 10
325.83632247760687
 20
-7.999999999999999
 10
325.85632247760685
 20
-7.9799999999999995
 10
325.85632247760685
 20
-0.02
 10
325.84632247760686
 20
-0.009999999999999998
 10
326.3532313704987
 20
-0.009999999999999998
 10
326.31730067313816
 20
0.1706358138186507
 10
326.317083161976
 20
0.1711609322164621
 10
326.20880622409805
 20
0.3332088214077373
 10
326.1995312988517
 20
0.3424837466540798
 10
326.0374834096592
 20
0.45076068453246876
 10
326.0369581844408
 20
0.450978239941256
 10
325.8460384551044
 20
0.4889999927135809
 10
325.63884079149716
 20
0.48909489944990536
 10
325.6216591790065
 20
0.44761481755150434
 10
325.6216591790065
 20
0.48910276947477865
 10
324.91527176274616
 20
0.48942632970750893
 10
324.81759548000434
 20
0.47982863140365284
 10
324.81669947141796
 20
0.47965040400845577
 10
324.56095299154094
 20
0.3429510261587616
 10
324.55121078678997
 20
0.3332088214077801
 10
324.442933848912
 20
0.17116093221644282
 10
324.44271633774974
 20
0.1706358138186315
 10
324.4067856403892
 20
-0.009999999999999998
  0
LWPOLYLINE
  5
53
330
17
100
AcDbEntity
  8
0
100
AcDbPolyline
 90
46
 70
0
 10
354.4067805186047
 20
-0.009999999999999998
 10
354.89197880469146
 20
-0.009999999999999998
 10
354.893694533444
 20
-0.008284271247460558
 10
354.91369453344396
 20
-0.008284271247460558
 10
354.9145523978202
 20
-0.009142135623729317
 10
354.90369453344397
 20
-0.02
 10
354.90369453344397
 20
-7.971715728752544
 10
354.8754102621965
 20
-8.0
 10
353.97106658928107
 20
-8.0
 10
353.9510665892811
 20
-8.02
 10
353.9510665892811
 20
-16.443115912365254
 10
353.9714927141185
 20
-16.439227601041384
 10
353.97267971581135
 20
-16.44020996063281
 10
353.97267971581135
 20
-16.499
 10
354.92926124463565
 20
-16.499
 10
355.3906965637926
 20
-16.190678776957622
 10
355.391172689348
 20
-16.18952930818422
 10
355.35463161322144
 20
-16.00018949533399
 10
355.35478803416777
 20
-16.0
 10
354.9319788046914
 20
-16.0
 10
354.90369453344397
 20
-15.971715728752544
 10
354.90369453344397
 20
-8.028284271247456
 10
354.9319788046914
 20
-7.999999999999999
 10
355.83632247760687
 20
-7.999999999999999
 10
355.85632247760685
 20
-7.9799999999999995
 10
355.85632247760685
 20
-0.02
 10
355.84632247760686
 20
-0.009999999999999998
 10
356.35323137049875
 20
-0.009999999999999998
 10
356.317300673139
 20
0.1706358138166268
 10
356.31708316197677
 20
0.17116093221446063
 10
356.20880622409794
 20
0.33320882140785135
 10
356.1995312988516
 20
0.3424837466541845
 10
356.0374834096591
 20
0.45076068453252116
 10
356.0369581783386
 20
0.45097824246887336
 10
355.8460515186599
 20
0.4889999891329545
 10
355.6388430378772
 20
0.4891003226909454
 10
355.62165917900813
 20
0.44761481755533705
 10
355.6216591790082
 20
0.4891086433817483
 10
354.9152440922994
 20
0.4894507005157043
 10
354.7824166171203
 20
0.47153276089418156
 10
354.78151704518547
 20
0.47128509620531134
 10
354.56090716557816
 20
0.34290519920504153
 10
354.5512108042128
 20
0.33320883879494473
 10
354.4429338536446
 20
0.1711609435701857
 10
354.44271633719
 20
0.17063581243207004
 10
354.4067805186047
 20
-0.009999999999999998
  0
LWPOLYLINE
  5
54
330
17
100
AcDbEntity
  8
0
100
AcDbPolyline
 90
48
 70
0
 10
353.9510665892811
 20
-23.558507600306868
 10
353.9510665892811
 20
-31.980000000000004
 10
353.97106658928107
 20
-32.00000000000001
 10
354.8754102621965
 20
-32.00000000000001
 10
354.90369453344397
 20
-32.02828427124746
 10
354.90369453344397
 20
-39.980000000000004
 10
354.9145523978202
 20
-39.990857864376274
 10
354.91369453344396
 20
-39.991715728752546
 10
354.893694533444
 20
-39.991715728752546
 10
354.89197880469146
 20
-39.99000000000001
 10
354.4067856403892
 20
-39.99000000000001
 10
354.4427163377491
 20
-40.17063581381703
 10
354.4429338489113
 20
-40.17116093221486
 10
354.5512107867898
 20
-40.33320882140762
 10
354.5609529915408
 20
-40.342951026158595
 10
354.81669947142007
 20
-40.47965040400888
 10
354.81749828984226
 20
-40.479809299056065
 10
354.9159253707713
 20
-40.47011511070909
 10
354.91702338758137
 20
-40.471110295468286
 10
354.91702338758137
 20
-40.489
 10
355.62165917900677
 20
-40.489
 10
355.62165917900677
 20
-40.44761481755214
 10
355.63880148285796
 20
-40.489
 10
355.84580977291586
 20
-40.489
 10
356.036958291261
 20
-40.45097819569487
 10
356.0374834096588
 20
-40.45076068453264
 10
356.1995312988516
 20
-40.342483746654196
 10
356.2088062240979
 20
-40.33320882140787
 10
356.3170831619766
 20
-40.17116093221486
 10
356.31730067313885
 20
-40.17063581381703
 10
356.3532313704987
 20
-39.99000000000001
 10
355.84632247760686
 20
-39.99000000000001
 10
355.85632247760685
 20
-39.980000000000004
 10
355.85632247760685
 20
-32.02
 10
355.83632247760687
 20
-32.0
 10
354.9319788046914
 20
-32.0
 10
354.90369453344397
 20
-31.971715728752546
 10
354.90369453344397
 20
-24.02828427124746
 10
354.9319788046914
 20
-24.000000000000004
 10
355.3536701164722
 20
-24.000000000000004
 10
355.35351000998264
 20
-23.999804909677987
 10
355.3911714990736
 20
-23.810467818239086
 10
355.39069651655996
 20
-23.80932110901273
 10
354.92948697249915
 20
-23.50099991390816
 10
353.9718586486845
 20
-23.50056695760974
 10
353.9718311362845
 20
-23.561419874116666
 10
353.97063604606467
 20
-23.56240020728403
 10
353.9510665892811
 20
-23.558507600306868
  0
LWPOLYLINE
  5
55
330
17
100
AcDbEntity
  8
0
100
AcDbPolyline
 90
48
 70
0
 10
326.3532313704987
 20
-39.99000000000001
 10
325.84632247760686
 20
-39.99000000000001
 10
325.85632247760685
 20
-39.980000000000004
 10
325.85632247760685
 20
-32.02
 10
325.83632247760687
 20
-32.0
 10
324.9319788046914
 20
-32.0
 10
324.90369453344397
 20
-31.97171572875254
 10
324.90369453344397
 20
-24.02828427124747
 10
324.9319788046914
 20
-24.000000000000004
 10
325.3536701164722
 20
-24.000000000000004
 10
325.35351000998264
 20
-23.999804909677987
 10
325.3911714990736
 20
-23.810467818239083
 10
325.39069651655996
 20
-23.80932110901273
 10
324.92948697249915
 20
-23.50099991390816
 10
323.9718586486845
 20
-23.50056695760974
 10
323.9718311362845
 20
-23.56141987411654
 10
323.97063604606467
 20
-23.562400207283904
 10
323.9510665892811
 20
-23.558507600306736
 10
323.9510665892811
 20
-31.980000000000004
 10
323.97106658928107
 20
-32.00000000000001
 10
324.8754102621965
 20
-32.00000000000001
 10
324.90369453344397
 20
-32.028284271247465
 10
324.90369453344397
 20
-39.980000000000004
 10
324.9145523978202
 20
-39.990857864376274
 10
324.91369453344396
 20
-39.991715728752546
 10
324.893694533444
 20
-39.991715728752546
 10
324.8919788046914
 20
-39.99000000000001
 10
324.40678564053076
 20
-39.99000000000001
 10
324.44271634245683
 20
-40.170635825147386
 10
324.44293385364466
 20
-40.17116094357041
 10
324.5512108042129
 20
-40.333208838795
 10
324.56090716557827
 20
-40.34290519920513
 10
324.7815170451868
 20
-40.471285096205676
 10
324.7823207102213
 20
-40.47150635638846
 10
324.91596140804864
 20
-40.463207247677765
 10
324.91702338881134
 20
-40.464205325021986
 10
324.91702338881134
 20
-40.489
 10
325.621659179008
 20
-40.489
 10
325.621659179008
 20
-40.44771211689088
 10
325.63875975159374
 20
-40.489
 10
325.84580977291586
 20
-40.489
 10
326.036958291261
 20
-40.45097819569487
 10
326.0374834096588
 20
-40.45076068453264
 10
326.19953129885164
 20
-40.34248374665413
 10
326.208806224098
 20
-40.333208821407794
 10
326.3170831619758
 20
-40.17116093221683
 10
326.31730067313805
 20
-40.170635813819004
 10
326.3532313704987
 20
-39.99000000000001
  0
LWPOLYLINE
  5
56
330
17
100
AcDbEntity
  8
0
100
AcDbPolyline
 90
16
 70
0
 10
325.35478803416777
 20
-16.0
 10
324.9319788046914
 20
-16.0
 10
324.90369453344397
 20
-15.971715728752537
 10
324.90369453344397
 20
-8.02
 10
324.883694533444
 20
-8.0
 10
323.97106658928107
 20
-8.0
 10
323.9510665892811
 20
-8.02
 10
323.9510665892811
 20
-16.443115912365396
 10
323.9714927141185
 20
-16.43922760104152
 10
323.97267971581135
 20
-16.44020996063294
 10
323.97267971581135
 20
-16.499
 10
324.9292612446356
 20
-16.499
 10
325.3906965637926
 20
-16.190678776957622
 10
325.391172689348
 20
-16.18952930818422
 10
325.3546316132215
 20
-16.00018949533399
 10
325.35478803416777
 20
-16.0
  0
LWPOLYLINE
  5
57
330
17
100
AcDbEntity
  8
0
100
AcDbPolyline
 90
48
 70
0
 10
474.8928366690677
 20
-0.009142135623720956
 10
474.893694533444
 20
-0.008284271247454924
 10
474.91369453344396
 20
-0.008284271247454924
 10
474.9154102621965
 20
-0.009999999999999998
 10
475.40060342635707
 20
-0.009999999999999998
 10
475.3646727244279
 20
0.17063582515509895
 10
475.3644552132401
 20
0.1711609435780284
 10
475.2561782626751
 20
0.333208838794951
 10
475.24648190130983
 20
0.3429051992049984
 10
475.0258720216998
 20
0.47128509620604386
 10
475.02506835666526
 20
0.4715063563888259
 10
474.89142765883935
 20
0.4632072476780055
 10
474.8903656780766
 20
0.4642053250222293
 10
474.8903656780766
 20
0.489
 10
474.18572988787815
 20
0.489
 10
474.18572988787827
 20
0.4476148175584725
 10
474.16858758402975
 20
0.489
 10
473.96157929397214
 20
0.489
 10
473.77043077562837
 20
0.4509781956954647
 10
473.76990565723065
 20
0.45076068453326457
 10
473.6078577680365
 20
0.3424837466543065
 10
473.59858284279017
 20
0.33320882140795405
 10
473.4903059049111
 20
0.17116093221434478
 10
473.4900883937489
 20
0.1706358138166004
 10
473.4541576963892
 20
-0.009999999999999998
 10
473.9610665892811
 20
-0.009999999999999998
 10
473.951066589281
 20
-0.02
 10
473.951066589281
 20
-7.9799999999999995
 10
473.97106658928107
 20
-7.999999999999999
 10
474.8754102621965
 20
-7.999999999999999
 10
474.90369453344397
 20
-8.028284271247445
 10
474.90369453344397
 20
-15.97171572875255
 10
474.8754102621965
 20
-15.999999999999996
 10
474.4537189504164
 20
-15.999999999999996
 10
474.453879056906
 20
-16.000195090322013
 10
474.416217567815
 20
-16.18953218176256
 10
474.41669255032866
 20
-16.19067889098889
 10
474.8779020943888
 20
-16.49900008609184
 10
475.83553041820346
 20
-16.499433042390248
 10
475.8355579306034
 20
-16.438580125883846
 10
475.83675302082327
 20
-16.437599792716483
 10
475.8563224776069
 20
-16.44149239969368
 10
475.8563224776069
 20
-8.02
 10
475.83632247760687
 20
-8.0
 10
474.9319788046914
 20
-8.0
 10
474.90369453344397
 20
-7.971715728752553
 10
474.90369453344397
 20
-0.02
 10
474.8928366690677
 20
-0.009142135623720956
  0
LWPOLYLINE
  5
58
330
17
100
AcDbEntity
  8
0
100
AcDbPolyline
 90
46
 70
0
 10
475.4006085482832
 20
-39.99000000000001
 10
474.9154102621965
 20
-39.99000000000001
 10
474.91369453344396
 20
-39.99171572875255
 10
474.893694533444
 20
-39.99171572875255
 10
474.8928366690677
 20
-39.99085786437629
 10
474.90369453344397
 20
-39.980000000000004
 10
474.90369453344397
 20
-32.02828427124745
 10
474.9319788046914
 20
-32.00000000000001
 10
475.83632247760687
 20
-32.00000000000001
 10
475.8563224776069
 20
-31.980000000000004
 10
475.8563224776069
 20
-23.556884087634263
 10
475.8358963527695
 20
-23.56077239895817
 10
475.83470935107664
 20
-23.55979003936675
 10
475.83470935107664
 20
-23.500999999999998
 10
474.87812782225234
 20
-23.500999999999998
 10
474.4166925030961
 20
-23.809321223040744
 10
474.41621637754065
 20
-23.810470691814118
 10
474.4527574536671
 20
-23.99981050466601
 10
474.45260103272085
 20
-24.0
 10
474.8754102621965
 20
-24.0
 10
474.90369453344397
 20
-24.028284271247447
 10
474.90369453344397
 20
-31.971715728752553
 10
474.8754102621965
 20
-32.0
 10
473.97106658928107
 20
-32.0
 10
473.951066589281
 20
-32.02
 10
473.951066589281
 20
-39.980000000000004
 10
473.9610665892811
 20
-39.99000000000001
 10
473.4541576963892
 20
-39.99000000000001
 10
473.4900883937491
 20
-40.17063581381705
 10
473.4903059049113
 20
-40.17116093221479
 10
473.59858284279005
 20
-40.33320882140786
 10
473.6078577680364
 20
-40.34248374665421
 10
473.76990565723077
 20
-40.450760684533336
 10
473.77043088855135
 20
-40.45097824246969
 10
473.961337548228
 20
-40.48899998913295
 10
474.1685460290106
 20
-40.48910032269094
 10
474.1857298878787
 20
-40.44761481755756
 10
474.18572988787867
 20
-40.48910864338174
 10
474.8921449745885
 20
-40.4894507005157
 10
475.02497244976377
 20
-40.47153276089523
 10
475.02587202169866
 20
-40.471285096206365
 10
475.24648190130983
 20
-40.342905199205
 10
475.2561782626751
 20
-40.33320883879495
 10
475.36445521324003
 20
-40.17116094357822
 10
475.3646727296946
 20
-40.17063581244022
 10
475.4006085482832
 20
-39.99000000000001
  0
LWPOLYLINE
  5
59
330
17
100
AcDbEntity
  8
0
100
AcDbPolyline
 90
33
 70
0
 10
383.4541576963892
 20
-0.009999999999999998
 10
383.96106658928113
 20
-0.009999999999999998
 10
383.9510665892811
 20
-0.02
 10
383.9510665892811
 20
-7.9799999999999995
 10
383.9710665892811
 20
-7.999999999999999
 10
384.883694533444
 20
-7.999999999999999
 10
384.90369453344397
 20
-7.9799999999999995
 10
384.90369453344397
 20
-0.02
 10
384.8928366690677
 20
-0.00914213562373768
 10
384.893694533444
 20
-0.008284271247466196
 10
384.91369453344396
 20
-0.008284271247466196
 10
384.9154102621965
 20
-0.009999999999999998
 10
385.4006034264987
 20
-0.009999999999999998
 10
385.364672729139
 20
0.17063581381665463
 10
385.3644552179768
 20
0.17116093221439949
 10
385.25617828009797
 20
0.33320882140781893
 10
385.24643607534694
 20
0.3429510261588136
 10
384.9906895954701
 20
0.4796504040084269
 10
384.9898907770479
 20
0.4798092990556228
 10
384.8914636961166
 20
0.47011511070912726
 10
384.89036567930657
 20
0.4711102954683293
 10
384.89036567930657
 20
0.489
 10
384.1857298878812
 20
0.489
 10
384.1857298878812
 20
0.44761481755189236
 10
384.16858758403
 20
0.489
 10
383.961579293972
 20
0.489
 10
383.77043077562803
 20
0.45097819569531983
 10
383.7699056572302
 20
0.45076068453309287
 10
383.6078577680361
 20
0.342483746653969
 10
383.59858284278977
 20
0.33320882140761426
 10
383.49030590491117
 20
0.17116093221449716
 10
383.490088393749
 20
0.1706358138167514
 10
383.4541576963892
 20
-0.009999999999999998
  0
LWPOLYLINE
  5
5A
330
17
100
AcDbEntity
  8
0
100
AcDbPolyline
 90
31
 70
0
 10
414.4067856403892
 20
-0.009999999999999998
 10
414.89197880469146
 20
-0.009999999999999998
 10
414.893694533444
 20
-0.008284271247466196
 10
414.91369453344396
 20
-0.008284271247466196
 10
414.9145523978202
 20
-0.00914213562373768
 10
414.90369453344397
 20
-0.02
 10
414.90369453344397
 20
-7.9799999999999995
 10
414.92369453344395
 20
-7.999999999999999
 10
415.8363224776068
 20
-7.999999999999999
 10
415.85632247760685
 20
-7.9799999999999995
 10
415.85632247760685
 20
-0.02
 10
415.8463224776068
 20
-0.009999999999999998
 10
416.35323137049875
 20
-0.009999999999999998
 10
416.31730067313896
 20
0.1706358138167514
 10
416.31708316197677
 20
0.17116093221449716
 10
416.20880622409817
 20
0.33320882140761426
 10
416.1995312988518
 20
0.342483746653969
 10
416.03748340965774
 20
0.45076068453309287
 10
416.0369581844393
 20
0.45097823994187825
 10
415.8460384551044
 20
0.48899999271358097
 10
415.6388407914972
 20
0.489094899449905
 10
415.6216591790067
 20
0.44761481755189236
 10
415.6216591790067
 20
0.4891027694747782
 10
414.91527176274616
 20
0.48942632970750716
 10
414.8175954800043
 20
0.47982863140362964
 10
414.81669947141785
 20
0.4796504040084269
 10
414.560952991541
 20
0.3429510261588136
 10
414.55121078678997
 20
0.33320882140781893
 10
414.44293384891114
 20
0.17116093221439949
 10
414.44271633774895
 20
0.17063581381665463
 10
414.4067856403892
 20
-0.009999999999999998
  0
LWPOLYLINE
  5
5B
330
17
100
AcDbEntity
  8
0
100
AcDbPolyline
 90
46
 70
0
 10
444.40678051860476
 20
-0.009999999999999998
 10
444.89197880469146
 20
-0.009999999999999998
 10
444.893694533444
 20
-0.008284271247454924
 10
444.91369453344396
 20
-0.008284271247454924
 10
444.9145523978202
 20
-0.009142135623720956
 10
444.90369453344397
 20
-0.02
 10
444.90369453344397
 20
-7.971715728752553
 10
444.8754102621965
 20
-8.0
 10
443.97106658928107
 20
-8.0
 10
443.951066589281
 20
-8.02
 10
443.951066589281
 20
-16.443115912365798
 10
443.9714927141185
 20
-16.439227601041893
 10
443.97267971581135
 20
-16.440209960633315
 10
443.97267971581135
 20
-16.499
 10
444.9292612446356
 20
-16.499
 10
445.39069656379183
 20
-16.190678776959253
 10
445.3911726893473
 20
-16.18952930818588
 10
445.3546316132208
 20
-16.00018949533399
 10
445.3547880341671
 20
-16.0
 10
444.9319788046914
 20
-16.0
 10
444.90369453344397
 20
-15.971715728752553
 10
444.90369453344397
 20
-8.028284271247445
 10
444.9319788046914
 20
-7.999999999999999
 10
445.83632247760687
 20
-7.999999999999999
 10
445.8563224776069
 20
-7.9799999999999995
 10
445.8563224776069
 20
-0.02
 10
445.84632247760686
 20
-0.009999999999999998
 10
446.35323137049875
 20
-0.009999999999999998
 10
446.317300673139
 20
0.1706358138166004
 10
446.3170831619768
 20
0.17116093221434478
 10
446.20880622409777
 20
0.33320882140795405
 10
446.1995312988514
 20
0.3424837466543065
 10
446.0374834096573
 20
0.45076068453326457
 10
446.0369581783368
 20
0.45097824246960155
 10
445.8460515186599
 20
0.4889999891329545
 10
445.63884303787745
 20
0.489100322690944
 10
445.62165917900967
 20
0.4476148175584725
 10
445.6216591790098
 20
0.48910864338174614
 10
444.9152440922994
 20
0.4894507005156986
 10
444.782416617123
 20
0.47153276089491103
 10
444.78151704518814
 20
0.47128509620604386
 10
444.5609071655781
 20
0.3429051992049984
 10
444.5512108042128
 20
0.333208838794951
 10
444.44293385364784
 20
0.1711609435780284
 10
444.4427163371933
 20
0.17063581244003156
 10
444.40678051860476
 20
-0.009999999999999998
  0
LWPOLYLINE
  5
5C
330
17
100
AcDbEntity
  8
0
100
AcDbPolyline
 90
48
 70
0
 10
443.951066589281
 20
-23.55850760030632
 10
443.951066589281
 20
-31.980000000000004
 10
443.97106658928107
 20
-32.00000000000001
 10
444.8754102621965
 20
-32.00000000000001
 10
444.90369453344397
 20
-32.02828427124745
 10
444.90369453344397
 20
-39.980000000000004
 10
444.9145523978202
 20
-39.99085786437629
 10
444.91369453344396
 20
-39.99171572875255
 10
444.893694533444
 20
-39.99171572875255
 10
444.89197880469146
 20
-39.99000000000001
 10
444.40678564053087
 20
-39.99000000000001
 10
444.44271634246013
 20
-40.17063582515529
 10
444.4429338536479
 20
-40.17116094357822
 10
444.5512108042128
 20
-40.33320883879495
 10
444.5609071655781
 20
-40.342905199205
 10
444.7815170451893
 20
-40.471285096206365
 10
444.78232071022387
 20
-40.47150635638914
 10
444.9159614080486
 20
-40.46320724767809
 10
444.91702338881134
 20
-40.46420532502231
 10
444.91702338881134
 20
-40.489
 10
445.62165917900927
 20
-40.489
 10
445.6216591790092
 20
-40.44761481755756
 10
445.6388014828581
 20
-40.489
 10
445.8458097729158
 20
-40.489
 10
446.03695829125934
 20
-40.45097819569554
 10
446.03748340965717
 20
-40.450760684533336
 10
446.1995312988515
 20
-40.34248374665421
 10
446.2088062240979
 20
-40.33320882140786
 10
446.31708316197665
 20
-40.17116093221479
 10
446.31730067313885
 20
-40.17063581381705
 10
446.35323137049875
 20
-39.99000000000001
 10
445.84632247760686
 20
-39.99000000000001
 10
445.8563224776069
 20
-39.980000000000004
 10
445.8563224776069
 20
-32.02
 10
445.83632247760687
 20
-32.0
 10
444.9319788046914
 20
-32.0
 10
444.90369453344397
 20
-31.971715728752553
 10
444.90369453344397
 20
-24.02828427124745
 10
444.9319788046914
 20
-24.000000000000004
 10
445.35367011647156
 20
-24.000000000000004
 10
445.35351000998196
 20
-23.999804909677987
 10
445.3911714990729
 20
-23.810467818237438
 10
445.3906965165593
 20
-23.809321109011105
 10
444.92948697249915
 20
-23.50099991390816
 10
443.9718586486845
 20
-23.500566957609752
 10
443.97183113628455
 20
-23.561419874116154
 10
443.97063604606467
 20
-23.562400207283517
 10
443.951066589281
 20
-23.55850760030632
  0
LWPOLYLINE
  5
5D
330
17
100
AcDbEntity
  8
0
100
AcDbPolyline
 90
33
 70
0
 10
416.35323137049875
 20
-39.99000000000001
 10
415.8463224776068
 20
-39.99000000000001
 10
415.85632247760685
 20
-39.980000000000004
 10
415.85632247760685
 20
-32.02
 10
415.8363224776068
 20
-32.0
 10
414.92369453344395
 20
-32.0
 10
414.90369453344397
 20
-32.02
 10
414.90369453344397
 20
-39.980000000000004
 10
414.9145523978202
 20
-39.990857864376274
 10
414.91369453344396
 20
-39.991715728752546
 10
414.893694533444
 20
-39.991715728752546
 10
414.89197880469146
 20
-39.99000000000001
 10
414.4067856403892
 20
-39.99000000000001
 10
414.44271633774906
 20
-40.17063581381706
 10
414.44293384891125
 20
-40.171160932214796
 10
414.55121078679
 20
-40.33320882140786
 10
414.560952991541
 20
-40.34295102615885
 10
414.816699471417
 20
-40.479650404008254
 10
414.81749828983914
 20
-40.479809299055454
 10
414.9159253707713
 20
-40.4701151107086
 10
414.91702338758137
 20
-40.4711102954678
 10
414.91702338758137
 20
-40.489
 10
415.6216591790068
 20
-40.489
 10
415.6216591790068
 20
-40.44771211688801
 10
415.6387597515938
 20
-40.489
 10
415.84580977291586
 20
-40.489
 10
416.03695829125934
 20
-40.450978195695555
 10
416.0374834096572
 20
-40.45076068453332
 10
416.1995312988517
 20
-40.34248374665408
 10
416.20880622409805
 20
-40.33320882140774
 10
416.31708316197665
 20
-40.171160932214796
 10
416.31730067313885
 20
-40.17063581381706
 10
416.35323137049875
 20
-39.99000000000001
  0
LWPOLYLINE
  5
5E
330
17
100
AcDbEntity
  8
0
100
AcDbPolyline
 90
31
 70
0
 10
385.4006034264987
 20
-39.99000000000001
 10
384.9154102621965
 20
-39.99000000000001
 10
384.91369453344396
 20
-39.991715728752546
 10
384.893694533444
 20
-39.991715728752546
 10
384.8928366690677
 20
-39.990857864376274
 10
384.90369453344397
 20
-39.980000000000004
 10
384.90369453344397
 20
-32.02
 10
384.883694533444
 20
-32.0
 10
383.9710665892811
 20
-32.0
 10
383.9510665892811
 20
-32.02
 10
383.9510665892811
 20
-39.980000000000004
 10
383.96106658928113
 20
-39.99000000000001
 10
383.4541576963892
 20
-39.99000000000001
 10
383.4900883937491
 20
-40.17063581381706
 10
383.4903059049113
 20
-40.171160932214796
 10
383.5985828427899
 20
-40.33320882140774
 10
383.60785776803624
 20
-40.34248374665408
 10
383.7699056572307
 20
-40.45076068453332
 10
383.7704308824492
 20
-40.45097823994211
 10
383.9613506117836
 20
-40.48899999271358
 10
384.16854827539083
 20
-40.4890948994499
 10
384.1857298878811
 20
-40.44761481755243
 10
384.1857298878811
 20
-40.489102769474776
 10
384.8921173041418
 20
-40.48942632970751
 10
384.9897935868845
 20
-40.479828631403464
 10
384.99068959547094
 20
-40.479650404008254
 10
385.24643607534694
 20
-40.34295102615885
 10
385.2561782800979
 20
-40.33320882140786
 10
385.3644552179767
 20
-40.171160932214796
 10
385.3646727291389
 20
-40.17063581381706
 10
385.4006034264987
 20
-39.99000000000001
  0
LWPOLYLINE
  5
5F
330
17
100
AcDbEntity
  8
0
100
AcDbPolyline
 90
16
 70
0
 10
413.9710665892811
 20
-32.00000000000001
 10
414.883694533444
 20
-32.00000000000001
 10
414.90369453344397
 20
-31.980000000000004
 10
414.90369453344397
 20
-24.02828427124747
 10
414.9319788046914
 20
-24.000000000000004
 10
415.35367011647156
 20
-24.000000000000004
 10
415.35351000998196
 20
-23.999804909677987
 10
415.3911714990729
 20
-23.810467818237438
 10
415.3906965165593
 20
-23.80932110901109
 10
414.92948697249915
 20
-23.50099991390816
 10
413.9718586486845
 20
-23.500566957609745
 10
413.9718311362845
 20
-23.561419874116147
 10
413.97063604606467
 20
-23.56240020728351
 10
413.9510665892811
 20
-23.558507600306324
 10
413.9510665892811
 20
-31.980000000000004
 10
413.9710665892811
 20
-32.00000000000001
  0
LWPOLYLINE
  5
60
330
17
100
AcDbEntity
  8
0
100
AcDbPolyline
 90
16
 70
0
 10
415.3547880341671
 20
-16.0
 10
414.9319788046914
 20
-16.0
 10
414.90369453344397
 20
-15.971715728752534
 10
414.90369453344397
 20
-8.02
 10
414.883694533444
 20
-8.0
 10
413.9710665892811
 20
-8.0
 10
413.9510665892811
 20
-8.02
 10
413.9510665892811
 20
-16.443115912365773
 10
413.9714927141185
 20
-16.439227601041875
 10
413.97267971581135
 20
-16.440209960633297
 10
413.97267971581135
 20
-16.499
 10
414.92926124463565
 20
-16.499
 10
415.3906965637919
 20
-16.190678776959253
 10
415.3911726893474
 20
-16.189529308185858
 10
415.3546316132208
 20
-16.00018949533399
 10
415.3547880341671
 20
-16.0
  0
LWPOLYLINE
  5
61
330
17
100
AcDbEntity
  8
0
100
AcDbPolyline
 90
16
 70
0
 10
384.92369453344395
 20
-32.00000000000001
 10
385.8363224776068
 20
-32.00000000000001
 10
385.85632247760685
 20
-31.980000000000004
 10
385.85632247760685
 20
-23.556884087634216
 10
385.83589635276945
 20
-23.560772398958115
 10
385.8347093510766
 20
-23.559790039366693
 10
385.8347093510766
 20
-23.500999999999998
 10
384.8781278222523
 20
-23.500999999999998
 10
384.41669250309604
 20
-23.809321223040744
 10
384.41621637754054
 20
-23.81047069181414
 10
384.4527574536671
 20
-23.99981050466601
 10
384.45260103272085
 20
-24.0
 10
384.8754102621965
 20
-24.0
 10
384.90369453344397
 20
-24.028284271247465
 10
384.90369453344397
 20
-31.980000000000004
 10
384.92369453344395
 20
-32.00000000000001
  0
LWPOLYLINE
  5
62
330
17
100
AcDbEntity
  8
0
100
AcDbPolyline
 90
16
 70
0
 10
385.85632247760685
 20
-16.441492399693676
 10
385.85632247760685
 20
-8.02
 10
385.8363224776068
 20
-8.0
 10
384.92369453344395
 20
-8.0
 10
384.90369453344397
 20
-8.02
 10
384.90369453344397
 20
-15.97171572875253
 10
384.8754102621965
 20
-15.999999999999996
 10
384.4537189504164
 20
-15.999999999999996
 10
384.453879056906
 20
-16.000195090322013
 10
384.416217567815
 20
-16.18953218176256
 10
384.41669255032866
 20
-16.190678890988906
 10
384.8779020943888
 20
-16.49900008609184
 10
385.83553041820346
 20
-16.499433042390255
 10
385.83555793060344
 20
-16.438580125883853
 10
385.83675302082327
 20
-16.43759979271649
 10
385.85632247760685
 20
-16.441492399693676
  0
LWPOLYLINE
  5
63
330
17
100
AcDbEntity
  8
0
100
AcDbPolyline
 90
33
 70
0
 10
547.413694533444
 20
-49.99171572875255
 10
547.365657734452
 20
-49.503989923712226
 10
547.2233933647221
 20
-49.03500714783982
 10
546.9923685642003
 20
-48.60279014620354
 10
546.6814614864103
 20
-48.22394877578618
 10
546.302620115993
 20
-47.913041697996185
 10
545.8704031143567
 20
-47.682016897474334
 10
545.4014203384843
 20
-47.539752527744476
 10
544.913694533444
 20
-47.49171572875255
 10
544.4259687284036
 20
-47.539752527744476
 10
543.9569859525312
 20
-47.68201689747434
 10
543.5247689508949
 20
-47.91304169799619
 10
543.1459275804775
 20
-48.22394877578619
 10
542.8350205026876
 20
-48.60279014620355
 10
542.6039957021658
 20
-49.035007147839835
 10
542.4617313324359
 20
-49.50398992371224
 10
542.413694533444
 20
-49.99171572875256
 10
542.4617313324359
 20
-50.47944153379288
 10
542.6039957021658
 20
-50.948424309665285
 10
542.8350205026876
 20
-51.38064131130157
 10
543.1459275804776
 20
-51.75948268171893
 10
543.5247689508949
 20
-52.07038975950892
 10
543.9569859525312
 20
-52.30141456003077
 10
544.4259687284036
 20
-52.44367892976063
 10
544.913694533444
 20
-52.49171572875255
 10
545.4014203384843
 20
-52.44367892976063
 10
545.8704031143567
 20
-52.30141456003077
 10
546.302620115993
 20
-52.07038975950891
 10
546.6814614864104
 20
-51.75948268171892
 10
546.9923685642003
 20
-51.38064131130156
 10
547.2233933647221
 20
-50.94842430966528
 10
547.365657734452
 20
-50.47944153379287
 10
547.413694533444
 20
-49.99171572875255
  0
LWPOLYLINE
  5
64
330
17
100
AcDbEntity
  8
0
100
AcDbPolyline
 90
33
 70
0
 10
287.41369453344396
 20
-49.99171572875255
 10
287.36565773445204
 20
-49.503989923712226
 10
287.2233933647222
 20
-49.03500714783982
 10
286.9923685642003
 20
-48.60279014620354
 10
286.68146148641034
 20
-48.22394877578618
 10
286.30262011599297
 20
-47.913041697996185
 10
285.8704031143567
 20
-47.682016897474334
 10
285.4014203384843
 20
-47.539752527744476
 10
284.91369453344396
 20
-47.49171572875255
 10
284.42596872840363
 20
-47.539752527744476
 10
283.9569859525312
 20
-47.68201689747434
 10
283.52476895089495
 20
-47.91304169799619
 10
283.1459275804776
 20
-48.22394877578619
 10
282.8350205026876
 20
-48.60279014620355
 10
282.6039957021658
 20
-49.035007147839835
 10
282.4617313324359
 20
-49.50398992371224
 10
282.41369453344396
 20
-49.99171572875256
 10
282.4617313324359
 20
-50.47944153379288
 10
282.6039957021658
 20
-50.948424309665285
 10
282.8350205026876
 20
-51.38064131130157
 10
283.1459275804776
 20
-51.75948268171893
 10
283.52476895089495
 20
-52.07038975950892
 10
283.9569859525312
 20
-52.30141456003077
 10
284.42596872840363
 20
-52.44367892976063
 10
284.91369453344396
 20
-52.49171572875255
 10
285.4014203384843
 20
-52.44367892976063
 10
285.8704031143567
 20
-52.30141456003077
 10
286.30262011599297
 20
-52.07038975950891
 10
286.68146148641034
 20
-51.75948268171892
 10
286.9923685642003
 20
-51.38064131130156
 10
287.2233933647222
 20
-50.94842430966528
 10
287.36565773445204
 20
-50.47944153379287
 10
287.41369453344396
 20
-49.99171572875255
  0
LWPOLYLINE
  5
65
330
17
100
AcDbEntity
  8
0
100
AcDbPolyline
 90
33
 70
0
 10
547.413694533444
 20
10.008284271247447
 10
547.365657734452
 20
10.496010076287774
 10
547.2233933647221
 20
10.964992852160178
 10
546.9923685642003
 20
11.397209853796458
 10
546.6814614864103
 20
11.776051224213822
 10
546.302620115993
 20
12.086958302003815
 10
545.8704031143567
 20
12.317983102525668
 10
545.4014203384843
 20
12.460247472255524
 10
544.913694533444
 20
12.508284271247447
 10
544.4259687284036
 20
12.46024747225552
 10
543.9569859525312
 20
12.31798310252566
 10
543.5247689508949
 20
12.086958302003804
 10
543.1459275804775
 20
11.77605122421381
 10
542.8350205026876
 20
11.397209853796445
 10
542.6039957021658
 20
10.964992852160163
 10
542.4617313324359
 20
10.49601007628776
 10
542.413694533444
 20
10.008284271247438
 10
542.4617313324359
 20
9.520558466207119
 10
542.6039957021658
 20
9.051575690334717
 10
542.8350205026876
 20
8.619358688698437
 10
543.1459275804776
 20
8.240517318281075
 10
543.5247689508949
 20
7.9296102404910815
 10
543.9569859525312
 20
7.698585439969229
 10
544.4259687284036
 20
7.55632107023937
 10
544.913694533444
 20
7.508284271247447
 10
545.4014203384843
 20
7.556321070239372
 10
545.8704031143567
 20
7.698585439969232
 10
546.302620115993
 20
7.929610240491085
 10
546.6814614864104
 20
8.24051731828108
 10
546.9923685642003
 20
8.619358688698442
 10
547.2233933647221
 20
9.051575690334724
 10
547.365657734452
 20
9.520558466207127
 10
547.413694533444
 20
10.008284271247447
  0
LWPOLYLINE
  5
66
330
17
100
AcDbEntity
  8
0
100
AcDbPolyline
 90
33
 70
0
 10
287.41369453344396
 20
10.008284271247447
 10
287.36565773445204
 20
10.496010076287774
 10
287.2233933647222
 20
10.964992852160178
 10
286.9923685642003
 20
11.397209853796458
 10
286.68146148641034
 20
11.776051224213822
 10
286.30262011599297
 20
12.086958302003815
 10
285.8704031143567
 20
12.317983102525668
 10
285.4014203384843
 20
12.460247472255524
 10
284.91369453344396
 20
12.508284271247447
 10
284.42596872840363
 20
12.46024747225552
 10
283.9569859525312
 20
12.31798310252566
 10
283.52476895089495
 20
12.086958302003804
 10
283.1459275804776
 20
11.77605122421381
 10
282.8350205026876
 20
11.397209853796445
 10
282.6039957021658
 20
10.964992852160163
 10
282.4617313324359
 20
10.49601007628776
 10
282.41369453344396
 20
10.008284271247438
 10
282.4617313324359
 20
9.520558466207119
 10
282.6039957021658
 20
9.051575690334717
 10
282.8350205026876
 20
8.619358688698437
 10
283.1459275804776
 20
8.240517318281075
 10
283.52476895089495
 20
7.9296102404910815
 10
283.9569859525312
 20
7.698585439969229
 10
284.42596872840363
 20
7.55632107023937
 10
284.91369453344396
 20
7.508284271247447
 10
285.4014203384843
 20
7.556321070239372
 10
285.8704031143567
 20
7.698585439969232
 10
286.30262011599297
 20
7.929610240491085
 10
286.68146148641034
 20
8.24051731828108
 10
286.9923685642003
 20
8.619358688698442
 10
287.2233933647222
 20
9.051575690334724
 10
287.36565773445204
 20
9.520558466207127
 10
287.41369453344396
 20
10.008284271247447
  0
LWPOLYLINE
  5
67
330
17
100
AcDbEntity
  8
0
100
AcDbPolyline
 90
7
 70
0
 10
290.28010078344397
 20
-52.49171572875255
 10
292.51603828344395
 20
-52.49171572875255
 10
292.51603828344395
 20
-52.06905947875255
 10
290.75353828344396
 20
-52.06905947875255
 10
290.75353828344396
 20
-48.91280947875255
 10
290.28010078344397
 20
-48.91280947875255
 10
290.28010078344397
 20
-52.49171572875255
  0
LWPOLYLINE
  5
68
330
17
100
AcDbEntity
  8
0
100
AcDbPolyline
 90
12
 70
0
 10
305.42658515844397
 20
-52.49171572875255
 10
305.86564765844395
 20
-52.49171572875255
 10
305.86564765844395
 20
-51.634684478752554
 10
306.34924140844396
 20
-51.634684478752554
 10
306.34924140844396
 20
-51.23155947875255
 10
305.86564765844395
 20
-51.23155947875255
 10
305.86564765844395
 20
-48.91280947875255
 10
305.507053908444
 20
-48.91280947875255
 10
303.87346015844395
 20
-51.23155947875255
 10
303.87346015844395
 20
-51.634684478752554
 10
305.42658515844397
 20
-51.634684478752554
 10
305.42658515844397
 20
-52.49171572875255
  0
LWPOLYLINE
  5
69
330
17
100
AcDbEntity
  8
0
100
AcDbPolyline
 90
77
 70
0
 10
301.08097968969395
 20
-52.49171572875255
 10
301.520042189694
 20
-52.49171572875255
 10
301.520042189694
 20
-51.13390322875255
 10
301.52077656469396
 20
-51.078715728752556
 10
301.52297968969395
 20
-51.024403228752554
 10
301.52665156469396
 20
-50.97096572875255
 10
301.531792189694
 20
-50.91840322875255
 10
301.53840156469397
 20
-50.86671572875255
 10
301.54647968969397
 20
-50.81590322875255
 10
301.556026564694
 20
-50.765965728752555
 10
301.56704218969395
 20
-50.71690322875255
 10
301.579526564694
 20
-50.66871572875255
 10
301.593479689694
 20
-50.621403228752555
 10
301.60383125219397
 20
-50.59129385375255
 10
301.615510939694
 20
-50.562528228752555
 10
301.62851875219394
 20
-50.53510635375255
 10
301.642854689694
 20
-50.509028228752555
 10
301.65851875219397
 20
-50.484293853752554
 10
301.675510939694
 20
-50.46090322875255
 10
301.69383125219395
 20
-50.438856353752556
 10
301.713479689694
 20
-50.41815322875255
 10
301.734456252194
 20
-50.39879385375255
 10
301.75676093969395
 20
-50.380778228752554
 10
301.78002656469397
 20
-50.36430166625255
 10
301.80388593969394
 20
-50.34955947875255
 10
301.828339064694
 20
-50.336551666252554
 10
301.85338593969396
 20
-50.32527822875255
 10
301.87902656469396
 20
-50.315739166252555
 10
301.90526093969396
 20
-50.30793447875255
 10
301.93208906469397
 20
-50.30186416625255
 10
301.959510939694
 20
-50.297528228752554
 10
301.98752656469395
 20
-50.29492666625255
 10
302.016135939694
 20
-50.29405947875255
 10
302.04832343969395
 20
-50.295012603752554
 10
302.08051093969397
 20
-50.29787197875255
 10
302.112698439694
 20
-50.30263760375255
 10
302.14488593969395
 20
-50.30930947875255
 10
302.17707343969397
 20
-50.31788760375255
 10
302.209260939694
 20
-50.32837197875255
 10
302.24144843969395
 20
-50.34076260375255
 10
302.273635939694
 20
-50.35505947875255
 10
302.305823439694
 20
-50.371262603752555
 10
302.33801093969396
 20
-50.38937197875255
 10
302.48957343969397
 20
-49.98155947875255
 10
302.44371406469395
 20
-49.954692291252556
 10
302.39801093969396
 20
-49.930653228752554
 10
302.35246406469395
 20
-49.90944229125255
 10
302.30707343969397
 20
-49.89105947875255
 10
302.26183906469396
 20
-49.87550479125255
 10
302.216760939694
 20
-49.86277822875255
 10
302.171839064694
 20
-49.852879791252555
 10
302.12707343969396
 20
-49.84580947875255
 10
302.08246406469397
 20
-49.84156729125255
 10
302.03801093969395
 20
-49.840153228752555
 10
302.00748750219395
 20
-49.84103604125255
 10
301.97747968969395
 20
-49.84368447875255
 10
301.947987502194
 20
-49.848098541252554
 10
301.919010939694
 20
-49.854278228752555
 10
301.89055000219395
 20
-49.862223541252554
 10
301.86260468969397
 20
-49.87193447875255
 10
301.835175002194
 20
-49.88341104125255
 10
301.808260939694
 20
-49.896653228752555
 10
301.781862502194
 20
-49.91166104125255
 10
301.75597968969396
 20
-49.92843447875255
 10
301.730120314694
 20
-49.947817291252555
 10
301.70379218969396
 20
-49.97096572875255
 10
301.67699531469395
 20
-49.99787979125255
 10
301.64972968969397
 20
-50.028559478752555
 10
301.62199531469395
 20
-50.06300479125255
 10
301.59379218969394
 20
-50.10121572875255
 10
301.56512031469396
 20
-50.143192291252554
 10
301.535979689694
 20
-50.18893447875255
 10
301.506370314694
 20
-50.238442291252554
 10
301.476292189694
 20
-50.29171572875255
 10
301.476292189694
 20
-49.898746978752555
 10
301.08097968969395
 20
-49.898746978752555
 10
301.08097968969395
 20
-52.49171572875255
  0
LWPOLYLINE
  5
6A
330
17
100
AcDbEntity
  8
0
100
AcDbPolyline
 90
133
 70
0
 10
300.07990547094397
 20
-51.656559478752555
 10
300.059194533444
 20
-51.71067666625255
 10
300.037061720944
 20
-51.761778228752554
 10
300.01350703344394
 20
-51.80986416625255
 10
299.98853047094394
 20
-51.854934478752554
 10
299.962132033444
 20
-51.89698916625255
 10
299.934311720944
 20
-51.936028228752555
 10
299.90506953344396
 20
-51.972051666252554
 10
299.874405470944
 20
-52.00505947875255
 10
299.84231953344397
 20
-52.03505166625255
 10
299.808811720944
 20
-52.06202822875255
 10
299.773889845944
 20
-52.086075103752556
 10
299.737561720944
 20
-52.107590728752555
 10
299.69982734594396
 20
-52.12657510375255
 10
299.66068672094394
 20
-52.143028228752556
 10
299.620139845944
 20
-52.15695010375255
 10
299.57818672094396
 20
-52.168340728752554
 10
299.534827345944
 20
-52.177200103752554
 10
299.49006172094397
 20
-52.18352822875255
 10
299.44388984594394
 20
-52.18732510375255
 10
299.39631172094397
 20
-52.18859072875255
 10
299.33238984594396
 20
-52.18632510375255
 10
299.27062422094394
 20
-52.17952822875255
 10
299.21101484594396
 20
-52.168200103752554
 10
299.15356172094397
 20
-52.152340728752556
 10
299.09826484594396
 20
-52.13195010375255
 10
299.045124220944
 20
-52.107028228752554
 10
298.99413984594395
 20
-52.07757510375255
 10
298.94531172094395
 20
-52.043590728752555
 10
298.898639845944
 20
-52.00507510375255
 10
298.85412422094396
 20
-51.96202822875255
 10
298.81261640844394
 20
-51.91455947875255
 10
298.774967970944
 20
-51.86309072875255
 10
298.74117890844394
 20
-51.80762197875255
 10
298.71124922094396
 20
-51.74815322875255
 10
298.68517890844396
 20
-51.68468447875255
 10
298.66296797094395
 20
-51.617215728752555
 10
298.644616408444
 20
-51.545746978752554
 10
298.63012422094397
 20
-51.470278228752555
 10
298.619491408444
 20
-51.39080947875255
 10
298.61271797094395
 20
-51.30734072875255
 10
300.54631172094395
 20
-51.30734072875255
 10
300.54675703344395
 20
-51.29210635375255
 10
300.54715547094395
 20
-51.277653228752555
 10
300.547507033444
 20
-51.263981353752555
 10
300.54781172094397
 20
-51.25109072875255
 10
300.548069533444
 20
-51.23898135375255
 10
300.54828047094395
 20
-51.22765322875255
 10
300.54844453344396
 20
-51.217106353752555
 10
300.54856172094395
 20
-51.207340728752555
 10
300.548632033444
 20
-51.19835635375255
 10
300.54865547094397
 20
-51.19015322875255
 10
300.545358595944
 20
-51.06459854125255
 10
300.53546797094396
 20
-50.94480947875255
 10
300.51898359594395
 20
-50.83078604125255
 10
300.49590547094397
 20
-50.72252822875255
 10
300.46623359594395
 20
-50.620036041252554
 10
300.42996797094395
 20
-50.52330947875255
 10
300.38710859594397
 20
-50.43234854125255
 10
300.33765547094396
 20
-50.34715322875255
 10
300.28160859594396
 20
-50.26772354125255
 10
300.218967970944
 20
-50.19405947875255
 10
300.151124220944
 20
-50.12681729125255
 10
300.079467970944
 20
-50.06665322875255
 10
300.00399922094397
 20
-50.01356729125255
 10
299.92471797094396
 20
-49.96755947875255
 10
299.84162422094397
 20
-49.928629791252554
 10
299.75471797094394
 20
-49.89677822875255
 10
299.663999220944
 20
-49.87200479125255
 10
299.56946797094395
 20
-49.854309478752555
 10
299.471124220944
 20
-49.84369229125255
 10
299.36896797094397
 20
-49.840153228752555
 10
299.26361640844397
 20
-49.84377041625255
 10
299.162249220944
 20
-49.854621978752554
 10
299.06486640844395
 20
-49.87270791625255
 10
298.971467970944
 20
-49.89802822875255
 10
298.882053908444
 20
-49.930582916252554
 10
298.79662422094395
 20
-49.97037197875255
 10
298.715178908444
 20
-50.017395416252555
 10
298.637717970944
 20
-50.07165322875255
 10
298.564241408444
 20
-50.13314541625255
 10
298.49474922094396
 20
-50.20187197875255
 10
298.43077265844397
 20
-50.27699697875255
 10
298.373530470944
 20
-50.35799697875255
 10
298.32302265844396
 20
-50.44487197875255
 10
298.279249220944
 20
-50.537621978752554
 10
298.242210158444
 20
-50.63624697875255
 10
298.211905470944
 20
-50.740746978752554
 10
298.188335158444
 20
-50.85112197875255
 10
298.171499220944
 20
-50.96737197875255
 10
298.16139765844395
 20
-51.08949697875255
 10
298.15803047094397
 20
-51.21749697875255
 10
298.161366408444
 20
-51.341090728752555
 10
298.17137422094396
 20
-51.45905947875255
 10
298.188053908444
 20
-51.57140322875255
 10
298.211405470944
 20
-51.67812197875255
 10
298.241428908444
 20
-51.779215728752554
 10
298.278124220944
 20
-51.874684478752556
 10
298.321491408444
 20
-51.964528228752556
 10
298.371530470944
 20
-52.048746978752554
 10
298.42824140844397
 20
-52.12734072875255
 10
298.49162422094395
 20
-52.20030947875255
 10
298.56069453344395
 20
-52.266809478752556
 10
298.63446797094394
 20
-52.326309478752556
 10
298.712944533444
 20
-52.37880947875255
 10
298.79612422094397
 20
-52.424309478752555
 10
298.884007033444
 20
-52.462809478752554
 10
298.97659297094395
 20
-52.494309478752555
 10
299.07388203344397
 20
-52.51880947875255
 10
299.17587422094397
 20
-52.53630947875255
 10
299.28256953344396
 20
-52.54680947875255
 10
299.39396797094395
 20
-52.55030947875255
 10
299.48267109594394
 20
-52.54811416625255
 10
299.56815547094396
 20
-52.541528228752554
 10
299.65042109594395
 20
-52.53055166625255
 10
299.729467970944
 20
-52.51518447875255
 10
299.80529609594396
 20
-52.495426666252555
 10
299.877905470944
 20
-52.47127822875255
 10
299.94729609594395
 20
-52.44273916625255
 10
300.01346797094396
 20
-52.40980947875255
 10
300.07642109594394
 20
-52.37248916625255
 10
300.13615547094395
 20
-52.33077822875255
 10
300.19244453344396
 20
-52.284942291252555
 10
300.24506172094397
 20
-52.235559478752556
 10
300.29400703344396
 20
-52.18262979125255
 10
300.33928047094395
 20
-52.12615322875255
 10
300.380882033444
 20
-52.06612979125255
 10
300.41881172094395
 20
-52.00255947875255
 10
300.45306953344397
 20
-51.93544229125255
 10
300.483655470944
 20
-51.864778228752556
 10
300.51056953344397
 20
-51.79056729125255
 10
300.53381172094396
 20
-51.712809478752554
 10
300.07990547094397
 20
-51.656559478752555
  0
LWPOLYLINE
  5
6B
330
17
100
AcDbEntity
  8
0
100
AcDbPolyline
 90
244
 70
0
 10
294.716331252194
 20
-52.172184478752555
 10
294.72072187719397
 20
-52.20828604125255
 10
294.726081252194
 20
-52.243465728752554
 10
294.73240937719396
 20
-52.277723541252556
 10
294.73970625219397
 20
-52.311059478752554
 10
294.74797187719395
 20
-52.34347354125255
 10
294.75720625219395
 20
-52.37496572875255
 10
294.767409377194
 20
-52.40553604125255
 10
294.778581252194
 20
-52.435184478752554
 10
294.79072187719396
 20
-52.46391104125255
 10
294.80383125219396
 20
-52.49171572875255
 10
295.263206252194
 20
-52.49171572875255
 10
295.24704218969396
 20
-52.46174697875255
 10
295.231987502194
 20
-52.431528228752555
 10
295.21804218969396
 20
-52.40105947875255
 10
295.205206252194
 20
-52.37034072875255
 10
295.19347968969396
 20
-52.33937197875255
 10
295.182862502194
 20
-52.30815322875255
 10
295.17335468969395
 20
-52.27668447875255
 10
295.164956252194
 20
-52.244965728752554
 10
295.157667189694
 20
-52.21299697875255
 10
295.15148750219396
 20
-52.18077822875255
 10
295.14614375219395
 20
-52.14377041625255
 10
295.14136250219394
 20
-52.097746978752554
 10
295.137143752194
 20
-52.04270791625255
 10
295.133487502194
 20
-51.978653228752556
 10
295.130393752194
 20
-51.905582916252555
 10
295.127862502194
 20
-51.82349697875255
 10
295.125893752194
 20
-51.73239541625255
 10
295.124487502194
 20
-51.632278228752554
 10
295.12364375219397
 20
-51.523145416252554
 10
295.12336250219397
 20
-51.40499697875255
 10
295.12336250219397
 20
-50.81905947875255
 10
295.123143752194
 20
-50.76227822875255
 10
295.12248750219396
 20
-50.70912197875255
 10
295.12139375219397
 20
-50.659590728752555
 10
295.119862502194
 20
-50.61368447875255
 10
295.117893752194
 20
-50.57140322875255
 10
295.11548750219396
 20
-50.532746978752556
 10
295.11264375219395
 20
-50.49771572875255
 10
295.10936250219396
 20
-50.46630947875255
 10
295.10564375219394
 20
-50.43852822875255
 10
295.10148750219395
 20
-50.414371978752555
 10
295.09308906469397
 20
-50.378754791252554
 10
295.083518752194
 20
-50.344403228752554
 10
295.072776564694
 20
-50.31131729125255
 10
295.06086250219397
 20
-50.279496978752555
 10
295.04777656469395
 20
-50.248942291252554
 10
295.03351875219397
 20
-50.219653228752556
 10
295.018089064694
 20
-50.19162979125255
 10
295.001487502194
 20
-50.16487197875255
 10
294.98371406469397
 20
-50.13937979125255
 10
294.96476875219395
 20
-50.115153228752554
 10
294.944135939694
 20
-50.09180947875255
 10
294.92130000219396
 20
-50.06927822875255
 10
294.89626093969395
 20
-50.047559478752554
 10
294.869018752194
 20
-50.02665322875255
 10
294.839573439694
 20
-50.00655947875255
 10
294.80792500219394
 20
-49.98727822875255
 10
294.77407343969395
 20
-49.968809478752554
 10
294.73801875219397
 20
-49.95115322875255
 10
294.699760939694
 20
-49.93430947875255
 10
294.65930000219396
 20
-49.918278228752555
 10
294.61664375219397
 20
-49.90343447875255
 10
294.571487502194
 20
-49.89015322875255
 10
294.523831252194
 20
-49.87843447875255
 10
294.47367500219394
 20
-49.86827822875255
 10
294.42101875219396
 20
-49.859684478752555
 10
294.365862502194
 20
-49.85265322875255
 10
294.30820625219394
 20
-49.84718447875255
 10
294.24805000219396
 20
-49.84327822875255
 10
294.185393752194
 20
-49.84093447875255
 10
294.12023750219396
 20
-49.840153228752555
 10
294.05416718969394
 20
-49.84107510375255
 10
293.98970625219397
 20
-49.843840728752554
 10
293.926854689694
 20
-49.848450103752555
 10
293.865612502194
 20
-49.854903228752555
 10
293.80597968969397
 20
-49.863200103752554
 10
293.74795625219394
 20
-49.87334072875255
 10
293.69154218969396
 20
-49.88532510375255
 10
293.63673750219397
 20
-49.89915322875255
 10
293.58354218969396
 20
-49.91482510375255
 10
293.531956252194
 20
-49.93234072875255
 10
293.482370314694
 20
-49.951403228752554
 10
293.43517500219394
 20
-49.97202822875255
 10
293.390370314694
 20
-49.99421572875255
 10
293.34795625219397
 20
-50.01796572875255
 10
293.30793281469397
 20
-50.043278228752555
 10
293.27030000219395
 20
-50.07015322875255
 10
293.23505781469396
 20
-50.098590728752555
 10
293.20220625219395
 20
-50.12859072875255
 10
293.17174531469396
 20
-50.160153228752556
 10
293.14367500219396
 20
-50.193278228752554
 10
293.11755781469395
 20
-50.22824697875255
 10
293.09295625219397
 20
-50.265340728752555
 10
293.06987031469396
 20
-50.30455947875255
 10
293.04830000219397
 20
-50.345903228752555
 10
293.02824531469395
 20
-50.38937197875255
 10
293.00970625219395
 20
-50.43496572875255
 10
292.992682814694
 20
-50.48268447875255
 10
292.977175002194
 20
-50.532528228752554
 10
292.963182814694
 20
-50.584496978752554
 10
292.950706252194
 20
-50.638590728752554
 10
293.380393752194
 20
-50.697184478752554
 10
293.39537812719396
 20
-50.64370010375255
 10
293.411893752194
 20
-50.59355947875255
 10
293.42994062719396
 20
-50.546762603752555
 10
293.44951875219397
 20
-50.503309478752556
 10
293.47062812719395
 20
-50.463200103752555
 10
293.49326875219396
 20
-50.426434478752554
 10
293.517440627194
 20
-50.39301260375255
 10
293.54314375219394
 20
-50.36293447875255
 10
293.570378127194
 20
-50.33620010375255
 10
293.599143752194
 20
-50.312809478752555
 10
293.63030000219396
 20
-50.29217666625255
 10
293.664706252194
 20
-50.27371572875255
 10
293.702362502194
 20
-50.257426666252556
 10
293.74326875219396
 20
-50.24330947875255
 10
293.78742500219397
 20
-50.231364166252554
 10
293.83483125219396
 20
-50.22159072875255
 10
293.885487502194
 20
-50.21398916625255
 10
293.93939375219395
 20
-50.208559478752555
 10
293.99655000219394
 20
-50.20530166625255
 10
294.05695625219397
 20
-50.20421572875255
 10
294.121721877194
 20
-50.205700103752555
 10
294.18320625219394
 20
-50.21015322875255
 10
294.241409377194
 20
-50.21757510375255
 10
294.29633125219397
 20
-50.22796572875255
 10
294.34797187719397
 20
-50.24132510375255
 10
294.396331252194
 20
-50.25765322875255
 10
294.44140937719396
 20
-50.276950103752554
 10
294.48320625219395
 20
-50.29921572875255
 10
294.52172187719395
 20
-50.324450103752554
 10
294.55695625219397
 20
-50.35265322875255
 10
294.580706252194
 20
-50.37627041625255
 10
294.601956252194
 20
-50.40305947875255
 10
294.62070625219394
 20
-50.43302041625255
 10
294.63695625219395
 20
-50.46615322875255
 10
294.65070625219397
 20
-50.50245791625255
 10
294.661956252194
 20
-50.54193447875255
 10
294.67070625219395
 20
-50.58458291625255
 10
294.676956252194
 20
-50.630403228752556
 10
294.68070625219394
 20
-50.679395416252554
 10
294.68195625219397
 20
-50.73155947875255
 10
294.681932814694
 20
-50.73706729125255
 10
294.68186250219395
 20
-50.74390322875255
 10
294.68174531469396
 20
-50.75206729125255
 10
294.68158125219395
 20
-50.76155947875255
 10
294.681370314694
 20
-50.772379791252554
 10
294.68111250219397
 20
-50.78452822875255
 10
294.680807814694
 20
-50.79800479125255
 10
294.68045625219395
 20
-50.812809478752555
 10
294.68005781469395
 20
-50.82894229125255
 10
294.67961250219395
 20
-50.84640322875255
 10
294.62649531469395
 20
-50.863661041252556
 10
294.56776875219396
 20
-50.880434478752555
 10
294.50343281469395
 20
-50.896723541252555
 10
294.43348750219394
 20
-50.91252822875255
 10
294.357932814694
 20
-50.92784854125255
 10
294.27676875219396
 20
-50.942684478752554
 10
294.189995314694
 20
-50.95703604125255
 10
294.09761250219395
 20
-50.970903228752555
 10
293.99962031469397
 20
-50.98428604125255
 10
293.896018752194
 20
-50.99718447875255
 10
293.845003127194
 20
-51.003614166252554
 10
293.796643752194
 20
-51.01009072875255
 10
293.750940627194
 20
-51.01661416625255
 10
293.70789375219397
 20
-51.023184478752555
 10
293.667503127194
 20
-51.02980166625255
 10
293.62976875219397
 20
-51.03646572875255
 10
293.594690627194
 20
-51.04317666625255
 10
293.562268752194
 20
-51.049934478752554
 10
293.532503127194
 20
-51.056739166252555
 10
293.505393752194
 20
-51.06359072875255
 10
293.47058906469397
 20
-51.07374697875255
 10
293.436487502194
 20
-51.08484072875255
 10
293.403089064694
 20
-51.09687197875255
 10
293.370393752194
 20
-51.10984072875255
 10
293.338401564694
 20
-51.12374697875255
 10
293.30711250219395
 20
-51.138590728752554
 10
293.276526564694
 20
-51.15437197875255
 10
293.24664375219396
 20
-51.17109072875255
 10
293.21746406469396
 20
-51.188746978752555
 10
293.188987502194
 20
-51.207340728752555
 10
293.16140156469396
 20
-51.22702822875255
 10
293.134893752194
 20
-51.247965728752554
 10
293.10946406469395
 20
-51.270153228752555
 10
293.08511250219397
 20
-51.293590728752555
 10
293.06183906469397
 20
-51.318278228752554
 10
293.03964375219397
 20
-51.34421572875255
 10
293.01852656469396
 20
-51.371403228752555
 10
292.998487502194
 20
-51.39984072875255
 10
292.97952656469397
 20
-51.42952822875255
 10
292.961643752194
 20
-51.46046572875255
 10
292.94516718969396
 20
-51.49220791625255
 10
292.93042500219394
 20
-51.52462197875255
 10
292.917417189694
 20
-51.557707916252554
 10
292.90614375219394
 20
-51.59146572875255
 10
292.89660468969396
 20
-51.625895416252554
 10
292.888800002194
 20
-51.66099697875255
 10
292.882729689694
 20
-51.696770416252555
 10
292.878393752194
 20
-51.733215728752555
 10
292.875792189694
 20
-51.770332916252556
 10
292.87492500219395
 20
-51.80812197875255
 10
292.87722187719396
 20
-51.871957916252555
 10
292.88411250219394
 20
-51.93346572875255
 10
292.89559687719395
 20
-51.99264541625255
 10
292.911675002194
 20
-52.04949697875255
 10
292.932346877194
 20
-52.10402041625255
 10
292.95761250219397
 20
-52.15621572875255
 10
292.98747187719397
 20
-52.206082916252555
 10
293.021925002194
 20
-52.253621978752555
 10
293.060971877194
 20
-52.29883291625255
 10
293.10461250219396
 20
-52.341715728752554
 10
293.15252656469397
 20
-52.38134854125255
 10
293.204393752194
 20
-52.416809478752555
 10
293.26021406469397
 20
-52.448098541252556
 10
293.31998750219395
 20
-52.47521572875255
 10
293.38371406469395
 20
-52.49816104125255
 10
293.45139375219395
 20
-52.51693447875255
 10
293.52302656469396
 20
-52.53153604125255
 10
293.598612502194
 20
-52.54196572875255
 10
293.67815156469396
 20
-52.548223541252554
 10
293.76164375219395
 20
-52.55030947875255
 10
293.81303437719396
 20
-52.54945791625255
 10
293.86376875219395
 20
-52.546903228752555
 10
293.913846877194
 20
-52.542645416252554
 10
293.963268752194
 20
-52.536684478752555
 10
294.01203437719397
 20
-52.52902041625255
 10
294.060143752194
 20
-52.51965322875255
 10
294.10759687719394
 20
-52.50858291625255
 10
294.154393752194
 20
-52.495809478752555
 10
294.20053437719395
 20
-52.481332916252555
 10
294.24601875219395
 20
-52.465153228752555
 10
294.291362502194
 20
-52.44675479125255
 10
294.33708125219397
 20
-52.42593447875255
 10
294.383175002194
 20
-52.40269229125255
 10
294.42964375219395
 20
-52.37702822875255
 10
294.47648750219395
 20
-52.348942291252555
 10
294.52370625219396
 20
-52.31843447875255
 10
294.571300002194
 20
-52.28550479125255
 10
294.619268752194
 20
-52.25015322875255
 10
294.66761250219395
 20
-52.21237979125255
 10
294.716331252194
 20
-52.172184478752555
  0
LWPOLYLINE
  5
6C
330
17
100
AcDbEntity
  8
0
100
AcDbPolyline
 90
118
 70
0
 10
295.785374220944
 20
-53.490153228752554
 10
295.816327345944
 20
-53.50039541625255
 10
295.846686720944
 20
-53.50955947875255
 10
295.87645234594396
 20
-53.517645416252556
 10
295.905624220944
 20
-53.524653228752555
 10
295.93420234594396
 20
-53.530582916252555
 10
295.962186720944
 20
-53.53543447875255
 10
295.989577345944
 20
-53.53920791625255
 10
296.016374220944
 20
-53.54190322875255
 10
296.042577345944
 20
-53.543520416252555
 10
296.06818672094397
 20
-53.54405947875255
 10
296.109632033444
 20
-53.54304385375255
 10
296.14990547094396
 20
-53.539996978752555
 10
296.18900703344394
 20
-53.53491885375255
 10
296.22693672094397
 20
-53.52780947875255
 10
296.263694533444
 20
-53.51866885375255
 10
296.299280470944
 20
-53.507496978752556
 10
296.333694533444
 20
-53.49429385375255
 10
296.36693672094395
 20
-53.47905947875255
 10
296.399007033444
 20
-53.46179385375255
 10
296.429905470944
 20
-53.44249697875255
 10
296.45987422094396
 20
-53.421168853752555
 10
296.48915547094396
 20
-53.39749697875255
 10
296.517749220944
 20
-53.37148135375255
 10
296.545655470944
 20
-53.34312197875255
 10
296.57287422094396
 20
-53.312418853752554
 10
296.59940547094396
 20
-53.27937197875255
 10
296.62524922094394
 20
-53.24398135375255
 10
296.65040547094395
 20
-53.20624697875255
 10
296.674874220944
 20
-53.16616885375255
 10
296.69865547094395
 20
-53.12374697875255
 10
296.716866408444
 20
-53.088895416252555
 10
296.736499220944
 20
-53.048715728752555
 10
296.757553908444
 20
-53.003207916252556
 10
296.780030470944
 20
-52.95237197875255
 10
296.803928908444
 20
-52.89620791625255
 10
296.82924922094395
 20
-52.834715728752556
 10
296.85599140844397
 20
-52.76789541625255
 10
296.884155470944
 20
-52.69574697875255
 10
296.91374140844397
 20
-52.61827041625255
 10
296.94474922094395
 20
-52.535465728752555
 10
297.93146797094397
 20
-49.898746978752555
 10
297.49162422094395
 20
-49.898746978752555
 10
296.937717970944
 20
-51.410465728752555
 10
296.91706953344396
 20
-51.46812197875255
 10
296.89699922094394
 20
-51.52609072875255
 10
296.877507033444
 20
-51.58437197875255
 10
296.85859297094396
 20
-51.64296572875255
 10
296.84025703344395
 20
-51.70187197875255
 10
296.822499220944
 20
-51.76109072875255
 10
296.805319533444
 20
-51.820621978752555
 10
296.788717970944
 20
-51.880465728752554
 10
296.772694533444
 20
-51.94062197875255
 10
296.75724922094395
 20
-52.00109072875255
 10
296.740319533444
 20
-51.93841104125255
 10
296.72296797094396
 20
-51.87630947875255
 10
296.70519453344394
 20
-51.81478604125255
 10
296.68699922094396
 20
-51.75384072875255
 10
296.66838203344395
 20
-51.69347354125255
 10
296.64934297094396
 20
-51.63368447875255
 10
296.62988203344395
 20
-51.57447354125255
 10
296.60999922094396
 20
-51.51584072875255
 10
296.58969453344395
 20
-51.457786041252554
 10
296.56896797094396
 20
-51.400309478752554
 10
296.02912422094397
 20
-49.898746978752555
 10
295.555686720944
 20
-49.898746978752555
 10
296.540061720944
 20
-52.496403228752555
 10
296.534749220944
 20
-52.510278228752554
 10
296.529749220944
 20
-52.523465728752555
 10
296.525061720944
 20
-52.53596572875255
 10
296.52068672094396
 20
-52.547778228752556
 10
296.516624220944
 20
-52.558903228752555
 10
296.51287422094396
 20
-52.56934072875255
 10
296.509436720944
 20
-52.579090728752554
 10
296.506311720944
 20
-52.58815322875255
 10
296.503499220944
 20
-52.596528228752554
 10
296.500999220944
 20
-52.60421572875255
 10
296.482921095944
 20
-52.654457916252554
 10
296.465874220944
 20
-52.700809478752554
 10
296.44985859594397
 20
-52.74327041625255
 10
296.434874220944
 20
-52.781840728752556
 10
296.420921095944
 20
-52.81652041625255
 10
296.40799922094396
 20
-52.84730947875255
 10
296.396108595944
 20
-52.87420791625255
 10
296.385249220944
 20
-52.897215728752556
 10
296.375421095944
 20
-52.91633291625255
 10
296.36662422094395
 20
-52.931559478752554
 10
296.35505390844395
 20
-52.94866885375255
 10
296.342842970944
 20
-52.96499697875255
 10
296.32999140844396
 20
-52.98054385375255
 10
296.31649922094397
 20
-52.99530947875255
 10
296.30236640844396
 20
-53.00929385375255
 10
296.287592970944
 20
-53.02249697875255
 10
296.27217890844395
 20
-53.03491885375255
 10
296.25612422094395
 20
-53.046559478752556
 10
296.239428908444
 20
-53.05741885375255
 10
296.22209297094395
 20
-53.06749697875255
 10
296.20399922094396
 20
-53.07684854125255
 10
296.18471797094395
 20
-53.08521572875255
 10
296.164249220944
 20
-53.09259854125255
 10
296.14259297094395
 20
-53.09899697875255
 10
296.11974922094396
 20
-53.104411041252554
 10
296.09571797094395
 20
-53.108840728752554
 10
296.070499220944
 20
-53.11228604125255
 10
296.04409297094395
 20
-53.11474697875255
 10
296.01649922094396
 20
-53.11622354125255
 10
295.98771797094395
 20
-53.11671572875255
 10
295.96593672094394
 20
-53.11632510375255
 10
295.94340547094396
 20
-53.115153228752554
 10
295.920124220944
 20
-53.113200103752554
 10
295.896092970944
 20
-53.11046572875255
 10
295.871311720944
 20
-53.10695010375255
 10
295.84578047094396
 20
-53.10265322875255
 10
295.81949922094395
 20
-53.097575103752554
 10
295.79246797094396
 20
-53.091715728752554
 10
295.764686720944
 20
-53.08507510375255
 10
295.73615547094397
 20
-53.07765322875255
 10
295.785374220944
 20
-53.490153228752554
  0
ENDSEC
  0
SECTION
  2
OBJECTS
  0
DICTIONARY
  5
A
330
0
100
AcDbDictionary
281
1
  3
ACAD_COLOR
350
B
  3
ACAD_GROUP
350
C
  3
ACAD_LAYOUT
350
D
  3
ACAD_MATERIAL
350
E
  3
ACAD_MLEADERSTYLE
350
F
  3
ACAD_MLINESTYLE
350
10
  3
ACAD_PLOTSETTINGS
350
11
  3
ACAD_PLOTSTYLENAME
350
12
  3
ACAD_SCALELIST
350
14
  3
ACAD_TABLESTYLE
350
15
  3
ACAD_VISUALSTYLE
350
16
  3
EZDXF_META
350
2D
  0
DICTIONARY
  5
B
330
A
100
AcDbDictionary
281
1
  0
DICTIONARY
  5
C
330
A
100
AcDbDictionary
281
1
  0
DICTIONARY
  5
D
330
A
100
AcDbDictionary
281
1
  3
Model
350
1A
  3
Layout1
350
1E
  0
DICTIONARY
  5
E
330
A
100
AcDbDictionary
281
1
  3
ByBlock
350
1F
  3
ByLayer
350
20
  3
Global
350
21
  0
DICTIONARY
  5
F
330
A
100
AcDbDictionary
281
1
  3
Standard
350
2C
  0
DICTIONARY
  5
10
330
A
100
AcDbDictionary
281
1
  3
Standard
350
22
  0
DICTIONARY
  5
11
330
A
100
AcDbDictionary
281
1
  0
ACDBDICTIONARYWDFLT
  5
12
330
A
100
AcDbDictionary
281
1
  3
Normal
350
13
100
AcDbDictionaryWithDefault
340
13
  0
ACDBPLACEHOLDER
  5
13
330
12
  0
DICTIONARY
  5
14
330
A
100
AcDbDictionary
281
1
  0
DICTIONARY
  5
15
330
A
100
AcDbDictionary
281
1
  0
DICTIONARY
  5
16
330
A
100
AcDbDictionary
281
1
  0
LAYOUT
  5
1A
330
D
100
AcDbPlotSettings
  1

  2
Adobe PDF
  4
A3
  6

 40
7.5
 41
20.0
 42
7.5
 43
20.0
 44
420.0
 45
297.0
 46
0.0
 47
0.0
 48
0.0
 49
0.0
140
0.0
141
0.0
142
1.0
143
1.0
 70
1024
 72
1
 73
1
 74
5
  7

 75
16
 76
0
 77
2
 78
300
147
1.0
148
0.0
149
0.0
100
AcDbLayout
  1
Model
 70
1
 71
0
 10
0.0
 20
0.0
 11
420.0
 21
297.0
 12
0.0
 22
0.0
 32
0.0
 14
1e+20
 24
1e+20
 34
1e+20
 15
-1e+20
 25
-1e+20
 35
-1e+20
146
0.0
 13
0.0
 23
0.0
 33
0.0
 16
1.0
 26
0.0
 36
0.0
 17
0.0
 27
1.0
 37
0.0
 76
1
330
17
  0
LAYOUT
  5
1E
330
D
100
AcDbPlotSettings
  1

  2
Adobe PDF
  4
A3
  6

 40
7.5
 41
20.0
 42
7.5
 43
20.0
 44
420.0
 45
297.0
 46
0.0
 47
0.0
 48
0.0
 49
0.0
140
0.0
141
0.0
142
1.0
143
1.0
 70
0
 72
1
 73
1
 74
5
  7

 75
16
 76
0
 77
2
 78
300
147
1.0
148
0.0
149
0.0
100
AcDbLayout
  1
Layout1
 70
1
 71
1
 10
0.0
 20
0.0
 11
420.0
 21
297.0
 12
0.0
 22
0.0
 32
0.0
 14
1e+20
 24
1e+20
 34
1e+20
 15
-1e+20
 25
-1e+20
 35
-1e+20
146
0.0
 13
0.0
 23
0.0
 33
0.0
 16
1.0
 26
0.0
 36
0.0
 17
0.0
 27
1.0
 37
0.0
 76
1
330
1B
  0
MATERIAL
  5
1F
102
{ACAD_REACTORS
330
E
102
}
330
E
100
AcDbMaterial
  1
ByBlock
  2

 70
0
 40
1.0
 71
1
 41
1.0
 91
-1023410177
 42
1.0
 72
1
  3

 73
1
 74
1
 75
1
 44
0.5
 73
0
 45
1.0
 46
1.0
 77
1
  4

 78
1
 79
1
170
1
 48
1.0
171
1
  6

172
1
173
1
174
1
140
1.0
141
1.0
175
1
  7

176
1
177
1
178
1
143
1.0
179
1
  8

270
1
271
1
272
1
145
1.0
146
1.0
273
1
  9

274
1
275
1
276
1
 42
1.0
 72
1
  3

 73
1
 74
1
 75
1
 94
63
  0
MATERIAL
  5
20
102
{ACAD_REACTORS
330
E
102
}
330
E
100
AcDbMaterial
  1
ByLayer
  2

 70
0
 40
1.0
 71
1
 41
1.0
 91
-1023410177
 42
1.0
 72
1
  3

 73
1
 74
1
 75
1
 44
0.5
 73
0
 45
1.0
 46
1.0
 77
1
  4

 78
1
 79
1
170
1
 48
1.0
171
1
  6

172
1
173
1
174
1
140
1.0
141
1.0
175
1
  7

176
1
177
1
178
1
143
1.0
179
1
  8

270
1
271
1
272
1
145
1.0
146
1.0
273
1
  9

274
1
275
1
276
1
 42
1.0
 72
1
  3

 73
1
 74
1
 75
1
 94
63
  0
MATERIAL
  5
21
102
{ACAD_REACTORS
330
E
102
}
330
E
100
AcDbMaterial
  1
Global
  2

 70
0
 40
1.0
 71
1
 41
1.0
 91
-1023410177
 42
1.0
 72
1
  3

 73
1
 74
1
 75
1
 44
0.5
 73
0
 45
1.0
 46
1.0
 77
1
  4

 78
1
 79
1
170
1
 48
1.0
171
1
  6

172
1
173
1
174
1
140
1.0
141
1.0
175
1
  7

176
1
177
1
178
1
143
1.0
179
1
  8

270
1
271
1
272
1
145
1.0
146
1.0
273
1
  9

274
1
275
1
276
1
 42
1.0
 72
1
  3

 73
1
 74
1
 75
1
 94
63
  0
MLINESTYLE
  5
22
102
{ACAD_REACTORS
330
10
102
}
330
10
100
AcDbMlineStyle
  2
Standard
 70
0
  3

 62
256
 51
90.0
 52
90.0
 71
2
 49
0.5
 62
256
  6
BYLAYER
 49
-0.5
 62
256
  6
BYLAYER
  0
MLEADERSTYLE
  5
2C
102
{ACAD_REACTORS
330
F
102
}
330
F
100
AcDbMLeaderStyle
179
2
170
2
171
1
172
0
 90
2
 40
0.0
 41
0.0
173
1
 91
-1056964608
 92
-2
290
1
 42
2.0
291
1
 43
8.0
  3
Standard
 44
4.0
300

342
29
174
1
175
1
176
0
178
1
 93
-1056964608
 45
4.0
292
0
297
0
 46
4.0
 94
-1056964608
 47
1.0
 49
1.0
140
1.0
294
1
141
0.0
177
0
142
1.0
295
0
296
0
143
3.75
271
0
272
9
273
9
  0
DICTIONARY
  5
2D
330
A
100
AcDbDictionary
280
1
281
1
  3
CREATED_BY_EZDXF
350
2E
  3
WRITTEN_BY_EZDXF
350
6F
  0
DICTIONARYVAR
  5
2E
330
2D
100
DictionaryVariables
280
0
  1
0.17.2 @ 2022-04-05T07:59:55.987127+00:00
  0
DICTIONARYVAR
  5
6F
330
2D
100
DictionaryVariables
280
0
  1
0.17.2 @ 2022-04-05T07:59:56.006470+00:00
  0
ENDSEC
  0
EOF
