  0
SECTION
  2
HEADER
  9
$ACADVER
  1
AC1024
  9
$ACADMAINTVER
 70
6
  9
$DWGCODEPAGE
  3
ANSI_1252
  9
$LASTSAVEDBY
  1
ezdxf
  9
$INSBASE
 10
0.0
 20
0.0
 30
0.0
  9
$EXTMIN
 10
1e+20
 20
1e+20
 30
1e+20
  9
$EXTMAX
 10
-1e+20
 20
-1e+20
 30
-1e+20
  9
$LIMMIN
 10
0.0
 20
0.0
  9
$LIMMAX
 10
420.0
 20
297.0
  9
$ORTHOMODE
 70
0
  9
$REGENMODE
 70
1
  9
$FILLMODE
 70
1
  9
$QTEXTMODE
 70
0
  9
$MIRRTEXT
 70
1
  9
$LTSCALE
 40
1.0
  9
$ATTMODE
 70
1
  9
$TEXTSIZE
 40
2.5
  9
$TRACEWID
 40
1.0
  9
$TEXTSTYLE
  7
Standard
  9
$CLAYER
  8
0
  9
$CELTYPE
  6
ByLayer
  9
$CECOLOR
 62
256
  9
$CELTSCALE
 40
1.0
  9
$DISPSILH
 70
0
  9
$DIMSCALE
 40
1.0
  9
$DIMASZ
 40
2.5
  9
$DIMEXO
 40
0.625
  9
$DIMDLI
 40
3.75
  9
$DIMRND
 40
0.0
  9
$DIMDLE
 40
0.0
  9
$DIMEXE
 40
1.25
  9
$DIMTP
 40
0.0
  9
$DIMTM
 40
0.0
  9
$DIMTXT
 40
2.5
  9
$DIMCEN
 40
2.5
  9
$DIMTSZ
 40
0.0
  9
$DIMTOL
 70
0
  9
$DIMLIM
 70
0
  9
$DIMTIH
 70
0
  9
$DIMTOH
 70
0
  9
$DIMSE1
 70
0
  9
$DIMSE2
 70
0
  9
$DIMTAD
 70
1
  9
$DIMZIN
 70
8
  9
$DIMBLK
  1

  9
$DIMASO
 70
1
  9
$DIMSHO
 70
1
  9
$DIMPOST
  1

  9
$DIMAPOST
  1

  9
$DIMALT
 70
0
  9
$DIMALTD
 70
3
  9
$DIMALTF
 40
0.03937007874
  9
$DIMLFAC
 40
1.0
  9
$DIMTOFL
 70
1
  9
$DIMTVP
 40
0.0
  9
$DIMTIX
 70
0
  9
$DIMSOXD
 70
0
  9
$DIMSAH
 70
0
  9
$DIMBLK1
  1

  9
$DIMBLK2
  1

  9
$DIMSTYLE
  2
ISO-25
  9
$DIMCLRD
 70
0
  9
$DIMCLRE
 70
0
  9
$DIMCLRT
 70
0
  9
$DIMTFAC
 40
1.0
  9
$DIMGAP
 40
0.625
  9
$DIMJUST
 70
0
  9
$DIMSD1
 70
0
  9
$DIMSD2
 70
0
  9
$DIMTOLJ
 70
0
  9
$DIMTZIN
 70
8
  9
$DIMALTZ
 70
0
  9
$DIMALTTZ
 70
0
  9
$DIMUPT
 70
0
  9
$DIMDEC
 70
2
  9
$DIMTDEC
 70
2
  9
$DIMALTU
 70
2
  9
$DIMALTTD
 70
3
  9
$DIMTXSTY
  7
Standard
  9
$DIMAUNIT
 70
0
  9
$DIMADEC
 70
0
  9
$DIMALTRND
 40
0.0
  9
$DIMAZIN
 70
0
  9
$DIMDSEP
 70
44
  9
$DIMATFIT
 70
3
  9
$DIMFRAC
 70
0
  9
$DIMLDRBLK
  1

  9
$DIMLUNIT
 70
2
  9
$DIMLWD
 70
-2
  9
$DIMLWE
 70
-2
  9
$DIMTMOVE
 70
0
  9
$DIMFXL
 40
1.0
  9
$DIMFXLON
 70
0
  9
$DIMJOGANG
 40
0.785398163397
  9
$DIMTFILL
 70
0
  9
$DIMTFILLCLR
 70
0
  9
$DIMARCSYM
 70
0
  9
$DIMLTYPE
  6

  9
$DIMLTEX1
  6

  9
$DIMLTEX2
  6

  9
$DIMTXTDIRECTION
 70
0
  9
$LUNITS
 70
2
  9
$LUPREC
 70
4
  9
$SKETCHINC
 40
1.0
  9
$FILLETRAD
 40
10.0
  9
$AUNITS
 70
0
  9
$AUPREC
 70
2
  9
$MENU
  1
.
  9
$ELEVATION
 40
0.0
  9
$PELEVATION
 40
0.0
  9
$THICKNESS
 40
0.0
  9
$LIMCHECK
 70
0
  9
$CHAMFERA
 40
0.0
  9
$CHAMFERB
 40
0.0
  9
$CHAMFERC
 40
0.0
  9
$CHAMFERD
 40
0.0
  9
$SKPOLY
 70
0
  9
$TDCREATE
 40
2459675.0416203705
  9
$TDUCREATE
 40
2458532.153996898
  9
$TDUPDATE
 40
2459675.0416203705
  9
$TDUUPDATE
 40
2458532.1544311
  9
$TDINDWG
 40
0.0
  9
$TDUSRTIMER
 40
0.0
  9
$USRTIMER
 70
1
  9
$ANGBASE
 50
0.0
  9
$ANGDIR
 70
0
  9
$PDMODE
 70
0
  9
$PDSIZE
 40
0.0
  9
$PLINEWID
 40
0.0
  9
$SPLFRAME
 70
0
  9
$SPLINETYPE
 70
6
  9
$SPLINESEGS
 70
8
  9
$HANDSEED
  5
3F
  9
$SURFTAB1
 70
6
  9
$SURFTAB2
 70
6
  9
$SURFTYPE
 70
6
  9
$SURFU
 70
6
  9
$SURFV
 70
6
  9
$UCSBASE
  2

  9
$UCSNAME
  2

  9
$UCSORG
 10
0.0
 20
0.0
 30
0.0
  9
$UCSXDIR
 10
1.0
 20
0.0
 30
0.0
  9
$UCSYDIR
 10
0.0
 20
1.0
 30
0.0
  9
$UCSORTHOREF
  2

  9
$UCSORTHOVIEW
 70
0
  9
$UCSORGTOP
 10
0.0
 20
0.0
 30
0.0
  9
$UCSORGBOTTOM
 10
0.0
 20
0.0
 30
0.0
  9
$UCSORGLEFT
 10
0.0
 20
0.0
 30
0.0
  9
$UCSORGRIGHT
 10
0.0
 20
0.0
 30
0.0
  9
$UCSORGFRONT
 10
0.0
 20
0.0
 30
0.0
  9
$UCSORGBACK
 10
0.0
 20
0.0
 30
0.0
  9
$PUCSBASE
  2

  9
$PUCSNAME
  2

  9
$PUCSORG
 10
0.0
 20
0.0
 30
0.0
  9
$PUCSXDIR
 10
1.0
 20
0.0
 30
0.0
  9
$PUCSYDIR
 10
0.0
 20
1.0
 30
0.0
  9
$PUCSORTHOREF
  2

  9
$PUCSORTHOVIEW
 70
0
  9
$PUCSORGTOP
 10
0.0
 20
0.0
 30
0.0
  9
$PUCSORGBOTTOM
 10
0.0
 20
0.0
 30
0.0
  9
$PUCSORGLEFT
 10
0.0
 20
0.0
 30
0.0
  9
$PUCSORGRIGHT
 10
0.0
 20
0.0
 30
0.0
  9
$PUCSORGFRONT
 10
0.0
 20
0.0
 30
0.0
  9
$PUCSORGBACK
 10
0.0
 20
0.0
 30
0.0
  9
$USERI1
 70
0
  9
$USERI2
 70
0
  9
$USERI3
 70
0
  9
$USERI4
 70
0
  9
$USERI5
 70
0
  9
$USERR1
 40
0.0
  9
$USERR2
 40
0.0
  9
$USERR3
 40
0.0
  9
$USERR4
 40
0.0
  9
$USERR5
 40
0.0
  9
$WORLDVIEW
 70
1
  9
$SHADEDGE
 70
3
  9
$SHADEDIF
 70
70
  9
$TILEMODE
 70
1
  9
$MAXACTVP
 70
64
  9
$PINSBASE
 10
0.0
 20
0.0
 30
0.0
  9
$PLIMCHECK
 70
0
  9
$PEXTMIN
 10
1e+20
 20
1e+20
 30
1e+20
  9
$PEXTMAX
 10
-1e+20
 20
-1e+20
 30
-1e+20
  9
$PLIMMIN
 10
0.0
 20
0.0
  9
$PLIMMAX
 10
420.0
 20
297.0
  9
$UNITMODE
 70
0
  9
$VISRETAIN
 70
1
  9
$PLINEGEN
 70
0
  9
$PSLTSCALE
 70
1
  9
$TREEDEPTH
 70
3020
  9
$CMLSTYLE
  2
Standard
  9
$CMLJUST
 70
0
  9
$CMLSCALE
 40
20.0
  9
$PROXYGRAPHICS
 70
1
  9
$MEASUREMENT
 70
1
  9
$CELWEIGHT
370
-1
  9
$ENDCAPS
280
0
  9
$JOINSTYLE
280
0
  9
$LWDISPLAY
290
0
  9
$INSUNITS
 70
6
  9
$HYPERLINKBASE
  1

  9
$STYLESHEET
  1

  9
$XEDIT
290
1
  9
$CEPSNTYPE
380
0
  9
$PSTYLEMODE
290
1
  9
$FINGERPRINTGUID
  2
{D5E41F1D-B39E-453C-9C70-96B7DD2765DC}
  9
$VERSIONGUID
  2
{68C7377F-A359-4EE4-9EC7-75AC6CE004C1}
  9
$EXTNAMES
290
1
  9
$PSVPSCALE
 40
0.0
  9
$OLESTARTUP
290
0
  9
$SORTENTS
280
127
  9
$INDEXCTL
280
0
  9
$HIDETEXT
280
1
  9
$XCLIPFRAME
280
0
  9
$HALOGAP
280
0
  9
$OBSCOLOR
 70
257
  9
$OBSLTYPE
280
0
  9
$INTERSECTIONDISPLAY
280
0
  9
$INTERSECTIONCOLOR
 70
257
  9
$DIMASSOC
280
2
  9
$PROJECTNAME
  1

  9
$CAMERADISPLAY
290
0
  9
$LENSLENGTH
 40
50.0
  9
$CAMERAHEIGHT
 40
0.0
  9
$STEPSPERSEC
 40
24.0
  9
$STEPSIZE
 40
100.0
  9
$3DDWFPREC
 40
2.0
  9
$PSOLWIDTH
 40
0.005
  9
$PSOLHEIGHT
 40
0.08
  9
$LOFTANG1
 40
1.570796326795
  9
$LOFTANG2
 40
1.570796326795
  9
$LOFTMAG1
 40
0.0
  9
$LOFTMAG2
 40
0.0
  9
$LOFTPARAM
 70
7
  9
$LOFTNORMALS
280
1
  9
$LATITUDE
 40
37.795
  9
$LONGITUDE
 40
-122.394
  9
$NORTHDIRECTION
 40
0.0
  9
$TIMEZONE
 70
-8000
  9
$LIGHTGLYPHDISPLAY
280
1
  9
$TILEMODELIGHTSYNCH
280
1
  9
$CMATERIAL
347
20
  9
$SOLIDHIST
280
0
  9
$SHOWHIST
280
1
  9
$DWFFRAME
280
2
  9
$DGNFRAME
280
2
  9
$REALWORLDSCALE
290
1
  9
$INTERFERECOLOR
 62
256
  9
$CSHADOW
280
0
  9
$SHADOWPLANELOCATION
 40
0.0
  0
ENDSEC
  0
SECTION
  2
CLASSES
  0
CLASS
  1
ACDBDICTIONARYWDFLT
  2
AcDbDictionaryWithDefault
  3
ObjectDBX Classes
 90
0
 91
0
280
0
281
0
  0
CLASS
  1
SUN
  2
AcDbSun
  3
SCENEOE
 90
1153
 91
0
280
0
281
0
  0
CLASS
  1
VISUALSTYLE
  2
AcDbVisualStyle
  3
ObjectDBX Classes
 90
4095
 91
0
280
0
281
0
  0
CLASS
  1
MATERIAL
  2
AcDbMaterial
  3
ObjectDBX Classes
 90
1153
 91
0
280
0
281
0
  0
CLASS
  1
SCALE
  2
AcDbScale
  3
ObjectDBX Classes
 90
1153
 91
0
280
0
281
0
  0
CLASS
  1
TABLESTYLE
  2
AcDbTableStyle
  3
ObjectDBX Classes
 90
4095
 91
0
280
0
281
0
  0
CLASS
  1
MLEADERSTYLE
  2
AcDbMLeaderStyle
  3
ACDB_MLEADERSTYLE_CLASS
 90
4095
 91
0
280
0
281
0
  0
CLASS
  1
DICTIONARYVAR
  2
AcDbDictionaryVar
  3
ObjectDBX Classes
 90
0
 91
0
280
0
281
0
  0
CLASS
  1
CELLSTYLEMAP
  2
AcDbCellStyleMap
  3
ObjectDBX Classes
 90
1152
 91
0
280
0
281
0
  0
CLASS
  1
MENTALRAYRENDERSETTINGS
  2
AcDbMentalRayRenderSettings
  3
SCENEOE
 90
1024
 91
0
280
0
281
0
  0
CLASS
  1
ACDBDETAILVIEWSTYLE
  2
AcDbDetailViewStyle
  3
ObjectDBX Classes
 90
1025
 91
0
280
0
281
0
  0
CLASS
  1
ACDBSECTIONVIEWSTYLE
  2
AcDbSectionViewStyle
  3
ObjectDBX Classes
 90
1025
 91
0
280
0
281
0
  0
CLASS
  1
RASTERVARIABLES
  2
AcDbRasterVariables
  3
ISM
 90
0
 91
0
280
0
281
0
  0
CLASS
  1
LAYOUT
  2
AcDbLayout
  3
ObjectDBX Classes
 90
0
 91
0
280
0
281
0
  0
CLASS
  1
ACDBPLACEHOLDER
  2
AcDbPlaceHolder
  3
ObjectDBX Classes
 90
0
 91
0
280
0
281
0
  0
ENDSEC
  0
SECTION
  2
TABLES
  0
TABLE
  2
VPORT
  5
8
330
0
100
AcDbSymbolTable
 70
1
  0
VPORT
  5
23
330
8
100
AcDbSymbolTableRecord
100
AcDbViewportTableRecord
  2
*Active
 70
0
 10
0.0
 20
0.0
 11
1.0
 21
1.0
 12
0.0
 22
0.0
 13
0.0
 23
0.0
 14
0.5
 24
0.5
 15
0.5
 25
0.5
 16
0.0
 26
0.0
 36
1.0
 17
0.0
 27
0.0
 37
0.0
 40
1000.0
 41
1.34
 42
50.0
 43
0.0
 44
0.0
 50
0.0
 51
0.0
 71
0
 72
1000
 73
1
 74
3
 75
0
 76
0
 77
0
 78
0
281
0
 65
0
146
0.0
  0
ENDTAB
  0
TABLE
  2
LTYPE
  5
2
330
0
100
AcDbSymbolTable
 70
3
  0
LTYPE
  5
24
330
2
100
AcDbSymbolTableRecord
100
AcDbLinetypeTableRecord
  2
ByBlock
 70
0
  3

 72
65
 73
0
 40
0.0
  0
LTYPE
  5
25
330
2
100
AcDbSymbolTableRecord
100
AcDbLinetypeTableRecord
  2
ByLayer
 70
0
  3

 72
65
 73
0
 40
0.0
  0
LTYPE
  5
26
330
2
100
AcDbSymbolTableRecord
100
AcDbLinetypeTableRecord
  2
Continuous
 70
0
  3

 72
65
 73
0
 40
0.0
  0
ENDTAB
  0
TABLE
  2
LAYER
  5
1
330
0
100
AcDbSymbolTable
 70
2
  0
LAYER
  5
27
330
1
100
AcDbSymbolTableRecord
100
AcDbLayerTableRecord
  2
0
 70
0
 62
7
  6
Continuous
370
-3
390
13
347
21
  0
LAYER
  5
28
330
1
100
AcDbSymbolTableRecord
100
AcDbLayerTableRecord
  2
Defpoints
 70
0
 62
7
  6
Continuous
290
0
370
-3
390
13
347
21
  0
ENDTAB
  0
TABLE
  2
STYLE
  5
5
330
0
100
AcDbSymbolTable
 70
1
  0
STYLE
  5
29
330
5
100
AcDbSymbolTableRecord
100
AcDbTextStyleTableRecord
  2
Standard
 70
0
 40
0.0
 41
1.0
 50
0.0
 71
0
 42
2.5
  3
txt
  4

  0
ENDTAB
  0
TABLE
  2
VIEW
  5
7
330
0
100
AcDbSymbolTable
 70
0
  0
ENDTAB
  0
TABLE
  2
UCS
  5
6
330
0
100
AcDbSymbolTable
 70
0
  0
ENDTAB
  0
TABLE
  2
APPID
  5
3
330
0
100
AcDbSymbolTable
 70
3
  0
APPID
  5
2A
330
3
100
AcDbSymbolTableRecord
100
AcDbRegAppTableRecord
  2
ACAD
 70
0
  0
APPID
  5
3C
330
3
100
AcDbSymbolTableRecord
100
AcDbRegAppTableRecord
  2
HATCHBACKGROUNDCOLOR
 70
0
  0
APPID
  5
3D
330
3
100
AcDbSymbolTableRecord
100
AcDbRegAppTableRecord
  2
EZDXF
 70
0
  0
ENDTAB
  0
TABLE
  2
DIMSTYLE
  5
4
330
0
100
AcDbSymbolTable
 70
1
100
AcDbDimStyleTable
  0
DIMSTYLE
105
2B
330
4
100
AcDbSymbolTableRecord
100
AcDbDimStyleTableRecord
  2
Standard
 70
0
 40
1.0
 41
2.5
 42
0.625
 43
3.75
 44
1.25
 45
0.0
 46
0.0
 47
0.0
 48
0.0
 49
2.5
140
2.5
141
2.5
142
0.0
143
0.03937007874
144
1.0
145
0.0
146
1.0
147
0.625
148
0.0
 69
0
 70
0
 71
0
 72
0
 73
0
 74
0
 75
0
 76
0
 77
1
 78
8
 79
3
170
0
171
3
172
1
173
0
174
0
175
0
176
0
177
0
178
0
179
2
271
2
272
2
273
2
274
3
275
0
276
0
277
2
278
44
279
0
280
0
281
0
282
0
283
0
284
8
285
0
286
0
288
0
289
3
290
0
371
-2
372
-2
  0
ENDTAB
  0
TABLE
  2
BLOCK_RECORD
  5
9
330
0
100
AcDbSymbolTable
 70
2
  0
BLOCK_RECORD
  5
17
330
9
100
AcDbSymbolTableRecord
100
AcDbBlockTableRecord
  2
*Model_Space
340
1A
 70
0
280
1
281
0
  0
BLOCK_RECORD
  5
1B
330
9
100
AcDbSymbolTableRecord
100
AcDbBlockTableRecord
  2
*Paper_Space
340
1E
 70
0
280
1
281
0
  0
ENDTAB
  0
ENDSEC
  0
SECTION
  2
BLOCKS
  0
BLOCK
  5
18
330
17
100
AcDbEntity
  8
0
100
AcDbBlockBegin
  2
*Model_Space
 70
0
 10
0.0
 20
0.0
 30
0.0
  3
*Model_Space
  1

  0
ENDBLK
  5
19
330
17
100
AcDbEntity
  8
0
100
AcDbBlockEnd
  0
BLOCK
  5
1C
330
1B
100
AcDbEntity
  8
0
100
AcDbBlockBegin
  2
*Paper_Space
 70
0
 10
0.0
 20
0.0
 30
0.0
  3
*Paper_Space
  1

  0
ENDBLK
  5
1D
330
1B
100
AcDbEntity
  8
0
100
AcDbBlockEnd
  0
ENDSEC
  0
SECTION
  2
ENTITIES
  0
LWPOLYLINE
  5
2F
330
17
100
AcDbEntity
  8
0
100
AcDbPolyline
 90
42
 70
0
 10
3.7332421875
 20
-50.94640322875255
 10
3.7394609375000005
 20
-50.879809478752556
 10
3.7493671875000008
 20
-50.81596572875255
 10
3.762960937499999
 20
-50.754871978752554
 10
3.7802421875000007
 20
-50.696528228752555
 10
3.8012109375000005
 20
-50.640934478752555
 10
3.8258671875
 20
-50.588090728752555
 10
3.8542109375000013
 20
-50.53799697875255
 10
3.8862421875000006
 20
-50.49065322875255
 10
3.9219609375000015
 20
-50.44605947875255
 10
3.9613671875000005
 20
-50.404215728752554
 10
4.0035859375000005
 20
-50.36577041625255
 10
4.047742187500001
 20
-50.33137197875255
 10
4.0938359375
 20
-50.301020416252555
 10
4.141867187500001
 20
-50.274715728752554
 10
4.1918359375000005
 20
-50.25245791625255
 10
4.2437421875000005
 20
-50.23424697875255
 10
4.297585937500001
 20
-50.22008291625255
 10
4.353367187500002
 20
-50.20996572875255
 10
4.411085937500001
 20
-50.20389541625255
 10
4.470742187500001
 20
-50.20187197875255
 10
4.536375000000001
 20
-50.204411041252555
 10
4.599523437500002
 20
-50.21202822875255
 10
4.660187500000001
 20
-50.22472354125255
 10
4.7183671875
 20
-50.242496978752555
 10
4.774062500000001
 20
-50.26534854125255
 10
4.827273437500001
 20
-50.293278228752555
 10
4.878
 20
-50.32628604125255
 10
4.926242187500003
 20
-50.36437197875255
 10
4.972000000000001
 20
-50.407536041252555
 10
5.015273437500001
 20
-50.45577822875255
 10
5.041539062500002
 20
-50.49007510375255
 10
5.065648437500002
 20
-50.527653228752555
 10
5.0876015625000015
 20
-50.56851260375255
 10
5.107398437500002
 20
-50.61265322875255
 10
5.125039062500001
 20
-50.660075103752554
 10
5.140523437500001
 20
-50.71077822875255
 10
5.153851562500002
 20
-50.76476260375255
 10
5.165023437500002
 20
-50.82202822875255
 10
5.1740390625
 20
-50.88257510375255
 10
5.1808984375
 20
-50.94640322875255
 10
3.7332421875
 20
-50.94640322875255
  0
LWPOLYLINE
  5
30
330
17
100
AcDbEntity
  8
0
100
AcDbPolyline
 90
92
 70
0
 10
-0.22408203125000004
 20
-51.19015322875255
 10
-0.22408203125000004
 20
-51.351871978752555
 10
-0.2247929687500001
 20
-51.408434478752554
 10
-0.2269257812499994
 20
-51.462184478752555
 10
-0.2304804687500006
 20
-51.51312197875255
 10
-0.23545703125000017
 20
-51.56124697875255
 10
-0.24185546874999986
 20
-51.60655947875255
 10
-0.24967578125000056
 20
-51.649059478752555
 10
-0.2589179687500005
 20
-51.688746978752555
 10
-0.2695820312499988
 20
-51.72562197875255
 10
-0.2816679687499999
 20
-51.759684478752554
 10
-0.2951757812500002
 20
-51.790934478752554
 10
-0.3148164062500003
 20
-51.828707916252554
 10
-0.3365507812499997
 20
-51.864840728752554
 10
-0.36037890625000024
 20
-51.899332916252554
 10
-0.3863007812500001
 20
-51.93218447875255
 10
-0.4143164062500002
 20
-51.96339541625255
 10
-0.44442578125000054
 20
-51.99296572875255
 10
-0.4766289062500002
 20
-52.02089541625255
 10
-0.5109257812499992
 20
-52.047184478752555
 10
-0.5473164062499993
 20
-52.07183291625255
 10
-0.5858007812499997
 20
-52.09484072875255
 10
-0.6258945312499993
 20
-52.115918853752554
 10
-0.6671132812499998
 20
-52.13477822875255
 10
-0.7094570312500004
 20
-52.15141885375255
 10
-0.7529257812500001
 20
-52.16584072875255
 10
-0.7975195312499999
 20
-52.178043853752555
 10
-0.8432382812500006
 20
-52.18802822875255
 10
-0.8900820312500004
 20
-52.195793853752555
 10
-0.9380507812499994
 20
-52.201340728752555
 10
-0.9871445312500002
 20
-52.20466885375255
 10
-1.0373632812500002
 20
-52.20577822875255
 10
-1.08738671875
 20
-52.20460635375255
 10
-1.13495703125
 20
-52.201090728752554
 10
-1.1800742187499997
 20
-52.195231353752554
 10
-1.2227382812500003
 20
-52.18702822875255
 10
-1.2629492187500002
 20
-52.17648135375255
 10
-1.30070703125
 20
-52.16359072875255
 10
-1.33601171875
 20
-52.148356353752554
 10
-1.368863281249999
 20
-52.130778228752554
 10
-1.3992617187499996
 20
-52.11085635375255
 10
-1.42720703125
 20
-52.08859072875255
 10
-1.4524414062499997
 20
-52.06456729125255
 10
-1.4750195312499996
 20
-52.039371978752555
 10
-1.4949414062500002
 20
-52.013004791252555
 10
-1.51220703125
 20
-51.98546572875255
 10
-1.52681640625
 20
-51.95675479125255
 10
-1.5387695312499998
 20
-51.92687197875255
 10
-1.5480664062499998
 20
-51.895817291252555
 10
-1.554707031249999
 20
-51.863590728752555
 10
-1.55869140625
 20
-51.83019229125255
 10
-1.56001953125
 20
-51.79562197875255
 10
-1.5594101562500002
 20
-51.77286416625255
 10
-1.5575820312499995
 20
-51.75052822875255
 10
-1.55453515625
 20
-51.728614166252555
 10
-1.5502695312499997
 20
-51.707121978752554
 10
-1.5447851562499997
 20
-51.68605166625255
 10
-1.5380820312499996
 20
-51.66540322875255
 10
-1.53016015625
 20
-51.64517666625255
 10
-1.5210195312499994
 20
-51.625371978752554
 10
-1.5106601562499997
 20
-51.605989166252556
 10
-1.49908203125
 20
-51.58702822875255
 10
-1.48623828125
 20
-51.568731353752554
 10
-1.47239453125
 20
-51.55134072875255
 10
-1.4575507812500001
 20
-51.53485635375255
 10
-1.44170703125
 20
-51.519278228752555
 10
-1.42486328125
 20
-51.50460635375255
 10
-1.40701953125
 20
-51.49084072875255
 10
-1.3881757812500002
 20
-51.477981353752554
 10
-1.3683320312499996
 20
-51.46602822875255
 10
-1.34748828125
 20
-51.45498135375255
 10
-1.32564453125
 20
-51.44484072875255
 10
-1.3015585937500003
 20
-51.43509854125255
 10
-1.27430078125
 20
-51.425559478752554
 10
-1.2438710937500002
 20
-51.41622354125255
 10
-1.2102695312499998
 20
-51.40709072875255
 10
-1.1734960937499999
 20
-51.39816104125255
 10
-1.1335507812500003
 20
-51.389434478752555
 10
-1.0904335937500003
 20
-51.38091104125255
 10
-1.0441445312499993
 20
-51.372590728752556
 10
-0.9946835937499996
 20
-51.36447354125255
 10
-0.9420507812499999
 20
-51.35655947875255
 10
-0.8488085937500003
 20
-51.342520416252555
 10
-0.7603320312499999
 20
-51.327903228752554
 10
-0.6766210937500006
 20
-51.31270791625255
 10
-0.5976757812500004
 20
-51.296934478752554
 10
-0.5234960937499995
 20
-51.280582916252555
 10
-0.45408203125000046
 20
-51.26365322875255
 10
-0.38943359374999975
 20
-51.24614541625255
 10
-0.32955078124999915
 20
-51.228059478752556
 10
-0.27443359374999954
 20
-51.209395416252555
 10
-0.22408203125000004
 20
-51.19015322875255
  0
LWPOLYLINE
  5
31
330
17
100
AcDbEntity
  8
0
100
AcDbPolyline
 90
5
 70
0
 10
262.461847266722
 20
-62.44356299547452
 10
-22.44184726672197
 20
-62.44356299547452
 10
-22.44184726672197
 20
22.460131537969417
 10
262.461847266722
 20
22.460131537969417
 10
262.461847266722
 20
-62.44356299547452
  0
LWPOLYLINE
  5
32
330
17
100
AcDbEntity
  8
0
100
AcDbPolyline
 90
33
 70
0
 10
252.51
 20
-49.99171572875255
 10
252.46196320100807
 20
-49.503989923712226
 10
252.3196988312782
 20
-49.03500714783982
 10
252.08867403075635
 20
-48.60279014620354
 10
251.77776695296635
 20
-48.22394877578618
 10
251.398925582549
 20
-47.913041697996185
 10
250.9667085809127
 20
-47.682016897474334
 10
250.4977258050403
 20
-47.539752527744476
 10
250.01
 20
-47.49171572875255
 10
249.52227419495966
 20
-47.539752527744476
 10
249.05329141908726
 20
-47.68201689747434
 10
248.62107441745098
 20
-47.91304169799619
 10
248.2422330470336
 20
-48.22394877578619
 10
247.93132596924363
 20
-48.60279014620355
 10
247.70030116872178
 20
-49.035007147839835
 10
247.5580367989919
 20
-49.50398992371224
 10
247.51
 20
-49.99171572875256
 10
247.5580367989919
 20
-50.47944153379288
 10
247.70030116872178
 20
-50.948424309665285
 10
247.93132596924363
 20
-51.38064131130157
 10
248.24223304703364
 20
-51.75948268171893
 10
248.62107441745098
 20
-52.07038975950892
 10
249.05329141908726
 20
-52.30141456003077
 10
249.52227419495966
 20
-52.44367892976063
 10
250.01
 20
-52.49171572875255
 10
250.49772580504032
 20
-52.44367892976063
 10
250.96670858091272
 20
-52.30141456003077
 10
251.398925582549
 20
-52.07038975950891
 10
251.77776695296637
 20
-51.75948268171892
 10
252.08867403075635
 20
-51.38064131130156
 10
252.3196988312782
 20
-50.94842430966528
 10
252.46196320100807
 20
-50.47944153379287
 10
252.51
 20
-49.99171572875255
  0
LWPOLYLINE
  5
33
330
17
100
AcDbEntity
  8
0
100
AcDbPolyline
 90
33
 70
0
 10
-7.49
 20
-49.99171572875255
 10
-7.538036798991925
 20
-49.503989923712226
 10
-7.680301168721785
 20
-49.03500714783982
 10
-7.911325969243641
 20
-48.60279014620354
 10
-8.222233047033637
 20
-48.22394877578618
 10
-8.601074417451
 20
-47.913041697996185
 10
-9.033291419087284
 20
-47.682016897474334
 10
-9.502274194959687
 20
-47.539752527744476
 10
-9.990000000000009
 20
-47.49171572875255
 10
-10.47772580504033
 20
-47.539752527744476
 10
-10.946708580912734
 20
-47.68201689747434
 10
-11.378925582549014
 20
-47.91304169799619
 10
-11.757766952966376
 20
-48.22394877578619
 10
-12.06867403075637
 20
-48.60279014620355
 10
-12.29969883127822
 20
-49.035007147839835
 10
-12.441963201008079
 20
-49.50398992371224
 10
-12.49
 20
-49.99171572875256
 10
-12.441963201008075
 20
-50.47944153379288
 10
-12.299698831278214
 20
-50.948424309665285
 10
-12.068674030756359
 20
-51.38064131130157
 10
-11.757766952966366
 20
-51.75948268171893
 10
-11.378925582549002
 20
-52.07038975950892
 10
-10.94670858091272
 20
-52.30141456003077
 10
-10.477725805040317
 20
-52.44367892976063
 10
-9.989999999999997
 20
-52.49171572875255
 10
-9.502274194959677
 20
-52.44367892976063
 10
-9.033291419087274
 20
-52.30141456003077
 10
-8.601074417450992
 20
-52.07038975950891
 10
-8.22223304703363
 20
-51.75948268171892
 10
-7.911325969243636
 20
-51.38064131130156
 10
-7.680301168721783
 20
-50.94842430966528
 10
-7.538036798991923
 20
-50.47944153379287
 10
-7.49
 20
-49.99171572875255
  0
LWPOLYLINE
  5
34
330
17
100
AcDbEntity
  8
0
100
AcDbPolyline
 90
33
 70
0
 10
252.51
 20
10.008284271247447
 10
252.46196320100807
 20
10.496010076287774
 10
252.3196988312782
 20
10.964992852160178
 10
252.08867403075635
 20
11.397209853796458
 10
251.77776695296635
 20
11.776051224213822
 10
251.398925582549
 20
12.086958302003815
 10
250.9667085809127
 20
12.317983102525668
 10
250.4977258050403
 20
12.460247472255524
 10
250.01
 20
12.508284271247447
 10
249.52227419495966
 20
12.46024747225552
 10
249.05329141908726
 20
12.31798310252566
 10
248.62107441745098
 20
12.086958302003804
 10
248.2422330470336
 20
11.77605122421381
 10
247.93132596924363
 20
11.397209853796445
 10
247.70030116872178
 20
10.964992852160163
 10
247.5580367989919
 20
10.49601007628776
 10
247.51
 20
10.008284271247438
 10
247.5580367989919
 20
9.520558466207119
 10
247.70030116872178
 20
9.051575690334717
 10
247.93132596924363
 20
8.619358688698437
 10
248.24223304703364
 20
8.240517318281075
 10
248.62107441745098
 20
7.9296102404910815
 10
249.05329141908726
 20
7.698585439969229
 10
249.52227419495966
 20
7.55632107023937
 10
250.01
 20
7.508284271247447
 10
250.49772580504032
 20
7.556321070239372
 10
250.96670858091272
 20
7.698585439969232
 10
251.398925582549
 20
7.929610240491085
 10
251.77776695296637
 20
8.24051731828108
 10
252.08867403075635
 20
8.619358688698442
 10
252.3196988312782
 20
9.051575690334724
 10
252.46196320100807
 20
9.520558466207127
 10
252.51
 20
10.008284271247447
  0
LWPOLYLINE
  5
35
330
17
100
AcDbEntity
  8
0
100
AcDbPolyline
 90
33
 70
0
 10
-7.49
 20
10.008284271247447
 10
-7.538036798991925
 20
10.496010076287774
 10
-7.680301168721785
 20
10.964992852160178
 10
-7.911325969243641
 20
11.397209853796458
 10
-8.222233047033637
 20
11.776051224213822
 10
-8.601074417451
 20
12.086958302003815
 10
-9.033291419087284
 20
12.317983102525668
 10
-9.502274194959687
 20
12.460247472255524
 10
-9.990000000000009
 20
12.508284271247447
 10
-10.47772580504033
 20
12.46024747225552
 10
-10.946708580912734
 20
12.31798310252566
 10
-11.378925582549014
 20
12.086958302003804
 10
-11.757766952966376
 20
11.77605122421381
 10
-12.06867403075637
 20
11.397209853796445
 10
-12.29969883127822
 20
10.964992852160163
 10
-12.441963201008079
 20
10.49601007628776
 10
-12.49
 20
10.008284271247438
 10
-12.441963201008075
 20
9.520558466207119
 10
-12.299698831278214
 20
9.051575690334717
 10
-12.068674030756359
 20
8.619358688698437
 10
-11.757766952966366
 20
8.240517318281075
 10
-11.378925582549002
 20
7.9296102404910815
 10
-10.94670858091272
 20
7.698585439969229
 10
-10.477725805040317
 20
7.55632107023937
 10
-9.989999999999997
 20
7.508284271247447
 10
-9.502274194959677
 20
7.556321070239372
 10
-9.033291419087274
 20
7.698585439969232
 10
-8.601074417450992
 20
7.929610240491085
 10
-8.22223304703363
 20
8.24051731828108
 10
-7.911325969243636
 20
8.619358688698442
 10
-7.680301168721783
 20
9.051575690334724
 10
-7.538036798991923
 20
9.520558466207127
 10
-7.49
 20
10.008284271247447
  0
LWPOLYLINE
  5
36
330
17
100
AcDbEntity
  8
0
100
AcDbPolyline
 90
7
 70
0
 10
-4.62359375
 20
-52.49171572875255
 10
-2.38765625
 20
-52.49171572875255
 10
-2.38765625
 20
-52.06905947875255
 10
-4.15015625
 20
-52.06905947875255
 10
-4.15015625
 20
-48.91280947875255
 10
-4.62359375
 20
-48.91280947875255
 10
-4.62359375
 20
-52.49171572875255
  0
LWPOLYLINE
  5
37
330
17
100
AcDbEntity
  8
0
100
AcDbPolyline
 90
185
 70
0
 10
11.423671875000002
 20
-52.06905947875255
 10
9.668203125
 20
-52.06905947875255
 10
9.6832734375
 20
-52.04516885375255
 10
9.699109375
 20
-52.02130947875255
 10
9.7157109375
 20
-51.997481353752555
 10
9.733078125
 20
-51.97368447875255
 10
9.7512109375
 20
-51.94991885375255
 10
9.770109375
 20
-51.92618447875255
 10
9.7897734375
 20
-51.902481353752556
 10
9.810203125000003
 20
-51.87880947875255
 10
9.831398437500003
 20
-51.85516885375255
 10
9.853359375
 20
-51.83155947875255
 10
9.878695312500001
 20
-51.80567666625255
 10
9.909703125000002
 20
-51.775528228752556
 10
9.946382812500001
 20
-51.74111416625255
 10
9.988734375000002
 20
-51.70243447875255
 10
10.0367578125
 20
-51.659489166252555
 10
10.090453125000002
 20
-51.61227822875255
 10
10.149820312500001
 20
-51.56080166625255
 10
10.214859375000003
 20
-51.50505947875255
 10
10.2855703125
 20
-51.44505166625255
 10
10.361953125000001
 20
-51.380778228752554
 10
10.4539453125
 20
-51.302481353752555
 10
10.540546875000002
 20
-51.22759072875255
 10
10.621757812500002
 20
-51.156106353752556
 10
10.697578125000001
 20
-51.08802822875255
 10
10.7680078125
 20
-51.023356353752554
 10
10.833046875
 20
-50.96209072875255
 10
10.8926953125
 20
-50.90423135375255
 10
10.946953125000004
 20
-50.849778228752555
 10
10.995820312500001
 20
-50.79873135375255
 10
11.039296875
 20
-50.75109072875255
 10
11.078914062499999
 20
-50.705379791252554
 10
11.116203125
 20
-50.66012197875255
 10
11.1511640625
 20
-50.61531729125255
 10
11.183796875
 20
-50.570965728752554
 10
11.2141015625
 20
-50.52706729125255
 10
11.242078125
 20
-50.48362197875255
 10
11.2677265625
 20
-50.440629791252555
 10
11.291046875000005
 20
-50.39809072875255
 10
11.3120390625
 20
-50.35600479125255
 10
11.330703125000001
 20
-50.314371978752554
 10
11.3474765625
 20
-50.27273916625255
 10
11.362484375000003
 20
-50.23096572875255
 10
11.3757265625
 20
-50.18905166625255
 10
11.387203125000001
 20
-50.146996978752554
 10
11.396914062499997
 20
-50.104801666252555
 10
11.404859375
 20
-50.06246572875256
 10
11.4110390625
 20
-50.01998916625255
 10
11.415453125
 20
-49.97737197875255
 10
11.4181015625
 20
-49.93461416625255
 10
11.418984374999999
 20
-49.89171572875255
 10
11.415976562500001
 20
-49.80855947875255
 10
11.406953125
 20
-49.728153228752554
 10
11.391914062500001
 20
-49.65049697875255
 10
11.370859374999997
 20
-49.57559072875255
 10
11.343789062499999
 20
-49.50343447875255
 10
11.310703124999998
 20
-49.43402822875255
 10
11.271601562499997
 20
-49.36737197875255
 10
11.226484375000004
 20
-49.30346572875255
 10
11.1753515625
 20
-49.24230947875255
 10
11.118203124999999
 20
-49.183903228752555
 10
11.0560546875
 20
-49.12957510375255
 10
10.989609375
 20
-49.08096572875255
 10
10.9188671875
 20
-49.038075103752554
 10
10.843828125
 20
-49.00090322875255
 10
10.764492187500002
 20
-48.96945010375255
 10
10.680859375000002
 20
-48.94371572875255
 10
10.5929296875
 20
-48.92370010375255
 10
10.500703125000003
 20
-48.90940322875255
 10
10.404179687500003
 20
-48.90082510375255
 10
10.303359375000001
 20
-48.89796572875255
 10
10.203250000000002
 20
-48.90061416625255
 10
10.107296875000001
 20
-48.90855947875255
 10
10.015500000000001
 20
-48.921801666252556
 10
9.927859375
 20
-48.94034072875255
 10
9.844375000000001
 20
-48.964176666252555
 10
9.765046875000001
 20
-48.99330947875255
 10
9.689875000000002
 20
-49.02773916625255
 10
9.618859375000005
 20
-49.06746572875255
 10
9.552000000000001
 20
-49.11248916625255
 10
9.489296875
 20
-49.16280947875255
 10
9.431390625
 20
-49.218184478752555
 10
9.378609375000002
 20
-49.27837197875255
 10
9.330953125
 20
-49.34337197875255
 10
9.288421875
 20
-49.413184478752555
 10
9.251015625
 20
-49.48780947875255
 10
9.218734375000002
 20
-49.56724697875255
 10
9.191578125000001
 20
-49.651496978752554
 10
9.169546875000002
 20
-49.74055947875255
 10
9.152640625000002
 20
-49.834434478752556
 10
9.140859375
 20
-49.93312197875255
 10
9.592421875000001
 20
-49.97921572875255
 10
9.5947734375
 20
-49.91334072875255
 10
9.600890625000002
 20
-49.850403228752555
 10
9.6107734375
 20
-49.79040322875255
 10
9.624421875000003
 20
-49.73334072875255
 10
9.641835937500002
 20
-49.67921572875255
 10
9.663015625000002
 20
-49.628028228752555
 10
9.687960937500002
 20
-49.57977822875255
 10
9.716671875000003
 20
-49.53446572875255
 10
9.749148437500002
 20
-49.49209072875255
 10
9.785390625
 20
-49.45265322875255
 10
9.824781250000001
 20
-49.41643447875255
 10
9.866703125000003
 20
-49.384028228752555
 10
9.91115625
 20
-49.35543447875255
 10
9.958140625
 20
-49.33065322875255
 10
10.00765625
 20
-49.30968447875255
 10
10.059703125000002
 20
-49.29252822875255
 10
10.114281250000001
 20
-49.279184478752555
 10
10.171390625000003
 20
-49.26965322875255
 10
10.23103125
 20
-49.26393447875255
 10
10.293203125
 20
-49.262028228752555
 10
10.352070312499999
 20
-49.26382510375255
 10
10.408671875000001
 20
-49.269215728752556
 10
10.4630078125
 20
-49.27820010375255
 10
10.515078125
 20
-49.29077822875255
 10
10.5648828125
 20
-49.306950103752555
 10
10.612421875
 20
-49.32671572875255
 10
10.6576953125
 20
-49.35007510375255
 10
10.700703125000002
 20
-49.37702822875255
 10
10.741445312500002
 20
-49.40757510375255
 10
10.779921875000001
 20
-49.441715728752555
 10
10.815546875
 20
-49.47831729125255
 10
10.847421875000002
 20
-49.516559478752555
 10
10.875546875000001
 20
-49.55644229125255
 10
10.899921874999999
 20
-49.597965728752555
 10
10.920546875000001
 20
-49.64112979125255
 10
10.937421875000002
 20
-49.68593447875255
 10
10.950546874999999
 20
-49.732379791252555
 10
10.959921875000003
 20
-49.78046572875255
 10
10.965546875000003
 20
-49.83019229125255
 10
10.967421875000001
 20
-49.88155947875255
 10
10.965367187500002
 20
-49.93170791625255
 10
10.959203125000004
 20
-49.98246572875255
 10
10.948929687500002
 20
-50.03383291625255
 10
10.934546875
 20
-50.08580947875255
 10
10.9160546875
 20
-50.13839541625255
 10
10.893453125000002
 20
-50.19159072875255
 10
10.8667421875
 20
-50.24539541625255
 10
10.835921875000004
 20
-50.29980947875255
 10
10.800992187500002
 20
-50.354832916252555
 10
10.761953125
 20
-50.410465728752555
 10
10.7172265625
 20
-50.468387603752554
 10
10.664921875000001
 20
-50.53027822875255
 10
10.605039062500001
 20
-50.59613760375255
 10
10.537578125000001
 20
-50.66596572875255
 10
10.462539062500001
 20
-50.73976260375255
 10
10.379921875
 20
-50.81752822875255
 10
10.289726562500002
 20
-50.899262603752554
 10
10.191953125000003
 20
-50.984965728752556
 10
10.086601562500002
 20
-51.07463760375255
 10
9.973671875
 20
-51.168278228752555
 10
9.900132812500003
 20
-51.229106353752556
 10
9.830140625
 20
-51.288465728752556
 10
9.7636953125
 20
-51.346356353752554
 10
9.700796875
 20
-51.40277822875255
 10
9.641445312500002
 20
-51.45773135375255
 10
9.585640625000002
 20
-51.51121572875255
 10
9.5333828125
 20
-51.563231353752556
 10
9.484671875000002
 20
-51.61377822875255
 10
9.4395078125
 20
-51.66285635375255
 10
9.397890625
 20
-51.71046572875255
 10
9.35928125
 20
-51.75741104125255
 10
9.322828125
 20
-51.80449697875255
 10
9.28853125
 20
-51.851723541252554
 10
9.256390625
 20
-51.899090728752554
 10
9.226406249999998
 20
-51.946598541252555
 10
9.198578125
 20
-51.99424697875255
 10
9.172906250000002
 20
-52.04203604125255
 10
9.149390625000002
 20
-52.08996572875255
 10
9.128031250000001
 20
-52.138036041252555
 10
9.108828125
 20
-52.18624697875255
 10
9.098335937500002
 20
-52.215739166252554
 10
9.089046875000001
 20
-52.24546572875255
 10
9.0809609375
 20
-52.27542666625255
 10
9.074078125000002
 20
-52.305621978752555
 10
9.068398437499999
 20
-52.33605166625255
 10
9.063921875000002
 20
-52.36671572875255
 10
9.0606484375
 20
-52.39761416625255
 10
9.058578125000002
 20
-52.42874697875255
 10
9.0577109375
 20
-52.46011416625255
 10
9.058046875
 20
-52.49171572875255
 10
11.423671875000002
 20
-52.49171572875255
 10
11.423671875000002
 20
-52.06905947875255
  0
LWPOLYLINE
  5
38
330
17
100
AcDbEntity
  8
0
100
AcDbPolyline
 90
77
 70
0
 10
6.177285156250001
 20
-52.49171572875255
 10
6.616347656250001
 20
-52.49171572875255
 10
6.616347656250001
 20
-51.13390322875255
 10
6.617082031250002
 20
-51.078715728752556
 10
6.619285156250003
 20
-51.024403228752554
 10
6.622957031250001
 20
-50.97096572875255
 10
6.6280976562500005
 20
-50.91840322875255
 10
6.6347070312500005
 20
-50.86671572875255
 10
6.642785156250003
 20
-50.81590322875255
 10
6.652332031249999
 20
-50.765965728752555
 10
6.663347656250004
 20
-50.71690322875255
 10
6.6758320312500015
 20
-50.66871572875255
 10
6.68978515625
 20
-50.621403228752555
 10
6.7001367187500005
 20
-50.59129385375255
 10
6.71181640625
 20
-50.562528228752555
 10
6.724824218749999
 20
-50.53510635375255
 10
6.739160156250001
 20
-50.509028228752555
 10
6.7548242187500005
 20
-50.484293853752554
 10
6.77181640625
 20
-50.46090322875255
 10
6.79013671875
 20
-50.438856353752556
 10
6.809785156250003
 20
-50.41815322875255
 10
6.830761718750001
 20
-50.39879385375255
 10
6.853066406250001
 20
-50.380778228752554
 10
6.876332031250001
 20
-50.36430166625255
 10
6.900191406250002
 20
-50.34955947875255
 10
6.924644531250001
 20
-50.336551666252554
 10
6.949691406250002
 20
-50.32527822875255
 10
6.975332031250002
 20
-50.315739166252555
 10
7.001566406250001
 20
-50.30793447875255
 10
7.028394531250001
 20
-50.30186416625255
 10
7.055816406250004
 20
-50.297528228752554
 10
7.083832031250001
 20
-50.29492666625255
 10
7.112441406250001
 20
-50.29405947875255
 10
7.14462890625
 20
-50.295012603752554
 10
7.176816406250003
 20
-50.29787197875255
 10
7.20900390625
 20
-50.30263760375255
 10
7.241191406250001
 20
-50.30930947875255
 10
7.2733789062500005
 20
-50.31788760375255
 10
7.305566406250001
 20
-50.32837197875255
 10
7.337753906250001
 20
-50.34076260375255
 10
7.3699414062500015
 20
-50.35505947875255
 10
7.402128906250001
 20
-50.371262603752555
 10
7.43431640625
 20
-50.38937197875255
 10
7.5858789062500005
 20
-49.98155947875255
 10
7.540019531250001
 20
-49.954692291252556
 10
7.494316406250002
 20
-49.930653228752554
 10
7.448769531249999
 20
-49.90944229125255
 10
7.4033789062499995
 20
-49.89105947875255
 10
7.35814453125
 20
-49.87550479125255
 10
7.31306640625
 20
-49.86277822875255
 10
7.26814453125
 20
-49.852879791252555
 10
7.223378906250003
 20
-49.84580947875255
 10
7.178769531250001
 20
-49.84156729125255
 10
7.134316406250001
 20
-49.840153228752555
 10
7.103792968750001
 20
-49.84103604125255
 10
7.073785156250002
 20
-49.84368447875255
 10
7.0442929687500015
 20
-49.848098541252554
 10
7.015316406249999
 20
-49.854278228752555
 10
6.986855468750001
 20
-49.862223541252554
 10
6.958910156250001
 20
-49.87193447875255
 10
6.931480468750001
 20
-49.88341104125255
 10
6.904566406250003
 20
-49.896653228752555
 10
6.878167968750001
 20
-49.91166104125255
 10
6.85228515625
 20
-49.92843447875255
 10
6.82642578125
 20
-49.947817291252555
 10
6.800097656250001
 20
-49.97096572875255
 10
6.773300781250001
 20
-49.99787979125255
 10
6.7460351562500005
 20
-50.028559478752555
 10
6.718300781250001
 20
-50.06300479125255
 10
6.69009765625
 20
-50.10121572875255
 10
6.661425781249999
 20
-50.143192291252554
 10
6.632285156250003
 20
-50.18893447875255
 10
6.602675781250001
 20
-50.238442291252554
 10
6.57259765625
 20
-50.29171572875255
 10
6.57259765625
 20
-49.898746978752555
 10
6.177285156250001
 20
-49.898746978752555
 10
6.177285156250001
 20
-52.49171572875255
  0
LWPOLYLINE
  5
39
330
17
100
AcDbEntity
  8
0
100
AcDbPolyline
 90
133
 70
0
 10
5.1762109375000005
 20
-51.656559478752555
 10
5.1555
 20
-51.71067666625255
 10
5.133367187500001
 20
-51.761778228752554
 10
5.1098125
 20
-51.80986416625255
 10
5.084835937500001
 20
-51.854934478752554
 10
5.058437500000002
 20
-51.89698916625255
 10
5.030617187500001
 20
-51.936028228752555
 10
5.0013749999999995
 20
-51.972051666252554
 10
4.970710937500002
 20
-52.00505947875255
 10
4.938625000000002
 20
-52.03505166625255
 10
4.9051171875
 20
-52.06202822875255
 10
4.8701953125
 20
-52.086075103752556
 10
4.833867187500001
 20
-52.107590728752555
 10
4.7961328125
 20
-52.12657510375255
 10
4.756992187500002
 20
-52.143028228752556
 10
4.716445312500001
 20
-52.15695010375255
 10
4.6744921875
 20
-52.168340728752554
 10
4.631132812500001
 20
-52.177200103752554
 10
4.586367187500002
 20
-52.18352822875255
 10
4.540195312500002
 20
-52.18732510375255
 10
4.4926171875000005
 20
-52.18859072875255
 10
4.4286953125
 20
-52.18632510375255
 10
4.366929687500001
 20
-52.17952822875255
 10
4.3073203125
 20
-52.168200103752554
 10
4.2498671875
 20
-52.152340728752556
 10
4.1945703125
 20
-52.13195010375255
 10
4.141429687499999
 20
-52.107028228752554
 10
4.0904453125
 20
-52.07757510375255
 10
4.0416171875
 20
-52.043590728752555
 10
3.9949453125000005
 20
-52.00507510375255
 10
3.9504296875
 20
-51.96202822875255
 10
3.908921874999999
 20
-51.91455947875255
 10
3.8712734374999993
 20
-51.86309072875255
 10
3.8374843750000007
 20
-51.80762197875255
 10
3.8075546874999997
 20
-51.74815322875255
 10
3.781484375
 20
-51.68468447875255
 10
3.759273437500001
 20
-51.617215728752555
 10
3.7409218750000015
 20
-51.545746978752554
 10
3.726429687500003
 20
-51.470278228752555
 10
3.7157968750000006
 20
-51.39080947875255
 10
3.709023437500001
 20
-51.30734072875255
 10
5.642617187500001
 20
-51.30734072875255
 10
5.643062500000001
 20
-51.29210635375255
 10
5.6434609375
 20
-51.277653228752555
 10
5.643812500000001
 20
-51.263981353752555
 10
5.644117187500001
 20
-51.25109072875255
 10
5.644375
 20
-51.23898135375255
 10
5.644585937500002
 20
-51.22765322875255
 10
5.64475
 20
-51.217106353752555
 10
5.644867187500003
 20
-51.207340728752555
 10
5.644937500000003
 20
-51.19835635375255
 10
5.6449609375000005
 20
-51.19015322875255
 10
5.6416640625
 20
-51.06459854125255
 10
5.6317734375000015
 20
-50.94480947875255
 10
5.6152890625000005
 20
-50.83078604125255
 10
5.592210937500001
 20
-50.72252822875255
 10
5.562539062499999
 20
-50.620036041252554
 10
5.526273437500002
 20
-50.52330947875255
 10
5.4834140625
 20
-50.43234854125255
 10
5.433960937500002
 20
-50.34715322875255
 10
5.377914062500002
 20
-50.26772354125255
 10
5.3152734375
 20
-50.19405947875255
 10
5.2474296875
 20
-50.12681729125255
 10
5.1757734375
 20
-50.06665322875255
 10
5.1003046874999995
 20
-50.01356729125255
 10
5.0210234375
 20
-49.96755947875255
 10
4.9379296875000005
 20
-49.928629791252554
 10
4.8510234375
 20
-49.89677822875255
 10
4.7603046875
 20
-49.87200479125255
 10
4.665773437500002
 20
-49.854309478752555
 10
4.567429687500001
 20
-49.84369229125255
 10
4.4652734375000005
 20
-49.840153228752555
 10
4.359921875000001
 20
-49.84377041625255
 10
4.258554687500002
 20
-49.854621978752554
 10
4.161171874999999
 20
-49.87270791625255
 10
4.0677734375
 20
-49.89802822875255
 10
3.978359375
 20
-49.930582916252554
 10
3.8929296875000006
 20
-49.97037197875255
 10
3.811484375000001
 20
-50.017395416252555
 10
3.734023437500001
 20
-50.07165322875255
 10
3.6605468749999996
 20
-50.13314541625255
 10
3.5910546875
 20
-50.20187197875255
 10
3.527078124999999
 20
-50.27699697875255
 10
3.469835937500001
 20
-50.35799697875255
 10
3.419328125
 20
-50.44487197875255
 10
3.375554687500001
 20
-50.537621978752554
 10
3.338515625000001
 20
-50.63624697875255
 10
3.3082109375
 20
-50.740746978752554
 10
3.2846406250000015
 20
-50.85112197875255
 10
3.2678046875000017
 20
-50.96737197875255
 10
3.257703125000001
 20
-51.08949697875255
 10
3.2543359375000005
 20
-51.21749697875255
 10
3.2576718749999998
 20
-51.341090728752555
 10
3.267679687500001
 20
-51.45905947875255
 10
3.2843593749999993
 20
-51.57140322875255
 10
3.3077109374999996
 20
-51.67812197875255
 10
3.337734375000002
 20
-51.779215728752554
 10
3.374429687500001
 20
-51.874684478752556
 10
3.4177968750000005
 20
-51.964528228752556
 10
3.467835937500002
 20
-52.048746978752554
 10
3.524546875000002
 20
-52.12734072875255
 10
3.587929687500001
 20
-52.20030947875255
 10
3.657000000000002
 20
-52.266809478752556
 10
3.7307734375
 20
-52.326309478752556
 10
3.8092500000000005
 20
-52.37880947875255
 10
3.8924296875
 20
-52.424309478752555
 10
3.9803125
 20
-52.462809478752554
 10
4.072898437499999
 20
-52.494309478752555
 10
4.170187499999999
 20
-52.51880947875255
 10
4.272179687500003
 20
-52.53630947875255
 10
4.378875000000001
 20
-52.54680947875255
 10
4.490273437500001
 20
-52.55030947875255
 10
4.578976562500001
 20
-52.54811416625255
 10
4.664460937500001
 20
-52.541528228752554
 10
4.746726562500001
 20
-52.53055166625255
 10
4.8257734375000005
 20
-52.51518447875255
 10
4.901601562500002
 20
-52.495426666252555
 10
4.974210937499999
 20
-52.47127822875255
 10
5.043601562500003
 20
-52.44273916625255
 10
5.109773437500001
 20
-52.40980947875255
 10
5.172726562500001
 20
-52.37248916625255
 10
5.232460937500001
 20
-52.33077822875255
 10
5.288750000000002
 20
-52.284942291252555
 10
5.341367187500001
 20
-52.235559478752556
 10
5.3903125
 20
-52.18262979125255
 10
5.435585937500001
 20
-52.12615322875255
 10
5.477187500000001
 20
-52.06612979125255
 10
5.5151171875
 20
-52.00255947875255
 10
5.549375000000001
 20
-51.93544229125255
 10
5.579960937500001
 20
-51.864778228752556
 10
5.6068750000000005
 20
-51.79056729125255
 10
5.6301171875
 20
-51.712809478752554
 10
5.1762109375000005
 20
-51.656559478752555
  0
LWPOLYLINE
  5
3A
330
17
100
AcDbEntity
  8
0
100
AcDbPolyline
 90
244
 70
0
 10
-0.18736328124999968
 20
-52.172184478752555
 10
-0.1829726562499996
 20
-52.20828604125255
 10
-0.1776132812499993
 20
-52.243465728752554
 10
-0.17128515624999974
 20
-52.277723541252556
 10
-0.1639882812499991
 20
-52.311059478752554
 10
-0.15572265625000004
 20
-52.34347354125255
 10
-0.14648828124999902
 20
-52.37496572875255
 10
-0.1362851562499996
 20
-52.40553604125255
 10
-0.1251132812499991
 20
-52.435184478752554
 10
-0.1129726562499993
 20
-52.46391104125255
 10
-0.09986328125000021
 20
-52.49171572875255
 10
0.3595117187500003
 20
-52.49171572875255
 10
0.34334765625000063
 20
-52.46174697875255
 10
0.32829296875000047
 20
-52.431528228752555
 10
0.31434765624999983
 20
-52.40105947875255
 10
0.3015117187500005
 20
-52.37034072875255
 10
0.2897851562499998
 20
-52.33937197875255
 10
0.2791679687499995
 20
-52.30815322875255
 10
0.2696601562499996
 20
-52.27668447875255
 10
0.26126171875000104
 20
-52.244965728752554
 10
0.2539726562500011
 20
-52.21299697875255
 10
0.2477929687499998
 20
-52.18077822875255
 10
0.24244921875000003
 20
-52.14377041625255
 10
0.2376679687500003
 20
-52.097746978752554
 10
0.23344921875000058
 20
-52.04270791625255
 10
0.22979296875
 20
-51.978653228752556
 10
0.22669921875000032
 20
-51.905582916252555
 10
0.22416796875000067
 20
-51.82349697875255
 10
0.22219921875000104
 20
-51.73239541625255
 10
0.22079296875000143
 20
-51.632278228752554
 10
0.21994921875000095
 20
-51.523145416252554
 10
0.2196679687500005
 20
-51.40499697875255
 10
0.2196679687500005
 20
-50.81905947875255
 10
0.21944921875000034
 20
-50.76227822875255
 10
0.21879296875000076
 20
-50.70912197875255
 10
0.21769921875000087
 20
-50.659590728752555
 10
0.21616796875000066
 20
-50.61368447875255
 10
0.21419921875000014
 20
-50.57140322875255
 10
0.2117929687500011
 20
-50.532746978752556
 10
0.20894921875000083
 20
-50.49771572875255
 10
0.20566796875000115
 20
-50.46630947875255
 10
0.20194921875000027
 20
-50.43852822875255
 10
0.19779296874999996
 20
-50.414371978752555
 10
0.1893945312500005
 20
-50.378754791252554
 10
0.17982421875000032
 20
-50.344403228752554
 10
0.16908203124999943
 20
-50.31131729125255
 10
0.1571679687500005
 20
-50.279496978752555
 10
0.14408203124999996
 20
-50.248942291252554
 10
0.1298242187499996
 20
-50.219653228752556
 10
0.11439453124999943
 20
-50.19162979125255
 10
0.09779296875000121
 20
-50.16487197875255
 10
0.08001953124999961
 20
-50.13937979125255
 10
0.061074218749999964
 20
-50.115153228752554
 10
0.040441406250000256
 20
-50.09180947875255
 10
0.01760546875000024
 20
-50.06927822875255
 10
-0.007433593750000078
 20
-50.047559478752554
 10
-0.034675781249999815
 20
-50.02665322875255
 10
-0.06412109374999986
 20
-50.00655947875255
 10
-0.0957695312500002
 20
-49.98727822875255
 10
-0.12962109374999908
 20
-49.968809478752554
 10
-0.16567578125000004
 20
-49.95115322875255
 10
-0.20393359375000042
 20
-49.93430947875255
 10
-0.2443945312500002
 20
-49.918278228752555
 10
-0.2870507812500005
 20
-49.90343447875255
 10
-0.3322070312500003
 20
-49.89015322875255
 10
-0.3798632812499996
 20
-49.87843447875255
 10
-0.43001953125000014
 20
-49.86827822875255
 10
-0.4826757812500002
 20
-49.859684478752555
 10
-0.5378320312499998
 20
-49.85265322875255
 10
-0.5954882812499998
 20
-49.84718447875255
 10
-0.6556445312499992
 20
-49.84327822875255
 10
-0.71830078125
 20
-49.84093447875255
 10
-0.7834570312500002
 20
-49.840153228752555
 10
-0.8495273437500002
 20
-49.84107510375255
 10
-0.91398828125
 20
-49.843840728752554
 10
-0.9768398437499997
 20
-49.848450103752555
 10
-1.03808203125
 20
-49.854903228752555
 10
-1.09771484375
 20
-49.863200103752554
 10
-1.15573828125
 20
-49.87334072875255
 10
-1.2121523437499997
 20
-49.88532510375255
 10
-1.2669570312499991
 20
-49.89915322875255
 10
-1.3201523437500002
 20
-49.91482510375255
 10
-1.3717382812499999
 20
-49.93234072875255
 10
-1.4213242187500001
 20
-49.951403228752554
 10
-1.4685195312499997
 20
-49.97202822875255
 10
-1.5133242187500002
 20
-49.99421572875255
 10
-1.55573828125
 20
-50.01796572875255
 10
-1.59576171875
 20
-50.043278228752555
 10
-1.63339453125
 20
-50.07015322875255
 10
-1.6686367187499997
 20
-50.098590728752555
 10
-1.7014882812499992
 20
-50.12859072875255
 10
-1.73194921875
 20
-50.160153228752556
 10
-1.7600195312500002
 20
-50.193278228752554
 10
-1.78613671875
 20
-50.22824697875255
 10
-1.81073828125
 20
-50.265340728752555
 10
-1.8338242187500002
 20
-50.30455947875255
 10
-1.85539453125
 20
-50.345903228752555
 10
-1.87544921875
 20
-50.38937197875255
 10
-1.89398828125
 20
-50.43496572875255
 10
-1.9110117187500002
 20
-50.48268447875255
 10
-1.9265195312499994
 20
-50.532528228752554
 10
-1.9405117187500003
 20
-50.584496978752554
 10
-1.9529882812500001
 20
-50.638590728752554
 10
-1.5233007812500001
 20
-50.697184478752554
 10
-1.50831640625
 20
-50.64370010375255
 10
-1.4918007812499998
 20
-50.59355947875255
 10
-1.4737539062499998
 20
-50.546762603752555
 10
-1.45417578125
 20
-50.503309478752556
 10
-1.43306640625
 20
-50.463200103752555
 10
-1.4104257812499998
 20
-50.426434478752554
 10
-1.3862539062500003
 20
-50.39301260375255
 10
-1.3605507812499993
 20
-50.36293447875255
 10
-1.3333164062499998
 20
-50.33620010375255
 10
-1.3045507812500001
 20
-50.312809478752555
 10
-1.2733945312500001
 20
-50.29217666625255
 10
-1.2389882812499997
 20
-50.27371572875255
 10
-1.2013320312499998
 20
-50.257426666252556
 10
-1.1604257812499998
 20
-50.24330947875255
 10
-1.11626953125
 20
-50.231364166252554
 10
-1.06886328125
 20
-50.22159072875255
 10
-1.0182070312499998
 20
-50.21398916625255
 10
-0.9643007812499995
 20
-50.208559478752555
 10
-0.9071445312500002
 20
-50.20530166625255
 10
-0.8467382812500004
 20
-50.20421572875255
 10
-0.7819726562500007
 20
-50.205700103752555
 10
-0.7204882812500006
 20
-50.21015322875255
 10
-0.6622851562500003
 20
-50.21757510375255
 10
-0.6073632812500005
 20
-50.22796572875255
 10
-0.5557226562500004
 20
-50.24132510375255
 10
-0.50736328125
 20
-50.25765322875255
 10
-0.462285156250001
 20
-50.276950103752554
 10
-0.4204882812500008
 20
-50.29921572875255
 10
-0.3819726562500003
 20
-50.324450103752554
 10
-0.3467382812500004
 20
-50.35265322875255
 10
-0.3229882812499998
 20
-50.37627041625255
 10
-0.30173828125000046
 20
-50.40305947875255
 10
-0.28298828125000064
 20
-50.43302041625255
 10
-0.2667382812500003
 20
-50.46615322875255
 10
-0.2529882812500004
 20
-50.50245791625255
 10
-0.24173828124999996
 20
-50.54193447875255
 10
-0.23298828125000082
 20
-50.58458291625255
 10
-0.22673828125000028
 20
-50.630403228752556
 10
-0.22298828125000103
 20
-50.679395416252554
 10
-0.2217382812500004
 20
-50.73155947875255
 10
-0.22176171875000072
 20
-50.73706729125255
 10
-0.22183203125000084
 20
-50.74390322875255
 10
-0.22194921874999984
 20
-50.75206729125255
 10
-0.2221132812500004
 20
-50.76155947875255
 10
-0.22232421874999986
 20
-50.772379791252554
 10
-0.22258203125000087
 20
-50.78452822875255
 10
-0.22288671874999988
 20
-50.79800479125255
 10
-0.22323828124999956
 20
-50.812809478752555
 10
-0.2236367187499999
 20
-50.82894229125255
 10
-0.22408203125000004
 20
-50.84640322875255
 10
-0.27719921874999986
 20
-50.863661041252556
 10
-0.3359257812499994
 20
-50.880434478752555
 10
-0.4002617187500004
 20
-50.896723541252555
 10
-0.4702070312500002
 20
-50.91252822875255
 10
-0.5457617187500006
 20
-50.92784854125255
 10
-0.6269257812500006
 20
-50.942684478752554
 10
-0.7136992187500004
 20
-50.95703604125255
 10
-0.806082031249999
 20
-50.970903228752555
 10
-0.9040742187499999
 20
-50.98428604125255
 10
-1.0076757812500001
 20
-50.99718447875255
 10
-1.0586914062500004
 20
-51.003614166252554
 10
-1.10705078125
 20
-51.01009072875255
 10
-1.15275390625
 20
-51.01661416625255
 10
-1.19580078125
 20
-51.023184478752555
 10
-1.2361914062500001
 20
-51.02980166625255
 10
-1.27392578125
 20
-51.03646572875255
 10
-1.30900390625
 20
-51.04317666625255
 10
-1.3414257812499994
 20
-51.049934478752554
 10
-1.37119140625
 20
-51.056739166252555
 10
-1.3983007812500001
 20
-51.06359072875255
 10
-1.43310546875
 20
-51.07374697875255
 10
-1.46720703125
 20
-51.08484072875255
 10
-1.50060546875
 20
-51.09687197875255
 10
-1.5333007812500004
 20
-51.10984072875255
 10
-1.5652929687500001
 20
-51.12374697875255
 10
-1.5965820312500005
 20
-51.138590728752554
 10
-1.6271679687500002
 20
-51.15437197875255
 10
-1.6570507812499997
 20
-51.17109072875255
 10
-1.6862304687500003
 20
-51.188746978752555
 10
-1.7147070312500001
 20
-51.207340728752555
 10
-1.7422929687500002
 20
-51.22702822875255
 10
-1.7688007812499995
 20
-51.247965728752554
 10
-1.7942304687500004
 20
-51.270153228752555
 10
-1.81858203125
 20
-51.293590728752555
 10
-1.84185546875
 20
-51.318278228752554
 10
-1.86405078125
 20
-51.34421572875255
 10
-1.8851679687499998
 20
-51.371403228752555
 10
-1.9052070312499998
 20
-51.39984072875255
 10
-1.9241679687499995
 20
-51.42952822875255
 10
-1.9420507812499999
 20
-51.46046572875255
 10
-1.9585273437500001
 20
-51.49220791625255
 10
-1.9732695312499997
 20
-51.52462197875255
 10
-1.9862773437500003
 20
-51.557707916252554
 10
-1.9975507812500002
 20
-51.59146572875255
 10
-2.0070898437499998
 20
-51.625895416252554
 10
-2.01489453125
 20
-51.66099697875255
 10
-2.02096484375
 20
-51.696770416252555
 10
-2.0253007812499995
 20
-51.733215728752555
 10
-2.0279023437499997
 20
-51.770332916252556
 10
-2.02876953125
 20
-51.80812197875255
 10
-2.0264726562499997
 20
-51.871957916252555
 10
-2.0195820312499997
 20
-51.93346572875255
 10
-2.0080976562500004
 20
-51.99264541625255
 10
-1.9920195312500004
 20
-52.04949697875255
 10
-1.9713476562499999
 20
-52.10402041625255
 10
-1.94608203125
 20
-52.15621572875255
 10
-1.91622265625
 20
-52.206082916252555
 10
-1.8817695312499998
 20
-52.253621978752555
 10
-1.8427226562499999
 20
-52.29883291625255
 10
-1.7990820312500002
 20
-52.341715728752554
 10
-1.75116796875
 20
-52.38134854125255
 10
-1.6993007812500003
 20
-52.416809478752555
 10
-1.6434804687500004
 20
-52.448098541252556
 10
-1.5837070312500003
 20
-52.47521572875255
 10
-1.51998046875
 20
-52.49816104125255
 10
-1.45230078125
 20
-52.51693447875255
 10
-1.3806679687499996
 20
-52.53153604125255
 10
-1.3050820312499996
 20
-52.54196572875255
 10
-1.2255429687499992
 20
-52.548223541252554
 10
-1.14205078125
 20
-52.55030947875255
 10
-1.0906601562499998
 20
-52.54945791625255
 10
-1.0399257812499996
 20
-52.546903228752555
 10
-0.9898476562500003
 20
-52.542645416252554
 10
-0.9404257812500001
 20
-52.536684478752555
 10
-0.8916601562500004
 20
-52.52902041625255
 10
-0.8435507812500003
 20
-52.51965322875255
 10
-0.7960976562499997
 20
-52.50858291625255
 10
-0.7493007812499988
 20
-52.495809478752555
 10
-0.7031601562500001
 20
-52.481332916252555
 10
-0.65767578125
 20
-52.465153228752555
 10
-0.6123320312500002
 20
-52.44675479125255
 10
-0.5666132812499995
 20
-52.42593447875255
 10
-0.5205195312499997
 20
-52.40269229125255
 10
-0.4740507812499999
 20
-52.37702822875255
 10
-0.42720703125000004
 20
-52.348942291252555
 10
-0.37998828125000017
 20
-52.31843447875255
 10
-0.3323945312500003
 20
-52.28550479125255
 10
-0.2844257812499986
 20
-52.25015322875255
 10
-0.2360820312499996
 20
-52.21237979125255
 10
-0.18736328124999968
 20
-52.172184478752555
  0
LWPOLYLINE
  5
3B
330
17
100
AcDbEntity
  8
0
100
AcDbPolyline
 90
118
 70
0
 10
0.8816796875000001
 20
-53.490153228752554
 10
0.9126328125000001
 20
-53.50039541625255
 10
0.9429921874999998
 20
-53.50955947875255
 10
0.9727578125000003
 20
-53.517645416252556
 10
1.0019296875000006
 20
-53.524653228752555
 10
1.0305078124999998
 20
-53.530582916252555
 10
1.0584921875000015
 20
-53.53543447875255
 10
1.0858828125000004
 20
-53.53920791625255
 10
1.112679687500001
 20
-53.54190322875255
 10
1.1388828125000012
 20
-53.543520416252555
 10
1.1644921875000005
 20
-53.54405947875255
 10
1.205937500000001
 20
-53.54304385375255
 10
1.2462109375000008
 20
-53.539996978752555
 10
1.2853124999999999
 20
-53.53491885375255
 10
1.3232421875000009
 20
-53.52780947875255
 10
1.3600000000000003
 20
-53.51866885375255
 10
1.3955859375
 20
-53.507496978752556
 10
1.4299999999999997
 20
-53.49429385375255
 10
1.4632421875000006
 20
-53.47905947875255
 10
1.4953125000000007
 20
-53.46179385375255
 10
1.5262109375000001
 20
-53.44249697875255
 10
1.5561796875000002
 20
-53.421168853752555
 10
1.5854609375000006
 20
-53.39749697875255
 10
1.6140546875000004
 20
-53.37148135375255
 10
1.6419609375000004
 20
-53.34312197875255
 10
1.6691796874999998
 20
-53.312418853752554
 10
1.6957109375000003
 20
-53.27937197875255
 10
1.7215546875000003
 20
-53.24398135375255
 10
1.7467109375000014
 20
-53.20624697875255
 10
1.7711796875
 20
-53.16616885375255
 10
1.7949609375
 20
-53.12374697875255
 10
1.813171875
 20
-53.088895416252555
 10
1.8328046874999995
 20
-53.048715728752555
 10
1.8538593750000008
 20
-53.003207916252556
 10
1.8763359375000004
 20
-52.95237197875255
 10
1.9002343750000001
 20
-52.89620791625255
 10
1.925554687500001
 20
-52.834715728752556
 10
1.952296875
 20
-52.76789541625255
 10
1.980460937500002
 20
-52.69574697875255
 10
2.0100468750000005
 20
-52.61827041625255
 10
2.0410546875
 20
-52.535465728752555
 10
3.0277734375000005
 20
-49.898746978752555
 10
2.5879296875
 20
-49.898746978752555
 10
2.0340234375
 20
-51.410465728752555
 10
2.013375
 20
-51.46812197875255
 10
1.9933046875000002
 20
-51.52609072875255
 10
1.9738125000000002
 20
-51.58437197875255
 10
1.9548984375000007
 20
-51.64296572875255
 10
1.9365625000000009
 20
-51.70187197875255
 10
1.9188046874999998
 20
-51.76109072875255
 10
1.9016250000000001
 20
-51.820621978752555
 10
1.885023437500001
 20
-51.880465728752554
 10
1.8690000000000007
 20
-51.94062197875255
 10
1.8535546875
 20
-52.00109072875255
 10
1.8366249999999997
 20
-51.93841104125255
 10
1.8192734375000006
 20
-51.87630947875255
 10
1.8015000000000008
 20
-51.81478604125255
 10
1.7833046875000012
 20
-51.75384072875255
 10
1.7646875
 20
-51.69347354125255
 10
1.7456484375000008
 20
-51.63368447875255
 10
1.726187499999999
 20
-51.57447354125255
 10
1.7063046875000012
 20
-51.51584072875255
 10
1.6860000000000008
 20
-51.457786041252554
 10
1.6652734374999998
 20
-51.400309478752554
 10
1.1254296875000005
 20
-49.898746978752555
 10
0.6519921875000003
 20
-49.898746978752555
 10
1.6363671875000003
 20
-52.496403228752555
 10
1.6310546875000007
 20
-52.510278228752554
 10
1.6260546875
 20
-52.523465728752555
 10
1.6213671875000006
 20
-52.53596572875255
 10
1.616992187500001
 20
-52.547778228752556
 10
1.6129296875000003
 20
-52.558903228752555
 10
1.609179687500001
 20
-52.56934072875255
 10
1.6057421875000006
 20
-52.579090728752554
 10
1.6026171875000017
 20
-52.58815322875255
 10
1.5998046875000016
 20
-52.596528228752554
 10
1.5973046875000003
 20
-52.60421572875255
 10
1.5792265625000006
 20
-52.654457916252554
 10
1.5621796875000005
 20
-52.700809478752554
 10
1.5461640625000008
 20
-52.74327041625255
 10
1.5311796875000008
 20
-52.781840728752556
 10
1.5172265625000003
 20
-52.81652041625255
 10
1.5043046875000003
 20
-52.84730947875255
 10
1.4924140625
 20
-52.87420791625255
 10
1.481554687500001
 20
-52.897215728752556
 10
1.4717265624999998
 20
-52.91633291625255
 10
1.4629296875
 20
-52.931559478752554
 10
1.451359375
 20
-52.94866885375255
 10
1.4391484375
 20
-52.96499697875255
 10
1.4262968750000002
 20
-52.98054385375255
 10
1.4128046875000004
 20
-52.99530947875255
 10
1.3986718749999998
 20
-53.00929385375255
 10
1.3838984375
 20
-53.02249697875255
 10
1.3684843750000004
 20
-53.03491885375255
 10
1.3524296875000008
 20
-53.046559478752556
 10
1.3357343750000004
 20
-53.05741885375255
 10
1.3183984375
 20
-53.06749697875255
 10
1.3003046874999997
 20
-53.07684854125255
 10
1.2810234375
 20
-53.08521572875255
 10
1.2605546875
 20
-53.09259854125255
 10
1.2388984374999996
 20
-53.09899697875255
 10
1.2160546874999998
 20
-53.104411041252554
 10
1.1920234375000005
 20
-53.108840728752554
 10
1.1668046875
 20
-53.11228604125255
 10
1.140398437500001
 20
-53.11474697875255
 10
1.1128046875000006
 20
-53.11622354125255
 10
1.0840234375
 20
-53.11671572875255
 10
1.0622421875000008
 20
-53.11632510375255
 10
1.0397109375000007
 20
-53.115153228752554
 10
1.0164296875000005
 20
-53.113200103752554
 10
0.9923984375000003
 20
-53.11046572875255
 10
0.9676171875000001
 20
-53.10695010375255
 10
0.9420859375000008
 20
-53.10265322875255
 10
0.9158046875000005
 20
-53.097575103752554
 10
0.888773437500002
 20
-53.091715728752554
 10
0.8609921875000008
 20
-53.08507510375255
 10
0.8324609375000005
 20
-53.07765322875255
 10
0.8816796875000001
 20
-53.490153228752554
  0
ENDSEC
  0
SECTION
  2
OBJECTS
  0
DICTIONARY
  5
A
330
0
100
AcDbDictionary
281
1
  3
ACAD_COLOR
350
B
  3
ACAD_GROUP
350
C
  3
ACAD_LAYOUT
350
D
  3
ACAD_MATERIAL
350
E
  3
ACAD_MLEADERSTYLE
350
F
  3
ACAD_MLINESTYLE
350
10
  3
ACAD_PLOTSETTINGS
350
11
  3
ACAD_PLOTSTYLENAME
350
12
  3
ACAD_SCALELIST
350
14
  3
ACAD_TABLESTYLE
350
15
  3
ACAD_VISUALSTYLE
350
16
  3
EZDXF_META
350
2D
  0
DICTIONARY
  5
B
330
A
100
AcDbDictionary
281
1
  0
DICTIONARY
  5
C
330
A
100
AcDbDictionary
281
1
  0
DICTIONARY
  5
D
330
A
100
AcDbDictionary
281
1
  3
Model
350
1A
  3
Layout1
350
1E
  0
DICTIONARY
  5
E
330
A
100
AcDbDictionary
281
1
  3
ByBlock
350
1F
  3
ByLayer
350
20
  3
Global
350
21
  0
DICTIONARY
  5
F
330
A
100
AcDbDictionary
281
1
  3
Standard
350
2C
  0
DICTIONARY
  5
10
330
A
100
AcDbDictionary
281
1
  3
Standard
350
22
  0
DICTIONARY
  5
11
330
A
100
AcDbDictionary
281
1
  0
ACDBDICTIONARYWDFLT
  5
12
330
A
100
AcDbDictionary
281
1
  3
Normal
350
13
100
AcDbDictionaryWithDefault
340
13
  0
ACDBPLACEHOLDER
  5
13
330
12
  0
DICTIONARY
  5
14
330
A
100
AcDbDictionary
281
1
  0
DICTIONARY
  5
15
330
A
100
AcDbDictionary
281
1
  0
DICTIONARY
  5
16
330
A
100
AcDbDictionary
281
1
  0
LAYOUT
  5
1A
330
D
100
AcDbPlotSettings
  1

  2
Adobe PDF
  4
A3
  6

 40
7.5
 41
20.0
 42
7.5
 43
20.0
 44
420.0
 45
297.0
 46
0.0
 47
0.0
 48
0.0
 49
0.0
140
0.0
141
0.0
142
1.0
143
1.0
 70
1024
 72
1
 73
1
 74
5
  7

 75
16
 76
0
 77
2
 78
300
147
1.0
148
0.0
149
0.0
100
AcDbLayout
  1
Model
 70
1
 71
0
 10
0.0
 20
0.0
 11
420.0
 21
297.0
 12
0.0
 22
0.0
 32
0.0
 14
1e+20
 24
1e+20
 34
1e+20
 15
-1e+20
 25
-1e+20
 35
-1e+20
146
0.0
 13
0.0
 23
0.0
 33
0.0
 16
1.0
 26
0.0
 36
0.0
 17
0.0
 27
1.0
 37
0.0
 76
1
330
17
  0
LAYOUT
  5
1E
330
D
100
AcDbPlotSettings
  1

  2
Adobe PDF
  4
A3
  6

 40
7.5
 41
20.0
 42
7.5
 43
20.0
 44
420.0
 45
297.0
 46
0.0
 47
0.0
 48
0.0
 49
0.0
140
0.0
141
0.0
142
1.0
143
1.0
 70
0
 72
1
 73
1
 74
5
  7

 75
16
 76
0
 77
2
 78
300
147
1.0
148
0.0
149
0.0
100
AcDbLayout
  1
Layout1
 70
1
 71
1
 10
0.0
 20
0.0
 11
420.0
 21
297.0
 12
0.0
 22
0.0
 32
0.0
 14
1e+20
 24
1e+20
 34
1e+20
 15
-1e+20
 25
-1e+20
 35
-1e+20
146
0.0
 13
0.0
 23
0.0
 33
0.0
 16
1.0
 26
0.0
 36
0.0
 17
0.0
 27
1.0
 37
0.0
 76
1
330
1B
  0
MATERIAL
  5
1F
102
{ACAD_REACTORS
330
E
102
}
330
E
100
AcDbMaterial
  1
ByBlock
  2

 70
0
 40
1.0
 71
1
 41
1.0
 91
-1023410177
 42
1.0
 72
1
  3

 73
1
 74
1
 75
1
 44
0.5
 73
0
 45
1.0
 46
1.0
 77
1
  4

 78
1
 79
1
170
1
 48
1.0
171
1
  6

172
1
173
1
174
1
140
1.0
141
1.0
175
1
  7

176
1
177
1
178
1
143
1.0
179
1
  8

270
1
271
1
272
1
145
1.0
146
1.0
273
1
  9

274
1
275
1
276
1
 42
1.0
 72
1
  3

 73
1
 74
1
 75
1
 94
63
  0
MATERIAL
  5
20
102
{ACAD_REACTORS
330
E
102
}
330
E
100
AcDbMaterial
  1
ByLayer
  2

 70
0
 40
1.0
 71
1
 41
1.0
 91
-1023410177
 42
1.0
 72
1
  3

 73
1
 74
1
 75
1
 44
0.5
 73
0
 45
1.0
 46
1.0
 77
1
  4

 78
1
 79
1
170
1
 48
1.0
171
1
  6

172
1
173
1
174
1
140
1.0
141
1.0
175
1
  7

176
1
177
1
178
1
143
1.0
179
1
  8

270
1
271
1
272
1
145
1.0
146
1.0
273
1
  9

274
1
275
1
276
1
 42
1.0
 72
1
  3

 73
1
 74
1
 75
1
 94
63
  0
MATERIAL
  5
21
102
{ACAD_REACTORS
330
E
102
}
330
E
100
AcDbMaterial
  1
Global
  2

 70
0
 40
1.0
 71
1
 41
1.0
 91
-1023410177
 42
1.0
 72
1
  3

 73
1
 74
1
 75
1
 44
0.5
 73
0
 45
1.0
 46
1.0
 77
1
  4

 78
1
 79
1
170
1
 48
1.0
171
1
  6

172
1
173
1
174
1
140
1.0
141
1.0
175
1
  7

176
1
177
1
178
1
143
1.0
179
1
  8

270
1
271
1
272
1
145
1.0
146
1.0
273
1
  9

274
1
275
1
276
1
 42
1.0
 72
1
  3

 73
1
 74
1
 75
1
 94
63
  0
MLINESTYLE
  5
22
102
{ACAD_REACTORS
330
10
102
}
330
10
100
AcDbMlineStyle
  2
Standard
 70
0
  3

 62
256
 51
90.0
 52
90.0
 71
2
 49
0.5
 62
256
  6
BYLAYER
 49
-0.5
 62
256
  6
BYLAYER
  0
MLEADERSTYLE
  5
2C
102
{ACAD_REACTORS
330
F
102
}
330
F
100
AcDbMLeaderStyle
179
2
170
2
171
1
172
0
 90
2
 40
0.0
 41
0.0
173
1
 91
-1056964608
 92
-2
290
1
 42
2.0
291
1
 43
8.0
  3
Standard
 44
4.0
300

342
29
174
1
175
1
176
0
178
1
 93
-1056964608
 45
4.0
292
0
297
0
 46
4.0
 94
-1056964608
 47
1.0
 49
1.0
140
1.0
294
1
141
0.0
177
0
142
1.0
295
0
296
0
143
3.75
271
0
272
9
273
9
  0
DICTIONARY
  5
2D
330
A
100
AcDbDictionary
280
1
281
1
  3
CREATED_BY_EZDXF
350
2E
  3
WRITTEN_BY_EZDXF
350
3E
  0
DICTIONARYVAR
  5
2E
330
2D
100
DictionaryVariables
280
0
  1
0.17.2 @ 2022-04-05T07:59:56.141381+00:00
  0
DICTIONARYVAR
  5
3E
330
2D
100
DictionaryVariables
280
0
  1
0.17.2 @ 2022-04-05T07:59:56.147829+00:00
  0
ENDSEC
  0
EOF
