  0
SECTION
  2
HEADER
  9
$ACADVER
  1
AC1024
  9
$ACADMAINTVER
 70
6
  9
$DWGCODEPAGE
  3
ANSI_1252
  9
$LASTSAVEDBY
  1
ezdxf
  9
$INSBASE
 10
0.0
 20
0.0
 30
0.0
  9
$EXTMIN
 10
1e+20
 20
1e+20
 30
1e+20
  9
$EXTMAX
 10
-1e+20
 20
-1e+20
 30
-1e+20
  9
$LIMMIN
 10
0.0
 20
0.0
  9
$LIMMAX
 10
420.0
 20
297.0
  9
$ORTHOMODE
 70
0
  9
$REGENMODE
 70
1
  9
$FILLMODE
 70
1
  9
$QTEXTMODE
 70
0
  9
$MIRRTEXT
 70
1
  9
$LTSCALE
 40
1.0
  9
$ATTMODE
 70
1
  9
$TEXTSIZE
 40
2.5
  9
$TRACEWID
 40
1.0
  9
$TEXTSTYLE
  7
Standard
  9
$CLAYER
  8
0
  9
$CELTYPE
  6
ByLayer
  9
$CECOLOR
 62
256
  9
$CELTSCALE
 40
1.0
  9
$DISPSILH
 70
0
  9
$DIMSCALE
 40
1.0
  9
$DIMASZ
 40
2.5
  9
$DIMEXO
 40
0.625
  9
$DIMDLI
 40
3.75
  9
$DIMRND
 40
0.0
  9
$DIMDLE
 40
0.0
  9
$DIMEXE
 40
1.25
  9
$DIMTP
 40
0.0
  9
$DIMTM
 40
0.0
  9
$DIMTXT
 40
2.5
  9
$DIMCEN
 40
2.5
  9
$DIMTSZ
 40
0.0
  9
$DIMTOL
 70
0
  9
$DIMLIM
 70
0
  9
$DIMTIH
 70
0
  9
$DIMTOH
 70
0
  9
$DIMSE1
 70
0
  9
$DIMSE2
 70
0
  9
$DIMTAD
 70
1
  9
$DIMZIN
 70
8
  9
$DIMBLK
  1

  9
$DIMASO
 70
1
  9
$DIMSHO
 70
1
  9
$DIMPOST
  1

  9
$DIMAPOST
  1

  9
$DIMALT
 70
0
  9
$DIMALTD
 70
3
  9
$DIMALTF
 40
0.03937007874
  9
$DIMLFAC
 40
1.0
  9
$DIMTOFL
 70
1
  9
$DIMTVP
 40
0.0
  9
$DIMTIX
 70
0
  9
$DIMSOXD
 70
0
  9
$DIMSAH
 70
0
  9
$DIMBLK1
  1

  9
$DIMBLK2
  1

  9
$DIMSTYLE
  2
ISO-25
  9
$DIMCLRD
 70
0
  9
$DIMCLRE
 70
0
  9
$DIMCLRT
 70
0
  9
$DIMTFAC
 40
1.0
  9
$DIMGAP
 40
0.625
  9
$DIMJUST
 70
0
  9
$DIMSD1
 70
0
  9
$DIMSD2
 70
0
  9
$DIMTOLJ
 70
0
  9
$DIMTZIN
 70
8
  9
$DIMALTZ
 70
0
  9
$DIMALTTZ
 70
0
  9
$DIMUPT
 70
0
  9
$DIMDEC
 70
2
  9
$DIMTDEC
 70
2
  9
$DIMALTU
 70
2
  9
$DIMALTTD
 70
3
  9
$DIMTXSTY
  7
Standard
  9
$DIMAUNIT
 70
0
  9
$DIMADEC
 70
0
  9
$DIMALTRND
 40
0.0
  9
$DIMAZIN
 70
0
  9
$DIMDSEP
 70
44
  9
$DIMATFIT
 70
3
  9
$DIMFRAC
 70
0
  9
$DIMLDRBLK
  1

  9
$DIMLUNIT
 70
2
  9
$DIMLWD
 70
-2
  9
$DIMLWE
 70
-2
  9
$DIMTMOVE
 70
0
  9
$DIMFXL
 40
1.0
  9
$DIMFXLON
 70
0
  9
$DIMJOGANG
 40
0.785398163397
  9
$DIMTFILL
 70
0
  9
$DIMTFILLCLR
 70
0
  9
$DIMARCSYM
 70
0
  9
$DIMLTYPE
  6

  9
$DIMLTEX1
  6

  9
$DIMLTEX2
  6

  9
$DIMTXTDIRECTION
 70
0
  9
$LUNITS
 70
2
  9
$LUPREC
 70
4
  9
$SKETCHINC
 40
1.0
  9
$FILLETRAD
 40
10.0
  9
$AUNITS
 70
0
  9
$AUPREC
 70
2
  9
$MENU
  1
.
  9
$ELEVATION
 40
0.0
  9
$PELEVATION
 40
0.0
  9
$THICKNESS
 40
0.0
  9
$LIMCHECK
 70
0
  9
$CHAMFERA
 40
0.0
  9
$CHAMFERB
 40
0.0
  9
$CHAMFERC
 40
0.0
  9
$CHAMFERD
 40
0.0
  9
$SKPOLY
 70
0
  9
$TDCREATE
 40
2459675.0416203705
  9
$TDUCREATE
 40
2458532.153996898
  9
$TDUPDATE
 40
2459675.0416203705
  9
$TDUUPDATE
 40
2458532.1544311
  9
$TDINDWG
 40
0.0
  9
$TDUSRTIMER
 40
0.0
  9
$USRTIMER
 70
1
  9
$ANGBASE
 50
0.0
  9
$ANGDIR
 70
0
  9
$PDMODE
 70
0
  9
$PDSIZE
 40
0.0
  9
$PLINEWID
 40
0.0
  9
$SPLFRAME
 70
0
  9
$SPLINETYPE
 70
6
  9
$SPLINESEGS
 70
8
  9
$HANDSEED
  5
6E
  9
$SURFTAB1
 70
6
  9
$SURFTAB2
 70
6
  9
$SURFTYPE
 70
6
  9
$SURFU
 70
6
  9
$SURFV
 70
6
  9
$UCSBASE
  2

  9
$UCSNAME
  2

  9
$UCSORG
 10
0.0
 20
0.0
 30
0.0
  9
$UCSXDIR
 10
1.0
 20
0.0
 30
0.0
  9
$UCSYDIR
 10
0.0
 20
1.0
 30
0.0
  9
$UCSORTHOREF
  2

  9
$UCSORTHOVIEW
 70
0
  9
$UCSORGTOP
 10
0.0
 20
0.0
 30
0.0
  9
$UCSORGBOTTOM
 10
0.0
 20
0.0
 30
0.0
  9
$UCSORGLEFT
 10
0.0
 20
0.0
 30
0.0
  9
$UCSORGRIGHT
 10
0.0
 20
0.0
 30
0.0
  9
$UCSORGFRONT
 10
0.0
 20
0.0
 30
0.0
  9
$UCSORGBACK
 10
0.0
 20
0.0
 30
0.0
  9
$PUCSBASE
  2

  9
$PUCSNAME
  2

  9
$PUCSORG
 10
0.0
 20
0.0
 30
0.0
  9
$PUCSXDIR
 10
1.0
 20
0.0
 30
0.0
  9
$PUCSYDIR
 10
0.0
 20
1.0
 30
0.0
  9
$PUCSORTHOREF
  2

  9
$PUCSORTHOVIEW
 70
0
  9
$PUCSORGTOP
 10
0.0
 20
0.0
 30
0.0
  9
$PUCSORGBOTTOM
 10
0.0
 20
0.0
 30
0.0
  9
$PUCSORGLEFT
 10
0.0
 20
0.0
 30
0.0
  9
$PUCSORGRIGHT
 10
0.0
 20
0.0
 30
0.0
  9
$PUCSORGFRONT
 10
0.0
 20
0.0
 30
0.0
  9
$PUCSORGBACK
 10
0.0
 20
0.0
 30
0.0
  9
$USERI1
 70
0
  9
$USERI2
 70
0
  9
$USERI3
 70
0
  9
$USERI4
 70
0
  9
$USERI5
 70
0
  9
$USERR1
 40
0.0
  9
$USERR2
 40
0.0
  9
$USERR3
 40
0.0
  9
$USERR4
 40
0.0
  9
$USERR5
 40
0.0
  9
$WORLDVIEW
 70
1
  9
$SHADEDGE
 70
3
  9
$SHADEDIF
 70
70
  9
$TILEMODE
 70
1
  9
$MAXACTVP
 70
64
  9
$PINSBASE
 10
0.0
 20
0.0
 30
0.0
  9
$PLIMCHECK
 70
0
  9
$PEXTMIN
 10
1e+20
 20
1e+20
 30
1e+20
  9
$PEXTMAX
 10
-1e+20
 20
-1e+20
 30
-1e+20
  9
$PLIMMIN
 10
0.0
 20
0.0
  9
$PLIMMAX
 10
420.0
 20
297.0
  9
$UNITMODE
 70
0
  9
$VISRETAIN
 70
1
  9
$PLINEGEN
 70
0
  9
$PSLTSCALE
 70
1
  9
$TREEDEPTH
 70
3020
  9
$CMLSTYLE
  2
Standard
  9
$CMLJUST
 70
0
  9
$CMLSCALE
 40
20.0
  9
$PROXYGRAPHICS
 70
1
  9
$MEASUREMENT
 70
1
  9
$CELWEIGHT
370
-1
  9
$ENDCAPS
280
0
  9
$JOINSTYLE
280
0
  9
$LWDISPLAY
290
0
  9
$INSUNITS
 70
6
  9
$HYPERLINKBASE
  1

  9
$STYLESHEET
  1

  9
$XEDIT
290
1
  9
$CEPSNTYPE
380
0
  9
$PSTYLEMODE
290
1
  9
$FINGERPRINTGUID
  2
{7C0F3B51-BB87-48C8-9618-E4C387FD3277}
  9
$VERSIONGUID
  2
{9771C059-9F9D-44B3-AC75-1A888390CD52}
  9
$EXTNAMES
290
1
  9
$PSVPSCALE
 40
0.0
  9
$OLESTARTUP
290
0
  9
$SORTENTS
280
127
  9
$INDEXCTL
280
0
  9
$HIDETEXT
280
1
  9
$XCLIPFRAME
280
0
  9
$HALOGAP
280
0
  9
$OBSCOLOR
 70
257
  9
$OBSLTYPE
280
0
  9
$INTERSECTIONDISPLAY
280
0
  9
$INTERSECTIONCOLOR
 70
257
  9
$DIMASSOC
280
2
  9
$PROJECTNAME
  1

  9
$CAMERADISPLAY
290
0
  9
$LENSLENGTH
 40
50.0
  9
$CAMERAHEIGHT
 40
0.0
  9
$STEPSPERSEC
 40
24.0
  9
$STEPSIZE
 40
100.0
  9
$3DDWFPREC
 40
2.0
  9
$PSOLWIDTH
 40
0.005
  9
$PSOLHEIGHT
 40
0.08
  9
$LOFTANG1
 40
1.570796326795
  9
$LOFTANG2
 40
1.570796326795
  9
$LOFTMAG1
 40
0.0
  9
$LOFTMAG2
 40
0.0
  9
$LOFTPARAM
 70
7
  9
$LOFTNORMALS
280
1
  9
$LATITUDE
 40
37.795
  9
$LONGITUDE
 40
-122.394
  9
$NORTHDIRECTION
 40
0.0
  9
$TIMEZONE
 70
-8000
  9
$LIGHTGLYPHDISPLAY
280
1
  9
$TILEMODELIGHTSYNCH
280
1
  9
$CMATERIAL
347
20
  9
$SOLIDHIST
280
0
  9
$SHOWHIST
280
1
  9
$DWFFRAME
280
2
  9
$DGNFRAME
280
2
  9
$REALWORLDSCALE
290
1
  9
$INTERFERECOLOR
 62
256
  9
$CSHADOW
280
0
  9
$SHADOWPLANELOCATION
 40
0.0
  0
ENDSEC
  0
SECTION
  2
CLASSES
  0
CLASS
  1
ACDBDICTIONARYWDFLT
  2
AcDbDictionaryWithDefault
  3
ObjectDBX Classes
 90
0
 91
0
280
0
281
0
  0
CLASS
  1
SUN
  2
AcDbSun
  3
SCENEOE
 90
1153
 91
0
280
0
281
0
  0
CLASS
  1
VISUALSTYLE
  2
AcDbVisualStyle
  3
ObjectDBX Classes
 90
4095
 91
0
280
0
281
0
  0
CLASS
  1
MATERIAL
  2
AcDbMaterial
  3
ObjectDBX Classes
 90
1153
 91
0
280
0
281
0
  0
CLASS
  1
SCALE
  2
AcDbScale
  3
ObjectDBX Classes
 90
1153
 91
0
280
0
281
0
  0
CLASS
  1
TABLESTYLE
  2
AcDbTableStyle
  3
ObjectDBX Classes
 90
4095
 91
0
280
0
281
0
  0
CLASS
  1
MLEADERSTYLE
  2
AcDbMLeaderStyle
  3
ACDB_MLEADERSTYLE_CLASS
 90
4095
 91
0
280
0
281
0
  0
CLASS
  1
DICTIONARYVAR
  2
AcDbDictionaryVar
  3
ObjectDBX Classes
 90
0
 91
0
280
0
281
0
  0
CLASS
  1
CELLSTYLEMAP
  2
AcDbCellStyleMap
  3
ObjectDBX Classes
 90
1152
 91
0
280
0
281
0
  0
CLASS
  1
MENTALRAYRENDERSETTINGS
  2
AcDbMentalRayRenderSettings
  3
SCENEOE
 90
1024
 91
0
280
0
281
0
  0
CLASS
  1
ACDBDETAILVIEWSTYLE
  2
AcDbDetailViewStyle
  3
ObjectDBX Classes
 90
1025
 91
0
280
0
281
0
  0
CLASS
  1
ACDBSECTIONVIEWSTYLE
  2
AcDbSectionViewStyle
  3
ObjectDBX Classes
 90
1025
 91
0
280
0
281
0
  0
CLASS
  1
RASTERVARIABLES
  2
AcDbRasterVariables
  3
ISM
 90
0
 91
0
280
0
281
0
  0
CLASS
  1
LAYOUT
  2
AcDbLayout
  3
ObjectDBX Classes
 90
0
 91
0
280
0
281
0
  0
CLASS
  1
ACDBPLACEHOLDER
  2
AcDbPlaceHolder
  3
ObjectDBX Classes
 90
0
 91
0
280
0
281
0
  0
ENDSEC
  0
SECTION
  2
TABLES
  0
TABLE
  2
VPORT
  5
8
330
0
100
AcDbSymbolTable
 70
1
  0
VPORT
  5
23
330
8
100
AcDbSymbolTableRecord
100
AcDbViewportTableRecord
  2
*Active
 70
0
 10
0.0
 20
0.0
 11
1.0
 21
1.0
 12
0.0
 22
0.0
 13
0.0
 23
0.0
 14
0.5
 24
0.5
 15
0.5
 25
0.5
 16
0.0
 26
0.0
 36
1.0
 17
0.0
 27
0.0
 37
0.0
 40
1000.0
 41
1.34
 42
50.0
 43
0.0
 44
0.0
 50
0.0
 51
0.0
 71
0
 72
1000
 73
1
 74
3
 75
0
 76
0
 77
0
 78
0
281
0
 65
0
146
0.0
  0
ENDTAB
  0
TABLE
  2
LTYPE
  5
2
330
0
100
AcDbSymbolTable
 70
3
  0
LTYPE
  5
24
330
2
100
AcDbSymbolTableRecord
100
AcDbLinetypeTableRecord
  2
ByBlock
 70
0
  3

 72
65
 73
0
 40
0.0
  0
LTYPE
  5
25
330
2
100
AcDbSymbolTableRecord
100
AcDbLinetypeTableRecord
  2
ByLayer
 70
0
  3

 72
65
 73
0
 40
0.0
  0
LTYPE
  5
26
330
2
100
AcDbSymbolTableRecord
100
AcDbLinetypeTableRecord
  2
Continuous
 70
0
  3

 72
65
 73
0
 40
0.0
  0
ENDTAB
  0
TABLE
  2
LAYER
  5
1
330
0
100
AcDbSymbolTable
 70
2
  0
LAYER
  5
27
330
1
100
AcDbSymbolTableRecord
100
AcDbLayerTableRecord
  2
0
 70
0
 62
7
  6
Continuous
370
-3
390
13
347
21
  0
LAYER
  5
28
330
1
100
AcDbSymbolTableRecord
100
AcDbLayerTableRecord
  2
Defpoints
 70
0
 62
7
  6
Continuous
290
0
370
-3
390
13
347
21
  0
ENDTAB
  0
TABLE
  2
STYLE
  5
5
330
0
100
AcDbSymbolTable
 70
1
  0
STYLE
  5
29
330
5
100
AcDbSymbolTableRecord
100
AcDbTextStyleTableRecord
  2
Standard
 70
0
 40
0.0
 41
1.0
 50
0.0
 71
0
 42
2.5
  3
txt
  4

  0
ENDTAB
  0
TABLE
  2
VIEW
  5
7
330
0
100
AcDbSymbolTable
 70
0
  0
ENDTAB
  0
TABLE
  2
UCS
  5
6
330
0
100
AcDbSymbolTable
 70
0
  0
ENDTAB
  0
TABLE
  2
APPID
  5
3
330
0
100
AcDbSymbolTable
 70
3
  0
APPID
  5
2A
330
3
100
AcDbSymbolTableRecord
100
AcDbRegAppTableRecord
  2
ACAD
 70
0
  0
APPID
  5
6B
330
3
100
AcDbSymbolTableRecord
100
AcDbRegAppTableRecord
  2
HATCHBACKGROUNDCOLOR
 70
0
  0
APPID
  5
6C
330
3
100
AcDbSymbolTableRecord
100
AcDbRegAppTableRecord
  2
EZDXF
 70
0
  0
ENDTAB
  0
TABLE
  2
DIMSTYLE
  5
4
330
0
100
AcDbSymbolTable
 70
1
100
AcDbDimStyleTable
  0
DIMSTYLE
105
2B
330
4
100
AcDbSymbolTableRecord
100
AcDbDimStyleTableRecord
  2
Standard
 70
0
 40
1.0
 41
2.5
 42
0.625
 43
3.75
 44
1.25
 45
0.0
 46
0.0
 47
0.0
 48
0.0
 49
2.5
140
2.5
141
2.5
142
0.0
143
0.03937007874
144
1.0
145
0.0
146
1.0
147
0.625
148
0.0
 69
0
 70
0
 71
0
 72
0
 73
0
 74
0
 75
0
 76
0
 77
1
 78
8
 79
3
170
0
171
3
172
1
173
0
174
0
175
0
176
0
177
0
178
0
179
2
271
2
272
2
273
2
274
3
275
0
276
0
277
2
278
44
279
0
280
0
281
0
282
0
283
0
284
8
285
0
286
0
288
0
289
3
290
0
371
-2
372
-2
  0
ENDTAB
  0
TABLE
  2
BLOCK_RECORD
  5
9
330
0
100
AcDbSymbolTable
 70
2
  0
BLOCK_RECORD
  5
17
330
9
100
AcDbSymbolTableRecord
100
AcDbBlockTableRecord
  2
*Model_Space
340
1A
 70
0
280
1
281
0
  0
BLOCK_RECORD
  5
1B
330
9
100
AcDbSymbolTableRecord
100
AcDbBlockTableRecord
  2
*Paper_Space
340
1E
 70
0
280
1
281
0
  0
ENDTAB
  0
ENDSEC
  0
SECTION
  2
BLOCKS
  0
BLOCK
  5
18
330
17
100
AcDbEntity
  8
0
100
AcDbBlockBegin
  2
*Model_Space
 70
0
 10
0.0
 20
0.0
 30
0.0
  3
*Model_Space
  1

  0
ENDBLK
  5
19
330
17
100
AcDbEntity
  8
0
100
AcDbBlockEnd
  0
BLOCK
  5
1C
330
1B
100
AcDbEntity
  8
0
100
AcDbBlockBegin
  2
*Paper_Space
 70
0
 10
0.0
 20
0.0
 30
0.0
  3
*Paper_Space
  1

  0
ENDBLK
  5
1D
330
1B
100
AcDbEntity
  8
0
100
AcDbBlockEnd
  0
ENDSEC
  0
SECTION
  2
ENTITIES
  0
LWPOLYLINE
  5
2F
330
17
100
AcDbEntity
  8
0
100
AcDbPolyline
 90
92
 70
0
 10
-0.22408203125000004
 20
-51.19015322875255
 10
-0.22408203125000004
 20
-51.351871978752555
 10
-0.2247929687500001
 20
-51.408434478752554
 10
-0.2269257812499994
 20
-51.462184478752555
 10
-0.2304804687500006
 20
-51.51312197875255
 10
-0.23545703125000017
 20
-51.56124697875255
 10
-0.24185546874999986
 20
-51.60655947875255
 10
-0.24967578125000056
 20
-51.649059478752555
 10
-0.2589179687500005
 20
-51.688746978752555
 10
-0.2695820312499988
 20
-51.72562197875255
 10
-0.2816679687499999
 20
-51.759684478752554
 10
-0.2951757812500002
 20
-51.790934478752554
 10
-0.3148164062500003
 20
-51.828707916252554
 10
-0.3365507812499997
 20
-51.864840728752554
 10
-0.36037890625000024
 20
-51.899332916252554
 10
-0.3863007812500001
 20
-51.93218447875255
 10
-0.4143164062500002
 20
-51.96339541625255
 10
-0.44442578125000054
 20
-51.99296572875255
 10
-0.4766289062500002
 20
-52.02089541625255
 10
-0.5109257812499992
 20
-52.047184478752555
 10
-0.5473164062499993
 20
-52.07183291625255
 10
-0.5858007812499997
 20
-52.09484072875255
 10
-0.6258945312499993
 20
-52.115918853752554
 10
-0.6671132812499998
 20
-52.13477822875255
 10
-0.7094570312500004
 20
-52.15141885375255
 10
-0.7529257812500001
 20
-52.16584072875255
 10
-0.7975195312499999
 20
-52.178043853752555
 10
-0.8432382812500006
 20
-52.18802822875255
 10
-0.8900820312500004
 20
-52.195793853752555
 10
-0.9380507812499994
 20
-52.201340728752555
 10
-0.9871445312500002
 20
-52.20466885375255
 10
-1.0373632812500002
 20
-52.20577822875255
 10
-1.08738671875
 20
-52.20460635375255
 10
-1.13495703125
 20
-52.201090728752554
 10
-1.1800742187499997
 20
-52.195231353752554
 10
-1.2227382812500003
 20
-52.18702822875255
 10
-1.2629492187500002
 20
-52.17648135375255
 10
-1.30070703125
 20
-52.16359072875255
 10
-1.33601171875
 20
-52.148356353752554
 10
-1.368863281249999
 20
-52.130778228752554
 10
-1.3992617187499996
 20
-52.11085635375255
 10
-1.42720703125
 20
-52.08859072875255
 10
-1.4524414062499997
 20
-52.06456729125255
 10
-1.4750195312499996
 20
-52.039371978752555
 10
-1.4949414062500002
 20
-52.013004791252555
 10
-1.51220703125
 20
-51.98546572875255
 10
-1.52681640625
 20
-51.95675479125255
 10
-1.5387695312499998
 20
-51.92687197875255
 10
-1.5480664062499998
 20
-51.895817291252555
 10
-1.554707031249999
 20
-51.863590728752555
 10
-1.55869140625
 20
-51.83019229125255
 10
-1.56001953125
 20
-51.79562197875255
 10
-1.5594101562500002
 20
-51.77286416625255
 10
-1.5575820312499995
 20
-51.75052822875255
 10
-1.55453515625
 20
-51.728614166252555
 10
-1.5502695312499997
 20
-51.707121978752554
 10
-1.5447851562499997
 20
-51.68605166625255
 10
-1.5380820312499996
 20
-51.66540322875255
 10
-1.53016015625
 20
-51.64517666625255
 10
-1.5210195312499994
 20
-51.625371978752554
 10
-1.5106601562499997
 20
-51.605989166252556
 10
-1.49908203125
 20
-51.58702822875255
 10
-1.48623828125
 20
-51.568731353752554
 10
-1.47239453125
 20
-51.55134072875255
 10
-1.4575507812500001
 20
-51.53485635375255
 10
-1.44170703125
 20
-51.519278228752555
 10
-1.42486328125
 20
-51.50460635375255
 10
-1.40701953125
 20
-51.49084072875255
 10
-1.3881757812500002
 20
-51.477981353752554
 10
-1.3683320312499996
 20
-51.46602822875255
 10
-1.34748828125
 20
-51.45498135375255
 10
-1.32564453125
 20
-51.44484072875255
 10
-1.3015585937500003
 20
-51.43509854125255
 10
-1.27430078125
 20
-51.425559478752554
 10
-1.2438710937500002
 20
-51.41622354125255
 10
-1.2102695312499998
 20
-51.40709072875255
 10
-1.1734960937499999
 20
-51.39816104125255
 10
-1.1335507812500003
 20
-51.389434478752555
 10
-1.0904335937500003
 20
-51.38091104125255
 10
-1.0441445312499993
 20
-51.372590728752556
 10
-0.9946835937499996
 20
-51.36447354125255
 10
-0.9420507812499999
 20
-51.35655947875255
 10
-0.8488085937500003
 20
-51.342520416252555
 10
-0.7603320312499999
 20
-51.327903228752554
 10
-0.6766210937500006
 20
-51.31270791625255
 10
-0.5976757812500004
 20
-51.296934478752554
 10
-0.5234960937499995
 20
-51.280582916252555
 10
-0.45408203125000046
 20
-51.26365322875255
 10
-0.38943359374999975
 20
-51.24614541625255
 10
-0.32955078124999915
 20
-51.228059478752556
 10
-0.27443359374999954
 20
-51.209395416252555
 10
-0.22408203125000004
 20
-51.19015322875255
  0
LWPOLYLINE
  5
30
330
17
100
AcDbEntity
  8
0
100
AcDbPolyline
 90
92
 70
0
 10
535.1477765646939
 20
-51.19015322875255
 10
535.198128127194
 20
-51.209395416252555
 10
535.2532453146939
 20
-51.228059478752556
 10
535.313128127194
 20
-51.24614541625255
 10
535.3777765646939
 20
-51.26365322875255
 10
535.447190627194
 20
-51.280582916252555
 10
535.521370314694
 20
-51.296934478752554
 10
535.6003156271939
 20
-51.31270791625255
 10
535.6840265646939
 20
-51.327903228752554
 10
535.772503127194
 20
-51.342520416252555
 10
535.865745314694
 20
-51.35655947875255
 10
535.9183781271939
 20
-51.36447354125255
 10
535.967839064694
 20
-51.372590728752556
 10
536.014128127194
 20
-51.38091104125255
 10
536.057245314694
 20
-51.389434478752555
 10
536.097190627194
 20
-51.39816104125255
 10
536.1339640646939
 20
-51.40709072875255
 10
536.167565627194
 20
-51.41622354125255
 10
536.1979953146939
 20
-51.425559478752554
 10
536.2252531271939
 20
-51.43509854125255
 10
536.2493390646939
 20
-51.44484072875255
 10
536.2711828146939
 20
-51.45498135375255
 10
536.292026564694
 20
-51.46602822875255
 10
536.3118703146939
 20
-51.477981353752554
 10
536.3307140646939
 20
-51.49084072875255
 10
536.348557814694
 20
-51.50460635375255
 10
536.3654015646939
 20
-51.519278228752555
 10
536.381245314694
 20
-51.53485635375255
 10
536.3960890646939
 20
-51.55134072875255
 10
536.409932814694
 20
-51.568731353752554
 10
536.422776564694
 20
-51.58702822875255
 10
536.4343546896939
 20
-51.605989166252556
 10
536.4447140646939
 20
-51.625371978752554
 10
536.4538546896939
 20
-51.64517666625255
 10
536.461776564694
 20
-51.66540322875255
 10
536.4684796896939
 20
-51.68605166625255
 10
536.473964064694
 20
-51.707121978752554
 10
536.478229689694
 20
-51.728614166252555
 10
536.481276564694
 20
-51.75052822875255
 10
536.483104689694
 20
-51.77286416625255
 10
536.4837140646939
 20
-51.79562197875255
 10
536.4823859396939
 20
-51.83019229125255
 10
536.478401564694
 20
-51.863590728752555
 10
536.4717609396939
 20
-51.895817291252555
 10
536.4624640646939
 20
-51.92687197875255
 10
536.4505109396939
 20
-51.95675479125255
 10
536.435901564694
 20
-51.98546572875255
 10
536.4186359396939
 20
-52.013004791252555
 10
536.398714064694
 20
-52.039371978752555
 10
536.376135939694
 20
-52.06456729125255
 10
536.3509015646939
 20
-52.08859072875255
 10
536.322956252194
 20
-52.11085635375255
 10
536.292557814694
 20
-52.130778228752554
 10
536.259706252194
 20
-52.148356353752554
 10
536.224401564694
 20
-52.16359072875255
 10
536.186643752194
 20
-52.17648135375255
 10
536.146432814694
 20
-52.18702822875255
 10
536.1037687521939
 20
-52.195231353752554
 10
536.058651564694
 20
-52.201090728752554
 10
536.011081252194
 20
-52.20460635375255
 10
535.961057814694
 20
-52.20577822875255
 10
535.910839064694
 20
-52.20466885375255
 10
535.861745314694
 20
-52.201340728752555
 10
535.813776564694
 20
-52.195793853752555
 10
535.766932814694
 20
-52.18802822875255
 10
535.721214064694
 20
-52.178043853752555
 10
535.676620314694
 20
-52.16584072875255
 10
535.633151564694
 20
-52.15141885375255
 10
535.5908078146939
 20
-52.13477822875255
 10
535.5495890646939
 20
-52.115918853752554
 10
535.5094953146939
 20
-52.09484072875255
 10
535.471010939694
 20
-52.07183291625255
 10
535.4346203146939
 20
-52.047184478752555
 10
535.4003234396939
 20
-52.02089541625255
 10
535.3681203146939
 20
-51.99296572875255
 10
535.338010939694
 20
-51.96339541625255
 10
535.309995314694
 20
-51.93218447875255
 10
535.284073439694
 20
-51.899332916252554
 10
535.260245314694
 20
-51.864840728752554
 10
535.2385109396939
 20
-51.828707916252554
 10
535.218870314694
 20
-51.790934478752554
 10
535.2053625021939
 20
-51.759684478752554
 10
535.193276564694
 20
-51.72562197875255
 10
535.1826125021939
 20
-51.688746978752555
 10
535.1733703146939
 20
-51.649059478752555
 10
535.165550002194
 20
-51.60655947875255
 10
535.159151564694
 20
-51.56124697875255
 10
535.1541750021939
 20
-51.51312197875255
 10
535.1506203146939
 20
-51.462184478752555
 10
535.1484875021939
 20
-51.408434478752554
 10
535.1477765646939
 20
-51.351871978752555
 10
535.1477765646939
 20
-51.19015322875255
  0
LWPOLYLINE
  5
31
330
17
100
AcDbEntity
  8
0
100
AcDbPolyline
 90
42
 70
0
 10
3.7332421875
 20
-50.94640322875255
 10
3.7394609375000005
 20
-50.879809478752556
 10
3.7493671875000008
 20
-50.81596572875255
 10
3.762960937499999
 20
-50.754871978752554
 10
3.7802421875000007
 20
-50.696528228752555
 10
3.8012109375000005
 20
-50.640934478752555
 10
3.8258671875
 20
-50.588090728752555
 10
3.8542109375000013
 20
-50.53799697875255
 10
3.8862421875000006
 20
-50.49065322875255
 10
3.9219609375000015
 20
-50.44605947875255
 10
3.9613671875000005
 20
-50.404215728752554
 10
4.0035859375000005
 20
-50.36577041625255
 10
4.047742187500001
 20
-50.33137197875255
 10
4.0938359375
 20
-50.301020416252555
 10
4.141867187500001
 20
-50.274715728752554
 10
4.1918359375000005
 20
-50.25245791625255
 10
4.2437421875000005
 20
-50.23424697875255
 10
4.297585937500001
 20
-50.22008291625255
 10
4.353367187500002
 20
-50.20996572875255
 10
4.411085937500001
 20
-50.20389541625255
 10
4.470742187500001
 20
-50.20187197875255
 10
4.536375000000001
 20
-50.204411041252555
 10
4.599523437500002
 20
-50.21202822875255
 10
4.660187500000001
 20
-50.22472354125255
 10
4.7183671875
 20
-50.242496978752555
 10
4.774062500000001
 20
-50.26534854125255
 10
4.827273437500001
 20
-50.293278228752555
 10
4.878
 20
-50.32628604125255
 10
4.926242187500003
 20
-50.36437197875255
 10
4.972000000000001
 20
-50.407536041252555
 10
5.015273437500001
 20
-50.45577822875255
 10
5.041539062500002
 20
-50.49007510375255
 10
5.065648437500002
 20
-50.527653228752555
 10
5.0876015625000015
 20
-50.56851260375255
 10
5.107398437500002
 20
-50.61265322875255
 10
5.125039062500001
 20
-50.660075103752554
 10
5.140523437500001
 20
-50.71077822875255
 10
5.153851562500002
 20
-50.76476260375255
 10
5.165023437500002
 20
-50.82202822875255
 10
5.1740390625
 20
-50.88257510375255
 10
5.1808984375
 20
-50.94640322875255
 10
3.7332421875
 20
-50.94640322875255
  0
LWPOLYLINE
  5
32
330
17
100
AcDbEntity
  8
0
100
AcDbPolyline
 90
5
 70
0
 10
262.461847266722
 20
-62.44356299547452
 10
-22.44184726672197
 20
-62.44356299547452
 10
-22.44184726672197
 20
22.460131537969417
 10
262.461847266722
 20
22.460131537969417
 10
262.461847266722
 20
-62.44356299547452
  0
LWPOLYLINE
  5
33
330
17
100
AcDbEntity
  8
0
100
AcDbPolyline
 90
33
 70
0
 10
28.550463162945267
 20
-0.009999999999999998
 10
29.057372055837117
 20
-0.009999999999999998
 10
29.047372055837116
 20
-0.02
 10
29.047372055837116
 20
-7.9799999999999995
 10
29.067372055837115
 20
-7.999999999999999
 10
29.98
 20
-7.999999999999999
 10
30.0
 20
-7.9799999999999995
 10
30.0
 20
-0.02
 10
29.98914213562373
 20
-0.009142135623730833
 10
29.99
 20
-0.008284271247463375
 10
30.01
 20
-0.008284271247463375
 10
30.011715728752538
 20
-0.009999999999999998
 10
30.496908893054734
 20
-0.009999999999999998
 10
30.460978195694214
 20
0.1706358138186315
 10
30.460760684531987
 20
0.17116093221644282
 10
30.352483746654023
 20
0.3332088214077801
 10
30.342741541903038
 20
0.3429510261587616
 10
30.08699506202598
 20
0.47965040400845577
 10
30.08619624360382
 20
0.4798092990556467
 10
29.987769162672674
 20
0.4701151107088948
 10
29.986671145862623
 20
0.4711102954680965
 10
29.986671145862623
 20
0.489
 10
29.282035354437475
 20
0.489
 10
29.282035354437465
 20
0.44761481755150434
 10
29.264893050586014
 20
0.489
 10
29.057884760528104
 20
0.489
 10
28.866736242182533
 20
0.45097819569469483
 10
28.866211123784723
 20
0.45076068453246876
 10
28.70416323459228
 20
0.3424837466540798
 10
28.694888309345938
 20
0.3332088214077373
 10
28.58661137146802
 20
0.1711609322164621
 10
28.586393860305794
 20
0.1706358138186507
 10
28.550463162945267
 20
-0.009999999999999998
  0
LWPOLYLINE
  5
34
330
17
100
AcDbEntity
  8
0
100
AcDbPolyline
 90
48
 70
0
 10
58.55046316294525
 20
-0.009999999999999998
 10
59.057372055837114
 20
-0.009999999999999998
 10
59.04737205583711
 20
-0.02
 10
59.04737205583711
 20
-7.9799999999999995
 10
59.06737205583711
 20
-7.999999999999999
 10
59.971715728752535
 20
-7.999999999999999
 10
59.99999999999999
 20
-8.028284271247456
 10
59.99999999999999
 20
-15.971715728752544
 10
59.971715728752535
 20
-16.0
 10
59.55002441697177
 20
-16.0
 10
59.55018452346135
 20
-16.000195090322016
 10
59.512523034370375
 20
-16.18953218176091
 10
59.512998016884026
 20
-16.190678890987268
 10
59.97420756094481
 20
-16.49900008609184
 10
60.93183588475949
 20
-16.49943304239026
 10
60.93186339715947
 20
-16.438580125883334
 10
60.933058487379284
 20
-16.43759979271597
 10
60.95262794416289
 20
-16.441492399693132
 10
60.95262794416289
 20
-8.02
 10
60.93262794416289
 20
-8.0
 10
60.028284271247465
 20
-8.0
 10
60.00000000000001
 20
-7.971715728752544
 10
60.00000000000001
 20
-0.02
 10
59.98914213562374
 20
-0.009142135623729317
 10
59.99
 20
-0.008284271247460558
 10
60.01
 20
-0.008284271247460558
 10
60.011715728752534
 20
-0.009999999999999998
 10
60.49690889291319
 20
-0.009999999999999998
 10
60.46097819098718
 20
0.17063582514720343
 10
60.46076067979938
 20
0.1711609435701857
 10
60.35248372923114
 20
0.33320883879494473
 10
60.34278736786581
 20
0.34290519920504153
 10
60.12217748825851
 20
0.47128509620531134
 10
60.12137382322399
 20
0.4715063563880952
 10
59.98773312539534
 20
0.4632072476778025
 10
59.98667114463262
 20
0.4642053250220266
 10
59.98667114463262
 20
0.489
 10
59.28203535443577
 20
0.489
 10
59.28203535443582
 20
0.44771211689091067
 10
59.26493478185008
 20
0.489
 10
59.057884760528104
 20
0.489
 10
58.86673624218265
 20
0.45097819569474196
 10
58.86621112378485
 20
0.45076068453252116
 10
58.70416323459238
 20
0.3424837466541845
 10
58.69488830934604
 20
0.33320882140785135
 10
58.58661137146719
 20
0.17116093221446063
 10
58.58639386030496
 20
0.1706358138166268
 10
58.55046316294525
 20
-0.009999999999999998
  0
LWPOLYLINE
  5
35
330
17
100
AcDbEntity
  8
0
100
AcDbPolyline
 90
46
 70
0
 10
59.54890649927619
 20
-24.000000000000004
 10
59.971715728752535
 20
-24.000000000000004
 10
59.99999999999999
 20
-24.02828427124746
 10
59.99999999999999
 20
-31.971715728752546
 10
59.97171572875254
 20
-32.0
 10
59.06737205583711
 20
-32.0
 10
59.04737205583711
 20
-32.02
 10
59.04737205583711
 20
-39.980000000000004
 10
59.057372055837114
 20
-39.99000000000001
 10
58.550463162945256
 20
-39.99000000000001
 10
58.58639386030513
 20
-40.17063581381703
 10
58.58661137146736
 20
-40.17116093221486
 10
58.69488830934607
 20
-40.33320882140787
 10
58.7041632345924
 20
-40.342483746654196
 10
58.86621112378515
 20
-40.45076068453264
 10
58.866736349003645
 20
-40.45097823994144
 10
59.057656078339576
 20
-40.48899999271358
 10
59.26485374194683
 20
-40.4890948994499
 10
59.28203535443723
 20
-40.44761481755214
 10
59.28203535443722
 20
-40.489102769474776
 10
59.988422770697824
 20
-40.48942632970751
 10
60.086099053437486
 20
-40.479828631404075
 10
60.086995062023895
 20
-40.47965040400888
 10
60.342741541903216
 20
-40.342951026158595
 10
60.35248374665419
 20
-40.33320882140762
 10
60.46076068453264
 20
-40.17116093221486
 10
60.460978200961634
 20
-40.17063580110193
 10
60.4969140149805
 20
-39.99000000000001
 10
60.011715728752534
 20
-39.99000000000001
 10
60.01
 20
-39.991715728752546
 10
59.99
 20
-39.991715728752546
 10
59.98914213562373
 20
-39.990857864376274
 10
60.00000000000001
 20
-39.980000000000004
 10
60.00000000000001
 20
-32.02828427124746
 10
60.02828427124746
 20
-32.00000000000001
 10
60.93262794416289
 20
-32.00000000000001
 10
60.95262794416289
 20
-31.980000000000004
 10
60.95262794416289
 20
-23.556884087634753
 10
60.9322018193255
 20
-23.560772398958623
 10
60.93101481763263
 20
-23.559790039367197
 10
60.93101481763263
 20
-23.500999999999998
 10
59.97443328880834
 20
-23.500999999999998
 10
59.5129979696514
 20
-23.809321223042375
 10
59.512521844095936
 20
-23.810470691815777
 10
59.54906292022251
 20
-23.999810504666012
 10
59.54890649927619
 20
-24.000000000000004
  0
LWPOLYLINE
  5
36
330
17
100
AcDbEntity
  8
0
100
AcDbPolyline
 90
46
 70
0
 10
30.49691401483929
 20
-39.99000000000001
 10
30.011715728752538
 20
-39.99000000000001
 10
30.01
 20
-39.991715728752546
 10
29.99
 20
-39.991715728752546
 10
29.98914213562373
 20
-39.990857864376274
 10
30.0
 20
-39.980000000000004
 10
30.0
 20
-32.028284271247465
 10
30.02828427124746
 20
-32.00000000000001
 10
30.932627944162885
 20
-32.00000000000001
 10
30.952627944162884
 20
-31.980000000000004
 10
30.952627944162884
 20
-23.55688408763461
 10
30.932201819325503
 20
-23.560772398958488
 10
30.931014817632626
 20
-23.559790039367066
 10
30.931014817632626
 20
-23.500999999999998
 10
29.974433288808346
 20
-23.500999999999998
 10
29.512997969651398
 20
-23.809321223042375
 10
29.512521844095932
 20
-23.810470691815777
 10
29.54906292022249
 20
-23.999810504666012
 10
29.54890649927617
 20
-24.000000000000004
 10
29.971715728752535
 20
-24.000000000000004
 10
30.0
 20
-24.02828427124747
 10
30.0
 20
-31.97171572875254
 10
29.971715728752542
 20
-32.0
 10
29.067372055837115
 20
-32.0
 10
29.047372055837116
 20
-32.02
 10
29.047372055837116
 20
-39.980000000000004
 10
29.057372055837117
 20
-39.99000000000001
 10
28.55046316294527
 20
-39.99000000000001
 10
28.586393860305943
 20
-40.170635813819004
 10
28.586611371468177
 20
-40.17116093221683
 10
28.694888309345995
 20
-40.333208821407794
 10
28.704163234592336
 20
-40.34248374665413
 10
28.866211123785146
 20
-40.45076068453264
 10
28.866736355105733
 20
-40.450978242469006
 10
29.057643014784027
 20
-40.48899998913295
 10
29.26485149556689
 20
-40.489100322690945
 10
29.282035354435976
 20
-40.447614817555305
 10
29.282035354435934
 20
-40.48910864338175
 10
29.988450441144533
 20
-40.489450700515704
 10
30.12127791632234
 20
-40.47153276089455
 10
30.122177488257186
 20
-40.471285096205676
 10
30.34278736786572
 20
-40.34290519920513
 10
30.352483729231082
 20
-40.333208838795
 10
30.46076067979929
 20
-40.17116094357041
 10
30.46097819625388
 20
-40.17063581243229
 10
30.49691401483929
 20
-39.99000000000001
  0
LWPOLYLINE
  5
37
330
17
100
AcDbEntity
  8
0
100
AcDbPolyline
 90
16
 70
0
 10
30.952627944162884
 20
-16.441492399693264
 10
30.952627944162884
 20
-8.02
 10
30.932627944162885
 20
-8.0
 10
30.02
 20
-8.0
 10
30.0
 20
-8.02
 10
30.0
 20
-15.971715728752537
 10
29.971715728752535
 20
-16.0
 10
29.550024416971763
 20
-16.0
 10
29.550184523461336
 20
-16.000195090322016
 10
29.512523034370375
 20
-16.189532181760914
 10
29.51299801688403
 20
-16.190678890987268
 10
29.974207560944816
 20
-16.49900008609184
 10
30.93183588475949
 20
-16.49943304239026
 10
30.93186339715947
 20
-16.43858012588346
 10
30.933058487379284
 20
-16.437599792716096
 10
30.952627944162884
 20
-16.441492399693264
  0
LWPOLYLINE
  5
38
330
17
100
AcDbEntity
  8
0
100
AcDbPolyline
 90
46
 70
0
 10
180.9426279441629
 20
-0.009999999999999998
 10
181.44953683705475
 20
-0.009999999999999998
 10
181.41360613969508
 20
0.1706358138166004
 10
181.41338862853286
 20
0.17116093221434478
 10
181.30511169065383
 20
0.33320882140795405
 10
181.29583676540747
 20
0.3424837466543065
 10
181.13378887621334
 20
0.45076068453326457
 10
181.13326364489285
 20
0.45097824246960155
 10
180.94235698521595
 20
0.4889999891329545
 10
180.73514850443345
 20
0.489100322690944
 10
180.7179646455657
 20
0.4476148175584725
 10
180.71796464556581
 20
0.48910864338174614
 10
180.01154955885545
 20
0.4894507005156986
 10
179.87872208367904
 20
0.47153276089491103
 10
179.87782251174417
 20
0.47128509620604386
 10
179.65721263213416
 20
0.3429051992049984
 10
179.64751627076888
 20
0.333208838794951
 10
179.53923932020388
 20
0.1711609435780284
 10
179.53902180374934
 20
0.17063581244003156
 10
179.5030859851608
 20
-0.009999999999999998
 10
179.98828427124747
 20
-0.009999999999999998
 10
179.99
 20
-0.008284271247454924
 10
180.01
 20
-0.008284271247454924
 10
180.01085786437625
 20
-0.009142135623720956
 10
179.99999999999997
 20
-0.02
 10
179.99999999999997
 20
-7.971715728752553
 10
179.97171572875254
 20
-8.0
 10
179.0673720558371
 20
-8.0
 10
179.0473720558371
 20
-8.02
 10
179.0473720558371
 20
-16.443115912365798
 10
179.06779818067452
 20
-16.439227601041893
 10
179.06898518236738
 20
-16.440209960633315
 10
179.06898518236738
 20
-16.499
 10
180.02556671119163
 20
-16.499
 10
180.4870020303479
 20
-16.190678776959253
 10
180.48747815590335
 20
-16.18952930818588
 10
180.45093707977682
 20
-16.000189495333988
 10
180.45109350072315
 20
-15.999999999999996
 10
180.02828427124746
 20
-15.999999999999996
 10
180.00000000000003
 20
-15.97171572875255
 10
180.00000000000003
 20
-8.028284271247445
 10
180.02828427124746
 20
-7.999999999999999
 10
180.9326279441629
 20
-7.999999999999999
 10
180.9526279441629
 20
-7.9799999999999995
 10
180.9526279441629
 20
-0.02
 10
180.9426279441629
 20
-0.009999999999999998
  0
LWPOLYLINE
  5
39
330
17
100
AcDbEntity
  8
0
100
AcDbPolyline
 90
48
 70
0
 10
181.44953683705475
 20
-39.99000000000001
 10
180.9426279441629
 20
-39.99000000000001
 10
180.9526279441629
 20
-39.980000000000004
 10
180.9526279441629
 20
-32.02
 10
180.9326279441629
 20
-32.0
 10
180.02828427124746
 20
-32.0
 10
180.00000000000003
 20
-31.971715728752553
 10
180.00000000000003
 20
-24.028284271247447
 10
180.02828427124746
 20
-24.0
 10
180.44997558302757
 20
-24.0
 10
180.449815476538
 20
-23.999804909677984
 10
180.48747696562893
 20
-23.810467818237438
 10
180.48700198311528
 20
-23.809321109011105
 10
180.02579243905515
 20
-23.50099991390816
 10
179.06816411524053
 20
-23.500566957609752
 10
179.06813660284055
 20
-23.561419874116154
 10
179.06694151262073
 20
-23.562400207283517
 10
179.0473720558371
 20
-23.55850760030632
 10
179.0473720558371
 20
-31.980000000000004
 10
179.0673720558371
 20
-32.00000000000001
 10
179.97171572875254
 20
-32.00000000000001
 10
179.99999999999997
 20
-32.02828427124745
 10
179.99999999999997
 20
-39.980000000000004
 10
180.01085786437625
 20
-39.99085786437629
 10
180.01
 20
-39.99171572875255
 10
179.99
 20
-39.99171572875255
 10
179.98828427124747
 20
-39.99000000000001
 10
179.50309110708687
 20
-39.99000000000001
 10
179.53902180901613
 20
-40.17063582515529
 10
179.53923932020393
 20
-40.17116094357822
 10
179.64751627076888
 20
-40.33320883879495
 10
179.65721263213416
 20
-40.342905199205
 10
179.87782251174534
 20
-40.471285096206365
 10
179.87862617677987
 20
-40.47150635638914
 10
180.01226687460465
 20
-40.46320724767809
 10
180.01332885536738
 20
-40.46420532502231
 10
180.01332885536738
 20
-40.489
 10
180.71796464556533
 20
-40.489
 10
180.71796464556525
 20
-40.44761481755756
 10
180.73510694941416
 20
-40.489
 10
180.94211523947186
 20
-40.489
 10
181.1332637578154
 20
-40.45097819569554
 10
181.13378887621317
 20
-40.450760684533336
 10
181.29583676540756
 20
-40.34248374665421
 10
181.30511169065392
 20
-40.33320882140786
 10
181.4133886285327
 20
-40.17116093221479
 10
181.41360613969488
 20
-40.17063581381705
 10
181.44953683705475
 20
-39.99000000000001
  0
LWPOLYLINE
  5
3A
330
17
100
AcDbEntity
  8
0
100
AcDbPolyline
 90
31
 70
0
 10
89.50309110694523
 20
-0.009999999999999998
 10
89.98828427124747
 20
-0.009999999999999998
 10
89.99
 20
-0.008284271247466196
 10
90.01
 20
-0.008284271247466196
 10
90.01085786437628
 20
-0.00914213562373768
 10
90.00000000000001
 20
-0.02
 10
90.00000000000001
 20
-7.9799999999999995
 10
90.02000000000001
 20
-7.999999999999999
 10
90.93262794416287
 20
-7.999999999999999
 10
90.95262794416287
 20
-7.9799999999999995
 10
90.95262794416287
 20
-0.02
 10
90.94262794416287
 20
-0.009999999999999998
 10
91.44953683705477
 20
-0.009999999999999998
 10
91.413606139695
 20
0.1706358138167514
 10
91.41338862853281
 20
0.17116093221449716
 10
91.3051116906542
 20
0.33320882140761426
 10
91.29583676540786
 20
0.342483746653969
 10
91.13378887621379
 20
0.45076068453309287
 10
91.13326365099533
 20
0.45097823994187825
 10
90.94234392166042
 20
0.48899999271358097
 10
90.73514625805323
 20
0.489094899449905
 10
90.71796464556273
 20
0.44761481755189236
 10
90.71796464556273
 20
0.4891027694747782
 10
90.01157722930218
 20
0.48942632970750716
 10
89.9139009465603
 20
0.47982863140362964
 10
89.91300493797388
 20
0.4796504040084269
 10
89.65725845809702
 20
0.3429510261588136
 10
89.64751625334601
 20
0.33320882140781893
 10
89.53923931546714
 20
0.17116093221439949
 10
89.53902180430495
 20
0.17063581381665463
 10
89.50309110694523
 20
-0.009999999999999998
  0
LWPOLYLINE
  5
3B
330
17
100
AcDbEntity
  8
0
100
AcDbPolyline
 90
33
 70
0
 10
118.55046316294523
 20
-0.009999999999999998
 10
119.05737205583713
 20
-0.009999999999999998
 10
119.04737205583713
 20
-0.02
 10
119.04737205583713
 20
-7.9799999999999995
 10
119.06737205583713
 20
-7.999999999999999
 10
119.97999999999999
 20
-7.999999999999999
 10
119.99999999999999
 20
-7.9799999999999995
 10
119.99999999999999
 20
-0.02
 10
119.98914213562372
 20
-0.00914213562373768
 10
119.99
 20
-0.008284271247466196
 10
120.01
 20
-0.008284271247466196
 10
120.01171572875253
 20
-0.009999999999999998
 10
120.49690889305477
 20
-0.009999999999999998
 10
120.46097819569505
 20
0.17063581381665463
 10
120.46076068453286
 20
0.17116093221439949
 10
120.35248374665399
 20
0.33320882140781893
 10
120.34274154190298
 20
0.3429510261588136
 10
120.08699506202612
 20
0.4796504040084269
 10
120.08619624360394
 20
0.4798092990556228
 10
119.98776916267266
 20
0.47011511070912726
 10
119.98667114586262
 20
0.4711102954683293
 10
119.98667114586262
 20
0.489
 10
119.28203535443727
 20
0.489
 10
119.28203535443727
 20
0.44761481755189236
 10
119.26489305058598
 20
0.489
 10
119.05788476052808
 20
0.489
 10
118.86673624218403
 20
0.45097819569531983
 10
118.86621112378621
 20
0.45076068453309287
 10
118.70416323459214
 20
0.342483746653969
 10
118.6948883093458
 20
0.33320882140761426
 10
118.58661137146719
 20
0.17116093221449716
 10
118.586393860305
 20
0.1706358138167514
 10
118.55046316294523
 20
-0.009999999999999998
  0
LWPOLYLINE
  5
3C
330
17
100
AcDbEntity
  8
0
100
AcDbPolyline
 90
48
 70
0
 10
148.55046316294525
 20
-0.009999999999999998
 10
149.0573720558371
 20
-0.009999999999999998
 10
149.0473720558371
 20
-0.02
 10
149.0473720558371
 20
-7.9799999999999995
 10
149.0673720558371
 20
-7.999999999999999
 10
149.97171572875254
 20
-7.999999999999999
 10
149.99999999999997
 20
-8.028284271247445
 10
149.99999999999997
 20
-15.971715728752553
 10
149.97171572875254
 20
-16.0
 10
149.55002441697243
 20
-16.0
 10
149.550184523462
 20
-16.000195090322016
 10
149.51252303437107
 20
-16.18953218176256
 10
149.51299801688472
 20
-16.19067889098889
 10
149.97420756094485
 20
-16.49900008609184
 10
150.93183588475947
 20
-16.499433042390248
 10
150.93186339715945
 20
-16.438580125883846
 10
150.93305848737927
 20
-16.437599792716483
 10
150.9526279441629
 20
-16.44149239969368
 10
150.9526279441629
 20
-8.02
 10
150.9326279441629
 20
-8.0
 10
150.02828427124746
 20
-8.0
 10
150.00000000000003
 20
-7.971715728752553
 10
150.00000000000003
 20
-0.02
 10
149.98914213562375
 20
-0.009142135623720956
 10
149.99
 20
-0.008284271247454924
 10
150.01
 20
-0.008284271247454924
 10
150.01171572875253
 20
-0.009999999999999998
 10
150.49690889291313
 20
-0.009999999999999998
 10
150.46097819098392
 20
0.17063582515509895
 10
150.46076067979612
 20
0.1711609435780284
 10
150.35248372923112
 20
0.333208838794951
 10
150.34278736786584
 20
0.3429051992049984
 10
150.12217748825583
 20
0.47128509620604386
 10
150.1213738232213
 20
0.4715063563888259
 10
149.98773312539535
 20
0.4632072476780055
 10
149.98667114463262
 20
0.4642053250222293
 10
149.98667114463262
 20
0.489
 10
149.28203535443419
 20
0.489
 10
149.2820353544343
 20
0.44771211689405843
 10
149.2649347818499
 20
0.489
 10
149.05788476052814
 20
0.489
 10
148.8667362421844
 20
0.4509781956954647
 10
148.86621112378666
 20
0.45076068453326457
 10
148.70416323459253
 20
0.3424837466543065
 10
148.69488830934617
 20
0.33320882140795405
 10
148.58661137146714
 20
0.17116093221434478
 10
148.58639386030492
 20
0.1706358138166004
 10
148.55046316294525
 20
-0.009999999999999998
  0
LWPOLYLINE
  5
3D
330
17
100
AcDbEntity
  8
0
100
AcDbPolyline
 90
46
 70
0
 10
149.54890649927685
 20
-24.000000000000004
 10
149.97171572875254
 20
-24.000000000000004
 10
149.99999999999997
 20
-24.02828427124745
 10
149.99999999999997
 20
-31.971715728752553
 10
149.97171572875254
 20
-32.0
 10
149.0673720558371
 20
-32.0
 10
149.0473720558371
 20
-32.02
 10
149.0473720558371
 20
-39.980000000000004
 10
149.0573720558371
 20
-39.99000000000001
 10
148.55046316294525
 20
-39.99000000000001
 10
148.58639386030512
 20
-40.17063581381705
 10
148.5866113714673
 20
-40.17116093221479
 10
148.69488830934608
 20
-40.33320882140786
 10
148.70416323459244
 20
-40.34248374665421
 10
148.86621112378683
 20
-40.450760684533336
 10
148.86673635510738
 20
-40.45097824246969
 10
149.05764301478405
 20
-40.48899998913295
 10
149.26485149556663
 20
-40.48910032269094
 10
149.28203535443475
 20
-40.44761481755756
 10
149.28203535443467
 20
-40.48910864338174
 10
149.98845044114452
 20
-40.4894507005157
 10
150.1212779163198
 20
-40.47153276089523
 10
150.12217748825466
 20
-40.471285096206365
 10
150.34278736786584
 20
-40.342905199205
 10
150.35248372923112
 20
-40.33320883879495
 10
150.46076067979607
 20
-40.17116094357822
 10
150.4609781962506
 20
-40.17063581244022
 10
150.4969140148392
 20
-39.99000000000001
 10
150.01171572875253
 20
-39.99000000000001
 10
150.01
 20
-39.99171572875255
 10
149.99
 20
-39.99171572875255
 10
149.98914213562375
 20
-39.99085786437629
 10
150.00000000000003
 20
-39.980000000000004
 10
150.00000000000003
 20
-32.02828427124745
 10
150.02828427124746
 20
-32.00000000000001
 10
150.9326279441629
 20
-32.00000000000001
 10
150.9526279441629
 20
-31.980000000000004
 10
150.9526279441629
 20
-23.556884087634263
 10
150.9322018193255
 20
-23.56077239895817
 10
150.93101481763264
 20
-23.55979003936675
 10
150.93101481763264
 20
-23.500999999999998
 10
149.97443328880837
 20
-23.500999999999998
 10
149.5129979696521
 20
-23.809321223040744
 10
149.51252184409665
 20
-23.810470691814118
 10
149.54906292022318
 20
-23.999810504666012
 10
149.54890649927685
 20
-24.000000000000004
  0
LWPOLYLINE
  5
3E
330
17
100
AcDbEntity
  8
0
100
AcDbPolyline
 90
31
 70
0
 10
120.49690889305477
 20
-39.99000000000001
 10
120.01171572875253
 20
-39.99000000000001
 10
120.01
 20
-39.991715728752546
 10
119.99
 20
-39.991715728752546
 10
119.98914213562372
 20
-39.990857864376274
 10
119.99999999999999
 20
-39.980000000000004
 10
119.99999999999999
 20
-32.02
 10
119.97999999999999
 20
-32.0
 10
119.06737205583713
 20
-32.0
 10
119.04737205583713
 20
-32.02
 10
119.04737205583713
 20
-39.980000000000004
 10
119.05737205583713
 20
-39.99000000000001
 10
118.55046316294523
 20
-39.99000000000001
 10
118.58639386030512
 20
-40.17063581381706
 10
118.58661137146731
 20
-40.171160932214796
 10
118.69488830934591
 20
-40.33320882140774
 10
118.70416323459227
 20
-40.34248374665408
 10
118.86621112378675
 20
-40.45076068453332
 10
118.86673634900524
 20
-40.45097823994211
 10
119.05765607833959
 20
-40.48899999271358
 10
119.26485374194685
 20
-40.4890948994499
 10
119.28203535443713
 20
-40.44761481755243
 10
119.28203535443713
 20
-40.489102769474776
 10
119.98842277069781
 20
-40.48942632970751
 10
120.08609905344055
 20
-40.479828631403464
 10
120.08699506202699
 20
-40.479650404008254
 10
120.34274154190295
 20
-40.34295102615885
 10
120.35248374665396
 20
-40.33320882140786
 10
120.46076068453269
 20
-40.171160932214796
 10
120.46097819569488
 20
-40.17063581381706
 10
120.49690889305477
 20
-39.99000000000001
  0
LWPOLYLINE
  5
3F
330
17
100
AcDbEntity
  8
0
100
AcDbPolyline
 90
33
 70
0
 10
91.44953683705477
 20
-39.99000000000001
 10
90.94262794416287
 20
-39.99000000000001
 10
90.95262794416287
 20
-39.980000000000004
 10
90.95262794416287
 20
-32.02
 10
90.93262794416287
 20
-32.0
 10
90.02000000000001
 20
-32.0
 10
90.00000000000001
 20
-32.02
 10
90.00000000000001
 20
-39.980000000000004
 10
90.01085786437628
 20
-39.990857864376274
 10
90.01
 20
-39.991715728752546
 10
89.99
 20
-39.991715728752546
 10
89.98828427124747
 20
-39.99000000000001
 10
89.50309110694523
 20
-39.99000000000001
 10
89.53902180430512
 20
-40.17063581381706
 10
89.53923931546731
 20
-40.171160932214796
 10
89.64751625334604
 20
-40.33320882140786
 10
89.65725845809705
 20
-40.34295102615885
 10
89.91300493797301
 20
-40.479650404008254
 10
89.91380375639518
 20
-40.479809299055454
 10
90.01223083732732
 20
-40.4701151107086
 10
90.01332885413738
 20
-40.4711102954678
 10
90.01332885413738
 20
-40.489
 10
90.71796464556287
 20
-40.489
 10
90.71796464556287
 20
-40.44761481755243
 10
90.73510694941395
 20
-40.489
 10
90.9421152394719
 20
-40.489
 10
91.1332637578154
 20
-40.450978195695555
 10
91.13378887621325
 20
-40.45076068453332
 10
91.29583676540773
 20
-40.34248374665408
 10
91.30511169065409
 20
-40.33320882140774
 10
91.41338862853269
 20
-40.171160932214796
 10
91.41360613969488
 20
-40.17063581381706
 10
91.44953683705477
 20
-39.99000000000001
  0
LWPOLYLINE
  5
40
330
17
100
AcDbEntity
  8
0
100
AcDbPolyline
 90
16
 70
0
 10
120.02000000000001
 20
-32.00000000000001
 10
120.93262794416287
 20
-32.00000000000001
 10
120.95262794416287
 20
-31.980000000000004
 10
120.95262794416287
 20
-23.556884087634216
 10
120.9322018193255
 20
-23.560772398958115
 10
120.93101481763262
 20
-23.559790039366693
 10
120.93101481763262
 20
-23.500999999999998
 10
119.97443328880834
 20
-23.500999999999998
 10
119.51299796965206
 20
-23.809321223040744
 10
119.5125218440966
 20
-23.81047069181414
 10
119.54906292022316
 20
-23.999810504666012
 10
119.54890649927685
 20
-24.000000000000004
 10
119.97171572875254
 20
-24.000000000000004
 10
120.00000000000001
 20
-24.02828427124747
 10
120.00000000000001
 20
-31.980000000000004
 10
120.02000000000001
 20
-32.00000000000001
  0
LWPOLYLINE
  5
41
330
17
100
AcDbEntity
  8
0
100
AcDbPolyline
 90
16
 70
0
 10
120.95262794416287
 20
-16.441492399693676
 10
120.95262794416287
 20
-8.02
 10
120.93262794416287
 20
-8.0
 10
120.02000000000001
 20
-8.0
 10
120.00000000000001
 20
-8.02
 10
120.00000000000001
 20
-15.971715728752534
 10
119.97171572875254
 20
-16.0
 10
119.5500244169724
 20
-16.0
 10
119.55018452346198
 20
-16.000195090322016
 10
119.51252303437103
 20
-16.18953218176256
 10
119.5129980168847
 20
-16.190678890988906
 10
119.97420756094482
 20
-16.49900008609184
 10
120.93183588475948
 20
-16.499433042390255
 10
120.93186339715946
 20
-16.438580125883853
 10
120.93305848737928
 20
-16.43759979271649
 10
120.95262794416287
 20
-16.441492399693676
  0
LWPOLYLINE
  5
42
330
17
100
AcDbEntity
  8
0
100
AcDbPolyline
 90
16
 70
0
 10
89.06737205583713
 20
-32.00000000000001
 10
89.97999999999999
 20
-32.00000000000001
 10
89.99999999999999
 20
-31.980000000000004
 10
89.99999999999999
 20
-24.028284271247465
 10
90.02828427124746
 20
-24.0
 10
90.44997558302758
 20
-24.0
 10
90.449815476538
 20
-23.999804909677984
 10
90.48747696562897
 20
-23.810467818237438
 10
90.4870019831153
 20
-23.80932110901109
 10
90.02579243905518
 20
-23.50099991390816
 10
89.06816411524052
 20
-23.500566957609745
 10
89.06813660284054
 20
-23.561419874116147
 10
89.06694151262072
 20
-23.56240020728351
 10
89.04737205583713
 20
-23.558507600306324
 10
89.04737205583713
 20
-31.980000000000004
 10
89.06737205583713
 20
-32.00000000000001
  0
LWPOLYLINE
  5
43
330
17
100
AcDbEntity
  8
0
100
AcDbPolyline
 90
16
 70
0
 10
90.45109350072315
 20
-15.999999999999996
 10
90.02828427124746
 20
-15.999999999999996
 10
89.99999999999999
 20
-15.97171572875253
 10
89.99999999999999
 20
-8.02
 10
89.97999999999999
 20
-8.0
 10
89.06737205583713
 20
-8.0
 10
89.04737205583713
 20
-8.02
 10
89.04737205583713
 20
-16.443115912365773
 10
89.0677981806745
 20
-16.439227601041875
 10
89.06898518236738
 20
-16.440209960633297
 10
89.06898518236738
 20
-16.499
 10
90.02556671119166
 20
-16.499
 10
90.48700203034794
 20
-16.190678776959253
 10
90.4874781559034
 20
-16.189529308185858
 10
90.45093707977684
 20
-16.000189495333988
 10
90.45109350072315
 20
-15.999999999999996
  0
LWPOLYLINE
  5
44
330
17
100
AcDbEntity
  8
0
100
AcDbPolyline
 90
33
 70
0
 10
252.51
 20
-49.99171572875255
 10
252.46196320100807
 20
-49.503989923712226
 10
252.3196988312782
 20
-49.03500714783982
 10
252.08867403075635
 20
-48.60279014620354
 10
251.77776695296635
 20
-48.22394877578618
 10
251.398925582549
 20
-47.913041697996185
 10
250.9667085809127
 20
-47.682016897474334
 10
250.4977258050403
 20
-47.539752527744476
 10
250.01
 20
-47.49171572875255
 10
249.52227419495966
 20
-47.539752527744476
 10
249.05329141908726
 20
-47.68201689747434
 10
248.62107441745098
 20
-47.91304169799619
 10
248.2422330470336
 20
-48.22394877578619
 10
247.93132596924363
 20
-48.60279014620355
 10
247.70030116872178
 20
-49.035007147839835
 10
247.5580367989919
 20
-49.50398992371224
 10
247.51
 20
-49.99171572875256
 10
247.5580367989919
 20
-50.47944153379288
 10
247.70030116872178
 20
-50.948424309665285
 10
247.93132596924363
 20
-51.38064131130157
 10
248.24223304703364
 20
-51.75948268171893
 10
248.62107441745098
 20
-52.07038975950892
 10
249.05329141908726
 20
-52.30141456003077
 10
249.52227419495966
 20
-52.44367892976063
 10
250.01
 20
-52.49171572875255
 10
250.49772580504032
 20
-52.44367892976063
 10
250.96670858091272
 20
-52.30141456003077
 10
251.398925582549
 20
-52.07038975950891
 10
251.77776695296637
 20
-51.75948268171892
 10
252.08867403075635
 20
-51.38064131130156
 10
252.3196988312782
 20
-50.94842430966528
 10
252.46196320100807
 20
-50.47944153379287
 10
252.51
 20
-49.99171572875255
  0
LWPOLYLINE
  5
45
330
17
100
AcDbEntity
  8
0
100
AcDbPolyline
 90
33
 70
0
 10
-7.49
 20
-49.99171572875255
 10
-7.538036798991925
 20
-49.503989923712226
 10
-7.680301168721785
 20
-49.03500714783982
 10
-7.911325969243641
 20
-48.60279014620354
 10
-8.222233047033637
 20
-48.22394877578618
 10
-8.601074417451
 20
-47.913041697996185
 10
-9.033291419087284
 20
-47.682016897474334
 10
-9.502274194959687
 20
-47.539752527744476
 10
-9.990000000000009
 20
-47.49171572875255
 10
-10.47772580504033
 20
-47.539752527744476
 10
-10.946708580912734
 20
-47.68201689747434
 10
-11.378925582549014
 20
-47.91304169799619
 10
-11.757766952966376
 20
-48.22394877578619
 10
-12.06867403075637
 20
-48.60279014620355
 10
-12.29969883127822
 20
-49.035007147839835
 10
-12.441963201008079
 20
-49.50398992371224
 10
-12.49
 20
-49.99171572875256
 10
-12.441963201008075
 20
-50.47944153379288
 10
-12.299698831278214
 20
-50.948424309665285
 10
-12.068674030756359
 20
-51.38064131130157
 10
-11.757766952966366
 20
-51.75948268171893
 10
-11.378925582549002
 20
-52.07038975950892
 10
-10.94670858091272
 20
-52.30141456003077
 10
-10.477725805040317
 20
-52.44367892976063
 10
-9.989999999999997
 20
-52.49171572875255
 10
-9.502274194959677
 20
-52.44367892976063
 10
-9.033291419087274
 20
-52.30141456003077
 10
-8.601074417450992
 20
-52.07038975950891
 10
-8.22223304703363
 20
-51.75948268171892
 10
-7.911325969243636
 20
-51.38064131130156
 10
-7.680301168721783
 20
-50.94842430966528
 10
-7.538036798991923
 20
-50.47944153379287
 10
-7.49
 20
-49.99171572875255
  0
LWPOLYLINE
  5
46
330
17
100
AcDbEntity
  8
0
100
AcDbPolyline
 90
33
 70
0
 10
252.51
 20
10.008284271247447
 10
252.46196320100807
 20
10.496010076287774
 10
252.3196988312782
 20
10.964992852160178
 10
252.08867403075635
 20
11.397209853796458
 10
251.77776695296635
 20
11.776051224213822
 10
251.398925582549
 20
12.086958302003815
 10
250.9667085809127
 20
12.317983102525668
 10
250.4977258050403
 20
12.460247472255524
 10
250.01
 20
12.508284271247447
 10
249.52227419495966
 20
12.46024747225552
 10
249.05329141908726
 20
12.31798310252566
 10
248.62107441745098
 20
12.086958302003804
 10
248.2422330470336
 20
11.77605122421381
 10
247.93132596924363
 20
11.397209853796445
 10
247.70030116872178
 20
10.964992852160163
 10
247.5580367989919
 20
10.49601007628776
 10
247.51
 20
10.008284271247438
 10
247.5580367989919
 20
9.520558466207119
 10
247.70030116872178
 20
9.051575690334717
 10
247.93132596924363
 20
8.619358688698437
 10
248.24223304703364
 20
8.240517318281075
 10
248.62107441745098
 20
7.9296102404910815
 10
249.05329141908726
 20
7.698585439969229
 10
249.52227419495966
 20
7.55632107023937
 10
250.01
 20
7.508284271247447
 10
250.49772580504032
 20
7.556321070239372
 10
250.96670858091272
 20
7.698585439969232
 10
251.398925582549
 20
7.929610240491085
 10
251.77776695296637
 20
8.24051731828108
 10
252.08867403075635
 20
8.619358688698442
 10
252.3196988312782
 20
9.051575690334724
 10
252.46196320100807
 20
9.520558466207127
 10
252.51
 20
10.008284271247447
  0
LWPOLYLINE
  5
47
330
17
100
AcDbEntity
  8
0
100
AcDbPolyline
 90
33
 70
0
 10
-7.49
 20
10.008284271247447
 10
-7.538036798991925
 20
10.496010076287774
 10
-7.680301168721785
 20
10.964992852160178
 10
-7.911325969243641
 20
11.397209853796458
 10
-8.222233047033637
 20
11.776051224213822
 10
-8.601074417451
 20
12.086958302003815
 10
-9.033291419087284
 20
12.317983102525668
 10
-9.502274194959687
 20
12.460247472255524
 10
-9.990000000000009
 20
12.508284271247447
 10
-10.47772580504033
 20
12.46024747225552
 10
-10.946708580912734
 20
12.31798310252566
 10
-11.378925582549014
 20
12.086958302003804
 10
-11.757766952966376
 20
11.77605122421381
 10
-12.06867403075637
 20
11.397209853796445
 10
-12.29969883127822
 20
10.964992852160163
 10
-12.441963201008079
 20
10.49601007628776
 10
-12.49
 20
10.008284271247438
 10
-12.441963201008075
 20
9.520558466207119
 10
-12.299698831278214
 20
9.051575690334717
 10
-12.068674030756359
 20
8.619358688698437
 10
-11.757766952966366
 20
8.240517318281075
 10
-11.378925582549002
 20
7.9296102404910815
 10
-10.94670858091272
 20
7.698585439969229
 10
-10.477725805040317
 20
7.55632107023937
 10
-9.989999999999997
 20
7.508284271247447
 10
-9.502274194959677
 20
7.556321070239372
 10
-9.033291419087274
 20
7.698585439969232
 10
-8.601074417450992
 20
7.929610240491085
 10
-8.22223304703363
 20
8.24051731828108
 10
-7.911325969243636
 20
8.619358688698442
 10
-7.680301168721783
 20
9.051575690334724
 10
-7.538036798991923
 20
9.520558466207127
 10
-7.49
 20
10.008284271247447
  0
LWPOLYLINE
  5
48
330
17
100
AcDbEntity
  8
0
100
AcDbPolyline
 90
7
 70
0
 10
-4.62359375
 20
-52.49171572875255
 10
-2.38765625
 20
-52.49171572875255
 10
-2.38765625
 20
-52.06905947875255
 10
-4.15015625
 20
-52.06905947875255
 10
-4.15015625
 20
-48.91280947875255
 10
-4.62359375
 20
-48.91280947875255
 10
-4.62359375
 20
-52.49171572875255
  0
LWPOLYLINE
  5
49
330
17
100
AcDbEntity
  8
0
100
AcDbPolyline
 90
46
 70
0
 10
10.768984375
 20
-52.49171572875255
 10
10.768984375
 20
-48.89796572875255
 10
10.486171875
 20
-48.89796572875255
 10
10.46159375
 20
-48.94452041625255
 10
10.433796875
 20
-48.991371978752554
 10
10.40278125
 20
-49.03852041625255
 10
10.368546875000002
 20
-49.085965728752555
 10
10.331093749999999
 20
-49.133707916252554
 10
10.290421875
 20
-49.18174697875255
 10
10.24653125
 20
-49.23008291625255
 10
10.199421875000002
 20
-49.27871572875255
 10
10.14909375
 20
-49.32764541625255
 10
10.095546875
 20
-49.376871978752554
 10
10.0394609375
 20
-49.42536416625255
 10
9.981515625000002
 20
-49.472403228752555
 10
9.9217109375
 20
-49.517989166252555
 10
9.860046875
 20
-49.56212197875255
 10
9.7965234375
 20
-49.604801666252555
 10
9.731140625000002
 20
-49.646028228752556
 10
9.6638984375
 20
-49.68580166625255
 10
9.594796875000004
 20
-49.72412197875255
 10
9.523835937500003
 20
-49.76098916625255
 10
9.451015625
 20
-49.79640322875255
 10
9.451015625
 20
-50.22140322875255
 10
9.492484375000002
 20
-50.205489166252555
 10
9.535015625000002
 20
-50.18805947875255
 10
9.578609375000001
 20
-50.169114166252555
 10
9.623265625
 20
-50.14865322875255
 10
9.668984375
 20
-50.12667666625255
 10
9.715765625000001
 20
-50.10318447875255
 10
9.763609375
 20
-50.07817666625255
 10
9.812515625000003
 20
-50.05165322875255
 10
9.862484375000003
 20
-50.02361416625255
 10
9.913515625
 20
-49.994059478752554
 10
9.9640859375
 20
-49.963754791252555
 10
10.012671875
 20
-49.93346572875255
 10
10.0592734375
 20
-49.90319229125255
 10
10.103890625
 20
-49.872934478752555
 10
10.146523437499999
 20
-49.842692291252554
 10
10.187171875000002
 20
-49.81246572875255
 10
10.225835937500001
 20
-49.782254791252555
 10
10.262515625000004
 20
-49.75205947875255
 10
10.297210937500001
 20
-49.721879791252555
 10
10.329921875
 20
-49.691715728752555
 10
10.329921875
 20
-52.49171572875255
 10
10.768984375
 20
-52.49171572875255
  0
LWPOLYLINE
  5
4A
330
17
100
AcDbEntity
  8
0
100
AcDbPolyline
 90
77
 70
0
 10
6.177285156250001
 20
-52.49171572875255
 10
6.616347656250001
 20
-52.49171572875255
 10
6.616347656250001
 20
-51.13390322875255
 10
6.617082031250002
 20
-51.078715728752556
 10
6.619285156250003
 20
-51.024403228752554
 10
6.622957031250001
 20
-50.97096572875255
 10
6.6280976562500005
 20
-50.91840322875255
 10
6.6347070312500005
 20
-50.86671572875255
 10
6.642785156250003
 20
-50.81590322875255
 10
6.652332031249999
 20
-50.765965728752555
 10
6.663347656250004
 20
-50.71690322875255
 10
6.6758320312500015
 20
-50.66871572875255
 10
6.68978515625
 20
-50.621403228752555
 10
6.7001367187500005
 20
-50.59129385375255
 10
6.71181640625
 20
-50.562528228752555
 10
6.724824218749999
 20
-50.53510635375255
 10
6.739160156250001
 20
-50.509028228752555
 10
6.7548242187500005
 20
-50.484293853752554
 10
6.77181640625
 20
-50.46090322875255
 10
6.79013671875
 20
-50.438856353752556
 10
6.809785156250003
 20
-50.41815322875255
 10
6.830761718750001
 20
-50.39879385375255
 10
6.853066406250001
 20
-50.380778228752554
 10
6.876332031250001
 20
-50.36430166625255
 10
6.900191406250002
 20
-50.34955947875255
 10
6.924644531250001
 20
-50.336551666252554
 10
6.949691406250002
 20
-50.32527822875255
 10
6.975332031250002
 20
-50.315739166252555
 10
7.001566406250001
 20
-50.30793447875255
 10
7.028394531250001
 20
-50.30186416625255
 10
7.055816406250004
 20
-50.297528228752554
 10
7.083832031250001
 20
-50.29492666625255
 10
7.112441406250001
 20
-50.29405947875255
 10
7.14462890625
 20
-50.295012603752554
 10
7.176816406250003
 20
-50.29787197875255
 10
7.20900390625
 20
-50.30263760375255
 10
7.241191406250001
 20
-50.30930947875255
 10
7.2733789062500005
 20
-50.31788760375255
 10
7.305566406250001
 20
-50.32837197875255
 10
7.337753906250001
 20
-50.34076260375255
 10
7.3699414062500015
 20
-50.35505947875255
 10
7.402128906250001
 20
-50.371262603752555
 10
7.43431640625
 20
-50.38937197875255
 10
7.5858789062500005
 20
-49.98155947875255
 10
7.540019531250001
 20
-49.954692291252556
 10
7.494316406250002
 20
-49.930653228752554
 10
7.448769531249999
 20
-49.90944229125255
 10
7.4033789062499995
 20
-49.89105947875255
 10
7.35814453125
 20
-49.87550479125255
 10
7.31306640625
 20
-49.86277822875255
 10
7.26814453125
 20
-49.852879791252555
 10
7.223378906250003
 20
-49.84580947875255
 10
7.178769531250001
 20
-49.84156729125255
 10
7.134316406250001
 20
-49.840153228752555
 10
7.103792968750001
 20
-49.84103604125255
 10
7.073785156250002
 20
-49.84368447875255
 10
7.0442929687500015
 20
-49.848098541252554
 10
7.015316406249999
 20
-49.854278228752555
 10
6.986855468750001
 20
-49.862223541252554
 10
6.958910156250001
 20
-49.87193447875255
 10
6.931480468750001
 20
-49.88341104125255
 10
6.904566406250003
 20
-49.896653228752555
 10
6.878167968750001
 20
-49.91166104125255
 10
6.85228515625
 20
-49.92843447875255
 10
6.82642578125
 20
-49.947817291252555
 10
6.800097656250001
 20
-49.97096572875255
 10
6.773300781250001
 20
-49.99787979125255
 10
6.7460351562500005
 20
-50.028559478752555
 10
6.718300781250001
 20
-50.06300479125255
 10
6.69009765625
 20
-50.10121572875255
 10
6.661425781249999
 20
-50.143192291252554
 10
6.632285156250003
 20
-50.18893447875255
 10
6.602675781250001
 20
-50.238442291252554
 10
6.57259765625
 20
-50.29171572875255
 10
6.57259765625
 20
-49.898746978752555
 10
6.177285156250001
 20
-49.898746978752555
 10
6.177285156250001
 20
-52.49171572875255
  0
LWPOLYLINE
  5
4B
330
17
100
AcDbEntity
  8
0
100
AcDbPolyline
 90
133
 70
0
 10
5.1762109375000005
 20
-51.656559478752555
 10
5.1555
 20
-51.71067666625255
 10
5.133367187500001
 20
-51.761778228752554
 10
5.1098125
 20
-51.80986416625255
 10
5.084835937500001
 20
-51.854934478752554
 10
5.058437500000002
 20
-51.89698916625255
 10
5.030617187500001
 20
-51.936028228752555
 10
5.0013749999999995
 20
-51.972051666252554
 10
4.970710937500002
 20
-52.00505947875255
 10
4.938625000000002
 20
-52.03505166625255
 10
4.9051171875
 20
-52.06202822875255
 10
4.8701953125
 20
-52.086075103752556
 10
4.833867187500001
 20
-52.107590728752555
 10
4.7961328125
 20
-52.12657510375255
 10
4.756992187500002
 20
-52.143028228752556
 10
4.716445312500001
 20
-52.15695010375255
 10
4.6744921875
 20
-52.168340728752554
 10
4.631132812500001
 20
-52.177200103752554
 10
4.586367187500002
 20
-52.18352822875255
 10
4.540195312500002
 20
-52.18732510375255
 10
4.4926171875000005
 20
-52.18859072875255
 10
4.4286953125
 20
-52.18632510375255
 10
4.366929687500001
 20
-52.17952822875255
 10
4.3073203125
 20
-52.168200103752554
 10
4.2498671875
 20
-52.152340728752556
 10
4.1945703125
 20
-52.13195010375255
 10
4.141429687499999
 20
-52.107028228752554
 10
4.0904453125
 20
-52.07757510375255
 10
4.0416171875
 20
-52.043590728752555
 10
3.9949453125000005
 20
-52.00507510375255
 10
3.9504296875
 20
-51.96202822875255
 10
3.908921874999999
 20
-51.91455947875255
 10
3.8712734374999993
 20
-51.86309072875255
 10
3.8374843750000007
 20
-51.80762197875255
 10
3.8075546874999997
 20
-51.74815322875255
 10
3.781484375
 20
-51.68468447875255
 10
3.759273437500001
 20
-51.617215728752555
 10
3.7409218750000015
 20
-51.545746978752554
 10
3.726429687500003
 20
-51.470278228752555
 10
3.7157968750000006
 20
-51.39080947875255
 10
3.709023437500001
 20
-51.30734072875255
 10
5.642617187500001
 20
-51.30734072875255
 10
5.643062500000001
 20
-51.29210635375255
 10
5.6434609375
 20
-51.277653228752555
 10
5.643812500000001
 20
-51.263981353752555
 10
5.644117187500001
 20
-51.25109072875255
 10
5.644375
 20
-51.23898135375255
 10
5.644585937500002
 20
-51.22765322875255
 10
5.64475
 20
-51.217106353752555
 10
5.644867187500003
 20
-51.207340728752555
 10
5.644937500000003
 20
-51.19835635375255
 10
5.6449609375000005
 20
-51.19015322875255
 10
5.6416640625
 20
-51.06459854125255
 10
5.6317734375000015
 20
-50.94480947875255
 10
5.6152890625000005
 20
-50.83078604125255
 10
5.592210937500001
 20
-50.72252822875255
 10
5.562539062499999
 20
-50.620036041252554
 10
5.526273437500002
 20
-50.52330947875255
 10
5.4834140625
 20
-50.43234854125255
 10
5.433960937500002
 20
-50.34715322875255
 10
5.377914062500002
 20
-50.26772354125255
 10
5.3152734375
 20
-50.19405947875255
 10
5.2474296875
 20
-50.12681729125255
 10
5.1757734375
 20
-50.06665322875255
 10
5.1003046874999995
 20
-50.01356729125255
 10
5.0210234375
 20
-49.96755947875255
 10
4.9379296875000005
 20
-49.928629791252554
 10
4.8510234375
 20
-49.89677822875255
 10
4.7603046875
 20
-49.87200479125255
 10
4.665773437500002
 20
-49.854309478752555
 10
4.567429687500001
 20
-49.84369229125255
 10
4.4652734375000005
 20
-49.840153228752555
 10
4.359921875000001
 20
-49.84377041625255
 10
4.258554687500002
 20
-49.854621978752554
 10
4.161171874999999
 20
-49.87270791625255
 10
4.0677734375
 20
-49.89802822875255
 10
3.978359375
 20
-49.930582916252554
 10
3.8929296875000006
 20
-49.97037197875255
 10
3.811484375000001
 20
-50.017395416252555
 10
3.734023437500001
 20
-50.07165322875255
 10
3.6605468749999996
 20
-50.13314541625255
 10
3.5910546875
 20
-50.20187197875255
 10
3.527078124999999
 20
-50.27699697875255
 10
3.469835937500001
 20
-50.35799697875255
 10
3.419328125
 20
-50.44487197875255
 10
3.375554687500001
 20
-50.537621978752554
 10
3.338515625000001
 20
-50.63624697875255
 10
3.3082109375
 20
-50.740746978752554
 10
3.2846406250000015
 20
-50.85112197875255
 10
3.2678046875000017
 20
-50.96737197875255
 10
3.257703125000001
 20
-51.08949697875255
 10
3.2543359375000005
 20
-51.21749697875255
 10
3.2576718749999998
 20
-51.341090728752555
 10
3.267679687500001
 20
-51.45905947875255
 10
3.2843593749999993
 20
-51.57140322875255
 10
3.3077109374999996
 20
-51.67812197875255
 10
3.337734375000002
 20
-51.779215728752554
 10
3.374429687500001
 20
-51.874684478752556
 10
3.4177968750000005
 20
-51.964528228752556
 10
3.467835937500002
 20
-52.048746978752554
 10
3.524546875000002
 20
-52.12734072875255
 10
3.587929687500001
 20
-52.20030947875255
 10
3.657000000000002
 20
-52.266809478752556
 10
3.7307734375
 20
-52.326309478752556
 10
3.8092500000000005
 20
-52.37880947875255
 10
3.8924296875
 20
-52.424309478752555
 10
3.9803125
 20
-52.462809478752554
 10
4.072898437499999
 20
-52.494309478752555
 10
4.170187499999999
 20
-52.51880947875255
 10
4.272179687500003
 20
-52.53630947875255
 10
4.378875000000001
 20
-52.54680947875255
 10
4.490273437500001
 20
-52.55030947875255
 10
4.578976562500001
 20
-52.54811416625255
 10
4.664460937500001
 20
-52.541528228752554
 10
4.746726562500001
 20
-52.53055166625255
 10
4.8257734375000005
 20
-52.51518447875255
 10
4.901601562500002
 20
-52.495426666252555
 10
4.974210937499999
 20
-52.47127822875255
 10
5.043601562500003
 20
-52.44273916625255
 10
5.109773437500001
 20
-52.40980947875255
 10
5.172726562500001
 20
-52.37248916625255
 10
5.232460937500001
 20
-52.33077822875255
 10
5.288750000000002
 20
-52.284942291252555
 10
5.341367187500001
 20
-52.235559478752556
 10
5.3903125
 20
-52.18262979125255
 10
5.435585937500001
 20
-52.12615322875255
 10
5.477187500000001
 20
-52.06612979125255
 10
5.5151171875
 20
-52.00255947875255
 10
5.549375000000001
 20
-51.93544229125255
 10
5.579960937500001
 20
-51.864778228752556
 10
5.6068750000000005
 20
-51.79056729125255
 10
5.6301171875
 20
-51.712809478752554
 10
5.1762109375000005
 20
-51.656559478752555
  0
LWPOLYLINE
  5
4C
330
17
100
AcDbEntity
  8
0
100
AcDbPolyline
 90
244
 70
0
 10
-0.18736328124999968
 20
-52.172184478752555
 10
-0.1829726562499996
 20
-52.20828604125255
 10
-0.1776132812499993
 20
-52.243465728752554
 10
-0.17128515624999974
 20
-52.277723541252556
 10
-0.1639882812499991
 20
-52.311059478752554
 10
-0.15572265625000004
 20
-52.34347354125255
 10
-0.14648828124999902
 20
-52.37496572875255
 10
-0.1362851562499996
 20
-52.40553604125255
 10
-0.1251132812499991
 20
-52.435184478752554
 10
-0.1129726562499993
 20
-52.46391104125255
 10
-0.09986328125000021
 20
-52.49171572875255
 10
0.3595117187500003
 20
-52.49171572875255
 10
0.34334765625000063
 20
-52.46174697875255
 10
0.32829296875000047
 20
-52.431528228752555
 10
0.31434765624999983
 20
-52.40105947875255
 10
0.3015117187500005
 20
-52.37034072875255
 10
0.2897851562499998
 20
-52.33937197875255
 10
0.2791679687499995
 20
-52.30815322875255
 10
0.2696601562499996
 20
-52.27668447875255
 10
0.26126171875000104
 20
-52.244965728752554
 10
0.2539726562500011
 20
-52.21299697875255
 10
0.2477929687499998
 20
-52.18077822875255
 10
0.24244921875000003
 20
-52.14377041625255
 10
0.2376679687500003
 20
-52.097746978752554
 10
0.23344921875000058
 20
-52.04270791625255
 10
0.22979296875
 20
-51.978653228752556
 10
0.22669921875000032
 20
-51.905582916252555
 10
0.22416796875000067
 20
-51.82349697875255
 10
0.22219921875000104
 20
-51.73239541625255
 10
0.22079296875000143
 20
-51.632278228752554
 10
0.21994921875000095
 20
-51.523145416252554
 10
0.2196679687500005
 20
-51.40499697875255
 10
0.2196679687500005
 20
-50.81905947875255
 10
0.21944921875000034
 20
-50.76227822875255
 10
0.21879296875000076
 20
-50.70912197875255
 10
0.21769921875000087
 20
-50.659590728752555
 10
0.21616796875000066
 20
-50.61368447875255
 10
0.21419921875000014
 20
-50.57140322875255
 10
0.2117929687500011
 20
-50.532746978752556
 10
0.20894921875000083
 20
-50.49771572875255
 10
0.20566796875000115
 20
-50.46630947875255
 10
0.20194921875000027
 20
-50.43852822875255
 10
0.19779296874999996
 20
-50.414371978752555
 10
0.1893945312500005
 20
-50.378754791252554
 10
0.17982421875000032
 20
-50.344403228752554
 10
0.16908203124999943
 20
-50.31131729125255
 10
0.1571679687500005
 20
-50.279496978752555
 10
0.14408203124999996
 20
-50.248942291252554
 10
0.1298242187499996
 20
-50.219653228752556
 10
0.11439453124999943
 20
-50.19162979125255
 10
0.09779296875000121
 20
-50.16487197875255
 10
0.08001953124999961
 20
-50.13937979125255
 10
0.061074218749999964
 20
-50.115153228752554
 10
0.040441406250000256
 20
-50.09180947875255
 10
0.01760546875000024
 20
-50.06927822875255
 10
-0.007433593750000078
 20
-50.047559478752554
 10
-0.034675781249999815
 20
-50.02665322875255
 10
-0.06412109374999986
 20
-50.00655947875255
 10
-0.0957695312500002
 20
-49.98727822875255
 10
-0.12962109374999908
 20
-49.968809478752554
 10
-0.16567578125000004
 20
-49.95115322875255
 10
-0.20393359375000042
 20
-49.93430947875255
 10
-0.2443945312500002
 20
-49.918278228752555
 10
-0.2870507812500005
 20
-49.90343447875255
 10
-0.3322070312500003
 20
-49.89015322875255
 10
-0.3798632812499996
 20
-49.87843447875255
 10
-0.43001953125000014
 20
-49.86827822875255
 10
-0.4826757812500002
 20
-49.859684478752555
 10
-0.5378320312499998
 20
-49.85265322875255
 10
-0.5954882812499998
 20
-49.84718447875255
 10
-0.6556445312499992
 20
-49.84327822875255
 10
-0.71830078125
 20
-49.84093447875255
 10
-0.7834570312500002
 20
-49.840153228752555
 10
-0.8495273437500002
 20
-49.84107510375255
 10
-0.91398828125
 20
-49.843840728752554
 10
-0.9768398437499997
 20
-49.848450103752555
 10
-1.03808203125
 20
-49.854903228752555
 10
-1.09771484375
 20
-49.863200103752554
 10
-1.15573828125
 20
-49.87334072875255
 10
-1.2121523437499997
 20
-49.88532510375255
 10
-1.2669570312499991
 20
-49.89915322875255
 10
-1.3201523437500002
 20
-49.91482510375255
 10
-1.3717382812499999
 20
-49.93234072875255
 10
-1.4213242187500001
 20
-49.951403228752554
 10
-1.4685195312499997
 20
-49.97202822875255
 10
-1.5133242187500002
 20
-49.99421572875255
 10
-1.55573828125
 20
-50.01796572875255
 10
-1.59576171875
 20
-50.043278228752555
 10
-1.63339453125
 20
-50.07015322875255
 10
-1.6686367187499997
 20
-50.098590728752555
 10
-1.7014882812499992
 20
-50.12859072875255
 10
-1.73194921875
 20
-50.160153228752556
 10
-1.7600195312500002
 20
-50.193278228752554
 10
-1.78613671875
 20
-50.22824697875255
 10
-1.81073828125
 20
-50.265340728752555
 10
-1.8338242187500002
 20
-50.30455947875255
 10
-1.85539453125
 20
-50.345903228752555
 10
-1.87544921875
 20
-50.38937197875255
 10
-1.89398828125
 20
-50.43496572875255
 10
-1.9110117187500002
 20
-50.48268447875255
 10
-1.9265195312499994
 20
-50.532528228752554
 10
-1.9405117187500003
 20
-50.584496978752554
 10
-1.9529882812500001
 20
-50.638590728752554
 10
-1.5233007812500001
 20
-50.697184478752554
 10
-1.50831640625
 20
-50.64370010375255
 10
-1.4918007812499998
 20
-50.59355947875255
 10
-1.4737539062499998
 20
-50.546762603752555
 10
-1.45417578125
 20
-50.503309478752556
 10
-1.43306640625
 20
-50.463200103752555
 10
-1.4104257812499998
 20
-50.426434478752554
 10
-1.3862539062500003
 20
-50.39301260375255
 10
-1.3605507812499993
 20
-50.36293447875255
 10
-1.3333164062499998
 20
-50.33620010375255
 10
-1.3045507812500001
 20
-50.312809478752555
 10
-1.2733945312500001
 20
-50.29217666625255
 10
-1.2389882812499997
 20
-50.27371572875255
 10
-1.2013320312499998
 20
-50.257426666252556
 10
-1.1604257812499998
 20
-50.24330947875255
 10
-1.11626953125
 20
-50.231364166252554
 10
-1.06886328125
 20
-50.22159072875255
 10
-1.0182070312499998
 20
-50.21398916625255
 10
-0.9643007812499995
 20
-50.208559478752555
 10
-0.9071445312500002
 20
-50.20530166625255
 10
-0.8467382812500004
 20
-50.20421572875255
 10
-0.7819726562500007
 20
-50.205700103752555
 10
-0.7204882812500006
 20
-50.21015322875255
 10
-0.6622851562500003
 20
-50.21757510375255
 10
-0.6073632812500005
 20
-50.22796572875255
 10
-0.5557226562500004
 20
-50.24132510375255
 10
-0.50736328125
 20
-50.25765322875255
 10
-0.462285156250001
 20
-50.276950103752554
 10
-0.4204882812500008
 20
-50.29921572875255
 10
-0.3819726562500003
 20
-50.324450103752554
 10
-0.3467382812500004
 20
-50.35265322875255
 10
-0.3229882812499998
 20
-50.37627041625255
 10
-0.30173828125000046
 20
-50.40305947875255
 10
-0.28298828125000064
 20
-50.43302041625255
 10
-0.2667382812500003
 20
-50.46615322875255
 10
-0.2529882812500004
 20
-50.50245791625255
 10
-0.24173828124999996
 20
-50.54193447875255
 10
-0.23298828125000082
 20
-50.58458291625255
 10
-0.22673828125000028
 20
-50.630403228752556
 10
-0.22298828125000103
 20
-50.679395416252554
 10
-0.2217382812500004
 20
-50.73155947875255
 10
-0.22176171875000072
 20
-50.73706729125255
 10
-0.22183203125000084
 20
-50.74390322875255
 10
-0.22194921874999984
 20
-50.75206729125255
 10
-0.2221132812500004
 20
-50.76155947875255
 10
-0.22232421874999986
 20
-50.772379791252554
 10
-0.22258203125000087
 20
-50.78452822875255
 10
-0.22288671874999988
 20
-50.79800479125255
 10
-0.22323828124999956
 20
-50.812809478752555
 10
-0.2236367187499999
 20
-50.82894229125255
 10
-0.22408203125000004
 20
-50.84640322875255
 10
-0.27719921874999986
 20
-50.863661041252556
 10
-0.3359257812499994
 20
-50.880434478752555
 10
-0.4002617187500004
 20
-50.896723541252555
 10
-0.4702070312500002
 20
-50.91252822875255
 10
-0.5457617187500006
 20
-50.92784854125255
 10
-0.6269257812500006
 20
-50.942684478752554
 10
-0.7136992187500004
 20
-50.95703604125255
 10
-0.806082031249999
 20
-50.970903228752555
 10
-0.9040742187499999
 20
-50.98428604125255
 10
-1.0076757812500001
 20
-50.99718447875255
 10
-1.0586914062500004
 20
-51.003614166252554
 10
-1.10705078125
 20
-51.01009072875255
 10
-1.15275390625
 20
-51.01661416625255
 10
-1.19580078125
 20
-51.023184478752555
 10
-1.2361914062500001
 20
-51.02980166625255
 10
-1.27392578125
 20
-51.03646572875255
 10
-1.30900390625
 20
-51.04317666625255
 10
-1.3414257812499994
 20
-51.049934478752554
 10
-1.37119140625
 20
-51.056739166252555
 10
-1.3983007812500001
 20
-51.06359072875255
 10
-1.43310546875
 20
-51.07374697875255
 10
-1.46720703125
 20
-51.08484072875255
 10
-1.50060546875
 20
-51.09687197875255
 10
-1.5333007812500004
 20
-51.10984072875255
 10
-1.5652929687500001
 20
-51.12374697875255
 10
-1.5965820312500005
 20
-51.138590728752554
 10
-1.6271679687500002
 20
-51.15437197875255
 10
-1.6570507812499997
 20
-51.17109072875255
 10
-1.6862304687500003
 20
-51.188746978752555
 10
-1.7147070312500001
 20
-51.207340728752555
 10
-1.7422929687500002
 20
-51.22702822875255
 10
-1.7688007812499995
 20
-51.247965728752554
 10
-1.7942304687500004
 20
-51.270153228752555
 10
-1.81858203125
 20
-51.293590728752555
 10
-1.84185546875
 20
-51.318278228752554
 10
-1.86405078125
 20
-51.34421572875255
 10
-1.8851679687499998
 20
-51.371403228752555
 10
-1.9052070312499998
 20
-51.39984072875255
 10
-1.9241679687499995
 20
-51.42952822875255
 10
-1.9420507812499999
 20
-51.46046572875255
 10
-1.9585273437500001
 20
-51.49220791625255
 10
-1.9732695312499997
 20
-51.52462197875255
 10
-1.9862773437500003
 20
-51.557707916252554
 10
-1.9975507812500002
 20
-51.59146572875255
 10
-2.0070898437499998
 20
-51.625895416252554
 10
-2.01489453125
 20
-51.66099697875255
 10
-2.02096484375
 20
-51.696770416252555
 10
-2.0253007812499995
 20
-51.733215728752555
 10
-2.0279023437499997
 20
-51.770332916252556
 10
-2.02876953125
 20
-51.80812197875255
 10
-2.0264726562499997
 20
-51.871957916252555
 10
-2.0195820312499997
 20
-51.93346572875255
 10
-2.0080976562500004
 20
-51.99264541625255
 10
-1.9920195312500004
 20
-52.04949697875255
 10
-1.9713476562499999
 20
-52.10402041625255
 10
-1.94608203125
 20
-52.15621572875255
 10
-1.91622265625
 20
-52.206082916252555
 10
-1.8817695312499998
 20
-52.253621978752555
 10
-1.8427226562499999
 20
-52.29883291625255
 10
-1.7990820312500002
 20
-52.341715728752554
 10
-1.75116796875
 20
-52.38134854125255
 10
-1.6993007812500003
 20
-52.416809478752555
 10
-1.6434804687500004
 20
-52.448098541252556
 10
-1.5837070312500003
 20
-52.47521572875255
 10
-1.51998046875
 20
-52.49816104125255
 10
-1.45230078125
 20
-52.51693447875255
 10
-1.3806679687499996
 20
-52.53153604125255
 10
-1.3050820312499996
 20
-52.54196572875255
 10
-1.2255429687499992
 20
-52.548223541252554
 10
-1.14205078125
 20
-52.55030947875255
 10
-1.0906601562499998
 20
-52.54945791625255
 10
-1.0399257812499996
 20
-52.546903228752555
 10
-0.9898476562500003
 20
-52.542645416252554
 10
-0.9404257812500001
 20
-52.536684478752555
 10
-0.8916601562500004
 20
-52.52902041625255
 10
-0.8435507812500003
 20
-52.51965322875255
 10
-0.7960976562499997
 20
-52.50858291625255
 10
-0.7493007812499988
 20
-52.495809478752555
 10
-0.7031601562500001
 20
-52.481332916252555
 10
-0.65767578125
 20
-52.465153228752555
 10
-0.6123320312500002
 20
-52.44675479125255
 10
-0.5666132812499995
 20
-52.42593447875255
 10
-0.5205195312499997
 20
-52.40269229125255
 10
-0.4740507812499999
 20
-52.37702822875255
 10
-0.42720703125000004
 20
-52.348942291252555
 10
-0.37998828125000017
 20
-52.31843447875255
 10
-0.3323945312500003
 20
-52.28550479125255
 10
-0.2844257812499986
 20
-52.25015322875255
 10
-0.2360820312499996
 20
-52.21237979125255
 10
-0.18736328124999968
 20
-52.172184478752555
  0
LWPOLYLINE
  5
4D
330
17
100
AcDbEntity
  8
0
100
AcDbPolyline
 90
118
 70
0
 10
0.8816796875000001
 20
-53.490153228752554
 10
0.9126328125000001
 20
-53.50039541625255
 10
0.9429921874999998
 20
-53.50955947875255
 10
0.9727578125000003
 20
-53.517645416252556
 10
1.0019296875000006
 20
-53.524653228752555
 10
1.0305078124999998
 20
-53.530582916252555
 10
1.0584921875000015
 20
-53.53543447875255
 10
1.0858828125000004
 20
-53.53920791625255
 10
1.112679687500001
 20
-53.54190322875255
 10
1.1388828125000012
 20
-53.543520416252555
 10
1.1644921875000005
 20
-53.54405947875255
 10
1.205937500000001
 20
-53.54304385375255
 10
1.2462109375000008
 20
-53.539996978752555
 10
1.2853124999999999
 20
-53.53491885375255
 10
1.3232421875000009
 20
-53.52780947875255
 10
1.3600000000000003
 20
-53.51866885375255
 10
1.3955859375
 20
-53.507496978752556
 10
1.4299999999999997
 20
-53.49429385375255
 10
1.4632421875000006
 20
-53.47905947875255
 10
1.4953125000000007
 20
-53.46179385375255
 10
1.5262109375000001
 20
-53.44249697875255
 10
1.5561796875000002
 20
-53.421168853752555
 10
1.5854609375000006
 20
-53.39749697875255
 10
1.6140546875000004
 20
-53.37148135375255
 10
1.6419609375000004
 20
-53.34312197875255
 10
1.6691796874999998
 20
-53.312418853752554
 10
1.6957109375000003
 20
-53.27937197875255
 10
1.7215546875000003
 20
-53.24398135375255
 10
1.7467109375000014
 20
-53.20624697875255
 10
1.7711796875
 20
-53.16616885375255
 10
1.7949609375
 20
-53.12374697875255
 10
1.813171875
 20
-53.088895416252555
 10
1.8328046874999995
 20
-53.048715728752555
 10
1.8538593750000008
 20
-53.003207916252556
 10
1.8763359375000004
 20
-52.95237197875255
 10
1.9002343750000001
 20
-52.89620791625255
 10
1.925554687500001
 20
-52.834715728752556
 10
1.952296875
 20
-52.76789541625255
 10
1.980460937500002
 20
-52.69574697875255
 10
2.0100468750000005
 20
-52.61827041625255
 10
2.0410546875
 20
-52.535465728752555
 10
3.0277734375000005
 20
-49.898746978752555
 10
2.5879296875
 20
-49.898746978752555
 10
2.0340234375
 20
-51.410465728752555
 10
2.013375
 20
-51.46812197875255
 10
1.9933046875000002
 20
-51.52609072875255
 10
1.9738125000000002
 20
-51.58437197875255
 10
1.9548984375000007
 20
-51.64296572875255
 10
1.9365625000000009
 20
-51.70187197875255
 10
1.9188046874999998
 20
-51.76109072875255
 10
1.9016250000000001
 20
-51.820621978752555
 10
1.885023437500001
 20
-51.880465728752554
 10
1.8690000000000007
 20
-51.94062197875255
 10
1.8535546875
 20
-52.00109072875255
 10
1.8366249999999997
 20
-51.93841104125255
 10
1.8192734375000006
 20
-51.87630947875255
 10
1.8015000000000008
 20
-51.81478604125255
 10
1.7833046875000012
 20
-51.75384072875255
 10
1.7646875
 20
-51.69347354125255
 10
1.7456484375000008
 20
-51.63368447875255
 10
1.726187499999999
 20
-51.57447354125255
 10
1.7063046875000012
 20
-51.51584072875255
 10
1.6860000000000008
 20
-51.457786041252554
 10
1.6652734374999998
 20
-51.400309478752554
 10
1.1254296875000005
 20
-49.898746978752555
 10
0.6519921875000003
 20
-49.898746978752555
 10
1.6363671875000003
 20
-52.496403228752555
 10
1.6310546875000007
 20
-52.510278228752554
 10
1.6260546875
 20
-52.523465728752555
 10
1.6213671875000006
 20
-52.53596572875255
 10
1.616992187500001
 20
-52.547778228752556
 10
1.6129296875000003
 20
-52.558903228752555
 10
1.609179687500001
 20
-52.56934072875255
 10
1.6057421875000006
 20
-52.579090728752554
 10
1.6026171875000017
 20
-52.58815322875255
 10
1.5998046875000016
 20
-52.596528228752554
 10
1.5973046875000003
 20
-52.60421572875255
 10
1.5792265625000006
 20
-52.654457916252554
 10
1.5621796875000005
 20
-52.700809478752554
 10
1.5461640625000008
 20
-52.74327041625255
 10
1.5311796875000008
 20
-52.781840728752556
 10
1.5172265625000003
 20
-52.81652041625255
 10
1.5043046875000003
 20
-52.84730947875255
 10
1.4924140625
 20
-52.87420791625255
 10
1.481554687500001
 20
-52.897215728752556
 10
1.4717265624999998
 20
-52.91633291625255
 10
1.4629296875
 20
-52.931559478752554
 10
1.451359375
 20
-52.94866885375255
 10
1.4391484375
 20
-52.96499697875255
 10
1.4262968750000002
 20
-52.98054385375255
 10
1.4128046875000004
 20
-52.99530947875255
 10
1.3986718749999998
 20
-53.00929385375255
 10
1.3838984375
 20
-53.02249697875255
 10
1.3684843750000004
 20
-53.03491885375255
 10
1.3524296875000008
 20
-53.046559478752556
 10
1.3357343750000004
 20
-53.05741885375255
 10
1.3183984375
 20
-53.06749697875255
 10
1.3003046874999997
 20
-53.07684854125255
 10
1.2810234375
 20
-53.08521572875255
 10
1.2605546875
 20
-53.09259854125255
 10
1.2388984374999996
 20
-53.09899697875255
 10
1.2160546874999998
 20
-53.104411041252554
 10
1.1920234375000005
 20
-53.108840728752554
 10
1.1668046875
 20
-53.11228604125255
 10
1.140398437500001
 20
-53.11474697875255
 10
1.1128046875000006
 20
-53.11622354125255
 10
1.0840234375
 20
-53.11671572875255
 10
1.0622421875000008
 20
-53.11632510375255
 10
1.0397109375000007
 20
-53.115153228752554
 10
1.0164296875000005
 20
-53.113200103752554
 10
0.9923984375000003
 20
-53.11046572875255
 10
0.9676171875000001
 20
-53.10695010375255
 10
0.9420859375000008
 20
-53.10265322875255
 10
0.9158046875000005
 20
-53.097575103752554
 10
0.888773437500002
 20
-53.091715728752554
 10
0.8609921875000008
 20
-53.08507510375255
 10
0.8324609375000005
 20
-53.07765322875255
 10
0.8816796875000001
 20
-53.490153228752554
  0
LWPOLYLINE
  5
4E
330
17
100
AcDbEntity
  8
0
100
AcDbPolyline
 90
42
 70
0
 10
531.190452345944
 20
-50.94640322875255
 10
529.742796095944
 20
-50.94640322875255
 10
529.7496554709439
 20
-50.88257510375255
 10
529.7586710959439
 20
-50.82202822875255
 10
529.769842970944
 20
-50.76476260375255
 10
529.783171095944
 20
-50.71077822875255
 10
529.7986554709439
 20
-50.660075103752554
 10
529.8162960959439
 20
-50.61265322875255
 10
529.8360929709439
 20
-50.56851260375255
 10
529.8580460959439
 20
-50.527653228752555
 10
529.882155470944
 20
-50.49007510375255
 10
529.9084210959439
 20
-50.45577822875255
 10
529.951694533444
 20
-50.407536041252555
 10
529.997452345944
 20
-50.36437197875255
 10
530.0456945334439
 20
-50.32628604125255
 10
530.0964210959439
 20
-50.293278228752555
 10
530.1496320334439
 20
-50.26534854125255
 10
530.2053273459439
 20
-50.242496978752555
 10
530.263507033444
 20
-50.22472354125255
 10
530.3241710959439
 20
-50.21202822875255
 10
530.3873195334439
 20
-50.204411041252555
 10
530.4529523459439
 20
-50.20187197875255
 10
530.5126085959439
 20
-50.20389541625255
 10
530.570327345944
 20
-50.20996572875255
 10
530.626108595944
 20
-50.22008291625255
 10
530.679952345944
 20
-50.23424697875255
 10
530.731858595944
 20
-50.25245791625255
 10
530.781827345944
 20
-50.274715728752554
 10
530.829858595944
 20
-50.301020416252555
 10
530.8759523459439
 20
-50.33137197875255
 10
530.9201085959439
 20
-50.36577041625255
 10
530.962327345944
 20
-50.404215728752554
 10
531.001733595944
 20
-50.44605947875255
 10
531.037452345944
 20
-50.49065322875255
 10
531.0694835959439
 20
-50.53799697875255
 10
531.097827345944
 20
-50.588090728752555
 10
531.122483595944
 20
-50.640934478752555
 10
531.143452345944
 20
-50.696528228752555
 10
531.160733595944
 20
-50.754871978752554
 10
531.174327345944
 20
-50.81596572875255
 10
531.184233595944
 20
-50.879809478752556
 10
531.190452345944
 20
-50.94640322875255
  0
LWPOLYLINE
  5
4F
330
17
100
AcDbEntity
  8
0
100
AcDbPolyline
 90
5
 70
0
 10
272.461847266722
 20
-62.44356299547452
 10
272.461847266722
 20
22.460131537969417
 10
557.3655418001659
 20
22.460131537969417
 10
557.3655418001659
 20
-62.44356299547452
 10
272.461847266722
 20
-62.44356299547452
  0
LWPOLYLINE
  5
50
330
17
100
AcDbEntity
  8
0
100
AcDbPolyline
 90
31
 70
0
 10
505.4206034264987
 20
-0.009999999999999998
 10
505.3846727291382
 20
0.1706358138186315
 10
505.3844552179759
 20
0.17116093221644282
 10
505.27617828009795
 20
0.3332088214077801
 10
505.266436075347
 20
0.3429510261587616
 10
505.01068959546996
 20
0.47965040400845577
 10
505.0097935868836
 20
0.47982863140365284
 10
504.91211730414176
 20
0.48942632970750893
 10
504.20572988788143
 20
0.48910276947477865
 10
504.20572988788143
 20
0.44761481755150434
 10
504.18854827539076
 20
0.48909489944990536
 10
503.9813506117835
 20
0.4889999927135809
 10
503.79043088244714
 20
0.450978239941256
 10
503.7899056572287
 20
0.45076068453246876
 10
503.6278577680362
 20
0.3424837466540798
 10
503.61858284278986
 20
0.3332088214077373
 10
503.51030590491195
 20
0.1711609322164621
 10
503.51008839374975
 20
0.1706358138186507
 10
503.4741576963892
 20
-0.009999999999999998
 10
503.98106658928106
 20
-0.009999999999999998
 10
503.97106658928107
 20
-0.02
 10
503.97106658928107
 20
-7.9799999999999995
 10
503.99106658928105
 20
-7.999999999999999
 10
504.90369453344397
 20
-7.999999999999999
 10
504.92369453344395
 20
-7.9799999999999995
 10
504.92369453344395
 20
-0.02
 10
504.9128366690677
 20
-0.009142135623730833
 10
504.91369453344396
 20
-0.008284271247463375
 10
504.93369453344394
 20
-0.008284271247463375
 10
504.9354102621965
 20
-0.009999999999999998
 10
505.4206034264987
 20
-0.009999999999999998
  0
LWPOLYLINE
  5
51
330
17
100
AcDbEntity
  8
0
100
AcDbPolyline
 90
46
 70
0
 10
475.4206085482832
 20
-0.009999999999999998
 10
475.3846727296979
 20
0.17063581243207004
 10
475.3844552132433
 20
0.1711609435701857
 10
475.2761782626751
 20
0.33320883879494473
 10
475.26648190130976
 20
0.34290519920504153
 10
475.04587202170245
 20
0.47128509620531134
 10
475.0449724497676
 20
0.47153276089418156
 10
474.9121449745885
 20
0.4894507005157043
 10
474.2057298878797
 20
0.4891086433817483
 10
474.2057298878798
 20
0.44761481755533705
 10
474.1885460290107
 20
0.4891003226909454
 10
473.981337548228
 20
0.4889999891329545
 10
473.79043088854934
 20
0.45097824246887336
 10
473.7899056572288
 20
0.45076068453252116
 10
473.62785776803634
 20
0.3424837466541845
 10
473.61858284279
 20
0.33320882140785135
 10
473.51030590491115
 20
0.17116093221446063
 10
473.5100883937489
 20
0.1706358138166268
 10
473.47415769638917
 20
-0.009999999999999998
 10
473.98106658928106
 20
-0.009999999999999998
 10
473.97106658928107
 20
-0.02
 10
473.97106658928107
 20
-7.9799999999999995
 10
473.99106658928105
 20
-7.999999999999999
 10
474.8954102621965
 20
-7.999999999999999
 10
474.92369453344395
 20
-8.028284271247456
 10
474.92369453344395
 20
-15.971715728752544
 10
474.8954102621965
 20
-16.0
 10
474.47260103272015
 20
-16.0
 10
474.4727574536665
 20
-16.00018949533399
 10
474.4362163775399
 20
-16.18952930818422
 10
474.43669250309534
 20
-16.190678776957622
 10
474.89812782225226
 20
-16.499
 10
475.85470935107656
 20
-16.499
 10
475.85470935107656
 20
-16.44020996063281
 10
475.85589635276943
 20
-16.439227601041384
 10
475.87632247760683
 20
-16.443115912365254
 10
475.87632247760683
 20
-8.02
 10
475.85632247760685
 20
-8.0
 10
474.9519788046914
 20
-8.0
 10
474.92369453344395
 20
-7.971715728752544
 10
474.92369453344395
 20
-0.02
 10
474.9128366690677
 20
-0.009142135623729317
 10
474.91369453344396
 20
-0.008284271247460558
 10
474.93369453344394
 20
-0.008284271247460558
 10
474.93541026219646
 20
-0.009999999999999998
 10
475.4206085482832
 20
-0.009999999999999998
  0
LWPOLYLINE
  5
52
330
17
100
AcDbEntity
  8
0
100
AcDbPolyline
 90
48
 70
0
 10
475.87632247760683
 20
-23.558507600306868
 10
475.85675302082325
 20
-23.56240020728403
 10
475.8555579306034
 20
-23.561419874116666
 10
475.85553041820344
 20
-23.50056695760974
 10
474.89790209438877
 20
-23.50099991390816
 10
474.43669255032796
 20
-23.80932110901273
 10
474.4362175678143
 20
-23.810467818239086
 10
474.4738790569053
 20
-23.999804909677987
 10
474.47371895041573
 20
-24.000000000000004
 10
474.8954102621965
 20
-24.000000000000004
 10
474.92369453344395
 20
-24.02828427124746
 10
474.92369453344395
 20
-31.971715728752546
 10
474.8954102621965
 20
-32.0
 10
473.99106658928105
 20
-32.0
 10
473.97106658928107
 20
-32.02
 10
473.97106658928107
 20
-39.980000000000004
 10
473.98106658928106
 20
-39.99000000000001
 10
473.4741576963892
 20
-39.99000000000001
 10
473.5100883937491
 20
-40.17063581381703
 10
473.5103059049113
 20
-40.17116093221486
 10
473.61858284279003
 20
-40.33320882140787
 10
473.62785776803634
 20
-40.342483746654196
 10
473.7899056572291
 20
-40.45076068453264
 10
473.79043077562693
 20
-40.45097819569487
 10
473.98157929397206
 20
-40.489
 10
474.18858758402996
 20
-40.489
 10
474.20572988788115
 20
-40.44761481755214
 10
474.20572988788115
 20
-40.489
 10
474.91036567930655
 20
-40.489
 10
474.91036567930655
 20
-40.471110295468286
 10
474.91146369611664
 20
-40.47011511070909
 10
475.00989077704565
 20
-40.479809299056065
 10
475.01068959546785
 20
-40.47965040400888
 10
475.26643607534714
 20
-40.342951026158595
 10
475.2761782800981
 20
-40.33320882140762
 10
475.3844552179766
 20
-40.17116093221486
 10
475.3846727291388
 20
-40.17063581381703
 10
475.4206034264987
 20
-39.99000000000001
 10
474.93541026219646
 20
-39.99000000000001
 10
474.93369453344394
 20
-39.991715728752546
 10
474.91369453344396
 20
-39.991715728752546
 10
474.9128366690677
 20
-39.990857864376274
 10
474.92369453344395
 20
-39.980000000000004
 10
474.92369453344395
 20
-32.02828427124746
 10
474.9519788046914
 20
-32.00000000000001
 10
475.85632247760685
 20
-32.00000000000001
 10
475.87632247760683
 20
-31.980000000000004
 10
475.87632247760683
 20
-23.558507600306868
  0
LWPOLYLINE
  5
53
330
17
100
AcDbEntity
  8
0
100
AcDbPolyline
 90
48
 70
0
 10
503.4741576963892
 20
-39.99000000000001
 10
503.51008839374987
 20
-40.170635813819004
 10
503.5103059049121
 20
-40.17116093221683
 10
503.6185828427899
 20
-40.333208821407794
 10
503.6278577680363
 20
-40.34248374665413
 10
503.7899056572291
 20
-40.45076068453264
 10
503.79043077562693
 20
-40.45097819569487
 10
503.98157929397206
 20
-40.489
 10
504.1886293152942
 20
-40.489
 10
504.2057298878799
 20
-40.44771211689088
 10
504.2057298878799
 20
-40.489
 10
504.9103656780766
 20
-40.489
 10
504.9103656780766
 20
-40.464205325021986
 10
504.9114276588393
 20
-40.463207247677765
 10
505.0450683566666
 20
-40.47150635638846
 10
505.04587202170114
 20
-40.471285096205676
 10
505.26648190130965
 20
-40.34290519920513
 10
505.27617826267505
 20
-40.333208838795
 10
505.38445521324326
 20
-40.17116094357041
 10
505.3846727244311
 20
-40.170635825147386
 10
505.42060342635716
 20
-39.99000000000001
 10
504.9354102621965
 20
-39.99000000000001
 10
504.93369453344394
 20
-39.991715728752546
 10
504.91369453344396
 20
-39.991715728752546
 10
504.9128366690677
 20
-39.990857864376274
 10
504.92369453344395
 20
-39.980000000000004
 10
504.92369453344395
 20
-32.028284271247465
 10
504.9519788046914
 20
-32.00000000000001
 10
505.85632247760685
 20
-32.00000000000001
 10
505.87632247760683
 20
-31.980000000000004
 10
505.87632247760683
 20
-23.558507600306736
 10
505.85675302082325
 20
-23.562400207283904
 10
505.8555579306034
 20
-23.56141987411654
 10
505.85553041820344
 20
-23.50056695760974
 10
504.89790209438877
 20
-23.50099991390816
 10
504.43669255032796
 20
-23.80932110901273
 10
504.4362175678143
 20
-23.810467818239083
 10
504.4738790569053
 20
-23.999804909677987
 10
504.47371895041573
 20
-24.000000000000004
 10
504.8954102621965
 20
-24.000000000000004
 10
504.92369453344395
 20
-24.02828427124747
 10
504.92369453344395
 20
-31.97171572875254
 10
504.8954102621965
 20
-32.0
 10
503.99106658928105
 20
-32.0
 10
503.97106658928107
 20
-32.02
 10
503.97106658928107
 20
-39.980000000000004
 10
503.98106658928106
 20
-39.99000000000001
 10
503.4741576963892
 20
-39.99000000000001
  0
LWPOLYLINE
  5
54
330
17
100
AcDbEntity
  8
0
100
AcDbPolyline
 90
16
 70
0
 10
504.47260103272015
 20
-16.0
 10
504.4727574536664
 20
-16.00018949533399
 10
504.4362163775399
 20
-16.18952930818422
 10
504.43669250309534
 20
-16.190678776957622
 10
504.8981278222523
 20
-16.499
 10
505.85470935107656
 20
-16.499
 10
505.85470935107656
 20
-16.44020996063294
 10
505.85589635276943
 20
-16.43922760104152
 10
505.87632247760683
 20
-16.443115912365396
 10
505.87632247760683
 20
-8.02
 10
505.85632247760685
 20
-8.0
 10
504.94369453344393
 20
-8.0
 10
504.92369453344395
 20
-8.02
 10
504.92369453344395
 20
-15.971715728752537
 10
504.8954102621965
 20
-16.0
 10
504.47260103272015
 20
-16.0
  0
LWPOLYLINE
  5
55
330
17
100
AcDbEntity
  8
0
100
AcDbPolyline
 90
48
 70
0
 10
354.9345523978202
 20
-0.009142135623720956
 10
354.92369453344395
 20
-0.02
 10
354.92369453344395
 20
-7.971715728752553
 10
354.8954102621965
 20
-8.0
 10
353.99106658928105
 20
-8.0
 10
353.971066589281
 20
-8.02
 10
353.971066589281
 20
-16.44149239969368
 10
353.99063604606465
 20
-16.437599792716483
 10
353.99183113628453
 20
-16.438580125883846
 10
353.99185864868446
 20
-16.499433042390248
 10
354.94948697249913
 20
-16.49900008609184
 10
355.41069651655926
 20
-16.19067889098889
 10
355.4111714990729
 20
-16.18953218176256
 10
355.37351000998194
 20
-16.000195090322013
 10
355.37367011647154
 20
-15.999999999999996
 10
354.9519788046914
 20
-15.999999999999996
 10
354.92369453344395
 20
-15.97171572875255
 10
354.92369453344395
 20
-8.028284271247445
 10
354.9519788046914
 20
-7.999999999999999
 10
355.85632247760685
 20
-7.999999999999999
 10
355.8763224776069
 20
-7.9799999999999995
 10
355.8763224776069
 20
-0.02
 10
355.86632247760684
 20
-0.009999999999999998
 10
356.37323137049873
 20
-0.009999999999999998
 10
356.337300673139
 20
0.1706358138166004
 10
356.3370831619768
 20
0.17116093221434478
 10
356.22880622409775
 20
0.33320882140795405
 10
356.2195312988514
 20
0.3424837466543065
 10
356.05748340965727
 20
0.45076068453326457
 10
356.05695829125955
 20
0.4509781956954647
 10
355.8658097729158
 20
0.489
 10
355.65880148285817
 20
0.489
 10
355.64165917900965
 20
0.4476148175584725
 10
355.64165917900976
 20
0.489
 10
354.9370233888113
 20
0.489
 10
354.9370233888113
 20
0.4642053250222293
 10
354.93596140804857
 20
0.4632072476780055
 10
354.80232071022266
 20
0.4715063563888259
 10
354.8015170451881
 20
0.47128509620604386
 10
354.5809071655781
 20
0.3429051992049984
 10
354.5712108042128
 20
0.333208838794951
 10
354.4629338536478
 20
0.1711609435780284
 10
354.46271634246
 20
0.17063582515509895
 10
354.42678564053085
 20
-0.009999999999999998
 10
354.91197880469144
 20
-0.009999999999999998
 10
354.91369453344396
 20
-0.008284271247454924
 10
354.93369453344394
 20
-0.008284271247454924
 10
354.9345523978202
 20
-0.009142135623720956
  0
LWPOLYLINE
  5
56
330
17
100
AcDbEntity
  8
0
100
AcDbPolyline
 90
46
 70
0
 10
354.42678051860474
 20
-39.99000000000001
 10
354.46271633719334
 20
-40.17063581244022
 10
354.4629338536479
 20
-40.17116094357822
 10
354.5712108042128
 20
-40.33320883879495
 10
354.5809071655781
 20
-40.342905199205
 10
354.80151704518926
 20
-40.471285096206365
 10
354.80241661712415
 20
-40.47153276089523
 10
354.9352440922994
 20
-40.4894507005157
 10
355.64165917900925
 20
-40.48910864338174
 10
355.6416591790092
 20
-40.44761481755756
 10
355.6588430378773
 20
-40.48910032269094
 10
355.8660515186599
 20
-40.48899998913295
 10
356.0569581783366
 20
-40.45097824246969
 10
356.05748340965715
 20
-40.450760684533336
 10
356.2195312988515
 20
-40.34248374665421
 10
356.22880622409787
 20
-40.33320882140786
 10
356.33708316197664
 20
-40.17116093221479
 10
356.3373006731388
 20
-40.17063581381705
 10
356.37323137049873
 20
-39.99000000000001
 10
355.86632247760684
 20
-39.99000000000001
 10
355.8763224776069
 20
-39.980000000000004
 10
355.8763224776069
 20
-32.02
 10
355.85632247760685
 20
-32.0
 10
354.9519788046914
 20
-32.0
 10
354.92369453344395
 20
-31.971715728752553
 10
354.92369453344395
 20
-24.028284271247447
 10
354.9519788046914
 20
-24.0
 10
355.37478803416707
 20
-24.0
 10
355.3746316132208
 20
-23.99981050466601
 10
355.41117268934727
 20
-23.810470691814118
 10
355.4106965637918
 20
-23.809321223040744
 10
354.9492612446356
 20
-23.500999999999998
 10
353.9926797158113
 20
-23.500999999999998
 10
353.9926797158113
 20
-23.55979003936675
 10
353.9914927141184
 20
-23.56077239895817
 10
353.971066589281
 20
-23.556884087634263
 10
353.971066589281
 20
-31.980000000000004
 10
353.99106658928105
 20
-32.00000000000001
 10
354.8954102621965
 20
-32.00000000000001
 10
354.92369453344395
 20
-32.02828427124745
 10
354.92369453344395
 20
-39.980000000000004
 10
354.9345523978202
 20
-39.99085786437629
 10
354.93369453344394
 20
-39.99171572875255
 10
354.91369453344396
 20
-39.99171572875255
 10
354.91197880469144
 20
-39.99000000000001
 10
354.42678051860474
 20
-39.99000000000001
  0
LWPOLYLINE
  5
57
330
17
100
AcDbEntity
  8
0
100
AcDbPolyline
 90
33
 70
0
 10
446.37323137049873
 20
-0.009999999999999998
 10
446.33730067313894
 20
0.1706358138167514
 10
446.33708316197675
 20
0.17116093221449716
 10
446.22880622409815
 20
0.33320882140761426
 10
446.2195312988518
 20
0.342483746653969
 10
446.0574834096577
 20
0.45076068453309287
 10
446.0569582912599
 20
0.45097819569531983
 10
445.8658097729159
 20
0.489
 10
445.65880148285794
 20
0.489
 10
445.6416591790067
 20
0.44761481755189236
 10
445.6416591790067
 20
0.489
 10
444.93702338758135
 20
0.489
 10
444.93702338758135
 20
0.4711102954683293
 10
444.9359253707713
 20
0.47011511070912726
 10
444.83749828984
 20
0.4798092990556228
 10
444.83669947141783
 20
0.4796504040084269
 10
444.580952991541
 20
0.3429510261588136
 10
444.57121078678995
 20
0.33320882140781893
 10
444.4629338489111
 20
0.17116093221439949
 10
444.46271633774893
 20
0.17063581381665463
 10
444.4267856403892
 20
-0.009999999999999998
 10
444.91197880469144
 20
-0.009999999999999998
 10
444.91369453344396
 20
-0.008284271247466196
 10
444.93369453344394
 20
-0.008284271247466196
 10
444.9345523978202
 20
-0.00914213562373768
 10
444.92369453344395
 20
-0.02
 10
444.92369453344395
 20
-7.9799999999999995
 10
444.94369453344393
 20
-7.999999999999999
 10
445.8563224776068
 20
-7.999999999999999
 10
445.87632247760683
 20
-7.9799999999999995
 10
445.87632247760683
 20
-0.02
 10
445.8663224776068
 20
-0.009999999999999998
 10
446.37323137049873
 20
-0.009999999999999998
  0
LWPOLYLINE
  5
58
330
17
100
AcDbEntity
  8
0
100
AcDbPolyline
 90
31
 70
0
 10
415.4206034264987
 20
-0.009999999999999998
 10
415.38467272913897
 20
0.17063581381665463
 10
415.3844552179768
 20
0.17116093221439949
 10
415.27617828009795
 20
0.33320882140781893
 10
415.2664360753469
 20
0.3429510261588136
 10
415.01068959547007
 20
0.4796504040084269
 10
415.00979358688363
 20
0.47982863140362964
 10
414.91211730414176
 20
0.48942632970750716
 10
414.2057298878812
 20
0.4891027694747782
 10
414.2057298878812
 20
0.44761481755189236
 10
414.1885482753907
 20
0.489094899449905
 10
413.9813506117835
 20
0.48899999271358097
 10
413.7904308824486
 20
0.45097823994187825
 10
413.7899056572302
 20
0.45076068453309287
 10
413.6278577680361
 20
0.342483746653969
 10
413.61858284278975
 20
0.33320882140761426
 10
413.51030590491115
 20
0.17116093221449716
 10
413.51008839374896
 20
0.1706358138167514
 10
413.47415769638917
 20
-0.009999999999999998
 10
413.9810665892811
 20
-0.009999999999999998
 10
413.97106658928107
 20
-0.02
 10
413.97106658928107
 20
-7.9799999999999995
 10
413.9910665892811
 20
-7.999999999999999
 10
414.90369453344397
 20
-7.999999999999999
 10
414.92369453344395
 20
-7.9799999999999995
 10
414.92369453344395
 20
-0.02
 10
414.9128366690677
 20
-0.00914213562373768
 10
414.91369453344396
 20
-0.008284271247466196
 10
414.93369453344394
 20
-0.008284271247466196
 10
414.93541026219646
 20
-0.009999999999999998
 10
415.4206034264987
 20
-0.009999999999999998
  0
LWPOLYLINE
  5
59
330
17
100
AcDbEntity
  8
0
100
AcDbPolyline
 90
46
 70
0
 10
385.42060854828316
 20
-0.009999999999999998
 10
385.3846727296946
 20
0.17063581244003156
 10
385.3844552132401
 20
0.1711609435780284
 10
385.2761782626751
 20
0.333208838794951
 10
385.2664819013098
 20
0.3429051992049984
 10
385.0458720216998
 20
0.47128509620604386
 10
385.04497244976494
 20
0.47153276089491103
 10
384.9121449745885
 20
0.4894507005156986
 10
384.20572988787814
 20
0.48910864338174614
 10
384.20572988787825
 20
0.4476148175584725
 10
384.18854602901047
 20
0.489100322690944
 10
383.981337548228
 20
0.4889999891329545
 10
383.7904308885511
 20
0.45097824246960155
 10
383.78990565723063
 20
0.45076068453326457
 10
383.6278577680365
 20
0.3424837466543065
 10
383.61858284279015
 20
0.33320882140795405
 10
383.5103059049111
 20
0.17116093221434478
 10
383.5100883937489
 20
0.1706358138166004
 10
383.47415769638917
 20
-0.009999999999999998
 10
383.98106658928106
 20
-0.009999999999999998
 10
383.971066589281
 20
-0.02
 10
383.971066589281
 20
-7.9799999999999995
 10
383.99106658928105
 20
-7.999999999999999
 10
384.8954102621965
 20
-7.999999999999999
 10
384.92369453344395
 20
-8.028284271247445
 10
384.92369453344395
 20
-15.971715728752553
 10
384.8954102621965
 20
-16.0
 10
384.47260103272083
 20
-16.0
 10
384.4727574536671
 20
-16.00018949533399
 10
384.43621637754063
 20
-16.18952930818588
 10
384.4366925030961
 20
-16.190678776959253
 10
384.8981278222523
 20
-16.499
 10
385.85470935107656
 20
-16.499
 10
385.85470935107656
 20
-16.440209960633315
 10
385.85589635276943
 20
-16.439227601041893
 10
385.8763224776069
 20
-16.443115912365798
 10
385.8763224776069
 20
-8.02
 10
385.85632247760685
 20
-8.0
 10
384.9519788046914
 20
-8.0
 10
384.92369453344395
 20
-7.971715728752553
 10
384.92369453344395
 20
-0.02
 10
384.9128366690677
 20
-0.009142135623720956
 10
384.91369453344396
 20
-0.008284271247454924
 10
384.93369453344394
 20
-0.008284271247454924
 10
384.93541026219646
 20
-0.009999999999999998
 10
385.42060854828316
 20
-0.009999999999999998
  0
LWPOLYLINE
  5
5A
330
17
100
AcDbEntity
  8
0
100
AcDbPolyline
 90
48
 70
0
 10
385.8763224776069
 20
-23.55850760030632
 10
385.85675302082325
 20
-23.562400207283517
 10
385.85555793060337
 20
-23.561419874116154
 10
385.85553041820344
 20
-23.500566957609752
 10
384.89790209438877
 20
-23.50099991390816
 10
384.43669255032864
 20
-23.809321109011105
 10
384.436217567815
 20
-23.810467818237438
 10
384.47387905690596
 20
-23.999804909677987
 10
384.47371895041636
 20
-24.000000000000004
 10
384.8954102621965
 20
-24.000000000000004
 10
384.92369453344395
 20
-24.02828427124745
 10
384.92369453344395
 20
-31.971715728752553
 10
384.8954102621965
 20
-32.0
 10
383.99106658928105
 20
-32.0
 10
383.971066589281
 20
-32.02
 10
383.971066589281
 20
-39.980000000000004
 10
383.98106658928106
 20
-39.99000000000001
 10
383.47415769638917
 20
-39.99000000000001
 10
383.5100883937491
 20
-40.17063581381705
 10
383.51030590491126
 20
-40.17116093221479
 10
383.61858284279003
 20
-40.33320882140786
 10
383.6278577680364
 20
-40.34248374665421
 10
383.78990565723075
 20
-40.450760684533336
 10
383.7904307756286
 20
-40.45097819569554
 10
383.9815792939721
 20
-40.489
 10
384.1885875840298
 20
-40.489
 10
384.2057298878787
 20
-40.44761481755756
 10
384.20572988787865
 20
-40.489
 10
384.9103656780766
 20
-40.489
 10
384.9103656780766
 20
-40.46420532502231
 10
384.91142765883933
 20
-40.46320724767809
 10
385.04506835666405
 20
-40.47150635638914
 10
385.04587202169864
 20
-40.471285096206365
 10
385.2664819013098
 20
-40.342905199205
 10
385.2761782626751
 20
-40.33320883879495
 10
385.38445521324
 20
-40.17116094357822
 10
385.3846727244278
 20
-40.17063582515529
 10
385.42060342635705
 20
-39.99000000000001
 10
384.93541026219646
 20
-39.99000000000001
 10
384.93369453344394
 20
-39.99171572875255
 10
384.91369453344396
 20
-39.99171572875255
 10
384.9128366690677
 20
-39.99085786437629
 10
384.92369453344395
 20
-39.980000000000004
 10
384.92369453344395
 20
-32.02828427124745
 10
384.9519788046914
 20
-32.00000000000001
 10
385.85632247760685
 20
-32.00000000000001
 10
385.8763224776069
 20
-31.980000000000004
 10
385.8763224776069
 20
-23.55850760030632
  0
LWPOLYLINE
  5
5B
330
17
100
AcDbEntity
  8
0
100
AcDbPolyline
 90
33
 70
0
 10
413.47415769638917
 20
-39.99000000000001
 10
413.5100883937491
 20
-40.17063581381706
 10
413.51030590491126
 20
-40.171160932214796
 10
413.61858284278986
 20
-40.33320882140774
 10
413.6278577680362
 20
-40.34248374665408
 10
413.7899056572307
 20
-40.45076068453332
 10
413.7904307756286
 20
-40.450978195695555
 10
413.98157929397206
 20
-40.489
 10
414.1886293152941
 20
-40.489
 10
414.2057298878811
 20
-40.44771211688801
 10
414.2057298878811
 20
-40.489
 10
414.91036567930655
 20
-40.489
 10
414.91036567930655
 20
-40.4711102954678
 10
414.91146369611664
 20
-40.4701151107086
 10
415.0098907770488
 20
-40.479809299055454
 10
415.0106895954709
 20
-40.479650404008254
 10
415.2664360753469
 20
-40.34295102615885
 10
415.2761782800979
 20
-40.33320882140786
 10
415.38445521797667
 20
-40.171160932214796
 10
415.38467272913886
 20
-40.17063581381706
 10
415.4206034264987
 20
-39.99000000000001
 10
414.93541026219646
 20
-39.99000000000001
 10
414.93369453344394
 20
-39.991715728752546
 10
414.91369453344396
 20
-39.991715728752546
 10
414.9128366690677
 20
-39.990857864376274
 10
414.92369453344395
 20
-39.980000000000004
 10
414.92369453344395
 20
-32.02
 10
414.90369453344397
 20
-32.0
 10
413.9910665892811
 20
-32.0
 10
413.97106658928107
 20
-32.02
 10
413.97106658928107
 20
-39.980000000000004
 10
413.9810665892811
 20
-39.99000000000001
 10
413.47415769638917
 20
-39.99000000000001
  0
LWPOLYLINE
  5
5C
330
17
100
AcDbEntity
  8
0
100
AcDbPolyline
 90
31
 70
0
 10
444.4267856403892
 20
-39.99000000000001
 10
444.46271633774904
 20
-40.17063581381706
 10
444.46293384891123
 20
-40.171160932214796
 10
444.57121078679
 20
-40.33320882140786
 10
444.580952991541
 20
-40.34295102615885
 10
444.836699471417
 20
-40.479650404008254
 10
444.8375954800034
 20
-40.479828631403464
 10
444.93527176274614
 20
-40.48942632970751
 10
445.6416591790068
 20
-40.489102769474776
 10
445.6416591790068
 20
-40.44761481755243
 10
445.6588407914971
 20
-40.4890948994499
 10
445.86603845510433
 20
-40.48899999271358
 10
446.0569581844387
 20
-40.45097823994211
 10
446.0574834096572
 20
-40.45076068453332
 10
446.2195312988517
 20
-40.34248374665408
 10
446.22880622409804
 20
-40.33320882140774
 10
446.33708316197664
 20
-40.171160932214796
 10
446.3373006731388
 20
-40.17063581381706
 10
446.37323137049873
 20
-39.99000000000001
 10
445.8663224776068
 20
-39.99000000000001
 10
445.87632247760683
 20
-39.980000000000004
 10
445.87632247760683
 20
-32.02
 10
445.8563224776068
 20
-32.0
 10
444.94369453344393
 20
-32.0
 10
444.92369453344395
 20
-32.02
 10
444.92369453344395
 20
-39.980000000000004
 10
444.9345523978202
 20
-39.990857864376274
 10
444.93369453344394
 20
-39.991715728752546
 10
444.91369453344396
 20
-39.991715728752546
 10
444.91197880469144
 20
-39.99000000000001
 10
444.4267856403892
 20
-39.99000000000001
  0
LWPOLYLINE
  5
5D
330
17
100
AcDbEntity
  8
0
100
AcDbPolyline
 90
16
 70
0
 10
415.8563224776068
 20
-32.00000000000001
 10
415.87632247760683
 20
-31.980000000000004
 10
415.87632247760683
 20
-23.558507600306324
 10
415.85675302082325
 20
-23.56240020728351
 10
415.8555579306034
 20
-23.561419874116147
 10
415.85553041820344
 20
-23.500566957609745
 10
414.89790209438877
 20
-23.50099991390816
 10
414.43669255032864
 20
-23.80932110901109
 10
414.436217567815
 20
-23.810467818237438
 10
414.47387905690596
 20
-23.999804909677987
 10
414.47371895041636
 20
-24.000000000000004
 10
414.8954102621965
 20
-24.000000000000004
 10
414.92369453344395
 20
-24.02828427124747
 10
414.92369453344395
 20
-31.980000000000004
 10
414.94369453344393
 20
-32.00000000000001
 10
415.8563224776068
 20
-32.00000000000001
  0
LWPOLYLINE
  5
5E
330
17
100
AcDbEntity
  8
0
100
AcDbPolyline
 90
16
 70
0
 10
414.47260103272083
 20
-16.0
 10
414.4727574536671
 20
-16.00018949533399
 10
414.4362163775405
 20
-16.189529308185858
 10
414.436692503096
 20
-16.190678776959253
 10
414.89812782225226
 20
-16.499
 10
415.85470935107656
 20
-16.499
 10
415.85470935107656
 20
-16.440209960633297
 10
415.85589635276943
 20
-16.439227601041875
 10
415.87632247760683
 20
-16.443115912365773
 10
415.87632247760683
 20
-8.02
 10
415.8563224776068
 20
-8.0
 10
414.94369453344393
 20
-8.0
 10
414.92369453344395
 20
-8.02
 10
414.92369453344395
 20
-15.971715728752534
 10
414.8954102621965
 20
-16.0
 10
414.47260103272083
 20
-16.0
  0
LWPOLYLINE
  5
5F
330
17
100
AcDbEntity
  8
0
100
AcDbPolyline
 90
16
 70
0
 10
444.90369453344397
 20
-32.00000000000001
 10
444.92369453344395
 20
-31.980000000000004
 10
444.92369453344395
 20
-24.028284271247465
 10
444.9519788046914
 20
-24.0
 10
445.37478803416707
 20
-24.0
 10
445.3746316132208
 20
-23.99981050466601
 10
445.4111726893474
 20
-23.81047069181414
 10
445.4106965637919
 20
-23.809321223040744
 10
444.94926124463564
 20
-23.500999999999998
 10
443.99267971581133
 20
-23.500999999999998
 10
443.99267971581133
 20
-23.559790039366693
 10
443.99149271411846
 20
-23.560772398958115
 10
443.97106658928107
 20
-23.556884087634216
 10
443.97106658928107
 20
-31.980000000000004
 10
443.9910665892811
 20
-32.00000000000001
 10
444.90369453344397
 20
-32.00000000000001
  0
LWPOLYLINE
  5
60
330
17
100
AcDbEntity
  8
0
100
AcDbPolyline
 90
16
 70
0
 10
443.97106658928107
 20
-16.441492399693676
 10
443.99063604606465
 20
-16.43759979271649
 10
443.9918311362845
 20
-16.438580125883853
 10
443.99185864868446
 20
-16.499433042390255
 10
444.94948697249913
 20
-16.49900008609184
 10
445.41069651655926
 20
-16.190678890988906
 10
445.4111714990729
 20
-16.18953218176256
 10
445.37351000998194
 20
-16.000195090322013
 10
445.37367011647154
 20
-15.999999999999996
 10
444.9519788046914
 20
-15.999999999999996
 10
444.92369453344395
 20
-15.97171572875253
 10
444.92369453344395
 20
-8.02
 10
444.90369453344397
 20
-8.0
 10
443.9910665892811
 20
-8.0
 10
443.97106658928107
 20
-8.02
 10
443.97106658928107
 20
-16.441492399693676
  0
LWPOLYLINE
  5
61
330
17
100
AcDbEntity
  8
0
100
AcDbPolyline
 90
33
 70
0
 10
282.41369453344396
 20
-49.99171572875255
 10
282.4617313324359
 20
-50.47944153379287
 10
282.6039957021658
 20
-50.94842430966528
 10
282.8350205026876
 20
-51.38064131130156
 10
283.1459275804776
 20
-51.75948268171892
 10
283.52476895089495
 20
-52.07038975950891
 10
283.9569859525312
 20
-52.30141456003077
 10
284.42596872840363
 20
-52.44367892976063
 10
284.91369453344396
 20
-52.49171572875255
 10
285.4014203384843
 20
-52.44367892976063
 10
285.8704031143567
 20
-52.30141456003077
 10
286.30262011599297
 20
-52.07038975950892
 10
286.6814614864103
 20
-51.75948268171893
 10
286.9923685642003
 20
-51.38064131130157
 10
287.22339336472214
 20
-50.948424309665285
 10
287.36565773445204
 20
-50.47944153379288
 10
287.41369453344396
 20
-49.99171572875256
 10
287.36565773445204
 20
-49.50398992371224
 10
287.22339336472214
 20
-49.035007147839835
 10
286.9923685642003
 20
-48.60279014620355
 10
286.68146148641034
 20
-48.22394877578619
 10
286.30262011599297
 20
-47.91304169799619
 10
285.8704031143567
 20
-47.68201689747434
 10
285.4014203384843
 20
-47.539752527744476
 10
284.91369453344396
 20
-47.49171572875255
 10
284.42596872840363
 20
-47.539752527744476
 10
283.9569859525312
 20
-47.682016897474334
 10
283.52476895089495
 20
-47.913041697996185
 10
283.14592758047763
 20
-48.22394877578618
 10
282.8350205026876
 20
-48.60279014620354
 10
282.6039957021658
 20
-49.03500714783982
 10
282.4617313324359
 20
-49.503989923712226
 10
282.41369453344396
 20
-49.99171572875255
  0
LWPOLYLINE
  5
62
330
17
100
AcDbEntity
  8
0
100
AcDbPolyline
 90
33
 70
0
 10
542.413694533444
 20
-49.99171572875255
 10
542.4617313324359
 20
-50.47944153379287
 10
542.6039957021658
 20
-50.94842430966528
 10
542.8350205026876
 20
-51.38064131130156
 10
543.1459275804776
 20
-51.75948268171892
 10
543.5247689508949
 20
-52.07038975950891
 10
543.9569859525312
 20
-52.30141456003077
 10
544.4259687284036
 20
-52.44367892976063
 10
544.913694533444
 20
-52.49171572875255
 10
545.4014203384843
 20
-52.44367892976063
 10
545.8704031143567
 20
-52.30141456003077
 10
546.3026201159929
 20
-52.07038975950892
 10
546.6814614864103
 20
-51.75948268171893
 10
546.9923685642003
 20
-51.38064131130157
 10
547.2233933647221
 20
-50.948424309665285
 10
547.365657734452
 20
-50.47944153379288
 10
547.413694533444
 20
-49.99171572875256
 10
547.365657734452
 20
-49.50398992371224
 10
547.2233933647221
 20
-49.035007147839835
 10
546.9923685642003
 20
-48.60279014620355
 10
546.6814614864103
 20
-48.22394877578619
 10
546.3026201159929
 20
-47.91304169799619
 10
545.8704031143567
 20
-47.68201689747434
 10
545.4014203384843
 20
-47.539752527744476
 10
544.913694533444
 20
-47.49171572875255
 10
544.4259687284036
 20
-47.539752527744476
 10
543.9569859525312
 20
-47.682016897474334
 10
543.5247689508949
 20
-47.913041697996185
 10
543.1459275804776
 20
-48.22394877578618
 10
542.8350205026876
 20
-48.60279014620354
 10
542.6039957021658
 20
-49.03500714783982
 10
542.4617313324359
 20
-49.503989923712226
 10
542.413694533444
 20
-49.99171572875255
  0
LWPOLYLINE
  5
63
330
17
100
AcDbEntity
  8
0
100
AcDbPolyline
 90
33
 70
0
 10
282.41369453344396
 20
10.008284271247447
 10
282.4617313324359
 20
9.520558466207127
 10
282.6039957021658
 20
9.051575690334724
 10
282.8350205026876
 20
8.619358688698442
 10
283.1459275804776
 20
8.24051731828108
 10
283.52476895089495
 20
7.929610240491085
 10
283.9569859525312
 20
7.698585439969232
 10
284.42596872840363
 20
7.556321070239372
 10
284.91369453344396
 20
7.508284271247447
 10
285.4014203384843
 20
7.55632107023937
 10
285.8704031143567
 20
7.698585439969229
 10
286.30262011599297
 20
7.9296102404910815
 10
286.6814614864103
 20
8.240517318281075
 10
286.9923685642003
 20
8.619358688698437
 10
287.22339336472214
 20
9.051575690334717
 10
287.36565773445204
 20
9.520558466207119
 10
287.41369453344396
 20
10.008284271247438
 10
287.36565773445204
 20
10.49601007628776
 10
287.22339336472214
 20
10.964992852160163
 10
286.9923685642003
 20
11.397209853796445
 10
286.68146148641034
 20
11.77605122421381
 10
286.30262011599297
 20
12.086958302003804
 10
285.8704031143567
 20
12.31798310252566
 10
285.4014203384843
 20
12.46024747225552
 10
284.91369453344396
 20
12.508284271247447
 10
284.42596872840363
 20
12.460247472255524
 10
283.9569859525312
 20
12.317983102525668
 10
283.52476895089495
 20
12.086958302003815
 10
283.14592758047763
 20
11.776051224213822
 10
282.8350205026876
 20
11.397209853796458
 10
282.6039957021658
 20
10.964992852160178
 10
282.4617313324359
 20
10.496010076287774
 10
282.41369453344396
 20
10.008284271247447
  0
LWPOLYLINE
  5
64
330
17
100
AcDbEntity
  8
0
100
AcDbPolyline
 90
33
 70
0
 10
542.413694533444
 20
10.008284271247447
 10
542.4617313324359
 20
9.520558466207127
 10
542.6039957021658
 20
9.051575690334724
 10
542.8350205026876
 20
8.619358688698442
 10
543.1459275804776
 20
8.24051731828108
 10
543.5247689508949
 20
7.929610240491085
 10
543.9569859525312
 20
7.698585439969232
 10
544.4259687284036
 20
7.556321070239372
 10
544.913694533444
 20
7.508284271247447
 10
545.4014203384843
 20
7.55632107023937
 10
545.8704031143567
 20
7.698585439969229
 10
546.3026201159929
 20
7.9296102404910815
 10
546.6814614864103
 20
8.240517318281075
 10
546.9923685642003
 20
8.619358688698437
 10
547.2233933647221
 20
9.051575690334717
 10
547.365657734452
 20
9.520558466207119
 10
547.413694533444
 20
10.008284271247438
 10
547.365657734452
 20
10.49601007628776
 10
547.2233933647221
 20
10.964992852160163
 10
546.9923685642003
 20
11.397209853796445
 10
546.6814614864103
 20
11.77605122421381
 10
546.3026201159929
 20
12.086958302003804
 10
545.8704031143567
 20
12.31798310252566
 10
545.4014203384843
 20
12.46024747225552
 10
544.913694533444
 20
12.508284271247447
 10
544.4259687284036
 20
12.460247472255524
 10
543.9569859525312
 20
12.317983102525668
 10
543.5247689508949
 20
12.086958302003815
 10
543.1459275804776
 20
11.776051224213822
 10
542.8350205026876
 20
11.397209853796458
 10
542.6039957021658
 20
10.964992852160178
 10
542.4617313324359
 20
10.496010076287774
 10
542.413694533444
 20
10.008284271247447
  0
LWPOLYLINE
  5
65
330
17
100
AcDbEntity
  8
0
100
AcDbPolyline
 90
274
 70
0
 10
525.807053908444
 20
-51.547184478752555
 10
525.3679914084439
 20
-51.488590728752555
 10
525.3517726584439
 20
-51.56119229125255
 10
525.3334289084439
 20
-51.62962197875255
 10
525.312960158444
 20
-51.693879791252556
 10
525.2903664084439
 20
-51.753965728752554
 10
525.265647658444
 20
-51.809879791252555
 10
525.238803908444
 20
-51.86162197875255
 10
525.209835158444
 20
-51.90919229125255
 10
525.1787414084439
 20
-51.952590728752554
 10
525.145522658444
 20
-51.99181729125255
 10
525.1101789084439
 20
-52.02687197875255
 10
525.0729835959439
 20
-52.05819229125255
 10
525.0342101584439
 20
-52.08621572875255
 10
524.993858595944
 20
-52.110942291252556
 10
524.951928908444
 20
-52.13237197875255
 10
524.9084210959439
 20
-52.15050479125255
 10
524.863335158444
 20
-52.165340728752554
 10
524.816671095944
 20
-52.17687979125255
 10
524.768428908444
 20
-52.185121978752555
 10
524.7186085959439
 20
-52.190067291252554
 10
524.6672101584439
 20
-52.191715728752555
 10
524.606147658444
 20
-52.18956729125255
 10
524.5470226584439
 20
-52.18312197875255
 10
524.489835158444
 20
-52.17237979125255
 10
524.434585158444
 20
-52.15734072875255
 10
524.381272658444
 20
-52.138004791252555
 10
524.329897658444
 20
-52.11437197875255
 10
524.2804601584439
 20
-52.08644229125255
 10
524.2329601584439
 20
-52.05421572875255
 10
524.187397658444
 20
-52.01769229125255
 10
524.1437726584439
 20
-51.976871978752555
 10
524.1031007834439
 20
-51.93287197875255
 10
524.0667101584439
 20
-51.886809478752554
 10
524.0346007834439
 20
-51.838684478752555
 10
524.006772658444
 20
-51.788496978752555
 10
523.9832257834439
 20
-51.736246978752554
 10
523.9639601584439
 20
-51.68193447875255
 10
523.948975783444
 20
-51.62555947875255
 10
523.9382726584439
 20
-51.56712197875255
 10
523.9318507834439
 20
-51.506621978752555
 10
523.929710158444
 20
-51.44405947875255
 10
523.931686720944
 20
-51.384653228752555
 10
523.937616408444
 20
-51.32737197875255
 10
523.947499220944
 20
-51.272215728752556
 10
523.961335158444
 20
-51.21918447875255
 10
523.979124220944
 20
-51.168278228752555
 10
524.0008664084439
 20
-51.11949697875255
 10
524.026561720944
 20
-51.07284072875255
 10
524.056210158444
 20
-51.028309478752554
 10
524.089811720944
 20
-50.985903228752555
 10
524.127366408444
 20
-50.945621978752555
 10
524.1679757834439
 20
-50.90821572875255
 10
524.2107414084439
 20
-50.874746978752555
 10
524.2556632834439
 20
-50.84521572875255
 10
524.3027414084439
 20
-50.81962197875255
 10
524.351975783444
 20
-50.79796572875255
 10
524.403366408444
 20
-50.78024697875255
 10
524.4569132834439
 20
-50.76646572875255
 10
524.5126164084439
 20
-50.756621978752555
 10
524.570475783444
 20
-50.75071572875255
 10
524.630491408444
 20
-50.74874697875255
 10
524.655952345944
 20
-50.74923135375255
 10
524.6826476584439
 20
-50.750684478752554
 10
524.710577345944
 20
-50.75310635375255
 10
524.7397414084439
 20
-50.75649697875255
 10
524.770139845944
 20
-50.76085635375255
 10
524.801772658444
 20
-50.76618447875255
 10
524.8346398459439
 20
-50.77248135375255
 10
524.868741408444
 20
-50.779746978752556
 10
524.904077345944
 20
-50.78798135375255
 10
524.9406476584439
 20
-50.797184478752555
 10
524.8914289084439
 20
-50.41124697875255
 10
524.8828507834439
 20
-50.41228604125255
 10
524.8746164084439
 20
-50.413215728752554
 10
524.8667257834439
 20
-50.41403604125255
 10
524.8591789084439
 20
-50.414746978752554
 10
524.851975783444
 20
-50.415348541252555
 10
524.8451164084439
 20
-50.41584072875255
 10
524.8386007834439
 20
-50.41622354125255
 10
524.832428908444
 20
-50.416496978752555
 10
524.826600783444
 20
-50.41666104125255
 10
524.8211164084439
 20
-50.41671572875255
 10
524.765436720944
 20
-50.41525479125255
 10
524.710897658444
 20
-50.41087197875255
 10
524.6574992209439
 20
-50.40356729125255
 10
524.6052414084439
 20
-50.393340728752555
 10
524.554124220944
 20
-50.380192291252555
 10
524.5041476584439
 20
-50.36412197875255
 10
524.455311720944
 20
-50.34512979125255
 10
524.4076164084439
 20
-50.32321572875255
 10
524.3610617209439
 20
-50.29837979125255
 10
524.3156476584439
 20
-50.27062197875255
 10
524.272897658444
 20
-50.23966104125255
 10
524.2346476584439
 20
-50.205528228752556
 10
524.200897658444
 20
-50.16822354125255
 10
524.1716476584439
 20
-50.127746978752555
 10
524.146897658444
 20
-50.08409854125255
 10
524.126647658444
 20
-50.037278228752555
 10
524.110897658444
 20
-49.98728604125255
 10
524.0996476584439
 20
-49.93412197875255
 10
524.0928976584439
 20
-49.87778604125255
 10
524.0906476584439
 20
-49.818278228752554
 10
524.092288283444
 20
-49.77082510375255
 10
524.097210158444
 20
-49.72502822875255
 10
524.1054132834439
 20
-49.68088760375255
 10
524.1168976584439
 20
-49.63840322875255
 10
524.1316632834439
 20
-49.597575103752554
 10
524.1497101584439
 20
-49.55840322875255
 10
524.171038283444
 20
-49.520887603752556
 10
524.1956476584439
 20
-49.485028228752554
 10
524.223538283444
 20
-49.45082510375255
 10
524.2547101584439
 20
-49.418278228752555
 10
524.288319533444
 20
-49.387996978752554
 10
524.3238351584439
 20
-49.36090322875255
 10
524.361257033444
 20
-49.33699697875255
 10
524.400585158444
 20
-49.31627822875255
 10
524.441819533444
 20
-49.298746978752554
 10
524.484960158444
 20
-49.28440322875255
 10
524.5300070334439
 20
-49.27324697875255
 10
524.576960158444
 20
-49.26527822875255
 10
524.625819533444
 20
-49.260496978752556
 10
524.6765851584439
 20
-49.25890322875255
 10
524.7269835959439
 20
-49.260520416252554
 10
524.775678908444
 20
-49.265371978752555
 10
524.822671095944
 20
-49.27345791625255
 10
524.8679601584439
 20
-49.28477822875255
 10
524.911546095944
 20
-49.29933291625255
 10
524.9534289084439
 20
-49.31712197875255
 10
524.9936085959439
 20
-49.33814541625255
 10
525.0320851584439
 20
-49.362403228752555
 10
525.068858595944
 20
-49.38989541625255
 10
525.103928908444
 20
-49.42062197875255
 10
525.136921095944
 20
-49.45441885375255
 10
525.167460158444
 20
-49.49143447875255
 10
525.195546095944
 20
-49.53166885375255
 10
525.2211789084439
 20
-49.575121978752556
 10
525.2443585959439
 20
-49.62179385375255
 10
525.265085158444
 20
-49.67168447875255
 10
525.2833585959439
 20
-49.72479385375255
 10
525.299178908444
 20
-49.78112197875255
 10
525.312546095944
 20
-49.840668853752554
 10
525.3234601584439
 20
-49.90343447875255
 10
525.763303908444
 20
-49.82530947875255
 10
525.745163283444
 20
-49.739012603752556
 10
525.7229289084439
 20
-49.65668447875255
 10
525.696600783444
 20
-49.578325103752555
 10
525.666178908444
 20
-49.503934478752555
 10
525.6316632834439
 20
-49.433512603752554
 10
525.593053908444
 20
-49.36705947875255
 10
525.550350783444
 20
-49.304575103752555
 10
525.5035539084439
 20
-49.24605947875255
 10
525.4526632834439
 20
-49.19151260375255
 10
525.3976789084439
 20
-49.140934478752555
 10
525.339100783444
 20
-49.09477041625255
 10
525.277741408444
 20
-49.05346572875255
 10
525.2136007834439
 20
-49.01702041625255
 10
525.146678908444
 20
-48.98543447875255
 10
525.0769757834439
 20
-48.95870791625255
 10
525.004491408444
 20
-48.93684072875255
 10
524.9292257834439
 20
-48.91983291625255
 10
524.8511789084439
 20
-48.90768447875255
 10
524.770350783444
 20
-48.90039541625255
 10
524.6867414084439
 20
-48.89796572875255
 10
524.6286164084439
 20
-48.89922354125255
 10
524.571428908444
 20
-48.902996978752554
 10
524.515178908444
 20
-48.90928604125255
 10
524.459866408444
 20
-48.91809072875255
 10
524.4054914084439
 20
-48.92941104125255
 10
524.352053908444
 20
-48.943246978752555
 10
524.299553908444
 20
-48.959598541252554
 10
524.2479914084439
 20
-48.97846572875255
 10
524.1973664084439
 20
-48.999848541252554
 10
524.1476789084439
 20
-49.023746978752555
 10
524.0994679709439
 20
-49.04981729125255
 10
524.053585158444
 20
-49.07771572875255
 10
524.010030470944
 20
-49.10744229125255
 10
523.968803908444
 20
-49.13899697875255
 10
523.9299054709439
 20
-49.17237979125255
 10
523.893335158444
 20
-49.20759072875255
 10
523.859092970944
 20
-49.24462979125255
 10
523.8271789084439
 20
-49.28349697875255
 10
523.7975929709439
 20
-49.32419229125255
 10
523.7703351584439
 20
-49.36671572875255
 10
523.745397658444
 20
-49.410426666252555
 10
523.723085158444
 20
-49.454684478752554
 10
523.7033976584439
 20
-49.49948916625255
 10
523.686335158444
 20
-49.544840728752554
 10
523.671897658444
 20
-49.590739166252554
 10
523.660085158444
 20
-49.63718447875255
 10
523.6508976584439
 20
-49.684176666252554
 10
523.6443351584439
 20
-49.731715728752555
 10
523.6403976584439
 20
-49.77980166625255
 10
523.639085158444
 20
-49.828434478752555
 10
523.6403351584439
 20
-49.87427822875255
 10
523.644085158444
 20
-49.91930947875255
 10
523.6503351584439
 20
-49.96352822875255
 10
523.659085158444
 20
-50.006934478752555
 10
523.670335158444
 20
-50.04952822875255
 10
523.684085158444
 20
-50.09130947875255
 10
523.700335158444
 20
-50.132278228752554
 10
523.7190851584439
 20
-50.17243447875255
 10
523.7403351584439
 20
-50.21177822875255
 10
523.764085158444
 20
-50.250309478752555
 10
523.790124220944
 20
-50.28765322875255
 10
523.818553908444
 20
-50.32343447875255
 10
523.8493742209439
 20
-50.357653228752554
 10
523.8825851584439
 20
-50.390309478752556
 10
523.9181867209439
 20
-50.42140322875255
 10
523.9561789084439
 20
-50.45093447875255
 10
523.996561720944
 20
-50.47890322875255
 10
524.0393351584439
 20
-50.50530947875255
 10
524.0844992209439
 20
-50.53015322875255
 10
524.1320539084439
 20
-50.55343447875255
 10
524.070030470944
 20
-50.56955166625255
 10
524.0108351584439
 20
-50.58884072875255
 10
523.9544679709439
 20
-50.61130166625255
 10
523.9009289084439
 20
-50.63693447875255
 10
523.850217970944
 20
-50.66573916625255
 10
523.802335158444
 20
-50.697715728752556
 10
523.7572804709439
 20
-50.732864166252554
 10
523.7150539084439
 20
-50.77118447875255
 10
523.675655470944
 20
-50.81267666625255
 10
523.639085158444
 20
-50.857340728752554
 10
523.6056867209439
 20
-50.904598541252554
 10
523.575803908444
 20
-50.95418447875255
 10
523.549436720944
 20
-51.006098541252555
 10
523.5265851584439
 20
-51.06034072875255
 10
523.507249220944
 20
-51.11691104125255
 10
523.4914289084439
 20
-51.175809478752555
 10
523.479124220944
 20
-51.23703604125255
 10
523.470335158444
 20
-51.30059072875255
 10
523.4650617209439
 20
-51.36647354125255
 10
523.463303908444
 20
-51.43468447875255
 10
523.466725783444
 20
-51.52700479125255
 10
523.476991408444
 20
-51.61646572875255
 10
523.494100783444
 20
-51.70306729125255
 10
523.5180539084439
 20
-51.78680947875255
 10
523.548850783444
 20
-51.86769229125255
 10
523.586491408444
 20
-51.94571572875255
 10
523.630975783444
 20
-52.020879791252554
 10
523.6823039084439
 20
-52.093184478752555
 10
523.7404757834439
 20
-52.162629791252556
 10
523.8054914084439
 20
-52.22921572875255
 10
523.875585158444
 20
-52.291114166252555
 10
523.949303908444
 20
-52.346496978752555
 10
524.026647658444
 20
-52.395364166252556
 10
524.107616408444
 20
-52.43771572875255
 10
524.1922101584439
 20
-52.473551666252554
 10
524.2804289084439
 20
-52.50287197875255
 10
524.372272658444
 20
-52.52567666625255
 10
524.467741408444
 20
-52.54196572875255
 10
524.566835158444
 20
-52.55173916625255
 10
524.669553908444
 20
-52.554996978752555
 10
524.762178908444
 20
-52.55219229125255
 10
524.851616408444
 20
-52.54377822875255
 10
524.9378664084439
 20
-52.52975479125255
 10
525.0209289084439
 20
-52.51012197875255
 10
525.1008039084439
 20
-52.48487979125255
 10
525.177491408444
 20
-52.454028228752556
 10
525.250991408444
 20
-52.41756729125255
 10
525.321303908444
 20
-52.37549697875255
 10
525.388428908444
 20
-52.32781729125255
 10
525.4523664084439
 20
-52.27452822875255
 10
525.511882033444
 20
-52.21662979125255
 10
525.5660539084439
 20
-52.155434478752554
 10
525.6148820334439
 20
-52.09094229125255
 10
525.658366408444
 20
-52.023153228752555
 10
525.6965070334439
 20
-51.952067291252554
 10
525.729303908444
 20
-51.877684478752556
 10
525.7567570334439
 20
-51.800004791252555
 10
525.778866408444
 20
-51.71902822875255
 10
525.7956320334439
 20
-51.634754791252554
 10
525.807053908444
 20
-51.547184478752555
  0
LWPOLYLINE
  5
66
330
17
100
AcDbEntity
  8
0
100
AcDbPolyline
 90
7
 70
0
 10
539.547288283444
 20
-52.49171572875255
 10
539.547288283444
 20
-48.91280947875255
 10
539.073850783444
 20
-48.91280947875255
 10
539.073850783444
 20
-52.06905947875255
 10
537.3113507834439
 20
-52.06905947875255
 10
537.3113507834439
 20
-52.49171572875255
 10
539.547288283444
 20
-52.49171572875255
  0
LWPOLYLINE
  5
67
330
17
100
AcDbEntity
  8
0
100
AcDbPolyline
 90
77
 70
0
 10
528.7464093771939
 20
-52.49171572875255
 10
528.7464093771939
 20
-49.898746978752555
 10
528.351096877194
 20
-49.898746978752555
 10
528.351096877194
 20
-50.29171572875255
 10
528.3210187521939
 20
-50.238442291252554
 10
528.291409377194
 20
-50.18893447875255
 10
528.2622687521939
 20
-50.143192291252554
 10
528.2335968771939
 20
-50.10121572875255
 10
528.2053937521939
 20
-50.06300479125255
 10
528.177659377194
 20
-50.028559478752555
 10
528.150393752194
 20
-49.99787979125255
 10
528.1235968771939
 20
-49.97096572875255
 10
528.0972687521939
 20
-49.947817291252555
 10
528.071409377194
 20
-49.92843447875255
 10
528.045526564694
 20
-49.91166104125255
 10
528.019128127194
 20
-49.896653228752555
 10
527.9922140646939
 20
-49.88341104125255
 10
527.964784377194
 20
-49.87193447875255
 10
527.9368390646939
 20
-49.862223541252554
 10
527.9083781271939
 20
-49.854278228752555
 10
527.8794015646939
 20
-49.848098541252554
 10
527.849909377194
 20
-49.84368447875255
 10
527.819901564694
 20
-49.84103604125255
 10
527.7893781271939
 20
-49.840153228752555
 10
527.7449250021939
 20
-49.84156729125255
 10
527.700315627194
 20
-49.84580947875255
 10
527.655550002194
 20
-49.852879791252555
 10
527.610628127194
 20
-49.86277822875255
 10
527.565550002194
 20
-49.87550479125255
 10
527.5203156271939
 20
-49.89105947875255
 10
527.4749250021939
 20
-49.90944229125255
 10
527.4293781271939
 20
-49.930653228752554
 10
527.383675002194
 20
-49.954692291252556
 10
527.337815627194
 20
-49.98155947875255
 10
527.489378127194
 20
-50.38937197875255
 10
527.5215656271939
 20
-50.371262603752555
 10
527.553753127194
 20
-50.35505947875255
 10
527.585940627194
 20
-50.34076260375255
 10
527.6181281271939
 20
-50.32837197875255
 10
527.650315627194
 20
-50.31788760375255
 10
527.682503127194
 20
-50.30930947875255
 10
527.7146906271939
 20
-50.30263760375255
 10
527.7468781271939
 20
-50.29787197875255
 10
527.779065627194
 20
-50.295012603752554
 10
527.8112531271939
 20
-50.29405947875255
 10
527.8398625021939
 20
-50.29492666625255
 10
527.867878127194
 20
-50.297528228752554
 10
527.895300002194
 20
-50.30186416625255
 10
527.9221281271939
 20
-50.30793447875255
 10
527.948362502194
 20
-50.315739166252555
 10
527.9740031271939
 20
-50.32527822875255
 10
527.9990500021939
 20
-50.336551666252554
 10
528.023503127194
 20
-50.34955947875255
 10
528.0473625021939
 20
-50.36430166625255
 10
528.0706281271939
 20
-50.380778228752554
 10
528.092932814694
 20
-50.39879385375255
 10
528.113909377194
 20
-50.41815322875255
 10
528.133557814694
 20
-50.438856353752556
 10
528.151878127194
 20
-50.46090322875255
 10
528.168870314694
 20
-50.484293853752554
 10
528.1845343771939
 20
-50.509028228752555
 10
528.198870314694
 20
-50.53510635375255
 10
528.2118781271939
 20
-50.562528228752555
 10
528.223557814694
 20
-50.59129385375255
 10
528.233909377194
 20
-50.621403228752555
 10
528.2478625021939
 20
-50.66871572875255
 10
528.2603468771939
 20
-50.71690322875255
 10
528.2713625021939
 20
-50.765965728752555
 10
528.2809093771939
 20
-50.81590322875255
 10
528.288987502194
 20
-50.86671572875255
 10
528.2955968771939
 20
-50.91840322875255
 10
528.3007375021939
 20
-50.97096572875255
 10
528.3044093771939
 20
-51.024403228752554
 10
528.306612502194
 20
-51.078715728752556
 10
528.3073468771939
 20
-51.13390322875255
 10
528.3073468771939
 20
-52.49171572875255
 10
528.7464093771939
 20
-52.49171572875255
  0
LWPOLYLINE
  5
68
330
17
100
AcDbEntity
  8
0
100
AcDbPolyline
 90
133
 70
0
 10
529.747483595944
 20
-51.656559478752555
 10
529.293577345944
 20
-51.712809478752554
 10
529.316819533444
 20
-51.79056729125255
 10
529.343733595944
 20
-51.864778228752556
 10
529.3743195334439
 20
-51.93544229125255
 10
529.408577345944
 20
-52.00255947875255
 10
529.4465070334439
 20
-52.06612979125255
 10
529.4881085959439
 20
-52.12615322875255
 10
529.5333820334439
 20
-52.18262979125255
 10
529.5823273459439
 20
-52.235559478752556
 10
529.6349445334439
 20
-52.284942291252555
 10
529.6912335959439
 20
-52.33077822875255
 10
529.750967970944
 20
-52.37248916625255
 10
529.8139210959439
 20
-52.40980947875255
 10
529.8800929709439
 20
-52.44273916625255
 10
529.949483595944
 20
-52.47127822875255
 10
530.022092970944
 20
-52.495426666252555
 10
530.097921095944
 20
-52.51518447875255
 10
530.1769679709439
 20
-52.53055166625255
 10
530.2592335959439
 20
-52.541528228752554
 10
530.344717970944
 20
-52.54811416625255
 10
530.4334210959439
 20
-52.55030947875255
 10
530.544819533444
 20
-52.54680947875255
 10
530.6515148459439
 20
-52.53630947875255
 10
530.753507033444
 20
-52.51880947875255
 10
530.8507960959439
 20
-52.494309478752555
 10
530.943382033444
 20
-52.462809478752554
 10
531.031264845944
 20
-52.424309478752555
 10
531.1144445334439
 20
-52.37880947875255
 10
531.1929210959439
 20
-52.326309478752556
 10
531.2666945334439
 20
-52.266809478752556
 10
531.3357648459439
 20
-52.20030947875255
 10
531.3991476584439
 20
-52.12734072875255
 10
531.4558585959439
 20
-52.048746978752554
 10
531.5058976584439
 20
-51.964528228752556
 10
531.549264845944
 20
-51.874684478752556
 10
531.585960158444
 20
-51.779215728752554
 10
531.6159835959439
 20
-51.67812197875255
 10
531.6393351584439
 20
-51.57140322875255
 10
531.6560148459439
 20
-51.45905947875255
 10
531.6660226584439
 20
-51.341090728752555
 10
531.669358595944
 20
-51.21749697875255
 10
531.6659914084439
 20
-51.08949697875255
 10
531.655889845944
 20
-50.96737197875255
 10
531.639053908444
 20
-50.85112197875255
 10
531.6154835959439
 20
-50.740746978752554
 10
531.5851789084439
 20
-50.63624697875255
 10
531.548139845944
 20
-50.537621978752554
 10
531.504366408444
 20
-50.44487197875255
 10
531.453858595944
 20
-50.35799697875255
 10
531.396616408444
 20
-50.27699697875255
 10
531.332639845944
 20
-50.20187197875255
 10
531.2631476584439
 20
-50.13314541625255
 10
531.1896710959439
 20
-50.07165322875255
 10
531.112210158444
 20
-50.017395416252555
 10
531.030764845944
 20
-49.97037197875255
 10
530.945335158444
 20
-49.930582916252554
 10
530.8559210959439
 20
-49.89802822875255
 10
530.7625226584439
 20
-49.87270791625255
 10
530.6651398459439
 20
-49.854621978752554
 10
530.5637726584439
 20
-49.84377041625255
 10
530.458421095944
 20
-49.840153228752555
 10
530.356264845944
 20
-49.84369229125255
 10
530.257921095944
 20
-49.854309478752555
 10
530.1633898459439
 20
-49.87200479125255
 10
530.072671095944
 20
-49.89677822875255
 10
529.985764845944
 20
-49.928629791252554
 10
529.9026710959439
 20
-49.96755947875255
 10
529.8233898459439
 20
-50.01356729125255
 10
529.747921095944
 20
-50.06665322875255
 10
529.6762648459439
 20
-50.12681729125255
 10
529.608421095944
 20
-50.19405947875255
 10
529.5457804709439
 20
-50.26772354125255
 10
529.4897335959439
 20
-50.34715322875255
 10
529.440280470944
 20
-50.43234854125255
 10
529.397421095944
 20
-50.52330947875255
 10
529.3611554709439
 20
-50.620036041252554
 10
529.331483595944
 20
-50.72252822875255
 10
529.308405470944
 20
-50.83078604125255
 10
529.291921095944
 20
-50.94480947875255
 10
529.2820304709439
 20
-51.06459854125255
 10
529.278733595944
 20
-51.19015322875255
 10
529.278757033444
 20
-51.19835635375255
 10
529.2788273459439
 20
-51.207340728752555
 10
529.2789445334439
 20
-51.217106353752555
 10
529.279108595944
 20
-51.22765322875255
 10
529.279319533444
 20
-51.23898135375255
 10
529.279577345944
 20
-51.25109072875255
 10
529.279882033444
 20
-51.263981353752555
 10
529.280233595944
 20
-51.277653228752555
 10
529.2806320334439
 20
-51.29210635375255
 10
529.2810773459439
 20
-51.30734072875255
 10
531.2146710959439
 20
-51.30734072875255
 10
531.2078976584439
 20
-51.39080947875255
 10
531.1972648459439
 20
-51.470278228752555
 10
531.1827726584439
 20
-51.545746978752554
 10
531.1644210959439
 20
-51.617215728752555
 10
531.142210158444
 20
-51.68468447875255
 10
531.116139845944
 20
-51.74815322875255
 10
531.0862101584439
 20
-51.80762197875255
 10
531.0524210959439
 20
-51.86309072875255
 10
531.0147726584439
 20
-51.91455947875255
 10
530.973264845944
 20
-51.96202822875255
 10
530.9287492209439
 20
-52.00507510375255
 10
530.8820773459439
 20
-52.043590728752555
 10
530.8332492209439
 20
-52.07757510375255
 10
530.7822648459439
 20
-52.107028228752554
 10
530.729124220944
 20
-52.13195010375255
 10
530.673827345944
 20
-52.152340728752556
 10
530.616374220944
 20
-52.168200103752554
 10
530.5567648459439
 20
-52.17952822875255
 10
530.4949992209439
 20
-52.18632510375255
 10
530.431077345944
 20
-52.18859072875255
 10
530.3834992209439
 20
-52.18732510375255
 10
530.337327345944
 20
-52.18352822875255
 10
530.2925617209439
 20
-52.177200103752554
 10
530.2492023459439
 20
-52.168340728752554
 10
530.2072492209439
 20
-52.15695010375255
 10
530.1667023459439
 20
-52.143028228752556
 10
530.127561720944
 20
-52.12657510375255
 10
530.089827345944
 20
-52.107590728752555
 10
530.053499220944
 20
-52.086075103752556
 10
530.018577345944
 20
-52.06202822875255
 10
529.985069533444
 20
-52.03505166625255
 10
529.9529835959439
 20
-52.00505947875255
 10
529.9223195334439
 20
-51.972051666252554
 10
529.893077345944
 20
-51.936028228752555
 10
529.865257033444
 20
-51.89698916625255
 10
529.838858595944
 20
-51.854934478752554
 10
529.813882033444
 20
-51.80986416625255
 10
529.790327345944
 20
-51.761778228752554
 10
529.768194533444
 20
-51.71067666625255
 10
529.747483595944
 20
-51.656559478752555
  0
LWPOLYLINE
  5
69
330
17
100
AcDbEntity
  8
0
100
AcDbPolyline
 90
244
 70
0
 10
535.1110578146939
 20
-52.172184478752555
 10
535.159776564694
 20
-52.21237979125255
 10
535.2081203146939
 20
-52.25015322875255
 10
535.2560890646939
 20
-52.28550479125255
 10
535.303682814694
 20
-52.31843447875255
 10
535.3509015646939
 20
-52.348942291252555
 10
535.3977453146939
 20
-52.37702822875255
 10
535.4442140646939
 20
-52.40269229125255
 10
535.490307814694
 20
-52.42593447875255
 10
535.536026564694
 20
-52.44675479125255
 10
535.5813703146939
 20
-52.465153228752555
 10
535.6268546896939
 20
-52.481332916252555
 10
535.6729953146939
 20
-52.495809478752555
 10
535.719792189694
 20
-52.50858291625255
 10
535.7672453146939
 20
-52.51965322875255
 10
535.815354689694
 20
-52.52902041625255
 10
535.864120314694
 20
-52.536684478752555
 10
535.913542189694
 20
-52.542645416252554
 10
535.9636203146939
 20
-52.546903228752555
 10
536.014354689694
 20
-52.54945791625255
 10
536.0657453146939
 20
-52.55030947875255
 10
536.149237502194
 20
-52.548223541252554
 10
536.2287765646939
 20
-52.54196572875255
 10
536.304362502194
 20
-52.53153604125255
 10
536.3759953146939
 20
-52.51693447875255
 10
536.4436750021939
 20
-52.49816104125255
 10
536.507401564694
 20
-52.47521572875255
 10
536.567175002194
 20
-52.448098541252556
 10
536.622995314694
 20
-52.416809478752555
 10
536.674862502194
 20
-52.38134854125255
 10
536.722776564694
 20
-52.341715728752554
 10
536.7664171896939
 20
-52.29883291625255
 10
536.805464064694
 20
-52.253621978752555
 10
536.839917189694
 20
-52.206082916252555
 10
536.8697765646939
 20
-52.15621572875255
 10
536.895042189694
 20
-52.10402041625255
 10
536.9157140646939
 20
-52.04949697875255
 10
536.931792189694
 20
-51.99264541625255
 10
536.943276564694
 20
-51.93346572875255
 10
536.950167189694
 20
-51.871957916252555
 10
536.9524640646939
 20
-51.80812197875255
 10
536.951596877194
 20
-51.770332916252556
 10
536.948995314694
 20
-51.733215728752555
 10
536.944659377194
 20
-51.696770416252555
 10
536.9385890646939
 20
-51.66099697875255
 10
536.930784377194
 20
-51.625895416252554
 10
536.9212453146939
 20
-51.59146572875255
 10
536.9099718771939
 20
-51.557707916252554
 10
536.896964064694
 20
-51.52462197875255
 10
536.882221877194
 20
-51.49220791625255
 10
536.865745314694
 20
-51.46046572875255
 10
536.847862502194
 20
-51.42952822875255
 10
536.828901564694
 20
-51.39984072875255
 10
536.808862502194
 20
-51.371403228752555
 10
536.7877453146939
 20
-51.34421572875255
 10
536.765550002194
 20
-51.318278228752554
 10
536.742276564694
 20
-51.293590728752555
 10
536.717925002194
 20
-51.270153228752555
 10
536.6924953146939
 20
-51.247965728752554
 10
536.665987502194
 20
-51.22702822875255
 10
536.6384015646939
 20
-51.207340728752555
 10
536.6099250021939
 20
-51.188746978752555
 10
536.5807453146939
 20
-51.17109072875255
 10
536.5508625021939
 20
-51.15437197875255
 10
536.520276564694
 20
-51.138590728752554
 10
536.4889875021939
 20
-51.12374697875255
 10
536.4569953146939
 20
-51.10984072875255
 10
536.424300002194
 20
-51.09687197875255
 10
536.390901564694
 20
-51.08484072875255
 10
536.356800002194
 20
-51.07374697875255
 10
536.3219953146939
 20
-51.06359072875255
 10
536.2948859396939
 20
-51.056739166252555
 10
536.265120314694
 20
-51.049934478752554
 10
536.232698439694
 20
-51.04317666625255
 10
536.197620314694
 20
-51.03646572875255
 10
536.1598859396939
 20
-51.02980166625255
 10
536.119495314694
 20
-51.023184478752555
 10
536.076448439694
 20
-51.01661416625255
 10
536.030745314694
 20
-51.01009072875255
 10
535.9823859396939
 20
-51.003614166252554
 10
535.9313703146939
 20
-50.99718447875255
 10
535.827768752194
 20
-50.98428604125255
 10
535.7297765646939
 20
-50.970903228752555
 10
535.6373937521939
 20
-50.95703604125255
 10
535.5506203146939
 20
-50.942684478752554
 10
535.4694562521939
 20
-50.92784854125255
 10
535.3939015646939
 20
-50.91252822875255
 10
535.323956252194
 20
-50.896723541252555
 10
535.259620314694
 20
-50.880434478752555
 10
535.2008937521939
 20
-50.863661041252556
 10
535.1477765646939
 20
-50.84640322875255
 10
535.1473312521939
 20
-50.82894229125255
 10
535.146932814694
 20
-50.812809478752555
 10
535.146581252194
 20
-50.79800479125255
 10
535.146276564694
 20
-50.78452822875255
 10
535.146018752194
 20
-50.772379791252554
 10
535.145807814694
 20
-50.76155947875255
 10
535.1456437521939
 20
-50.75206729125255
 10
535.1455265646939
 20
-50.74390322875255
 10
535.145456252194
 20
-50.73706729125255
 10
535.145432814694
 20
-50.73155947875255
 10
535.1466828146939
 20
-50.679395416252554
 10
535.150432814694
 20
-50.630403228752556
 10
535.1566828146939
 20
-50.58458291625255
 10
535.165432814694
 20
-50.54193447875255
 10
535.176682814694
 20
-50.50245791625255
 10
535.190432814694
 20
-50.46615322875255
 10
535.206682814694
 20
-50.43302041625255
 10
535.2254328146939
 20
-50.40305947875255
 10
535.2466828146939
 20
-50.37627041625255
 10
535.270432814694
 20
-50.35265322875255
 10
535.305667189694
 20
-50.324450103752554
 10
535.3441828146939
 20
-50.29921572875255
 10
535.385979689694
 20
-50.276950103752554
 10
535.431057814694
 20
-50.25765322875255
 10
535.479417189694
 20
-50.24132510375255
 10
535.5310578146939
 20
-50.22796572875255
 10
535.585979689694
 20
-50.21757510375255
 10
535.644182814694
 20
-50.21015322875255
 10
535.7056671896939
 20
-50.205700103752555
 10
535.770432814694
 20
-50.20421572875255
 10
535.8308390646939
 20
-50.20530166625255
 10
535.887995314694
 20
-50.208559478752555
 10
535.9419015646939
 20
-50.21398916625255
 10
535.9925578146939
 20
-50.22159072875255
 10
536.039964064694
 20
-50.231364166252554
 10
536.0841203146939
 20
-50.24330947875255
 10
536.1250265646939
 20
-50.257426666252556
 10
536.162682814694
 20
-50.27371572875255
 10
536.197089064694
 20
-50.29217666625255
 10
536.2282453146939
 20
-50.312809478752555
 10
536.2570109396939
 20
-50.33620010375255
 10
536.284245314694
 20
-50.36293447875255
 10
536.3099484396939
 20
-50.39301260375255
 10
536.3341203146939
 20
-50.426434478752554
 10
536.3567609396939
 20
-50.463200103752555
 10
536.377870314694
 20
-50.503309478752556
 10
536.3974484396939
 20
-50.546762603752555
 10
536.415495314694
 20
-50.59355947875255
 10
536.4320109396939
 20
-50.64370010375255
 10
536.4469953146939
 20
-50.697184478752554
 10
536.8766828146939
 20
-50.638590728752554
 10
536.864206252194
 20
-50.584496978752554
 10
536.850214064694
 20
-50.532528228752554
 10
536.834706252194
 20
-50.48268447875255
 10
536.817682814694
 20
-50.43496572875255
 10
536.7991437521939
 20
-50.38937197875255
 10
536.779089064694
 20
-50.345903228752555
 10
536.757518752194
 20
-50.30455947875255
 10
536.734432814694
 20
-50.265340728752555
 10
536.7098312521939
 20
-50.22824697875255
 10
536.683714064694
 20
-50.193278228752554
 10
536.6556437521939
 20
-50.160153228752556
 10
536.625182814694
 20
-50.12859072875255
 10
536.592331252194
 20
-50.098590728752555
 10
536.557089064694
 20
-50.07015322875255
 10
536.519456252194
 20
-50.043278228752555
 10
536.479432814694
 20
-50.01796572875255
 10
536.4370187521939
 20
-49.99421572875255
 10
536.3922140646939
 20
-49.97202822875255
 10
536.3450187521939
 20
-49.951403228752554
 10
536.295432814694
 20
-49.93234072875255
 10
536.243846877194
 20
-49.91482510375255
 10
536.1906515646939
 20
-49.89915322875255
 10
536.1358468771939
 20
-49.88532510375255
 10
536.079432814694
 20
-49.87334072875255
 10
536.021409377194
 20
-49.863200103752554
 10
535.961776564694
 20
-49.854903228752555
 10
535.9005343771939
 20
-49.848450103752555
 10
535.837682814694
 20
-49.843840728752554
 10
535.7732218771939
 20
-49.84107510375255
 10
535.707151564694
 20
-49.840153228752555
 10
535.641995314694
 20
-49.84093447875255
 10
535.579339064694
 20
-49.84327822875255
 10
535.519182814694
 20
-49.84718447875255
 10
535.4615265646939
 20
-49.85265322875255
 10
535.406370314694
 20
-49.859684478752555
 10
535.3537140646939
 20
-49.86827822875255
 10
535.3035578146939
 20
-49.87843447875255
 10
535.255901564694
 20
-49.89015322875255
 10
535.2107453146939
 20
-49.90343447875255
 10
535.168089064694
 20
-49.918278228752555
 10
535.1276281271939
 20
-49.93430947875255
 10
535.089370314694
 20
-49.95115322875255
 10
535.0533156271939
 20
-49.968809478752554
 10
535.0194640646939
 20
-49.98727822875255
 10
534.987815627194
 20
-50.00655947875255
 10
534.958370314694
 20
-50.02665322875255
 10
534.9311281271939
 20
-50.047559478752554
 10
534.9060890646939
 20
-50.06927822875255
 10
534.8832531271939
 20
-50.09180947875255
 10
534.8626203146939
 20
-50.115153228752554
 10
534.843675002194
 20
-50.13937979125255
 10
534.8259015646939
 20
-50.16487197875255
 10
534.8093000021939
 20
-50.19162979125255
 10
534.793870314694
 20
-50.219653228752556
 10
534.7796125021939
 20
-50.248942291252554
 10
534.766526564694
 20
-50.279496978752555
 10
534.7546125021939
 20
-50.31131729125255
 10
534.7438703146939
 20
-50.344403228752554
 10
534.734300002194
 20
-50.378754791252554
 10
534.7259015646939
 20
-50.414371978752555
 10
534.721745314694
 20
-50.43852822875255
 10
534.7180265646939
 20
-50.46630947875255
 10
534.7147453146939
 20
-50.49771572875255
 10
534.7119015646939
 20
-50.532746978752556
 10
534.709495314694
 20
-50.57140322875255
 10
534.7075265646939
 20
-50.61368447875255
 10
534.705995314694
 20
-50.659590728752555
 10
534.704901564694
 20
-50.70912197875255
 10
534.7042453146939
 20
-50.76227822875255
 10
534.704026564694
 20
-50.81905947875255
 10
534.704026564694
 20
-51.40499697875255
 10
534.703745314694
 20
-51.523145416252554
 10
534.702901564694
 20
-51.632278228752554
 10
534.701495314694
 20
-51.73239541625255
 10
534.699526564694
 20
-51.82349697875255
 10
534.6969953146939
 20
-51.905582916252555
 10
534.693901564694
 20
-51.978653228752556
 10
534.6902453146939
 20
-52.04270791625255
 10
534.686026564694
 20
-52.097746978752554
 10
534.6812453146939
 20
-52.14377041625255
 10
534.675901564694
 20
-52.18077822875255
 10
534.669721877194
 20
-52.21299697875255
 10
534.662432814694
 20
-52.244965728752554
 10
534.654034377194
 20
-52.27668447875255
 10
534.6445265646939
 20
-52.30815322875255
 10
534.633909377194
 20
-52.33937197875255
 10
534.6221828146939
 20
-52.37034072875255
 10
534.609346877194
 20
-52.40105947875255
 10
534.5954015646939
 20
-52.431528228752555
 10
534.580346877194
 20
-52.46174697875255
 10
534.5641828146939
 20
-52.49171572875255
 10
535.023557814694
 20
-52.49171572875255
 10
535.036667189694
 20
-52.46391104125255
 10
535.048807814694
 20
-52.435184478752554
 10
535.0599796896939
 20
-52.40553604125255
 10
535.0701828146939
 20
-52.37496572875255
 10
535.0794171896939
 20
-52.34347354125255
 10
535.087682814694
 20
-52.311059478752554
 10
535.0949796896939
 20
-52.277723541252556
 10
535.101307814694
 20
-52.243465728752554
 10
535.1066671896939
 20
-52.20828604125255
 10
535.1110578146939
 20
-52.172184478752555
  0
LWPOLYLINE
  5
6A
330
17
100
AcDbEntity
  8
0
100
AcDbPolyline
 90
118
 70
0
 10
534.042014845944
 20
-53.490153228752554
 10
534.091233595944
 20
-53.07765322875255
 10
534.062702345944
 20
-53.08507510375255
 10
534.0349210959439
 20
-53.091715728752554
 10
534.007889845944
 20
-53.097575103752554
 10
533.981608595944
 20
-53.10265322875255
 10
533.956077345944
 20
-53.10695010375255
 10
533.9312960959439
 20
-53.11046572875255
 10
533.9072648459439
 20
-53.113200103752554
 10
533.883983595944
 20
-53.115153228752554
 10
533.8614523459439
 20
-53.11632510375255
 10
533.8396710959439
 20
-53.11671572875255
 10
533.810889845944
 20
-53.11622354125255
 10
533.7832960959439
 20
-53.11474697875255
 10
533.756889845944
 20
-53.11228604125255
 10
533.731671095944
 20
-53.108840728752554
 10
533.707639845944
 20
-53.104411041252554
 10
533.684796095944
 20
-53.09899697875255
 10
533.663139845944
 20
-53.09259854125255
 10
533.6426710959439
 20
-53.08521572875255
 10
533.623389845944
 20
-53.07684854125255
 10
533.6052960959439
 20
-53.06749697875255
 10
533.5879601584439
 20
-53.05741885375255
 10
533.5712648459439
 20
-53.046559478752556
 10
533.555210158444
 20
-53.03491885375255
 10
533.539796095944
 20
-53.02249697875255
 10
533.525022658444
 20
-53.00929385375255
 10
533.5108898459439
 20
-52.99530947875255
 10
533.4973976584439
 20
-52.98054385375255
 10
533.484546095944
 20
-52.96499697875255
 10
533.4723351584439
 20
-52.94866885375255
 10
533.4607648459439
 20
-52.931559478752554
 10
533.451967970944
 20
-52.91633291625255
 10
533.442139845944
 20
-52.897215728752556
 10
533.431280470944
 20
-52.87420791625255
 10
533.4193898459439
 20
-52.84730947875255
 10
533.4064679709439
 20
-52.81652041625255
 10
533.392514845944
 20
-52.781840728752556
 10
533.377530470944
 20
-52.74327041625255
 10
533.3615148459439
 20
-52.700809478752554
 10
533.3444679709439
 20
-52.654457916252554
 10
533.3263898459439
 20
-52.60421572875255
 10
533.323889845944
 20
-52.596528228752554
 10
533.321077345944
 20
-52.58815322875255
 10
533.3179523459439
 20
-52.579090728752554
 10
533.3145148459439
 20
-52.56934072875255
 10
533.3107648459439
 20
-52.558903228752555
 10
533.3067023459439
 20
-52.547778228752556
 10
533.3023273459439
 20
-52.53596572875255
 10
533.297639845944
 20
-52.523465728752555
 10
533.292639845944
 20
-52.510278228752554
 10
533.2873273459439
 20
-52.496403228752555
 10
534.2717023459439
 20
-49.898746978752555
 10
533.798264845944
 20
-49.898746978752555
 10
533.258421095944
 20
-51.400309478752554
 10
533.2376945334439
 20
-51.457786041252554
 10
533.2173898459439
 20
-51.51584072875255
 10
533.1975070334439
 20
-51.57447354125255
 10
533.178046095944
 20
-51.63368447875255
 10
533.1590070334439
 20
-51.69347354125255
 10
533.1403898459439
 20
-51.75384072875255
 10
533.1221945334439
 20
-51.81478604125255
 10
533.104421095944
 20
-51.87630947875255
 10
533.0870695334439
 20
-51.93841104125255
 10
533.0701398459439
 20
-52.00109072875255
 10
533.0546945334439
 20
-51.94062197875255
 10
533.038671095944
 20
-51.880465728752554
 10
533.022069533444
 20
-51.820621978752555
 10
533.0048898459439
 20
-51.76109072875255
 10
532.9871320334439
 20
-51.70187197875255
 10
532.968796095944
 20
-51.64296572875255
 10
532.9498820334439
 20
-51.58437197875255
 10
532.930389845944
 20
-51.52609072875255
 10
532.910319533444
 20
-51.46812197875255
 10
532.889671095944
 20
-51.410465728752555
 10
532.3357648459439
 20
-49.898746978752555
 10
531.895921095944
 20
-49.898746978752555
 10
532.8826398459439
 20
-52.535465728752555
 10
532.913647658444
 20
-52.61827041625255
 10
532.943233595944
 20
-52.69574697875255
 10
532.971397658444
 20
-52.76789541625255
 10
532.9981398459439
 20
-52.834715728752556
 10
533.023460158444
 20
-52.89620791625255
 10
533.0473585959439
 20
-52.95237197875255
 10
533.069835158444
 20
-53.003207916252556
 10
533.0908898459439
 20
-53.048715728752555
 10
533.110522658444
 20
-53.088895416252555
 10
533.1287335959439
 20
-53.12374697875255
 10
533.152514845944
 20
-53.16616885375255
 10
533.176983595944
 20
-53.20624697875255
 10
533.202139845944
 20
-53.24398135375255
 10
533.2279835959439
 20
-53.27937197875255
 10
533.254514845944
 20
-53.312418853752554
 10
533.2817335959439
 20
-53.34312197875255
 10
533.3096398459439
 20
-53.37148135375255
 10
533.338233595944
 20
-53.39749697875255
 10
533.3675148459439
 20
-53.421168853752555
 10
533.397483595944
 20
-53.44249697875255
 10
533.428382033444
 20
-53.46179385375255
 10
533.460452345944
 20
-53.47905947875255
 10
533.493694533444
 20
-53.49429385375255
 10
533.528108595944
 20
-53.507496978752556
 10
533.5636945334439
 20
-53.51866885375255
 10
533.600452345944
 20
-53.52780947875255
 10
533.6383820334439
 20
-53.53491885375255
 10
533.677483595944
 20
-53.539996978752555
 10
533.717757033444
 20
-53.54304385375255
 10
533.759202345944
 20
-53.54405947875255
 10
533.7848117209439
 20
-53.543520416252555
 10
533.811014845944
 20
-53.54190322875255
 10
533.8378117209439
 20
-53.53920791625255
 10
533.865202345944
 20
-53.53543447875255
 10
533.893186720944
 20
-53.530582916252555
 10
533.9217648459439
 20
-53.524653228752555
 10
533.9509367209439
 20
-53.517645416252556
 10
533.980702345944
 20
-53.50955947875255
 10
534.011061720944
 20
-53.50039541625255
 10
534.042014845944
 20
-53.490153228752554
  0
ENDSEC
  0
SECTION
  2
OBJECTS
  0
DICTIONARY
  5
A
330
0
100
AcDbDictionary
281
1
  3
ACAD_COLOR
350
B
  3
ACAD_GROUP
350
C
  3
ACAD_LAYOUT
350
D
  3
ACAD_MATERIAL
350
E
  3
ACAD_MLEADERSTYLE
350
F
  3
ACAD_MLINESTYLE
350
10
  3
ACAD_PLOTSETTINGS
350
11
  3
ACAD_PLOTSTYLENAME
350
12
  3
ACAD_SCALELIST
350
14
  3
ACAD_TABLESTYLE
350
15
  3
ACAD_VISUALSTYLE
350
16
  3
EZDXF_META
350
2D
  0
DICTIONARY
  5
B
330
A
100
AcDbDictionary
281
1
  0
DICTIONARY
  5
C
330
A
100
AcDbDictionary
281
1
  0
DICTIONARY
  5
D
330
A
100
AcDbDictionary
281
1
  3
Model
350
1A
  3
Layout1
350
1E
  0
DICTIONARY
  5
E
330
A
100
AcDbDictionary
281
1
  3
ByBlock
350
1F
  3
ByLayer
350
20
  3
Global
350
21
  0
DICTIONARY
  5
F
330
A
100
AcDbDictionary
281
1
  3
Standard
350
2C
  0
DICTIONARY
  5
10
330
A
100
AcDbDictionary
281
1
  3
Standard
350
22
  0
DICTIONARY
  5
11
330
A
100
AcDbDictionary
281
1
  0
ACDBDICTIONARYWDFLT
  5
12
330
A
100
AcDbDictionary
281
1
  3
Normal
350
13
100
AcDbDictionaryWithDefault
340
13
  0
ACDBPLACEHOLDER
  5
13
330
12
  0
DICTIONARY
  5
14
330
A
100
AcDbDictionary
281
1
  0
DICTIONARY
  5
15
330
A
100
AcDbDictionary
281
1
  0
DICTIONARY
  5
16
330
A
100
AcDbDictionary
281
1
  0
LAYOUT
  5
1A
330
D
100
AcDbPlotSettings
  1

  2
Adobe PDF
  4
A3
  6

 40
7.5
 41
20.0
 42
7.5
 43
20.0
 44
420.0
 45
297.0
 46
0.0
 47
0.0
 48
0.0
 49
0.0
140
0.0
141
0.0
142
1.0
143
1.0
 70
1024
 72
1
 73
1
 74
5
  7

 75
16
 76
0
 77
2
 78
300
147
1.0
148
0.0
149
0.0
100
AcDbLayout
  1
Model
 70
1
 71
0
 10
0.0
 20
0.0
 11
420.0
 21
297.0
 12
0.0
 22
0.0
 32
0.0
 14
1e+20
 24
1e+20
 34
1e+20
 15
-1e+20
 25
-1e+20
 35
-1e+20
146
0.0
 13
0.0
 23
0.0
 33
0.0
 16
1.0
 26
0.0
 36
0.0
 17
0.0
 27
1.0
 37
0.0
 76
1
330
17
  0
LAYOUT
  5
1E
330
D
100
AcDbPlotSettings
  1

  2
Adobe PDF
  4
A3
  6

 40
7.5
 41
20.0
 42
7.5
 43
20.0
 44
420.0
 45
297.0
 46
0.0
 47
0.0
 48
0.0
 49
0.0
140
0.0
141
0.0
142
1.0
143
1.0
 70
0
 72
1
 73
1
 74
5
  7

 75
16
 76
0
 77
2
 78
300
147
1.0
148
0.0
149
0.0
100
AcDbLayout
  1
Layout1
 70
1
 71
1
 10
0.0
 20
0.0
 11
420.0
 21
297.0
 12
0.0
 22
0.0
 32
0.0
 14
1e+20
 24
1e+20
 34
1e+20
 15
-1e+20
 25
-1e+20
 35
-1e+20
146
0.0
 13
0.0
 23
0.0
 33
0.0
 16
1.0
 26
0.0
 36
0.0
 17
0.0
 27
1.0
 37
0.0
 76
1
330
1B
  0
MATERIAL
  5
1F
102
{ACAD_REACTORS
330
E
102
}
330
E
100
AcDbMaterial
  1
ByBlock
  2

 70
0
 40
1.0
 71
1
 41
1.0
 91
-1023410177
 42
1.0
 72
1
  3

 73
1
 74
1
 75
1
 44
0.5
 73
0
 45
1.0
 46
1.0
 77
1
  4

 78
1
 79
1
170
1
 48
1.0
171
1
  6

172
1
173
1
174
1
140
1.0
141
1.0
175
1
  7

176
1
177
1
178
1
143
1.0
179
1
  8

270
1
271
1
272
1
145
1.0
146
1.0
273
1
  9

274
1
275
1
276
1
 42
1.0
 72
1
  3

 73
1
 74
1
 75
1
 94
63
  0
MATERIAL
  5
20
102
{ACAD_REACTORS
330
E
102
}
330
E
100
AcDbMaterial
  1
ByLayer
  2

 70
0
 40
1.0
 71
1
 41
1.0
 91
-1023410177
 42
1.0
 72
1
  3

 73
1
 74
1
 75
1
 44
0.5
 73
0
 45
1.0
 46
1.0
 77
1
  4

 78
1
 79
1
170
1
 48
1.0
171
1
  6

172
1
173
1
174
1
140
1.0
141
1.0
175
1
  7

176
1
177
1
178
1
143
1.0
179
1
  8

270
1
271
1
272
1
145
1.0
146
1.0
273
1
  9

274
1
275
1
276
1
 42
1.0
 72
1
  3

 73
1
 74
1
 75
1
 94
63
  0
MATERIAL
  5
21
102
{ACAD_REACTORS
330
E
102
}
330
E
100
AcDbMaterial
  1
Global
  2

 70
0
 40
1.0
 71
1
 41
1.0
 91
-1023410177
 42
1.0
 72
1
  3

 73
1
 74
1
 75
1
 44
0.5
 73
0
 45
1.0
 46
1.0
 77
1
  4

 78
1
 79
1
170
1
 48
1.0
171
1
  6

172
1
173
1
174
1
140
1.0
141
1.0
175
1
  7

176
1
177
1
178
1
143
1.0
179
1
  8

270
1
271
1
272
1
145
1.0
146
1.0
273
1
  9

274
1
275
1
276
1
 42
1.0
 72
1
  3

 73
1
 74
1
 75
1
 94
63
  0
MLINESTYLE
  5
22
102
{ACAD_REACTORS
330
10
102
}
330
10
100
AcDbMlineStyle
  2
Standard
 70
0
  3

 62
256
 51
90.0
 52
90.0
 71
2
 49
0.5
 62
256
  6
BYLAYER
 49
-0.5
 62
256
  6
BYLAYER
  0
MLEADERSTYLE
  5
2C
102
{ACAD_REACTORS
330
F
102
}
330
F
100
AcDbMLeaderStyle
179
2
170
2
171
1
172
0
 90
2
 40
0.0
 41
0.0
173
1
 91
-1056964608
 92
-2
290
1
 42
2.0
291
1
 43
8.0
  3
Standard
 44
4.0
300

342
29
174
1
175
1
176
0
178
1
 93
-1056964608
 45
4.0
292
0
297
0
 46
4.0
 94
-1056964608
 47
1.0
 49
1.0
140
1.0
294
1
141
0.0
177
0
142
1.0
295
0
296
0
143
3.75
271
0
272
9
273
9
  0
DICTIONARY
  5
2D
330
A
100
AcDbDictionary
280
1
281
1
  3
CREATED_BY_EZDXF
350
2E
  3
WRITTEN_BY_EZDXF
350
6D
  0
DICTIONARYVAR
  5
2E
330
2D
100
DictionaryVariables
280
0
  1
0.17.2 @ 2022-04-05T07:59:56.062544+00:00
  0
DICTIONARYVAR
  5
6D
330
2D
100
DictionaryVariables
280
0
  1
0.17.2 @ 2022-04-05T07:59:56.084341+00:00
  0
ENDSEC
  0
EOF
