  0
SECTION
  2
HEADER
  9
$ACADVER
  1
AC1024
  9
$ACADMAINTVER
 70
6
  9
$DWGCODEPAGE
  3
ANSI_1252
  9
$LASTSAVEDBY
  1
ezdxf
  9
$INSBASE
 10
0.0
 20
0.0
 30
0.0
  9
$EXTMIN
 10
1e+20
 20
1e+20
 30
1e+20
  9
$EXTMAX
 10
-1e+20
 20
-1e+20
 30
-1e+20
  9
$LIMMIN
 10
0.0
 20
0.0
  9
$LIMMAX
 10
420.0
 20
297.0
  9
$ORTHOMODE
 70
0
  9
$REGENMODE
 70
1
  9
$FILLMODE
 70
1
  9
$QTEXTMODE
 70
0
  9
$MIRRTEXT
 70
1
  9
$LTSCALE
 40
1.0
  9
$ATTMODE
 70
1
  9
$TEXTSIZE
 40
2.5
  9
$TRACEWID
 40
1.0
  9
$TEXTSTYLE
  7
Standard
  9
$CLAYER
  8
0
  9
$CELTYPE
  6
ByLayer
  9
$CECOLOR
 62
256
  9
$CELTSCALE
 40
1.0
  9
$DISPSILH
 70
0
  9
$DIMSCALE
 40
1.0
  9
$DIMASZ
 40
2.5
  9
$DIMEXO
 40
0.625
  9
$DIMDLI
 40
3.75
  9
$DIMRND
 40
0.0
  9
$DIMDLE
 40
0.0
  9
$DIMEXE
 40
1.25
  9
$DIMTP
 40
0.0
  9
$DIMTM
 40
0.0
  9
$DIMTXT
 40
2.5
  9
$DIMCEN
 40
2.5
  9
$DIMTSZ
 40
0.0
  9
$DIMTOL
 70
0
  9
$DIMLIM
 70
0
  9
$DIMTIH
 70
0
  9
$DIMTOH
 70
0
  9
$DIMSE1
 70
0
  9
$DIMSE2
 70
0
  9
$DIMTAD
 70
1
  9
$DIMZIN
 70
8
  9
$DIMBLK
  1

  9
$DIMASO
 70
1
  9
$DIMSHO
 70
1
  9
$DIMPOST
  1

  9
$DIMAPOST
  1

  9
$DIMALT
 70
0
  9
$DIMALTD
 70
3
  9
$DIMALTF
 40
0.03937007874
  9
$DIMLFAC
 40
1.0
  9
$DIMTOFL
 70
1
  9
$DIMTVP
 40
0.0
  9
$DIMTIX
 70
0
  9
$DIMSOXD
 70
0
  9
$DIMSAH
 70
0
  9
$DIMBLK1
  1

  9
$DIMBLK2
  1

  9
$DIMSTYLE
  2
ISO-25
  9
$DIMCLRD
 70
0
  9
$DIMCLRE
 70
0
  9
$DIMCLRT
 70
0
  9
$DIMTFAC
 40
1.0
  9
$DIMGAP
 40
0.625
  9
$DIMJUST
 70
0
  9
$DIMSD1
 70
0
  9
$DIMSD2
 70
0
  9
$DIMTOLJ
 70
0
  9
$DIMTZIN
 70
8
  9
$DIMALTZ
 70
0
  9
$DIMALTTZ
 70
0
  9
$DIMUPT
 70
0
  9
$DIMDEC
 70
2
  9
$DIMTDEC
 70
2
  9
$DIMALTU
 70
2
  9
$DIMALTTD
 70
3
  9
$DIMTXSTY
  7
Standard
  9
$DIMAUNIT
 70
0
  9
$DIMADEC
 70
0
  9
$DIMALTRND
 40
0.0
  9
$DIMAZIN
 70
0
  9
$DIMDSEP
 70
44
  9
$DIMATFIT
 70
3
  9
$DIMFRAC
 70
0
  9
$DIMLDRBLK
  1

  9
$DIMLUNIT
 70
2
  9
$DIMLWD
 70
-2
  9
$DIMLWE
 70
-2
  9
$DIMTMOVE
 70
0
  9
$DIMFXL
 40
1.0
  9
$DIMFXLON
 70
0
  9
$DIMJOGANG
 40
0.785398163397
  9
$DIMTFILL
 70
0
  9
$DIMTFILLCLR
 70
0
  9
$DIMARCSYM
 70
0
  9
$DIMLTYPE
  6

  9
$DIMLTEX1
  6

  9
$DIMLTEX2
  6

  9
$DIMTXTDIRECTION
 70
0
  9
$LUNITS
 70
2
  9
$LUPREC
 70
4
  9
$SKETCHINC
 40
1.0
  9
$FILLETRAD
 40
10.0
  9
$AUNITS
 70
0
  9
$AUPREC
 70
2
  9
$MENU
  1
.
  9
$ELEVATION
 40
0.0
  9
$PELEVATION
 40
0.0
  9
$THICKNESS
 40
0.0
  9
$LIMCHECK
 70
0
  9
$CHAMFERA
 40
0.0
  9
$CHAMFERB
 40
0.0
  9
$CHAMFERC
 40
0.0
  9
$CHAMFERD
 40
0.0
  9
$SKPOLY
 70
0
  9
$TDCREATE
 40
2459675.048252315
  9
$TDUCREATE
 40
2458532.153996898
  9
$TDUPDATE
 40
2459675.048252315
  9
$TDUUPDATE
 40
2458532.1544311
  9
$TDINDWG
 40
0.0
  9
$TDUSRTIMER
 40
0.0
  9
$USRTIMER
 70
1
  9
$ANGBASE
 50
0.0
  9
$ANGDIR
 70
0
  9
$PDMODE
 70
0
  9
$PDSIZE
 40
0.0
  9
$PLINEWID
 40
0.0
  9
$SPLFRAME
 70
0
  9
$SPLINETYPE
 70
6
  9
$SPLINESEGS
 70
8
  9
$HANDSEED
  5
57
  9
$SURFTAB1
 70
6
  9
$SURFTAB2
 70
6
  9
$SURFTYPE
 70
6
  9
$SURFU
 70
6
  9
$SURFV
 70
6
  9
$UCSBASE
  2

  9
$UCSNAME
  2

  9
$UCSORG
 10
0.0
 20
0.0
 30
0.0
  9
$UCSXDIR
 10
1.0
 20
0.0
 30
0.0
  9
$UCSYDIR
 10
0.0
 20
1.0
 30
0.0
  9
$UCSORTHOREF
  2

  9
$UCSORTHOVIEW
 70
0
  9
$UCSORGTOP
 10
0.0
 20
0.0
 30
0.0
  9
$UCSORGBOTTOM
 10
0.0
 20
0.0
 30
0.0
  9
$UCSORGLEFT
 10
0.0
 20
0.0
 30
0.0
  9
$UCSORGRIGHT
 10
0.0
 20
0.0
 30
0.0
  9
$UCSORGFRONT
 10
0.0
 20
0.0
 30
0.0
  9
$UCSORGBACK
 10
0.0
 20
0.0
 30
0.0
  9
$PUCSBASE
  2

  9
$PUCSNAME
  2

  9
$PUCSORG
 10
0.0
 20
0.0
 30
0.0
  9
$PUCSXDIR
 10
1.0
 20
0.0
 30
0.0
  9
$PUCSYDIR
 10
0.0
 20
1.0
 30
0.0
  9
$PUCSORTHOREF
  2

  9
$PUCSORTHOVIEW
 70
0
  9
$PUCSORGTOP
 10
0.0
 20
0.0
 30
0.0
  9
$PUCSORGBOTTOM
 10
0.0
 20
0.0
 30
0.0
  9
$PUCSORGLEFT
 10
0.0
 20
0.0
 30
0.0
  9
$PUCSORGRIGHT
 10
0.0
 20
0.0
 30
0.0
  9
$PUCSORGFRONT
 10
0.0
 20
0.0
 30
0.0
  9
$PUCSORGBACK
 10
0.0
 20
0.0
 30
0.0
  9
$USERI1
 70
0
  9
$USERI2
 70
0
  9
$USERI3
 70
0
  9
$USERI4
 70
0
  9
$USERI5
 70
0
  9
$USERR1
 40
0.0
  9
$USERR2
 40
0.0
  9
$USERR3
 40
0.0
  9
$USERR4
 40
0.0
  9
$USERR5
 40
0.0
  9
$WORLDVIEW
 70
1
  9
$SHADEDGE
 70
3
  9
$SHADEDIF
 70
70
  9
$TILEMODE
 70
1
  9
$MAXACTVP
 70
64
  9
$PINSBASE
 10
0.0
 20
0.0
 30
0.0
  9
$PLIMCHECK
 70
0
  9
$PEXTMIN
 10
1e+20
 20
1e+20
 30
1e+20
  9
$PEXTMAX
 10
-1e+20
 20
-1e+20
 30
-1e+20
  9
$PLIMMIN
 10
0.0
 20
0.0
  9
$PLIMMAX
 10
420.0
 20
297.0
  9
$UNITMODE
 70
0
  9
$VISRETAIN
 70
1
  9
$PLINEGEN
 70
0
  9
$PSLTSCALE
 70
1
  9
$TREEDEPTH
 70
3020
  9
$CMLSTYLE
  2
Standard
  9
$CMLJUST
 70
0
  9
$CMLSCALE
 40
20.0
  9
$PROXYGRAPHICS
 70
1
  9
$MEASUREMENT
 70
1
  9
$CELWEIGHT
370
-1
  9
$ENDCAPS
280
0
  9
$JOINSTYLE
280
0
  9
$LWDISPLAY
290
0
  9
$INSUNITS
 70
6
  9
$HYPERLINKBASE
  1

  9
$STYLESHEET
  1

  9
$XEDIT
290
1
  9
$CEPSNTYPE
380
0
  9
$PSTYLEMODE
290
1
  9
$FINGERPRINTGUID
  2
{E6C57D8D-5DDA-4421-9685-E4A86983DF84}
  9
$VERSIONGUID
  2
{F9391A51-4BA7-40A9-867E-3CF6C6509116}
  9
$EXTNAMES
290
1
  9
$PSVPSCALE
 40
0.0
  9
$OLESTARTUP
290
0
  9
$SORTENTS
280
127
  9
$INDEXCTL
280
0
  9
$HIDETEXT
280
1
  9
$XCLIPFRAME
280
0
  9
$HALOGAP
280
0
  9
$OBSCOLOR
 70
257
  9
$OBSLTYPE
280
0
  9
$INTERSECTIONDISPLAY
280
0
  9
$INTERSECTIONCOLOR
 70
257
  9
$DIMASSOC
280
2
  9
$PROJECTNAME
  1

  9
$CAMERADISPLAY
290
0
  9
$LENSLENGTH
 40
50.0
  9
$CAMERAHEIGHT
 40
0.0
  9
$STEPSPERSEC
 40
24.0
  9
$STEPSIZE
 40
100.0
  9
$3DDWFPREC
 40
2.0
  9
$PSOLWIDTH
 40
0.005
  9
$PSOLHEIGHT
 40
0.08
  9
$LOFTANG1
 40
1.570796326795
  9
$LOFTANG2
 40
1.570796326795
  9
$LOFTMAG1
 40
0.0
  9
$LOFTMAG2
 40
0.0
  9
$LOFTPARAM
 70
7
  9
$LOFTNORMALS
280
1
  9
$LATITUDE
 40
37.795
  9
$LONGITUDE
 40
-122.394
  9
$NORTHDIRECTION
 40
0.0
  9
$TIMEZONE
 70
-8000
  9
$LIGHTGLYPHDISPLAY
280
1
  9
$TILEMODELIGHTSYNCH
280
1
  9
$CMATERIAL
347
20
  9
$SOLIDHIST
280
0
  9
$SHOWHIST
280
1
  9
$DWFFRAME
280
2
  9
$DGNFRAME
280
2
  9
$REALWORLDSCALE
290
1
  9
$INTERFERECOLOR
 62
256
  9
$CSHADOW
280
0
  9
$SHADOWPLANELOCATION
 40
0.0
  0
ENDSEC
  0
SECTION
  2
CLASSES
  0
CLASS
  1
ACDBDICTIONARYWDFLT
  2
AcDbDictionaryWithDefault
  3
ObjectDBX Classes
 90
0
 91
0
280
0
281
0
  0
CLASS
  1
SUN
  2
AcDbSun
  3
SCENEOE
 90
1153
 91
0
280
0
281
0
  0
CLASS
  1
VISUALSTYLE
  2
AcDbVisualStyle
  3
ObjectDBX Classes
 90
4095
 91
0
280
0
281
0
  0
CLASS
  1
MATERIAL
  2
AcDbMaterial
  3
ObjectDBX Classes
 90
1153
 91
0
280
0
281
0
  0
CLASS
  1
SCALE
  2
AcDbScale
  3
ObjectDBX Classes
 90
1153
 91
0
280
0
281
0
  0
CLASS
  1
TABLESTYLE
  2
AcDbTableStyle
  3
ObjectDBX Classes
 90
4095
 91
0
280
0
281
0
  0
CLASS
  1
MLEADERSTYLE
  2
AcDbMLeaderStyle
  3
ACDB_MLEADERSTYLE_CLASS
 90
4095
 91
0
280
0
281
0
  0
CLASS
  1
DICTIONARYVAR
  2
AcDbDictionaryVar
  3
ObjectDBX Classes
 90
0
 91
0
280
0
281
0
  0
CLASS
  1
CELLSTYLEMAP
  2
AcDbCellStyleMap
  3
ObjectDBX Classes
 90
1152
 91
0
280
0
281
0
  0
CLASS
  1
MENTALRAYRENDERSETTINGS
  2
AcDbMentalRayRenderSettings
  3
SCENEOE
 90
1024
 91
0
280
0
281
0
  0
CLASS
  1
ACDBDETAILVIEWSTYLE
  2
AcDbDetailViewStyle
  3
ObjectDBX Classes
 90
1025
 91
0
280
0
281
0
  0
CLASS
  1
ACDBSECTIONVIEWSTYLE
  2
AcDbSectionViewStyle
  3
ObjectDBX Classes
 90
1025
 91
0
280
0
281
0
  0
CLASS
  1
RASTERVARIABLES
  2
AcDbRasterVariables
  3
ISM
 90
0
 91
0
280
0
281
0
  0
CLASS
  1
LAYOUT
  2
AcDbLayout
  3
ObjectDBX Classes
 90
0
 91
0
280
0
281
0
  0
CLASS
  1
ACDBPLACEHOLDER
  2
AcDbPlaceHolder
  3
ObjectDBX Classes
 90
0
 91
0
280
0
281
0
  0
ENDSEC
  0
SECTION
  2
TABLES
  0
TABLE
  2
VPORT
  5
8
330
0
100
AcDbSymbolTable
 70
1
  0
VPORT
  5
23
330
8
100
AcDbSymbolTableRecord
100
AcDbViewportTableRecord
  2
*Active
 70
0
 10
0.0
 20
0.0
 11
1.0
 21
1.0
 12
0.0
 22
0.0
 13
0.0
 23
0.0
 14
0.5
 24
0.5
 15
0.5
 25
0.5
 16
0.0
 26
0.0
 36
1.0
 17
0.0
 27
0.0
 37
0.0
 40
1000.0
 41
1.34
 42
50.0
 43
0.0
 44
0.0
 50
0.0
 51
0.0
 71
0
 72
1000
 73
1
 74
3
 75
0
 76
0
 77
0
 78
0
281
0
 65
0
146
0.0
  0
ENDTAB
  0
TABLE
  2
LTYPE
  5
2
330
0
100
AcDbSymbolTable
 70
3
  0
LTYPE
  5
24
330
2
100
AcDbSymbolTableRecord
100
AcDbLinetypeTableRecord
  2
ByBlock
 70
0
  3

 72
65
 73
0
 40
0.0
  0
LTYPE
  5
25
330
2
100
AcDbSymbolTableRecord
100
AcDbLinetypeTableRecord
  2
ByLayer
 70
0
  3

 72
65
 73
0
 40
0.0
  0
LTYPE
  5
26
330
2
100
AcDbSymbolTableRecord
100
AcDbLinetypeTableRecord
  2
Continuous
 70
0
  3

 72
65
 73
0
 40
0.0
  0
ENDTAB
  0
TABLE
  2
LAYER
  5
1
330
0
100
AcDbSymbolTable
 70
2
  0
LAYER
  5
27
330
1
100
AcDbSymbolTableRecord
100
AcDbLayerTableRecord
  2
0
 70
0
 62
7
  6
Continuous
370
-3
390
13
347
21
  0
LAYER
  5
28
330
1
100
AcDbSymbolTableRecord
100
AcDbLayerTableRecord
  2
Defpoints
 70
0
 62
7
  6
Continuous
290
0
370
-3
390
13
347
21
  0
ENDTAB
  0
TABLE
  2
STYLE
  5
5
330
0
100
AcDbSymbolTable
 70
1
  0
STYLE
  5
29
330
5
100
AcDbSymbolTableRecord
100
AcDbTextStyleTableRecord
  2
Standard
 70
0
 40
0.0
 41
1.0
 50
0.0
 71
0
 42
2.5
  3
txt
  4

  0
ENDTAB
  0
TABLE
  2
VIEW
  5
7
330
0
100
AcDbSymbolTable
 70
0
  0
ENDTAB
  0
TABLE
  2
UCS
  5
6
330
0
100
AcDbSymbolTable
 70
0
  0
ENDTAB
  0
TABLE
  2
APPID
  5
3
330
0
100
AcDbSymbolTable
 70
3
  0
APPID
  5
2A
330
3
100
AcDbSymbolTableRecord
100
AcDbRegAppTableRecord
  2
ACAD
 70
0
  0
APPID
  5
54
330
3
100
AcDbSymbolTableRecord
100
AcDbRegAppTableRecord
  2
HATCHBACKGROUNDCOLOR
 70
0
  0
APPID
  5
55
330
3
100
AcDbSymbolTableRecord
100
AcDbRegAppTableRecord
  2
EZDXF
 70
0
  0
ENDTAB
  0
TABLE
  2
DIMSTYLE
  5
4
330
0
100
AcDbSymbolTable
 70
1
100
AcDbDimStyleTable
  0
DIMSTYLE
105
2B
330
4
100
AcDbSymbolTableRecord
100
AcDbDimStyleTableRecord
  2
Standard
 70
0
 40
1.0
 41
2.5
 42
0.625
 43
3.75
 44
1.25
 45
0.0
 46
0.0
 47
0.0
 48
0.0
 49
2.5
140
2.5
141
2.5
142
0.0
143
0.03937007874
144
1.0
145
0.0
146
1.0
147
0.625
148
0.0
 69
0
 70
0
 71
0
 72
0
 73
0
 74
0
 75
0
 76
0
 77
1
 78
8
 79
3
170
0
171
3
172
1
173
0
174
0
175
0
176
0
177
0
178
0
179
2
271
2
272
2
273
2
274
3
275
0
276
0
277
2
278
44
279
0
280
0
281
0
282
0
283
0
284
8
285
0
286
0
288
0
289
3
290
0
371
-2
372
-2
  0
ENDTAB
  0
TABLE
  2
BLOCK_RECORD
  5
9
330
0
100
AcDbSymbolTable
 70
2
  0
BLOCK_RECORD
  5
17
330
9
100
AcDbSymbolTableRecord
100
AcDbBlockTableRecord
  2
*Model_Space
340
1A
 70
0
280
1
281
0
  0
BLOCK_RECORD
  5
1B
330
9
100
AcDbSymbolTableRecord
100
AcDbBlockTableRecord
  2
*Paper_Space
340
1E
 70
0
280
1
281
0
  0
ENDTAB
  0
ENDSEC
  0
SECTION
  2
BLOCKS
  0
BLOCK
  5
18
330
17
100
AcDbEntity
  8
0
100
AcDbBlockBegin
  2
*Model_Space
 70
0
 10
0.0
 20
0.0
 30
0.0
  3
*Model_Space
  1

  0
ENDBLK
  5
19
330
17
100
AcDbEntity
  8
0
100
AcDbBlockEnd
  0
BLOCK
  5
1C
330
1B
100
AcDbEntity
  8
0
100
AcDbBlockBegin
  2
*Paper_Space
 70
0
 10
0.0
 20
0.0
 30
0.0
  3
*Paper_Space
  1

  0
ENDBLK
  5
1D
330
1B
100
AcDbEntity
  8
0
100
AcDbBlockEnd
  0
ENDSEC
  0
SECTION
  2
ENTITIES
  0
LWPOLYLINE
  5
2F
330
17
100
AcDbEntity
  8
0
100
AcDbPolyline
 90
5
 70
0
 10
0.0
 20
0.0
 10
0.0
 20
40.0
 10
240.0
 20
40.0
 10
240.0
 20
0.0
 10
0.0
 20
0.0
  0
LWPOLYLINE
  5
30
330
17
100
AcDbEntity
  8
0
100
AcDbPolyline
 90
35
 70
0
 10
29.5
 20
5.653846153846154
 10
29.5
 20
3.576923076923077
 10
29.509607359798384
 20
3.479377915915012
 10
29.538060233744357
 20
3.385581360740532
 10
29.58426519384873
 20
3.2991379604132756
 10
29.646446609406727
 20
3.223369686329803
 10
29.7222148834902
 20
3.161188270771804
 10
29.808658283817454
 20
3.1149833106674336
 10
29.902454838991936
 20
3.086530436721462
 10
30.0
 20
3.076923076923077
 10
30.097545161008064
 20
3.086530436721462
 10
30.191341716182546
 20
3.1149833106674336
 10
30.2777851165098
 20
3.161188270771804
 10
30.353553390593273
 20
3.223369686329803
 10
30.41573480615127
 20
3.299137960413275
 10
30.461939766255643
 20
3.3855813607405314
 10
30.490392640201616
 20
3.479377915915012
 10
30.5
 20
3.576923076923077
 10
30.5
 20
5.653846153846154
 10
30.490392640201616
 20
5.751391314854219
 10
30.461939766255643
 20
5.8451878700287
 10
30.41573480615127
 20
5.931631270355956
 10
30.353553390593273
 20
6.007399544439428
 10
30.2777851165098
 20
6.069580959997427
 10
30.191341716182546
 20
6.115785920101798
 10
30.097545161008064
 20
6.144238794047769
 10
30.0
 20
6.153846153846154
 10
29.902454838991936
 20
6.144238794047769
 10
29.808658283817454
 20
6.115785920101798
 10
29.7222148834902
 20
6.069580959997427
 10
29.646446609406727
 20
6.007399544439428
 10
29.58426519384873
 20
5.931631270355956
 10
29.538060233744357
 20
5.8451878700287
 10
29.509607359798384
 20
5.751391314854219
 10
29.5
 20
5.653846153846154
  0
LWPOLYLINE
  5
31
330
17
100
AcDbEntity
  8
0
100
AcDbPolyline
 90
35
 70
0
 10
29.5
 20
11.807692307692308
 10
29.5
 20
9.730769230769232
 10
29.509607359798384
 20
9.633224069761168
 10
29.538060233744357
 20
9.539427514586686
 10
29.58426519384873
 20
9.45298411425943
 10
29.646446609406727
 20
9.377215840175957
 10
29.7222148834902
 20
9.31503442461796
 10
29.808658283817454
 20
9.268829464513589
 10
29.902454838991936
 20
9.240376590567617
 10
30.0
 20
9.230769230769232
 10
30.097545161008064
 20
9.240376590567616
 10
30.191341716182546
 20
9.268829464513589
 10
30.2777851165098
 20
9.31503442461796
 10
30.353553390593273
 20
9.377215840175957
 10
30.41573480615127
 20
9.45298411425943
 10
30.461939766255643
 20
9.539427514586686
 10
30.490392640201616
 20
9.633224069761168
 10
30.5
 20
9.730769230769232
 10
30.5
 20
11.807692307692308
 10
30.490392640201616
 20
11.905237468700372
 10
30.461939766255643
 20
11.999034023874854
 10
30.41573480615127
 20
12.085477424202109
 10
30.353553390593273
 20
12.161245698285583
 10
30.2777851165098
 20
12.22342711384358
 10
30.191341716182546
 20
12.269632073947951
 10
30.097545161008064
 20
12.298084947893924
 10
30.0
 20
12.307692307692308
 10
29.902454838991936
 20
12.298084947893924
 10
29.808658283817454
 20
12.269632073947951
 10
29.7222148834902
 20
12.22342711384358
 10
29.646446609406727
 20
12.161245698285583
 10
29.58426519384873
 20
12.08547742420211
 10
29.538060233744357
 20
11.999034023874854
 10
29.509607359798384
 20
11.905237468700372
 10
29.5
 20
11.807692307692308
  0
LWPOLYLINE
  5
32
330
17
100
AcDbEntity
  8
0
100
AcDbPolyline
 90
35
 70
0
 10
29.5
 20
17.961538461538463
 10
29.5
 20
15.884615384615385
 10
29.509607359798384
 20
15.787070223607321
 10
29.538060233744357
 20
15.69327366843284
 10
29.58426519384873
 20
15.606830268105583
 10
29.646446609406727
 20
15.53106199402211
 10
29.7222148834902
 20
15.468880578464113
 10
29.808658283817454
 20
15.422675618359742
 10
29.902454838991936
 20
15.39422274441377
 10
30.0
 20
15.384615384615385
 10
30.097545161008064
 20
15.394222744413769
 10
30.191341716182546
 20
15.422675618359742
 10
30.2777851165098
 20
15.468880578464113
 10
30.353553390593273
 20
15.53106199402211
 10
30.41573480615127
 20
15.606830268105583
 10
30.461939766255643
 20
15.69327366843284
 10
30.490392640201616
 20
15.787070223607321
 10
30.5
 20
15.884615384615385
 10
30.5
 20
17.961538461538463
 10
30.490392640201616
 20
18.059083622546527
 10
30.461939766255643
 20
18.15288017772101
 10
30.41573480615127
 20
18.239323578048264
 10
30.353553390593273
 20
18.315091852131737
 10
30.2777851165098
 20
18.377273267689738
 10
30.191341716182546
 20
18.423478227794106
 10
30.097545161008064
 20
18.45193110174008
 10
30.0
 20
18.461538461538463
 10
29.902454838991936
 20
18.45193110174008
 10
29.808658283817454
 20
18.423478227794106
 10
29.7222148834902
 20
18.377273267689738
 10
29.646446609406727
 20
18.315091852131737
 10
29.58426519384873
 20
18.239323578048264
 10
29.538060233744357
 20
18.15288017772101
 10
29.509607359798384
 20
18.059083622546527
 10
29.5
 20
17.961538461538463
  0
LWPOLYLINE
  5
33
330
17
100
AcDbEntity
  8
0
100
AcDbPolyline
 90
35
 70
0
 10
29.5
 20
24.115384615384617
 10
29.5
 20
22.03846153846154
 10
29.509607359798384
 20
21.940916377453476
 10
29.538060233744357
 20
21.847119822278994
 10
29.58426519384873
 20
21.76067642195174
 10
29.646446609406727
 20
21.684908147868267
 10
29.7222148834902
 20
21.622726732310266
 10
29.808658283817454
 20
21.576521772205897
 10
29.902454838991936
 20
21.548068898259924
 10
30.0
 20
21.53846153846154
 10
30.097545161008064
 20
21.548068898259924
 10
30.191341716182546
 20
21.576521772205897
 10
30.2777851165098
 20
21.622726732310266
 10
30.353553390593273
 20
21.684908147868267
 10
30.41573480615127
 20
21.76067642195174
 10
30.461939766255643
 20
21.847119822278994
 10
30.490392640201616
 20
21.940916377453476
 10
30.5
 20
22.03846153846154
 10
30.5
 20
24.115384615384617
 10
30.490392640201616
 20
24.21292977639268
 10
30.461939766255643
 20
24.306726331567162
 10
30.41573480615127
 20
24.393169731894417
 10
30.353553390593273
 20
24.46893800597789
 10
30.2777851165098
 20
24.53111942153589
 10
30.191341716182546
 20
24.57732438164026
 10
30.097545161008064
 20
24.605777255586233
 10
30.0
 20
24.615384615384617
 10
29.902454838991936
 20
24.605777255586233
 10
29.808658283817454
 20
24.57732438164026
 10
29.7222148834902
 20
24.53111942153589
 10
29.646446609406727
 20
24.46893800597789
 10
29.58426519384873
 20
24.393169731894417
 10
29.538060233744357
 20
24.306726331567162
 10
29.509607359798384
 20
24.21292977639268
 10
29.5
 20
24.115384615384617
  0
LWPOLYLINE
  5
34
330
17
100
AcDbEntity
  8
0
100
AcDbPolyline
 90
35
 70
0
 10
29.5
 20
30.26923076923077
 10
29.5
 20
28.192307692307693
 10
29.509607359798384
 20
28.09476253129963
 10
29.538060233744357
 20
28.000965976125148
 10
29.58426519384873
 20
27.914522575797893
 10
29.646446609406727
 20
27.83875430171442
 10
29.7222148834902
 20
27.77657288615642
 10
29.808658283817454
 20
27.73036792605205
 10
29.902454838991936
 20
27.701915052106077
 10
30.0
 20
27.692307692307693
 10
30.097545161008064
 20
27.701915052106077
 10
30.191341716182546
 20
27.73036792605205
 10
30.2777851165098
 20
27.77657288615642
 10
30.353553390593273
 20
27.83875430171442
 10
30.41573480615127
 20
27.914522575797893
 10
30.461939766255643
 20
28.000965976125148
 10
30.490392640201616
 20
28.09476253129963
 10
30.5
 20
28.192307692307693
 10
30.5
 20
30.26923076923077
 10
30.490392640201616
 20
30.366775930238834
 10
30.461939766255643
 20
30.460572485413316
 10
30.41573480615127
 20
30.54701588574057
 10
30.353553390593273
 20
30.622784159824043
 10
30.2777851165098
 20
30.684965575382044
 10
30.191341716182546
 20
30.731170535486413
 10
30.097545161008064
 20
30.759623409432386
 10
30.0
 20
30.76923076923077
 10
29.902454838991936
 20
30.759623409432386
 10
29.808658283817454
 20
30.731170535486413
 10
29.7222148834902
 20
30.684965575382044
 10
29.646446609406727
 20
30.622784159824043
 10
29.58426519384873
 20
30.54701588574057
 10
29.538060233744357
 20
30.460572485413316
 10
29.509607359798384
 20
30.366775930238834
 10
29.5
 20
30.26923076923077
  0
LWPOLYLINE
  5
35
330
17
100
AcDbEntity
  8
0
100
AcDbPolyline
 90
35
 70
0
 10
29.5
 20
36.42307692307693
 10
29.5
 20
34.34615384615385
 10
29.509607359798384
 20
34.24860868514578
 10
29.538060233744357
 20
34.154812129971305
 10
29.58426519384873
 20
34.06836872964404
 10
29.646446609406727
 20
33.99260045556057
 10
29.7222148834902
 20
33.930419040002576
 10
29.808658283817454
 20
33.8842140798982
 10
29.902454838991936
 20
33.855761205952234
 10
30.0
 20
33.84615384615385
 10
30.097545161008064
 20
33.855761205952234
 10
30.191341716182546
 20
33.8842140798982
 10
30.2777851165098
 20
33.930419040002576
 10
30.353553390593273
 20
33.99260045556057
 10
30.41573480615127
 20
34.06836872964404
 10
30.461939766255643
 20
34.154812129971305
 10
30.490392640201616
 20
34.24860868514578
 10
30.5
 20
34.34615384615385
 10
30.5
 20
36.42307692307693
 10
30.490392640201616
 20
36.52062208408499
 10
30.461939766255643
 20
36.61441863925947
 10
30.41573480615127
 20
36.70086203958673
 10
30.353553390593273
 20
36.7766303136702
 10
30.2777851165098
 20
36.8388117292282
 10
30.191341716182546
 20
36.88501668933257
 10
30.097545161008064
 20
36.91346956327854
 10
30.0
 20
36.92307692307693
 10
29.902454838991936
 20
36.91346956327854
 10
29.808658283817454
 20
36.88501668933257
 10
29.7222148834902
 20
36.8388117292282
 10
29.646446609406727
 20
36.7766303136702
 10
29.58426519384873
 20
36.70086203958673
 10
29.538060233744357
 20
36.61441863925947
 10
29.509607359798384
 20
36.52062208408499
 10
29.5
 20
36.42307692307693
  0
LWPOLYLINE
  5
36
330
17
100
AcDbEntity
  8
0
100
AcDbPolyline
 90
35
 70
0
 10
59.5
 20
5.653846153846154
 10
59.5
 20
3.576923076923077
 10
59.50960735979839
 20
3.479377915915012
 10
59.53806023374435
 20
3.385581360740532
 10
59.58426519384873
 20
3.2991379604132756
 10
59.64644660940672
 20
3.223369686329803
 10
59.722214883490196
 20
3.161188270771804
 10
59.80865828381746
 20
3.1149833106674336
 10
59.902454838991936
 20
3.086530436721462
 10
60.0
 20
3.076923076923077
 10
60.097545161008064
 20
3.086530436721462
 10
60.19134171618254
 20
3.1149833106674336
 10
60.277785116509804
 20
3.161188270771804
 10
60.35355339059328
 20
3.223369686329803
 10
60.41573480615127
 20
3.299137960413275
 10
60.46193976625565
 20
3.3855813607405314
 10
60.49039264020161
 20
3.479377915915012
 10
60.5
 20
3.576923076923077
 10
60.5
 20
5.653846153846154
 10
60.49039264020161
 20
5.751391314854219
 10
60.46193976625565
 20
5.8451878700287
 10
60.41573480615127
 20
5.931631270355956
 10
60.35355339059328
 20
6.007399544439428
 10
60.277785116509804
 20
6.069580959997427
 10
60.19134171618254
 20
6.115785920101798
 10
60.097545161008064
 20
6.144238794047769
 10
60.0
 20
6.153846153846154
 10
59.902454838991936
 20
6.144238794047769
 10
59.80865828381746
 20
6.115785920101798
 10
59.722214883490196
 20
6.069580959997427
 10
59.64644660940672
 20
6.007399544439428
 10
59.58426519384873
 20
5.931631270355956
 10
59.53806023374435
 20
5.8451878700287
 10
59.50960735979839
 20
5.751391314854219
 10
59.5
 20
5.653846153846154
  0
LWPOLYLINE
  5
37
330
17
100
AcDbEntity
  8
0
100
AcDbPolyline
 90
35
 70
0
 10
59.5
 20
11.807692307692308
 10
59.5
 20
9.730769230769232
 10
59.50960735979839
 20
9.633224069761168
 10
59.53806023374435
 20
9.539427514586686
 10
59.58426519384873
 20
9.45298411425943
 10
59.64644660940672
 20
9.377215840175957
 10
59.722214883490196
 20
9.31503442461796
 10
59.80865828381746
 20
9.268829464513589
 10
59.902454838991936
 20
9.240376590567617
 10
60.0
 20
9.230769230769232
 10
60.097545161008064
 20
9.240376590567616
 10
60.19134171618254
 20
9.268829464513589
 10
60.277785116509804
 20
9.31503442461796
 10
60.35355339059328
 20
9.377215840175957
 10
60.41573480615127
 20
9.45298411425943
 10
60.46193976625565
 20
9.539427514586686
 10
60.49039264020161
 20
9.633224069761168
 10
60.5
 20
9.730769230769232
 10
60.5
 20
11.807692307692308
 10
60.49039264020161
 20
11.905237468700372
 10
60.46193976625565
 20
11.999034023874854
 10
60.41573480615127
 20
12.085477424202109
 10
60.35355339059328
 20
12.161245698285583
 10
60.277785116509804
 20
12.22342711384358
 10
60.19134171618254
 20
12.269632073947951
 10
60.097545161008064
 20
12.298084947893924
 10
60.0
 20
12.307692307692308
 10
59.902454838991936
 20
12.298084947893924
 10
59.80865828381746
 20
12.269632073947951
 10
59.722214883490196
 20
12.22342711384358
 10
59.64644660940672
 20
12.161245698285583
 10
59.58426519384873
 20
12.08547742420211
 10
59.53806023374435
 20
11.999034023874854
 10
59.50960735979839
 20
11.905237468700372
 10
59.5
 20
11.807692307692308
  0
LWPOLYLINE
  5
38
330
17
100
AcDbEntity
  8
0
100
AcDbPolyline
 90
35
 70
0
 10
59.5
 20
17.961538461538463
 10
59.5
 20
15.884615384615385
 10
59.50960735979839
 20
15.787070223607321
 10
59.53806023374435
 20
15.69327366843284
 10
59.58426519384873
 20
15.606830268105583
 10
59.64644660940672
 20
15.53106199402211
 10
59.722214883490196
 20
15.468880578464113
 10
59.80865828381746
 20
15.422675618359742
 10
59.902454838991936
 20
15.39422274441377
 10
60.0
 20
15.384615384615385
 10
60.097545161008064
 20
15.394222744413769
 10
60.19134171618254
 20
15.422675618359742
 10
60.277785116509804
 20
15.468880578464113
 10
60.35355339059328
 20
15.53106199402211
 10
60.41573480615127
 20
15.606830268105583
 10
60.46193976625565
 20
15.69327366843284
 10
60.49039264020161
 20
15.787070223607321
 10
60.5
 20
15.884615384615385
 10
60.5
 20
17.961538461538463
 10
60.49039264020161
 20
18.059083622546527
 10
60.46193976625565
 20
18.15288017772101
 10
60.41573480615127
 20
18.239323578048264
 10
60.35355339059328
 20
18.315091852131737
 10
60.277785116509804
 20
18.377273267689738
 10
60.19134171618254
 20
18.423478227794106
 10
60.097545161008064
 20
18.45193110174008
 10
60.0
 20
18.461538461538463
 10
59.902454838991936
 20
18.45193110174008
 10
59.80865828381746
 20
18.423478227794106
 10
59.722214883490196
 20
18.377273267689738
 10
59.64644660940672
 20
18.315091852131737
 10
59.58426519384873
 20
18.239323578048264
 10
59.53806023374435
 20
18.15288017772101
 10
59.50960735979839
 20
18.059083622546527
 10
59.5
 20
17.961538461538463
  0
LWPOLYLINE
  5
39
330
17
100
AcDbEntity
  8
0
100
AcDbPolyline
 90
35
 70
0
 10
59.5
 20
24.115384615384617
 10
59.5
 20
22.03846153846154
 10
59.50960735979839
 20
21.940916377453476
 10
59.53806023374435
 20
21.847119822278994
 10
59.58426519384873
 20
21.76067642195174
 10
59.64644660940672
 20
21.684908147868267
 10
59.722214883490196
 20
21.622726732310266
 10
59.80865828381746
 20
21.576521772205897
 10
59.902454838991936
 20
21.548068898259924
 10
60.0
 20
21.53846153846154
 10
60.097545161008064
 20
21.548068898259924
 10
60.19134171618254
 20
21.576521772205897
 10
60.277785116509804
 20
21.622726732310266
 10
60.35355339059328
 20
21.684908147868267
 10
60.41573480615127
 20
21.76067642195174
 10
60.46193976625565
 20
21.847119822278994
 10
60.49039264020161
 20
21.940916377453476
 10
60.5
 20
22.03846153846154
 10
60.5
 20
24.115384615384617
 10
60.49039264020161
 20
24.21292977639268
 10
60.46193976625565
 20
24.306726331567162
 10
60.41573480615127
 20
24.393169731894417
 10
60.35355339059328
 20
24.46893800597789
 10
60.277785116509804
 20
24.53111942153589
 10
60.19134171618254
 20
24.57732438164026
 10
60.097545161008064
 20
24.605777255586233
 10
60.0
 20
24.615384615384617
 10
59.902454838991936
 20
24.605777255586233
 10
59.80865828381746
 20
24.57732438164026
 10
59.722214883490196
 20
24.53111942153589
 10
59.64644660940672
 20
24.46893800597789
 10
59.58426519384873
 20
24.393169731894417
 10
59.53806023374435
 20
24.306726331567162
 10
59.50960735979839
 20
24.21292977639268
 10
59.5
 20
24.115384615384617
  0
LWPOLYLINE
  5
3A
330
17
100
AcDbEntity
  8
0
100
AcDbPolyline
 90
35
 70
0
 10
59.5
 20
30.26923076923077
 10
59.5
 20
28.192307692307693
 10
59.50960735979839
 20
28.09476253129963
 10
59.53806023374435
 20
28.000965976125148
 10
59.58426519384873
 20
27.914522575797893
 10
59.64644660940672
 20
27.83875430171442
 10
59.722214883490196
 20
27.77657288615642
 10
59.80865828381746
 20
27.73036792605205
 10
59.902454838991936
 20
27.701915052106077
 10
60.0
 20
27.692307692307693
 10
60.097545161008064
 20
27.701915052106077
 10
60.19134171618254
 20
27.73036792605205
 10
60.277785116509804
 20
27.77657288615642
 10
60.35355339059328
 20
27.83875430171442
 10
60.41573480615127
 20
27.914522575797893
 10
60.46193976625565
 20
28.000965976125148
 10
60.49039264020161
 20
28.09476253129963
 10
60.5
 20
28.192307692307693
 10
60.5
 20
30.26923076923077
 10
60.49039264020161
 20
30.366775930238834
 10
60.46193976625565
 20
30.460572485413316
 10
60.41573480615127
 20
30.54701588574057
 10
60.35355339059328
 20
30.622784159824043
 10
60.277785116509804
 20
30.684965575382044
 10
60.19134171618254
 20
30.731170535486413
 10
60.097545161008064
 20
30.759623409432386
 10
60.0
 20
30.76923076923077
 10
59.902454838991936
 20
30.759623409432386
 10
59.80865828381746
 20
30.731170535486413
 10
59.722214883490196
 20
30.684965575382044
 10
59.64644660940672
 20
30.622784159824043
 10
59.58426519384873
 20
30.54701588574057
 10
59.53806023374435
 20
30.460572485413316
 10
59.50960735979839
 20
30.366775930238834
 10
59.5
 20
30.26923076923077
  0
LWPOLYLINE
  5
3B
330
17
100
AcDbEntity
  8
0
100
AcDbPolyline
 90
35
 70
0
 10
59.5
 20
36.42307692307693
 10
59.5
 20
34.34615384615385
 10
59.50960735979839
 20
34.24860868514578
 10
59.53806023374435
 20
34.154812129971305
 10
59.58426519384873
 20
34.06836872964404
 10
59.64644660940672
 20
33.99260045556057
 10
59.722214883490196
 20
33.930419040002576
 10
59.80865828381746
 20
33.8842140798982
 10
59.902454838991936
 20
33.855761205952234
 10
60.0
 20
33.84615384615385
 10
60.097545161008064
 20
33.855761205952234
 10
60.19134171618254
 20
33.8842140798982
 10
60.277785116509804
 20
33.930419040002576
 10
60.35355339059328
 20
33.99260045556057
 10
60.41573480615127
 20
34.06836872964404
 10
60.46193976625565
 20
34.154812129971305
 10
60.49039264020161
 20
34.24860868514578
 10
60.5
 20
34.34615384615385
 10
60.5
 20
36.42307692307693
 10
60.49039264020161
 20
36.52062208408499
 10
60.46193976625565
 20
36.61441863925947
 10
60.41573480615127
 20
36.70086203958673
 10
60.35355339059328
 20
36.7766303136702
 10
60.277785116509804
 20
36.8388117292282
 10
60.19134171618254
 20
36.88501668933257
 10
60.097545161008064
 20
36.91346956327854
 10
60.0
 20
36.92307692307693
 10
59.902454838991936
 20
36.91346956327854
 10
59.80865828381746
 20
36.88501668933257
 10
59.722214883490196
 20
36.8388117292282
 10
59.64644660940672
 20
36.7766303136702
 10
59.58426519384873
 20
36.70086203958673
 10
59.53806023374435
 20
36.61441863925947
 10
59.50960735979839
 20
36.52062208408499
 10
59.5
 20
36.42307692307693
  0
LWPOLYLINE
  5
3C
330
17
100
AcDbEntity
  8
0
100
AcDbPolyline
 90
35
 70
0
 10
89.5
 20
5.653846153846154
 10
89.5
 20
3.576923076923077
 10
89.50960735979838
 20
3.479377915915012
 10
89.53806023374436
 20
3.385581360740532
 10
89.58426519384872
 20
3.2991379604132756
 10
89.64644660940672
 20
3.223369686329803
 10
89.7222148834902
 20
3.161188270771804
 10
89.80865828381745
 20
3.1149833106674336
 10
89.90245483899193
 20
3.086530436721462
 10
90.0
 20
3.076923076923077
 10
90.09754516100806
 20
3.086530436721462
 10
90.19134171618255
 20
3.1149833106674336
 10
90.2777851165098
 20
3.161188270771804
 10
90.35355339059328
 20
3.223369686329803
 10
90.41573480615128
 20
3.299137960413275
 10
90.46193976625564
 20
3.3855813607405314
 10
90.49039264020162
 20
3.479377915915012
 10
90.5
 20
3.576923076923077
 10
90.5
 20
5.653846153846154
 10
90.49039264020162
 20
5.751391314854219
 10
90.46193976625564
 20
5.8451878700287
 10
90.41573480615128
 20
5.931631270355956
 10
90.35355339059328
 20
6.007399544439428
 10
90.2777851165098
 20
6.069580959997427
 10
90.19134171618255
 20
6.115785920101798
 10
90.09754516100807
 20
6.144238794047769
 10
90.0
 20
6.153846153846154
 10
89.90245483899193
 20
6.144238794047769
 10
89.80865828381745
 20
6.115785920101798
 10
89.7222148834902
 20
6.069580959997427
 10
89.64644660940672
 20
6.007399544439428
 10
89.58426519384872
 20
5.931631270355956
 10
89.53806023374436
 20
5.8451878700287
 10
89.50960735979838
 20
5.751391314854219
 10
89.5
 20
5.653846153846154
  0
LWPOLYLINE
  5
3D
330
17
100
AcDbEntity
  8
0
100
AcDbPolyline
 90
35
 70
0
 10
89.5
 20
11.807692307692308
 10
89.5
 20
9.730769230769232
 10
89.50960735979838
 20
9.633224069761168
 10
89.53806023374436
 20
9.539427514586686
 10
89.58426519384872
 20
9.45298411425943
 10
89.64644660940672
 20
9.377215840175957
 10
89.7222148834902
 20
9.31503442461796
 10
89.80865828381745
 20
9.268829464513589
 10
89.90245483899193
 20
9.240376590567617
 10
90.0
 20
9.230769230769232
 10
90.09754516100806
 20
9.240376590567616
 10
90.19134171618255
 20
9.268829464513589
 10
90.2777851165098
 20
9.31503442461796
 10
90.35355339059328
 20
9.377215840175957
 10
90.41573480615128
 20
9.45298411425943
 10
90.46193976625564
 20
9.539427514586686
 10
90.49039264020162
 20
9.633224069761168
 10
90.5
 20
9.730769230769232
 10
90.5
 20
11.807692307692308
 10
90.49039264020162
 20
11.905237468700372
 10
90.46193976625564
 20
11.999034023874854
 10
90.41573480615128
 20
12.085477424202109
 10
90.35355339059328
 20
12.161245698285583
 10
90.2777851165098
 20
12.22342711384358
 10
90.19134171618255
 20
12.269632073947951
 10
90.09754516100807
 20
12.298084947893924
 10
90.0
 20
12.307692307692308
 10
89.90245483899193
 20
12.298084947893924
 10
89.80865828381745
 20
12.269632073947951
 10
89.7222148834902
 20
12.22342711384358
 10
89.64644660940672
 20
12.161245698285583
 10
89.58426519384872
 20
12.08547742420211
 10
89.53806023374436
 20
11.999034023874854
 10
89.50960735979838
 20
11.905237468700372
 10
89.5
 20
11.807692307692308
  0
LWPOLYLINE
  5
3E
330
17
100
AcDbEntity
  8
0
100
AcDbPolyline
 90
35
 70
0
 10
89.5
 20
17.961538461538463
 10
89.5
 20
15.884615384615385
 10
89.50960735979838
 20
15.787070223607321
 10
89.53806023374436
 20
15.69327366843284
 10
89.58426519384872
 20
15.606830268105583
 10
89.64644660940672
 20
15.53106199402211
 10
89.7222148834902
 20
15.468880578464113
 10
89.80865828381745
 20
15.422675618359742
 10
89.90245483899193
 20
15.39422274441377
 10
90.0
 20
15.384615384615385
 10
90.09754516100806
 20
15.394222744413769
 10
90.19134171618255
 20
15.422675618359742
 10
90.2777851165098
 20
15.468880578464113
 10
90.35355339059328
 20
15.53106199402211
 10
90.41573480615128
 20
15.606830268105583
 10
90.46193976625564
 20
15.69327366843284
 10
90.49039264020162
 20
15.787070223607321
 10
90.5
 20
15.884615384615385
 10
90.5
 20
17.961538461538463
 10
90.49039264020162
 20
18.059083622546527
 10
90.46193976625564
 20
18.15288017772101
 10
90.41573480615128
 20
18.239323578048264
 10
90.35355339059328
 20
18.315091852131737
 10
90.2777851165098
 20
18.377273267689738
 10
90.19134171618255
 20
18.423478227794106
 10
90.09754516100807
 20
18.45193110174008
 10
90.0
 20
18.461538461538463
 10
89.90245483899193
 20
18.45193110174008
 10
89.80865828381745
 20
18.423478227794106
 10
89.7222148834902
 20
18.377273267689738
 10
89.64644660940672
 20
18.315091852131737
 10
89.58426519384872
 20
18.239323578048264
 10
89.53806023374436
 20
18.15288017772101
 10
89.50960735979838
 20
18.059083622546527
 10
89.5
 20
17.961538461538463
  0
LWPOLYLINE
  5
3F
330
17
100
AcDbEntity
  8
0
100
AcDbPolyline
 90
35
 70
0
 10
89.5
 20
24.115384615384617
 10
89.5
 20
22.03846153846154
 10
89.50960735979838
 20
21.940916377453476
 10
89.53806023374436
 20
21.847119822278994
 10
89.58426519384872
 20
21.76067642195174
 10
89.64644660940672
 20
21.684908147868267
 10
89.7222148834902
 20
21.622726732310266
 10
89.80865828381745
 20
21.576521772205897
 10
89.90245483899193
 20
21.548068898259924
 10
90.0
 20
21.53846153846154
 10
90.09754516100806
 20
21.548068898259924
 10
90.19134171618255
 20
21.576521772205897
 10
90.2777851165098
 20
21.622726732310266
 10
90.35355339059328
 20
21.684908147868267
 10
90.41573480615128
 20
21.76067642195174
 10
90.46193976625564
 20
21.847119822278994
 10
90.49039264020162
 20
21.940916377453476
 10
90.5
 20
22.03846153846154
 10
90.5
 20
24.115384615384617
 10
90.49039264020162
 20
24.21292977639268
 10
90.46193976625564
 20
24.306726331567162
 10
90.41573480615128
 20
24.393169731894417
 10
90.35355339059328
 20
24.46893800597789
 10
90.2777851165098
 20
24.53111942153589
 10
90.19134171618255
 20
24.57732438164026
 10
90.09754516100807
 20
24.605777255586233
 10
90.0
 20
24.615384615384617
 10
89.90245483899193
 20
24.605777255586233
 10
89.80865828381745
 20
24.57732438164026
 10
89.7222148834902
 20
24.53111942153589
 10
89.64644660940672
 20
24.46893800597789
 10
89.58426519384872
 20
24.393169731894417
 10
89.53806023374436
 20
24.306726331567162
 10
89.50960735979838
 20
24.21292977639268
 10
89.5
 20
24.115384615384617
  0
LWPOLYLINE
  5
40
330
17
100
AcDbEntity
  8
0
100
AcDbPolyline
 90
35
 70
0
 10
89.5
 20
30.26923076923077
 10
89.5
 20
28.192307692307693
 10
89.50960735979838
 20
28.09476253129963
 10
89.53806023374436
 20
28.000965976125148
 10
89.58426519384872
 20
27.914522575797893
 10
89.64644660940672
 20
27.83875430171442
 10
89.7222148834902
 20
27.77657288615642
 10
89.80865828381745
 20
27.73036792605205
 10
89.90245483899193
 20
27.701915052106077
 10
90.0
 20
27.692307692307693
 10
90.09754516100806
 20
27.701915052106077
 10
90.19134171618255
 20
27.73036792605205
 10
90.2777851165098
 20
27.77657288615642
 10
90.35355339059328
 20
27.83875430171442
 10
90.41573480615128
 20
27.914522575797893
 10
90.46193976625564
 20
28.000965976125148
 10
90.49039264020162
 20
28.09476253129963
 10
90.5
 20
28.192307692307693
 10
90.5
 20
30.26923076923077
 10
90.49039264020162
 20
30.366775930238834
 10
90.46193976625564
 20
30.460572485413316
 10
90.41573480615128
 20
30.54701588574057
 10
90.35355339059328
 20
30.622784159824043
 10
90.2777851165098
 20
30.684965575382044
 10
90.19134171618255
 20
30.731170535486413
 10
90.09754516100807
 20
30.759623409432386
 10
90.0
 20
30.76923076923077
 10
89.90245483899193
 20
30.759623409432386
 10
89.80865828381745
 20
30.731170535486413
 10
89.7222148834902
 20
30.684965575382044
 10
89.64644660940672
 20
30.622784159824043
 10
89.58426519384872
 20
30.54701588574057
 10
89.53806023374436
 20
30.460572485413316
 10
89.50960735979838
 20
30.366775930238834
 10
89.5
 20
30.26923076923077
  0
LWPOLYLINE
  5
41
330
17
100
AcDbEntity
  8
0
100
AcDbPolyline
 90
35
 70
0
 10
89.5
 20
36.42307692307693
 10
89.5
 20
34.34615384615385
 10
89.50960735979838
 20
34.24860868514578
 10
89.53806023374436
 20
34.154812129971305
 10
89.58426519384872
 20
34.06836872964404
 10
89.64644660940672
 20
33.99260045556057
 10
89.7222148834902
 20
33.930419040002576
 10
89.80865828381745
 20
33.8842140798982
 10
89.90245483899193
 20
33.855761205952234
 10
90.0
 20
33.84615384615385
 10
90.09754516100806
 20
33.855761205952234
 10
90.19134171618255
 20
33.8842140798982
 10
90.2777851165098
 20
33.930419040002576
 10
90.35355339059328
 20
33.99260045556057
 10
90.41573480615128
 20
34.06836872964404
 10
90.46193976625564
 20
34.154812129971305
 10
90.49039264020162
 20
34.24860868514578
 10
90.5
 20
34.34615384615385
 10
90.5
 20
36.42307692307693
 10
90.49039264020162
 20
36.52062208408499
 10
90.46193976625564
 20
36.61441863925947
 10
90.41573480615128
 20
36.70086203958673
 10
90.35355339059328
 20
36.7766303136702
 10
90.2777851165098
 20
36.8388117292282
 10
90.19134171618255
 20
36.88501668933257
 10
90.09754516100807
 20
36.91346956327854
 10
90.0
 20
36.92307692307693
 10
89.90245483899193
 20
36.91346956327854
 10
89.80865828381745
 20
36.88501668933257
 10
89.7222148834902
 20
36.8388117292282
 10
89.64644660940672
 20
36.7766303136702
 10
89.58426519384872
 20
36.70086203958673
 10
89.53806023374436
 20
36.61441863925947
 10
89.50960735979838
 20
36.52062208408499
 10
89.5
 20
36.42307692307693
  0
LWPOLYLINE
  5
42
330
17
100
AcDbEntity
  8
0
100
AcDbPolyline
 90
35
 70
0
 10
119.5
 20
5.653846153846154
 10
119.5
 20
3.576923076923077
 10
119.50960735979838
 20
3.479377915915012
 10
119.53806023374436
 20
3.385581360740532
 10
119.58426519384872
 20
3.2991379604132756
 10
119.64644660940672
 20
3.223369686329803
 10
119.7222148834902
 20
3.161188270771804
 10
119.80865828381745
 20
3.1149833106674336
 10
119.90245483899193
 20
3.086530436721462
 10
120.0
 20
3.076923076923077
 10
120.09754516100806
 20
3.086530436721462
 10
120.19134171618255
 20
3.1149833106674336
 10
120.2777851165098
 20
3.161188270771804
 10
120.35355339059328
 20
3.223369686329803
 10
120.41573480615128
 20
3.299137960413275
 10
120.46193976625564
 20
3.3855813607405314
 10
120.49039264020162
 20
3.479377915915012
 10
120.5
 20
3.576923076923077
 10
120.5
 20
5.653846153846154
 10
120.49039264020162
 20
5.751391314854219
 10
120.46193976625564
 20
5.8451878700287
 10
120.41573480615128
 20
5.931631270355956
 10
120.35355339059328
 20
6.007399544439428
 10
120.2777851165098
 20
6.069580959997427
 10
120.19134171618255
 20
6.115785920101798
 10
120.09754516100807
 20
6.144238794047769
 10
120.0
 20
6.153846153846154
 10
119.90245483899193
 20
6.144238794047769
 10
119.80865828381745
 20
6.115785920101798
 10
119.7222148834902
 20
6.069580959997427
 10
119.64644660940672
 20
6.007399544439428
 10
119.58426519384872
 20
5.931631270355956
 10
119.53806023374436
 20
5.8451878700287
 10
119.50960735979838
 20
5.751391314854219
 10
119.5
 20
5.653846153846154
  0
LWPOLYLINE
  5
43
330
17
100
AcDbEntity
  8
0
100
AcDbPolyline
 90
35
 70
0
 10
119.5
 20
11.807692307692308
 10
119.5
 20
9.730769230769232
 10
119.50960735979838
 20
9.633224069761168
 10
119.53806023374436
 20
9.539427514586686
 10
119.58426519384872
 20
9.45298411425943
 10
119.64644660940672
 20
9.377215840175957
 10
119.7222148834902
 20
9.31503442461796
 10
119.80865828381745
 20
9.268829464513589
 10
119.90245483899193
 20
9.240376590567617
 10
120.0
 20
9.230769230769232
 10
120.09754516100806
 20
9.240376590567616
 10
120.19134171618255
 20
9.268829464513589
 10
120.2777851165098
 20
9.31503442461796
 10
120.35355339059328
 20
9.377215840175957
 10
120.41573480615128
 20
9.45298411425943
 10
120.46193976625564
 20
9.539427514586686
 10
120.49039264020162
 20
9.633224069761168
 10
120.5
 20
9.730769230769232
 10
120.5
 20
11.807692307692308
 10
120.49039264020162
 20
11.905237468700372
 10
120.46193976625564
 20
11.999034023874854
 10
120.41573480615128
 20
12.085477424202109
 10
120.35355339059328
 20
12.161245698285583
 10
120.2777851165098
 20
12.22342711384358
 10
120.19134171618255
 20
12.269632073947951
 10
120.09754516100807
 20
12.298084947893924
 10
120.0
 20
12.307692307692308
 10
119.90245483899193
 20
12.298084947893924
 10
119.80865828381745
 20
12.269632073947951
 10
119.7222148834902
 20
12.22342711384358
 10
119.64644660940672
 20
12.161245698285583
 10
119.58426519384872
 20
12.08547742420211
 10
119.53806023374436
 20
11.999034023874854
 10
119.50960735979838
 20
11.905237468700372
 10
119.5
 20
11.807692307692308
  0
LWPOLYLINE
  5
44
330
17
100
AcDbEntity
  8
0
100
AcDbPolyline
 90
35
 70
0
 10
119.5
 20
17.961538461538463
 10
119.5
 20
15.884615384615385
 10
119.50960735979838
 20
15.787070223607321
 10
119.53806023374436
 20
15.69327366843284
 10
119.58426519384872
 20
15.606830268105583
 10
119.64644660940672
 20
15.53106199402211
 10
119.7222148834902
 20
15.468880578464113
 10
119.80865828381745
 20
15.422675618359742
 10
119.90245483899193
 20
15.39422274441377
 10
120.0
 20
15.384615384615385
 10
120.09754516100806
 20
15.394222744413769
 10
120.19134171618255
 20
15.422675618359742
 10
120.2777851165098
 20
15.468880578464113
 10
120.35355339059328
 20
15.53106199402211
 10
120.41573480615128
 20
15.606830268105583
 10
120.46193976625564
 20
15.69327366843284
 10
120.49039264020162
 20
15.787070223607321
 10
120.5
 20
15.884615384615385
 10
120.5
 20
17.961538461538463
 10
120.49039264020162
 20
18.059083622546527
 10
120.46193976625564
 20
18.15288017772101
 10
120.41573480615128
 20
18.239323578048264
 10
120.35355339059328
 20
18.315091852131737
 10
120.2777851165098
 20
18.377273267689738
 10
120.19134171618255
 20
18.423478227794106
 10
120.09754516100807
 20
18.45193110174008
 10
120.0
 20
18.461538461538463
 10
119.90245483899193
 20
18.45193110174008
 10
119.80865828381745
 20
18.423478227794106
 10
119.7222148834902
 20
18.377273267689738
 10
119.64644660940672
 20
18.315091852131737
 10
119.58426519384872
 20
18.239323578048264
 10
119.53806023374436
 20
18.15288017772101
 10
119.50960735979838
 20
18.059083622546527
 10
119.5
 20
17.961538461538463
  0
LWPOLYLINE
  5
45
330
17
100
AcDbEntity
  8
0
100
AcDbPolyline
 90
35
 70
0
 10
119.5
 20
24.115384615384617
 10
119.5
 20
22.03846153846154
 10
119.50960735979838
 20
21.940916377453476
 10
119.53806023374436
 20
21.847119822278994
 10
119.58426519384872
 20
21.76067642195174
 10
119.64644660940672
 20
21.684908147868267
 10
119.7222148834902
 20
21.622726732310266
 10
119.80865828381745
 20
21.576521772205897
 10
119.90245483899193
 20
21.548068898259924
 10
120.0
 20
21.53846153846154
 10
120.09754516100806
 20
21.548068898259924
 10
120.19134171618255
 20
21.576521772205897
 10
120.2777851165098
 20
21.622726732310266
 10
120.35355339059328
 20
21.684908147868267
 10
120.41573480615128
 20
21.76067642195174
 10
120.46193976625564
 20
21.847119822278994
 10
120.49039264020162
 20
21.940916377453476
 10
120.5
 20
22.03846153846154
 10
120.5
 20
24.115384615384617
 10
120.49039264020162
 20
24.21292977639268
 10
120.46193976625564
 20
24.306726331567162
 10
120.41573480615128
 20
24.393169731894417
 10
120.35355339059328
 20
24.46893800597789
 10
120.2777851165098
 20
24.53111942153589
 10
120.19134171618255
 20
24.57732438164026
 10
120.09754516100807
 20
24.605777255586233
 10
120.0
 20
24.615384615384617
 10
119.90245483899193
 20
24.605777255586233
 10
119.80865828381745
 20
24.57732438164026
 10
119.7222148834902
 20
24.53111942153589
 10
119.64644660940672
 20
24.46893800597789
 10
119.58426519384872
 20
24.393169731894417
 10
119.53806023374436
 20
24.306726331567162
 10
119.50960735979838
 20
24.21292977639268
 10
119.5
 20
24.115384615384617
  0
LWPOLYLINE
  5
46
330
17
100
AcDbEntity
  8
0
100
AcDbPolyline
 90
35
 70
0
 10
119.5
 20
30.26923076923077
 10
119.5
 20
28.192307692307693
 10
119.50960735979838
 20
28.09476253129963
 10
119.53806023374436
 20
28.000965976125148
 10
119.58426519384872
 20
27.914522575797893
 10
119.64644660940672
 20
27.83875430171442
 10
119.7222148834902
 20
27.77657288615642
 10
119.80865828381745
 20
27.73036792605205
 10
119.90245483899193
 20
27.701915052106077
 10
120.0
 20
27.692307692307693
 10
120.09754516100806
 20
27.701915052106077
 10
120.19134171618255
 20
27.73036792605205
 10
120.2777851165098
 20
27.77657288615642
 10
120.35355339059328
 20
27.83875430171442
 10
120.41573480615128
 20
27.914522575797893
 10
120.46193976625564
 20
28.000965976125148
 10
120.49039264020162
 20
28.09476253129963
 10
120.5
 20
28.192307692307693
 10
120.5
 20
30.26923076923077
 10
120.49039264020162
 20
30.366775930238834
 10
120.46193976625564
 20
30.460572485413316
 10
120.41573480615128
 20
30.54701588574057
 10
120.35355339059328
 20
30.622784159824043
 10
120.2777851165098
 20
30.684965575382044
 10
120.19134171618255
 20
30.731170535486413
 10
120.09754516100807
 20
30.759623409432386
 10
120.0
 20
30.76923076923077
 10
119.90245483899193
 20
30.759623409432386
 10
119.80865828381745
 20
30.731170535486413
 10
119.7222148834902
 20
30.684965575382044
 10
119.64644660940672
 20
30.622784159824043
 10
119.58426519384872
 20
30.54701588574057
 10
119.53806023374436
 20
30.460572485413316
 10
119.50960735979838
 20
30.366775930238834
 10
119.5
 20
30.26923076923077
  0
LWPOLYLINE
  5
47
330
17
100
AcDbEntity
  8
0
100
AcDbPolyline
 90
35
 70
0
 10
119.5
 20
36.42307692307693
 10
119.5
 20
34.34615384615385
 10
119.50960735979838
 20
34.24860868514578
 10
119.53806023374436
 20
34.154812129971305
 10
119.58426519384872
 20
34.06836872964404
 10
119.64644660940672
 20
33.99260045556057
 10
119.7222148834902
 20
33.930419040002576
 10
119.80865828381745
 20
33.8842140798982
 10
119.90245483899193
 20
33.855761205952234
 10
120.0
 20
33.84615384615385
 10
120.09754516100806
 20
33.855761205952234
 10
120.19134171618255
 20
33.8842140798982
 10
120.2777851165098
 20
33.930419040002576
 10
120.35355339059328
 20
33.99260045556057
 10
120.41573480615128
 20
34.06836872964404
 10
120.46193976625564
 20
34.154812129971305
 10
120.49039264020162
 20
34.24860868514578
 10
120.5
 20
34.34615384615385
 10
120.5
 20
36.42307692307693
 10
120.49039264020162
 20
36.52062208408499
 10
120.46193976625564
 20
36.61441863925947
 10
120.41573480615128
 20
36.70086203958673
 10
120.35355339059328
 20
36.7766303136702
 10
120.2777851165098
 20
36.8388117292282
 10
120.19134171618255
 20
36.88501668933257
 10
120.09754516100807
 20
36.91346956327854
 10
120.0
 20
36.92307692307693
 10
119.90245483899193
 20
36.91346956327854
 10
119.80865828381745
 20
36.88501668933257
 10
119.7222148834902
 20
36.8388117292282
 10
119.64644660940672
 20
36.7766303136702
 10
119.58426519384872
 20
36.70086203958673
 10
119.53806023374436
 20
36.61441863925947
 10
119.50960735979838
 20
36.52062208408499
 10
119.5
 20
36.42307692307693
  0
LWPOLYLINE
  5
48
330
17
100
AcDbEntity
  8
0
100
AcDbPolyline
 90
35
 70
0
 10
149.5
 20
5.653846153846154
 10
149.5
 20
3.576923076923077
 10
149.5096073597984
 20
3.479377915915012
 10
149.53806023374435
 20
3.385581360740532
 10
149.58426519384872
 20
3.2991379604132756
 10
149.64644660940672
 20
3.223369686329803
 10
149.7222148834902
 20
3.161188270771804
 10
149.80865828381746
 20
3.1149833106674336
 10
149.90245483899193
 20
3.086530436721462
 10
150.0
 20
3.076923076923077
 10
150.09754516100807
 20
3.086530436721462
 10
150.19134171618254
 20
3.1149833106674336
 10
150.2777851165098
 20
3.161188270771804
 10
150.35355339059328
 20
3.223369686329803
 10
150.41573480615128
 20
3.299137960413275
 10
150.46193976625565
 20
3.3855813607405314
 10
150.4903926402016
 20
3.479377915915012
 10
150.5
 20
3.576923076923077
 10
150.5
 20
5.653846153846154
 10
150.4903926402016
 20
5.751391314854219
 10
150.46193976625565
 20
5.8451878700287
 10
150.41573480615128
 20
5.931631270355956
 10
150.35355339059328
 20
6.007399544439428
 10
150.2777851165098
 20
6.069580959997427
 10
150.19134171618254
 20
6.115785920101798
 10
150.09754516100807
 20
6.144238794047769
 10
150.0
 20
6.153846153846154
 10
149.90245483899193
 20
6.144238794047769
 10
149.80865828381746
 20
6.115785920101798
 10
149.7222148834902
 20
6.069580959997427
 10
149.64644660940672
 20
6.007399544439428
 10
149.58426519384872
 20
5.931631270355956
 10
149.53806023374435
 20
5.8451878700287
 10
149.5096073597984
 20
5.751391314854219
 10
149.5
 20
5.653846153846154
  0
LWPOLYLINE
  5
49
330
17
100
AcDbEntity
  8
0
100
AcDbPolyline
 90
35
 70
0
 10
149.5
 20
11.807692307692308
 10
149.5
 20
9.730769230769232
 10
149.5096073597984
 20
9.633224069761168
 10
149.53806023374435
 20
9.539427514586686
 10
149.58426519384872
 20
9.45298411425943
 10
149.64644660940672
 20
9.377215840175957
 10
149.7222148834902
 20
9.31503442461796
 10
149.80865828381746
 20
9.268829464513589
 10
149.90245483899193
 20
9.240376590567617
 10
150.0
 20
9.230769230769232
 10
150.09754516100807
 20
9.240376590567616
 10
150.19134171618254
 20
9.268829464513589
 10
150.2777851165098
 20
9.31503442461796
 10
150.35355339059328
 20
9.377215840175957
 10
150.41573480615128
 20
9.45298411425943
 10
150.46193976625565
 20
9.539427514586686
 10
150.4903926402016
 20
9.633224069761168
 10
150.5
 20
9.730769230769232
 10
150.5
 20
11.807692307692308
 10
150.4903926402016
 20
11.905237468700372
 10
150.46193976625565
 20
11.999034023874854
 10
150.41573480615128
 20
12.085477424202109
 10
150.35355339059328
 20
12.161245698285583
 10
150.2777851165098
 20
12.22342711384358
 10
150.19134171618254
 20
12.269632073947951
 10
150.09754516100807
 20
12.298084947893924
 10
150.0
 20
12.307692307692308
 10
149.90245483899193
 20
12.298084947893924
 10
149.80865828381746
 20
12.269632073947951
 10
149.7222148834902
 20
12.22342711384358
 10
149.64644660940672
 20
12.161245698285583
 10
149.58426519384872
 20
12.08547742420211
 10
149.53806023374435
 20
11.999034023874854
 10
149.5096073597984
 20
11.905237468700372
 10
149.5
 20
11.807692307692308
  0
LWPOLYLINE
  5
4A
330
17
100
AcDbEntity
  8
0
100
AcDbPolyline
 90
35
 70
0
 10
149.5
 20
17.961538461538463
 10
149.5
 20
15.884615384615385
 10
149.5096073597984
 20
15.787070223607321
 10
149.53806023374435
 20
15.69327366843284
 10
149.58426519384872
 20
15.606830268105583
 10
149.64644660940672
 20
15.53106199402211
 10
149.7222148834902
 20
15.468880578464113
 10
149.80865828381746
 20
15.422675618359742
 10
149.90245483899193
 20
15.39422274441377
 10
150.0
 20
15.384615384615385
 10
150.09754516100807
 20
15.394222744413769
 10
150.19134171618254
 20
15.422675618359742
 10
150.2777851165098
 20
15.468880578464113
 10
150.35355339059328
 20
15.53106199402211
 10
150.41573480615128
 20
15.606830268105583
 10
150.46193976625565
 20
15.69327366843284
 10
150.4903926402016
 20
15.787070223607321
 10
150.5
 20
15.884615384615385
 10
150.5
 20
17.961538461538463
 10
150.4903926402016
 20
18.059083622546527
 10
150.46193976625565
 20
18.15288017772101
 10
150.41573480615128
 20
18.239323578048264
 10
150.35355339059328
 20
18.315091852131737
 10
150.2777851165098
 20
18.377273267689738
 10
150.19134171618254
 20
18.423478227794106
 10
150.09754516100807
 20
18.45193110174008
 10
150.0
 20
18.461538461538463
 10
149.90245483899193
 20
18.45193110174008
 10
149.80865828381746
 20
18.423478227794106
 10
149.7222148834902
 20
18.377273267689738
 10
149.64644660940672
 20
18.315091852131737
 10
149.58426519384872
 20
18.239323578048264
 10
149.53806023374435
 20
18.15288017772101
 10
149.5096073597984
 20
18.059083622546527
 10
149.5
 20
17.961538461538463
  0
LWPOLYLINE
  5
4B
330
17
100
AcDbEntity
  8
0
100
AcDbPolyline
 90
35
 70
0
 10
149.5
 20
24.115384615384617
 10
149.5
 20
22.03846153846154
 10
149.5096073597984
 20
21.940916377453476
 10
149.53806023374435
 20
21.847119822278994
 10
149.58426519384872
 20
21.76067642195174
 10
149.64644660940672
 20
21.684908147868267
 10
149.7222148834902
 20
21.622726732310266
 10
149.80865828381746
 20
21.576521772205897
 10
149.90245483899193
 20
21.548068898259924
 10
150.0
 20
21.53846153846154
 10
150.09754516100807
 20
21.548068898259924
 10
150.19134171618254
 20
21.576521772205897
 10
150.2777851165098
 20
21.622726732310266
 10
150.35355339059328
 20
21.684908147868267
 10
150.41573480615128
 20
21.76067642195174
 10
150.46193976625565
 20
21.847119822278994
 10
150.4903926402016
 20
21.940916377453476
 10
150.5
 20
22.03846153846154
 10
150.5
 20
24.115384615384617
 10
150.4903926402016
 20
24.21292977639268
 10
150.46193976625565
 20
24.306726331567162
 10
150.41573480615128
 20
24.393169731894417
 10
150.35355339059328
 20
24.46893800597789
 10
150.2777851165098
 20
24.53111942153589
 10
150.19134171618254
 20
24.57732438164026
 10
150.09754516100807
 20
24.605777255586233
 10
150.0
 20
24.615384615384617
 10
149.90245483899193
 20
24.605777255586233
 10
149.80865828381746
 20
24.57732438164026
 10
149.7222148834902
 20
24.53111942153589
 10
149.64644660940672
 20
24.46893800597789
 10
149.58426519384872
 20
24.393169731894417
 10
149.53806023374435
 20
24.306726331567162
 10
149.5096073597984
 20
24.21292977639268
 10
149.5
 20
24.115384615384617
  0
LWPOLYLINE
  5
4C
330
17
100
AcDbEntity
  8
0
100
AcDbPolyline
 90
35
 70
0
 10
149.5
 20
30.26923076923077
 10
149.5
 20
28.192307692307693
 10
149.5096073597984
 20
28.09476253129963
 10
149.53806023374435
 20
28.000965976125148
 10
149.58426519384872
 20
27.914522575797893
 10
149.64644660940672
 20
27.83875430171442
 10
149.7222148834902
 20
27.77657288615642
 10
149.80865828381746
 20
27.73036792605205
 10
149.90245483899193
 20
27.701915052106077
 10
150.0
 20
27.692307692307693
 10
150.09754516100807
 20
27.701915052106077
 10
150.19134171618254
 20
27.73036792605205
 10
150.2777851165098
 20
27.77657288615642
 10
150.35355339059328
 20
27.83875430171442
 10
150.41573480615128
 20
27.914522575797893
 10
150.46193976625565
 20
28.000965976125148
 10
150.4903926402016
 20
28.09476253129963
 10
150.5
 20
28.192307692307693
 10
150.5
 20
30.26923076923077
 10
150.4903926402016
 20
30.366775930238834
 10
150.46193976625565
 20
30.460572485413316
 10
150.41573480615128
 20
30.54701588574057
 10
150.35355339059328
 20
30.622784159824043
 10
150.2777851165098
 20
30.684965575382044
 10
150.19134171618254
 20
30.731170535486413
 10
150.09754516100807
 20
30.759623409432386
 10
150.0
 20
30.76923076923077
 10
149.90245483899193
 20
30.759623409432386
 10
149.80865828381746
 20
30.731170535486413
 10
149.7222148834902
 20
30.684965575382044
 10
149.64644660940672
 20
30.622784159824043
 10
149.58426519384872
 20
30.54701588574057
 10
149.53806023374435
 20
30.460572485413316
 10
149.5096073597984
 20
30.366775930238834
 10
149.5
 20
30.26923076923077
  0
LWPOLYLINE
  5
4D
330
17
100
AcDbEntity
  8
0
100
AcDbPolyline
 90
35
 70
0
 10
149.5
 20
36.42307692307693
 10
149.5
 20
34.34615384615385
 10
149.5096073597984
 20
34.24860868514578
 10
149.53806023374435
 20
34.154812129971305
 10
149.58426519384872
 20
34.06836872964404
 10
149.64644660940672
 20
33.99260045556057
 10
149.7222148834902
 20
33.930419040002576
 10
149.80865828381746
 20
33.8842140798982
 10
149.90245483899193
 20
33.855761205952234
 10
150.0
 20
33.84615384615385
 10
150.09754516100807
 20
33.855761205952234
 10
150.19134171618254
 20
33.8842140798982
 10
150.2777851165098
 20
33.930419040002576
 10
150.35355339059328
 20
33.99260045556057
 10
150.41573480615128
 20
34.06836872964404
 10
150.46193976625565
 20
34.154812129971305
 10
150.4903926402016
 20
34.24860868514578
 10
150.5
 20
34.34615384615385
 10
150.5
 20
36.42307692307693
 10
150.4903926402016
 20
36.52062208408499
 10
150.46193976625565
 20
36.61441863925947
 10
150.41573480615128
 20
36.70086203958673
 10
150.35355339059328
 20
36.7766303136702
 10
150.2777851165098
 20
36.8388117292282
 10
150.19134171618254
 20
36.88501668933257
 10
150.09754516100807
 20
36.91346956327854
 10
150.0
 20
36.92307692307693
 10
149.90245483899193
 20
36.91346956327854
 10
149.80865828381746
 20
36.88501668933257
 10
149.7222148834902
 20
36.8388117292282
 10
149.64644660940672
 20
36.7766303136702
 10
149.58426519384872
 20
36.70086203958673
 10
149.53806023374435
 20
36.61441863925947
 10
149.5096073597984
 20
36.52062208408499
 10
149.5
 20
36.42307692307693
  0
LWPOLYLINE
  5
4E
330
17
100
AcDbEntity
  8
0
100
AcDbPolyline
 90
35
 70
0
 10
179.5
 20
5.653846153846154
 10
179.5
 20
3.576923076923077
 10
179.5096073597984
 20
3.479377915915012
 10
179.53806023374435
 20
3.385581360740532
 10
179.58426519384872
 20
3.2991379604132756
 10
179.64644660940672
 20
3.223369686329803
 10
179.7222148834902
 20
3.161188270771804
 10
179.80865828381746
 20
3.1149833106674336
 10
179.90245483899193
 20
3.086530436721462
 10
180.0
 20
3.076923076923077
 10
180.09754516100807
 20
3.086530436721462
 10
180.19134171618254
 20
3.1149833106674336
 10
180.2777851165098
 20
3.161188270771804
 10
180.35355339059328
 20
3.223369686329803
 10
180.41573480615128
 20
3.299137960413275
 10
180.46193976625565
 20
3.3855813607405314
 10
180.4903926402016
 20
3.479377915915012
 10
180.5
 20
3.576923076923077
 10
180.5
 20
5.653846153846154
 10
180.4903926402016
 20
5.751391314854219
 10
180.46193976625565
 20
5.8451878700287
 10
180.41573480615128
 20
5.931631270355956
 10
180.35355339059328
 20
6.007399544439428
 10
180.2777851165098
 20
6.069580959997427
 10
180.19134171618254
 20
6.115785920101798
 10
180.09754516100807
 20
6.144238794047769
 10
180.0
 20
6.153846153846154
 10
179.90245483899193
 20
6.144238794047769
 10
179.80865828381746
 20
6.115785920101798
 10
179.7222148834902
 20
6.069580959997427
 10
179.64644660940672
 20
6.007399544439428
 10
179.58426519384872
 20
5.931631270355956
 10
179.53806023374435
 20
5.8451878700287
 10
179.5096073597984
 20
5.751391314854219
 10
179.5
 20
5.653846153846154
  0
LWPOLYLINE
  5
4F
330
17
100
AcDbEntity
  8
0
100
AcDbPolyline
 90
35
 70
0
 10
179.5
 20
11.807692307692308
 10
179.5
 20
9.730769230769232
 10
179.5096073597984
 20
9.633224069761168
 10
179.53806023374435
 20
9.539427514586686
 10
179.58426519384872
 20
9.45298411425943
 10
179.64644660940672
 20
9.377215840175957
 10
179.7222148834902
 20
9.31503442461796
 10
179.80865828381746
 20
9.268829464513589
 10
179.90245483899193
 20
9.240376590567617
 10
180.0
 20
9.230769230769232
 10
180.09754516100807
 20
9.240376590567616
 10
180.19134171618254
 20
9.268829464513589
 10
180.2777851165098
 20
9.31503442461796
 10
180.35355339059328
 20
9.377215840175957
 10
180.41573480615128
 20
9.45298411425943
 10
180.46193976625565
 20
9.539427514586686
 10
180.4903926402016
 20
9.633224069761168
 10
180.5
 20
9.730769230769232
 10
180.5
 20
11.807692307692308
 10
180.4903926402016
 20
11.905237468700372
 10
180.46193976625565
 20
11.999034023874854
 10
180.41573480615128
 20
12.085477424202109
 10
180.35355339059328
 20
12.161245698285583
 10
180.2777851165098
 20
12.22342711384358
 10
180.19134171618254
 20
12.269632073947951
 10
180.09754516100807
 20
12.298084947893924
 10
180.0
 20
12.307692307692308
 10
179.90245483899193
 20
12.298084947893924
 10
179.80865828381746
 20
12.269632073947951
 10
179.7222148834902
 20
12.22342711384358
 10
179.64644660940672
 20
12.161245698285583
 10
179.58426519384872
 20
12.08547742420211
 10
179.53806023374435
 20
11.999034023874854
 10
179.5096073597984
 20
11.905237468700372
 10
179.5
 20
11.807692307692308
  0
LWPOLYLINE
  5
50
330
17
100
AcDbEntity
  8
0
100
AcDbPolyline
 90
35
 70
0
 10
179.5
 20
17.961538461538463
 10
179.5
 20
15.884615384615385
 10
179.5096073597984
 20
15.787070223607321
 10
179.53806023374435
 20
15.69327366843284
 10
179.58426519384872
 20
15.606830268105583
 10
179.64644660940672
 20
15.53106199402211
 10
179.7222148834902
 20
15.468880578464113
 10
179.80865828381746
 20
15.422675618359742
 10
179.90245483899193
 20
15.39422274441377
 10
180.0
 20
15.384615384615385
 10
180.09754516100807
 20
15.394222744413769
 10
180.19134171618254
 20
15.422675618359742
 10
180.2777851165098
 20
15.468880578464113
 10
180.35355339059328
 20
15.53106199402211
 10
180.41573480615128
 20
15.606830268105583
 10
180.46193976625565
 20
15.69327366843284
 10
180.4903926402016
 20
15.787070223607321
 10
180.5
 20
15.884615384615385
 10
180.5
 20
17.961538461538463
 10
180.4903926402016
 20
18.059083622546527
 10
180.46193976625565
 20
18.15288017772101
 10
180.41573480615128
 20
18.239323578048264
 10
180.35355339059328
 20
18.315091852131737
 10
180.2777851165098
 20
18.377273267689738
 10
180.19134171618254
 20
18.423478227794106
 10
180.09754516100807
 20
18.45193110174008
 10
180.0
 20
18.461538461538463
 10
179.90245483899193
 20
18.45193110174008
 10
179.80865828381746
 20
18.423478227794106
 10
179.7222148834902
 20
18.377273267689738
 10
179.64644660940672
 20
18.315091852131737
 10
179.58426519384872
 20
18.239323578048264
 10
179.53806023374435
 20
18.15288017772101
 10
179.5096073597984
 20
18.059083622546527
 10
179.5
 20
17.961538461538463
  0
LWPOLYLINE
  5
51
330
17
100
AcDbEntity
  8
0
100
AcDbPolyline
 90
35
 70
0
 10
179.5
 20
24.115384615384617
 10
179.5
 20
22.03846153846154
 10
179.5096073597984
 20
21.940916377453476
 10
179.53806023374435
 20
21.847119822278994
 10
179.58426519384872
 20
21.76067642195174
 10
179.64644660940672
 20
21.684908147868267
 10
179.7222148834902
 20
21.622726732310266
 10
179.80865828381746
 20
21.576521772205897
 10
179.90245483899193
 20
21.548068898259924
 10
180.0
 20
21.53846153846154
 10
180.09754516100807
 20
21.548068898259924
 10
180.19134171618254
 20
21.576521772205897
 10
180.2777851165098
 20
21.622726732310266
 10
180.35355339059328
 20
21.684908147868267
 10
180.41573480615128
 20
21.76067642195174
 10
180.46193976625565
 20
21.847119822278994
 10
180.4903926402016
 20
21.940916377453476
 10
180.5
 20
22.03846153846154
 10
180.5
 20
24.115384615384617
 10
180.4903926402016
 20
24.21292977639268
 10
180.46193976625565
 20
24.306726331567162
 10
180.41573480615128
 20
24.393169731894417
 10
180.35355339059328
 20
24.46893800597789
 10
180.2777851165098
 20
24.53111942153589
 10
180.19134171618254
 20
24.57732438164026
 10
180.09754516100807
 20
24.605777255586233
 10
180.0
 20
24.615384615384617
 10
179.90245483899193
 20
24.605777255586233
 10
179.80865828381746
 20
24.57732438164026
 10
179.7222148834902
 20
24.53111942153589
 10
179.64644660940672
 20
24.46893800597789
 10
179.58426519384872
 20
24.393169731894417
 10
179.53806023374435
 20
24.306726331567162
 10
179.5096073597984
 20
24.21292977639268
 10
179.5
 20
24.115384615384617
  0
LWPOLYLINE
  5
52
330
17
100
AcDbEntity
  8
0
100
AcDbPolyline
 90
35
 70
0
 10
179.5
 20
30.26923076923077
 10
179.5
 20
28.192307692307693
 10
179.5096073597984
 20
28.09476253129963
 10
179.53806023374435
 20
28.000965976125148
 10
179.58426519384872
 20
27.914522575797893
 10
179.64644660940672
 20
27.83875430171442
 10
179.7222148834902
 20
27.77657288615642
 10
179.80865828381746
 20
27.73036792605205
 10
179.90245483899193
 20
27.701915052106077
 10
180.0
 20
27.692307692307693
 10
180.09754516100807
 20
27.701915052106077
 10
180.19134171618254
 20
27.73036792605205
 10
180.2777851165098
 20
27.77657288615642
 10
180.35355339059328
 20
27.83875430171442
 10
180.41573480615128
 20
27.914522575797893
 10
180.46193976625565
 20
28.000965976125148
 10
180.4903926402016
 20
28.09476253129963
 10
180.5
 20
28.192307692307693
 10
180.5
 20
30.26923076923077
 10
180.4903926402016
 20
30.366775930238834
 10
180.46193976625565
 20
30.460572485413316
 10
180.41573480615128
 20
30.54701588574057
 10
180.35355339059328
 20
30.622784159824043
 10
180.2777851165098
 20
30.684965575382044
 10
180.19134171618254
 20
30.731170535486413
 10
180.09754516100807
 20
30.759623409432386
 10
180.0
 20
30.76923076923077
 10
179.90245483899193
 20
30.759623409432386
 10
179.80865828381746
 20
30.731170535486413
 10
179.7222148834902
 20
30.684965575382044
 10
179.64644660940672
 20
30.622784159824043
 10
179.58426519384872
 20
30.54701588574057
 10
179.53806023374435
 20
30.460572485413316
 10
179.5096073597984
 20
30.366775930238834
 10
179.5
 20
30.26923076923077
  0
LWPOLYLINE
  5
53
330
17
100
AcDbEntity
  8
0
100
AcDbPolyline
 90
35
 70
0
 10
179.5
 20
36.42307692307693
 10
179.5
 20
34.34615384615385
 10
179.5096073597984
 20
34.24860868514578
 10
179.53806023374435
 20
34.154812129971305
 10
179.58426519384872
 20
34.06836872964404
 10
179.64644660940672
 20
33.99260045556057
 10
179.7222148834902
 20
33.930419040002576
 10
179.80865828381746
 20
33.8842140798982
 10
179.90245483899193
 20
33.855761205952234
 10
180.0
 20
33.84615384615385
 10
180.09754516100807
 20
33.855761205952234
 10
180.19134171618254
 20
33.8842140798982
 10
180.2777851165098
 20
33.930419040002576
 10
180.35355339059328
 20
33.99260045556057
 10
180.41573480615128
 20
34.06836872964404
 10
180.46193976625565
 20
34.154812129971305
 10
180.4903926402016
 20
34.24860868514578
 10
180.5
 20
34.34615384615385
 10
180.5
 20
36.42307692307693
 10
180.4903926402016
 20
36.52062208408499
 10
180.46193976625565
 20
36.61441863925947
 10
180.41573480615128
 20
36.70086203958673
 10
180.35355339059328
 20
36.7766303136702
 10
180.2777851165098
 20
36.8388117292282
 10
180.19134171618254
 20
36.88501668933257
 10
180.09754516100807
 20
36.91346956327854
 10
180.0
 20
36.92307692307693
 10
179.90245483899193
 20
36.91346956327854
 10
179.80865828381746
 20
36.88501668933257
 10
179.7222148834902
 20
36.8388117292282
 10
179.64644660940672
 20
36.7766303136702
 10
179.58426519384872
 20
36.70086203958673
 10
179.53806023374435
 20
36.61441863925947
 10
179.5096073597984
 20
36.52062208408499
 10
179.5
 20
36.42307692307693
  0
ENDSEC
  0
SECTION
  2
OBJECTS
  0
DICTIONARY
  5
A
330
0
100
AcDbDictionary
281
1
  3
ACAD_COLOR
350
B
  3
ACAD_GROUP
350
C
  3
ACAD_LAYOUT
350
D
  3
ACAD_MATERIAL
350
E
  3
ACAD_MLEADERSTYLE
350
F
  3
ACAD_MLINESTYLE
350
10
  3
ACAD_PLOTSETTINGS
350
11
  3
ACAD_PLOTSTYLENAME
350
12
  3
ACAD_SCALELIST
350
14
  3
ACAD_TABLESTYLE
350
15
  3
ACAD_VISUALSTYLE
350
16
  3
EZDXF_META
350
2D
  0
DICTIONARY
  5
B
330
A
100
AcDbDictionary
281
1
  0
DICTIONARY
  5
C
330
A
100
AcDbDictionary
281
1
  0
DICTIONARY
  5
D
330
A
100
AcDbDictionary
281
1
  3
Model
350
1A
  3
Layout1
350
1E
  0
DICTIONARY
  5
E
330
A
100
AcDbDictionary
281
1
  3
ByBlock
350
1F
  3
ByLayer
350
20
  3
Global
350
21
  0
DICTIONARY
  5
F
330
A
100
AcDbDictionary
281
1
  3
Standard
350
2C
  0
DICTIONARY
  5
10
330
A
100
AcDbDictionary
281
1
  3
Standard
350
22
  0
DICTIONARY
  5
11
330
A
100
AcDbDictionary
281
1
  0
ACDBDICTIONARYWDFLT
  5
12
330
A
100
AcDbDictionary
281
1
  3
Normal
350
13
100
AcDbDictionaryWithDefault
340
13
  0
ACDBPLACEHOLDER
  5
13
330
12
  0
DICTIONARY
  5
14
330
A
100
AcDbDictionary
281
1
  0
DICTIONARY
  5
15
330
A
100
AcDbDictionary
281
1
  0
DICTIONARY
  5
16
330
A
100
AcDbDictionary
281
1
  0
LAYOUT
  5
1A
330
D
100
AcDbPlotSettings
  1

  2
Adobe PDF
  4
A3
  6

 40
7.5
 41
20.0
 42
7.5
 43
20.0
 44
420.0
 45
297.0
 46
0.0
 47
0.0
 48
0.0
 49
0.0
140
0.0
141
0.0
142
1.0
143
1.0
 70
1024
 72
1
 73
1
 74
5
  7

 75
16
 76
0
 77
2
 78
300
147
1.0
148
0.0
149
0.0
100
AcDbLayout
  1
Model
 70
1
 71
0
 10
0.0
 20
0.0
 11
420.0
 21
297.0
 12
0.0
 22
0.0
 32
0.0
 14
1e+20
 24
1e+20
 34
1e+20
 15
-1e+20
 25
-1e+20
 35
-1e+20
146
0.0
 13
0.0
 23
0.0
 33
0.0
 16
1.0
 26
0.0
 36
0.0
 17
0.0
 27
1.0
 37
0.0
 76
1
330
17
  0
LAYOUT
  5
1E
330
D
100
AcDbPlotSettings
  1

  2
Adobe PDF
  4
A3
  6

 40
7.5
 41
20.0
 42
7.5
 43
20.0
 44
420.0
 45
297.0
 46
0.0
 47
0.0
 48
0.0
 49
0.0
140
0.0
141
0.0
142
1.0
143
1.0
 70
0
 72
1
 73
1
 74
5
  7

 75
16
 76
0
 77
2
 78
300
147
1.0
148
0.0
149
0.0
100
AcDbLayout
  1
Layout1
 70
1
 71
1
 10
0.0
 20
0.0
 11
420.0
 21
297.0
 12
0.0
 22
0.0
 32
0.0
 14
1e+20
 24
1e+20
 34
1e+20
 15
-1e+20
 25
-1e+20
 35
-1e+20
146
0.0
 13
0.0
 23
0.0
 33
0.0
 16
1.0
 26
0.0
 36
0.0
 17
0.0
 27
1.0
 37
0.0
 76
1
330
1B
  0
MATERIAL
  5
1F
102
{ACAD_REACTORS
330
E
102
}
330
E
100
AcDbMaterial
  1
ByBlock
  2

 70
0
 40
1.0
 71
1
 41
1.0
 91
-1023410177
 42
1.0
 72
1
  3

 73
1
 74
1
 75
1
 44
0.5
 73
0
 45
1.0
 46
1.0
 77
1
  4

 78
1
 79
1
170
1
 48
1.0
171
1
  6

172
1
173
1
174
1
140
1.0
141
1.0
175
1
  7

176
1
177
1
178
1
143
1.0
179
1
  8

270
1
271
1
272
1
145
1.0
146
1.0
273
1
  9

274
1
275
1
276
1
 42
1.0
 72
1
  3

 73
1
 74
1
 75
1
 94
63
  0
MATERIAL
  5
20
102
{ACAD_REACTORS
330
E
102
}
330
E
100
AcDbMaterial
  1
ByLayer
  2

 70
0
 40
1.0
 71
1
 41
1.0
 91
-1023410177
 42
1.0
 72
1
  3

 73
1
 74
1
 75
1
 44
0.5
 73
0
 45
1.0
 46
1.0
 77
1
  4

 78
1
 79
1
170
1
 48
1.0
171
1
  6

172
1
173
1
174
1
140
1.0
141
1.0
175
1
  7

176
1
177
1
178
1
143
1.0
179
1
  8

270
1
271
1
272
1
145
1.0
146
1.0
273
1
  9

274
1
275
1
276
1
 42
1.0
 72
1
  3

 73
1
 74
1
 75
1
 94
63
  0
MATERIAL
  5
21
102
{ACAD_REACTORS
330
E
102
}
330
E
100
AcDbMaterial
  1
Global
  2

 70
0
 40
1.0
 71
1
 41
1.0
 91
-1023410177
 42
1.0
 72
1
  3

 73
1
 74
1
 75
1
 44
0.5
 73
0
 45
1.0
 46
1.0
 77
1
  4

 78
1
 79
1
170
1
 48
1.0
171
1
  6

172
1
173
1
174
1
140
1.0
141
1.0
175
1
  7

176
1
177
1
178
1
143
1.0
179
1
  8

270
1
271
1
272
1
145
1.0
146
1.0
273
1
  9

274
1
275
1
276
1
 42
1.0
 72
1
  3

 73
1
 74
1
 75
1
 94
63
  0
MLINESTYLE
  5
22
102
{ACAD_REACTORS
330
10
102
}
330
10
100
AcDbMlineStyle
  2
Standard
 70
0
  3

 62
256
 51
90.0
 52
90.0
 71
2
 49
0.5
 62
256
  6
BYLAYER
 49
-0.5
 62
256
  6
BYLAYER
  0
MLEADERSTYLE
  5
2C
102
{ACAD_REACTORS
330
F
102
}
330
F
100
AcDbMLeaderStyle
179
2
170
2
171
1
172
0
 90
2
 40
0.0
 41
0.0
173
1
 91
-1056964608
 92
-2
290
1
 42
2.0
291
1
 43
8.0
  3
Standard
 44
4.0
300

342
29
174
1
175
1
176
0
178
1
 93
-1056964608
 45
4.0
292
0
297
0
 46
4.0
 94
-1056964608
 47
1.0
 49
1.0
140
1.0
294
1
141
0.0
177
0
142
1.0
295
0
296
0
143
3.75
271
0
272
9
273
9
  0
DICTIONARY
  5
2D
330
A
100
AcDbDictionary
280
1
281
1
  3
CREATED_BY_EZDXF
350
2E
  3
WRITTEN_BY_EZDXF
350
56
  0
DICTIONARYVAR
  5
2E
330
2D
100
DictionaryVariables
280
0
  1
0.17.2 @ 2022-04-05T08:09:29.882731+00:00
  0
DICTIONARYVAR
  5
56
330
2D
100
DictionaryVariables
280
0
  1
0.17.2 @ 2022-04-05T08:09:29.894634+00:00
  0
ENDSEC
  0
EOF
